<svg width="150" height="151" viewBox="0 0 150 151" fill="none" xmlns="http://www.w3.org/2000/svg">
<mask id="mask0_276_1150" style="mask-type:alpha" maskUnits="userSpaceOnUse" x="0" y="0" width="150" height="151">
<g clip-path="url(#clip0_276_1150)">
<circle cx="75" cy="75.3809" r="75" fill="#F8F7F7"/>
</g>
</mask>
<g mask="url(#mask0_276_1150)">
<g clip-path="url(#clip1_276_1150)">
<path d="M150 -1.61914H-2V150.381H150V-1.61914Z" fill="#89DAC4"/>
<mask id="mask1_276_1150" style="mask-type:luminance" maskUnits="userSpaceOnUse" x="-2" y="-2" width="152" height="153">
<path d="M150 -1.61914H-2V150.381H150V-1.61914Z" fill="white"/>
</mask>
<g mask="url(#mask1_276_1150)">
<path d="M49.0235 134.345C44.7463 132.199 40.2866 132.053 38.268 132.12C37.9891 132.129 37.7173 132.031 37.5089 131.845C37.3006 131.659 37.1718 131.401 37.1493 131.122C36.8696 127.812 34.1823 127.003 32.7595 126.809C32.5178 126.776 32.2939 126.664 32.1236 126.489C31.9534 126.314 31.8465 126.087 31.8202 125.845C31.2395 120.531 27.8195 120.194 26.2965 120.315C26.0815 120.332 25.8662 120.286 25.6767 120.183C25.4873 120.08 25.3319 119.924 25.2295 119.735C23.4511 116.461 20.4627 116.391 19.0157 116.57C18.7759 116.596 18.5341 116.543 18.3276 116.418C18.121 116.293 17.9612 116.104 17.8727 115.88C15.9088 111.165 11.4066 110.63 8.89554 110.736C7.57277 110.768 6.28223 111.151 5.15634 111.846C1.29554 114.336 1.60866 119.345 1.8853 121.249C1.91136 121.456 1.86516 121.667 1.75444 121.844C1.64373 122.022 1.47526 122.156 1.2773 122.224C-2.53486 123.51 -2.41326 126.41 -2.02414 127.979C-1.98988 128.104 -1.98335 128.235 -2.005 128.363C-2.02666 128.491 -2.07598 128.613 -2.14952 128.719C-2.22306 128.826 -2.31904 128.916 -2.43075 128.982C-2.54247 129.047 -2.66722 129.088 -2.7963 129.101C-6.35918 129.46 -7.13742 131.515 -7.2803 132.725C-7.30847 132.954 -7.4227 133.164 -7.5999 133.313C-7.7771 133.461 -8.00405 133.537 -8.23486 133.524C-11.6994 133.224 -15.1895 133.575 -18.5253 134.558C-18.5901 134.588 -18.643 134.64 -18.6759 134.704C-18.7088 134.767 -18.7199 134.84 -18.7075 134.911C-18.695 134.982 -18.6598 135.046 -18.6071 135.095C-18.5545 135.144 -18.4873 135.174 -18.4158 135.181H48.829C48.9284 135.181 49.0248 135.147 49.1027 135.085C49.1805 135.023 49.2351 134.937 49.2576 134.84C49.2802 134.743 49.2693 134.642 49.2268 134.552C49.1843 134.462 49.1127 134.389 49.0235 134.345Z" fill="#C7FFEB"/>
<path d="M81.9042 28.5924C83.5813 27.7946 85.426 27.4129 87.282 27.4797C87.4215 27.4849 87.5576 27.4359 87.6619 27.3429C87.7661 27.25 87.8304 27.1204 87.8413 26.9812C87.9812 25.3244 89.3248 24.9201 90.0362 24.8228C90.1572 24.8071 90.2695 24.7513 90.3549 24.6642C90.4404 24.5771 90.4941 24.4638 90.5074 24.3425C90.8114 21.6855 92.5077 21.5153 93.2677 21.5761C93.377 21.5841 93.4862 21.5594 93.5814 21.5053C93.6767 21.4512 93.7537 21.37 93.8028 21.2721C94.0849 20.712 94.5383 20.2565 95.097 19.9716C95.6557 19.6868 96.2906 19.5875 96.9096 19.6882C97.027 19.7009 97.1453 19.6756 97.2471 19.6159C97.3489 19.5562 97.4288 19.4654 97.4751 19.3569C98.457 16.9978 100.707 16.7303 101.962 16.785C102.623 16.8007 103.268 16.9916 103.832 17.3383C105.762 18.5847 105.607 21.0897 105.467 22.0412C105.453 22.145 105.476 22.2503 105.532 22.3391C105.587 22.4279 105.672 22.4945 105.771 22.5276C107.677 23.1721 107.617 24.6221 107.422 25.4065C107.406 25.4685 107.404 25.5331 107.416 25.596C107.427 25.659 107.452 25.7187 107.489 25.7711C107.525 25.8236 107.573 25.8675 107.628 25.9001C107.683 25.9326 107.744 25.953 107.808 25.9597C109.589 26.1391 109.979 27.1757 110.052 27.7837C110.066 27.8974 110.124 28.0012 110.212 28.0736C110.301 28.1461 110.415 28.1816 110.529 28.1729C112.261 28.024 114.005 28.1992 115.673 28.6897C115.702 28.7061 115.725 28.7311 115.74 28.7613C115.754 28.7915 115.759 28.8255 115.754 28.8586C115.749 28.8917 115.733 28.9224 115.71 28.9465C115.687 28.9707 115.657 28.9871 115.624 28.9937H81.9954C81.9508 28.9881 81.909 28.9689 81.8757 28.9387C81.8423 28.9085 81.8191 28.8688 81.8092 28.825C81.7992 28.7811 81.803 28.7353 81.82 28.6937C81.837 28.6521 81.8664 28.6167 81.9042 28.5924Z" fill="#C7FFEB"/>
<path d="M107.744 90.5263C107.819 90.5266 107.892 90.5038 107.953 90.461C108.014 90.4181 108.061 90.3574 108.086 90.2871C108.111 90.2168 108.114 90.1404 108.094 90.0684C108.074 89.9963 108.033 89.9322 107.975 89.8848C107.489 89.5039 106.879 89.3165 106.263 89.3589C106.2 89.3634 106.136 89.3547 106.076 89.3332C106.015 89.3118 105.96 89.2781 105.914 89.2343C105.418 88.7631 103.692 87.3616 101.755 88.7023C101.69 88.7465 101.614 88.7726 101.536 88.778C101.457 88.7833 101.379 88.7677 101.308 88.7327C100.7 88.4287 99.0526 87.8207 97.6603 89.1674C97.6108 89.2174 97.5506 89.2554 97.4842 89.2786C97.4178 89.3017 97.3471 89.3095 97.2772 89.3012C96.5081 89.1978 93.9332 88.9455 92.7537 89.8696C92.6962 89.9195 92.6552 89.9856 92.6363 90.0594C92.6173 90.1331 92.6214 90.2109 92.6478 90.2822C92.6742 90.3536 92.7218 90.4152 92.7842 90.4588C92.8466 90.5024 92.9208 90.526 92.9969 90.5263H107.744Z" fill="#C7FFEB"/>
<path d="M57.2804 113.141C55.9554 112.769 54.5761 112.631 53.2037 112.73C52.9979 112.75 52.7918 112.695 52.6231 112.575C52.5744 112.527 52.5228 112.475 52.465 112.426C52.4236 112.38 52.3898 112.328 52.3647 112.271C52.0607 111.663 51.328 110.724 49.504 110.724C49.1005 110.731 48.7035 110.827 48.3413 111.005C47.9792 111.183 47.661 111.439 47.4095 111.755C47.2967 111.895 47.1451 111.998 46.9736 112.052C46.8021 112.106 46.6185 112.109 46.4458 112.059C45.3149 111.755 42.968 111.396 41.217 112.904C41.1668 112.949 41.1313 113.008 41.1152 113.073C41.0991 113.139 41.1031 113.207 41.1268 113.27C41.1504 113.334 41.1926 113.388 41.2478 113.427C41.3029 113.465 41.3685 113.487 41.4359 113.487H57.2439C57.2821 113.48 57.3169 113.46 57.3431 113.432C57.3694 113.403 57.3858 113.366 57.3899 113.328C57.3939 113.289 57.3855 113.25 57.3658 113.216C57.3461 113.183 57.3162 113.156 57.2804 113.141Z" fill="#C7FFEB"/>
<path d="M38.101 41.3574C36.8716 41.1457 35.6236 41.0621 34.377 41.1081C34.1021 41.1113 33.8328 41.0307 33.6049 40.877C33.1124 40.5457 31.9359 40.0167 29.6285 40.1505C29.3272 40.1689 29.0288 40.0831 28.7834 39.9073C27.917 39.2993 25.6005 38.0194 23.1138 39.7431C22.9593 39.8504 22.7834 39.923 22.5982 39.9561C22.413 39.9891 22.2228 39.9818 22.0407 39.9346C21.4311 39.759 20.7892 39.7264 20.165 39.8392C19.5407 39.952 18.9509 40.2073 18.4413 40.5852C18.1893 40.7698 17.8806 40.8602 17.5689 40.8406C16.4897 40.7798 14.0455 40.725 13.17 41.3999C13.1374 41.4264 13.1137 41.4623 13.1024 41.5028C13.091 41.5432 13.0924 41.5862 13.1063 41.6258C13.1203 41.6654 13.1462 41.6997 13.1805 41.724C13.2147 41.7484 13.2556 41.7615 13.2977 41.7617H38.0585C38.1102 41.7638 38.1608 41.7462 38.2001 41.7124C38.2393 41.6785 38.2641 41.631 38.2696 41.5795C38.275 41.528 38.2606 41.4763 38.2293 41.4351C38.1979 41.3938 38.1521 41.366 38.101 41.3574Z" fill="#C7FFEB"/>
<path d="M45.6552 29.4649C43.8855 29.0996 42.0812 28.9293 40.2744 28.9572C40.0323 28.9596 39.7985 28.8693 39.6208 28.7049C38.8973 28.0361 36.6082 26.3489 32.4403 26.9569C32.299 26.9768 32.1549 26.9632 32.0197 26.9173C31.8846 26.8713 31.7621 26.7943 31.6621 26.6924C30.8627 25.8745 29.9008 25.2331 28.8384 24.8095C27.7761 24.3859 26.6368 24.1896 25.4939 24.233C25.2996 24.2433 25.1069 24.1922 24.9432 24.0869C24.7795 23.9816 24.6531 23.8275 24.5819 23.6463C23.9982 22.1111 21.9371 18.378 15.6656 18.2169C9.76193 18.0709 7.69777 20.5729 7.03201 21.8497C6.93235 22.0381 6.76983 22.1857 6.57268 22.2668C6.37553 22.3479 6.15621 22.3573 5.95281 22.2935C4.44801 21.8406 1.07057 21.2508 -1.64719 23.9108C-1.7483 24.0105 -1.87132 24.0853 -2.00643 24.1291C-2.14155 24.1729 -2.28502 24.1846 -2.42543 24.1631C-3.59583 23.9929 -6.73311 23.8105 -8.38991 26.3701C-8.47424 26.5041 -8.59138 26.6144 -8.73022 26.6905C-8.86907 26.7665 -9.02503 26.8059 -9.18335 26.8049C-10.3325 26.7806 -13.029 26.9842 -13.8984 29.3068C-13.9555 29.4608 -14.0032 29.6182 -14.0413 29.778C-14.0545 29.8384 -14.0539 29.901 -14.0397 29.9611C-14.0255 30.0213 -13.998 30.0775 -13.9592 30.1256C-13.9204 30.1737 -13.8713 30.2126 -13.8156 30.2392C-13.7598 30.2658 -13.6988 30.2796 -13.637 30.2796H45.564C45.5821 30.2826 45.6006 30.2826 45.6187 30.2796C45.7193 30.2727 45.8138 30.229 45.8842 30.1569C45.9547 30.0847 45.9961 29.9892 46.0006 29.8885C46.0051 29.7878 45.9724 29.689 45.9087 29.6108C45.845 29.5327 45.7548 29.4807 45.6552 29.4649Z" fill="#C7FFEB"/>
<path d="M141.43 120.379C139.661 120.014 137.856 119.844 136.049 119.871C135.807 119.874 135.574 119.784 135.396 119.619C134.672 118.95 132.377 117.251 128.215 117.874C128.074 117.894 127.93 117.88 127.795 117.835C127.66 117.789 127.537 117.712 127.437 117.61C126.638 116.792 125.676 116.15 124.614 115.727C123.551 115.303 122.412 115.107 121.269 115.15C121.075 115.161 120.882 115.109 120.718 115.004C120.555 114.899 120.428 114.745 120.357 114.564C119.773 113.028 117.712 109.295 111.441 109.134C105.546 108.985 103.482 111.484 102.816 112.764C102.717 112.952 102.554 113.1 102.357 113.181C102.16 113.262 101.94 113.272 101.737 113.208C100.232 112.755 96.8547 112.165 94.137 114.825C94.0359 114.925 93.9129 115 93.7777 115.043C93.6426 115.087 93.4992 115.099 93.3587 115.077C92.1883 114.907 89.0511 114.725 87.3943 117.284C87.3099 117.418 87.1928 117.529 87.054 117.605C86.9151 117.681 86.7591 117.72 86.6008 117.719C85.4517 117.695 82.7552 117.898 81.8858 120.221C81.8287 120.375 81.781 120.532 81.7429 120.692C81.7297 120.753 81.7303 120.815 81.7445 120.875C81.7587 120.935 81.7862 120.992 81.8249 121.04C81.8637 121.088 81.9128 121.127 81.9686 121.153C82.0244 121.18 82.0854 121.194 82.1472 121.194H141.339C141.357 121.197 141.376 121.197 141.394 121.194C141.494 121.187 141.589 121.143 141.659 121.071C141.73 120.999 141.771 120.903 141.776 120.803C141.78 120.702 141.747 120.603 141.684 120.525C141.62 120.447 141.53 120.395 141.43 120.379Z" fill="#C7FFEB"/>
</g>
<mask id="mask2_276_1150" style="mask-type:luminance" maskUnits="userSpaceOnUse" x="-2" y="-2" width="152" height="153">
<path d="M150 -1.61914H-2V150.381H150V-1.61914Z" fill="white"/>
</mask>
<g mask="url(#mask2_276_1150)">
<path d="M127.653 135.181H120.597V150.381H127.653V135.181Z" fill="#3D4B5E"/>
<path d="M142.865 19.6973V52.6175C142.865 53.0206 142.705 53.4072 142.42 53.6923C142.135 53.9773 141.749 54.1375 141.345 54.1375H106.917C106.514 54.1375 106.128 53.9773 105.843 53.6923C105.558 53.4072 105.397 53.0206 105.397 52.6175V19.6973H142.865Z" fill="#4A596A"/>
<path d="M142.865 15.1434V19.7034H105.388V15.1434C105.388 14.7403 105.548 14.3537 105.833 14.0686C106.118 13.7835 106.505 13.6234 106.908 13.6234H141.333C141.534 13.6218 141.733 13.6599 141.919 13.7356C142.104 13.8113 142.273 13.923 142.416 14.0643C142.558 14.2056 142.671 14.3737 142.748 14.5589C142.826 14.7441 142.865 14.9428 142.865 15.1434Z" fill="#57697A"/>
<path d="M111.763 17.8368C111.763 18.1976 111.656 18.5502 111.456 18.8502C111.255 19.1501 110.971 19.3839 110.637 19.522C110.304 19.66 109.937 19.6961 109.583 19.6258C109.23 19.5554 108.905 19.3817 108.649 19.1266C108.394 18.8715 108.221 18.5465 108.15 18.1927C108.08 17.8388 108.116 17.4721 108.254 17.1388C108.392 16.8055 108.626 16.5206 108.926 16.3202C109.226 16.1198 109.578 16.0128 109.939 16.0128C110.423 16.0128 110.887 16.205 111.229 16.5471C111.571 16.8891 111.763 17.3531 111.763 17.8368Z" fill="#4A596A"/>
<path d="M140.16 17.8368C140.16 18.1976 140.053 18.5502 139.852 18.8502C139.652 19.1501 139.367 19.3839 139.034 19.522C138.7 19.66 138.334 19.6961 137.98 19.6258C137.626 19.5554 137.301 19.3817 137.046 19.1266C136.791 18.8715 136.617 18.5465 136.547 18.1927C136.476 17.8388 136.513 17.4721 136.651 17.1388C136.789 16.8055 137.022 16.5206 137.322 16.3202C137.622 16.1198 137.975 16.0128 138.336 16.0128C138.819 16.0128 139.283 16.205 139.625 16.5471C139.968 16.8891 140.16 17.3531 140.16 17.8368Z" fill="#4A596A"/>
<path d="M111.763 49.8997C111.763 50.2605 111.656 50.6131 111.456 50.9131C111.255 51.2131 110.971 51.4468 110.637 51.5849C110.304 51.723 109.937 51.7591 109.583 51.6887C109.23 51.6183 108.905 51.4446 108.649 51.1895C108.394 50.9344 108.221 50.6094 108.15 50.2556C108.08 49.9018 108.116 49.535 108.254 49.2017C108.392 48.8684 108.626 48.5836 108.926 48.3831C109.226 48.1827 109.578 48.0757 109.939 48.0757C110.423 48.0757 110.887 48.2679 111.229 48.61C111.571 48.952 111.763 49.416 111.763 49.8997Z" fill="#3D4B5E"/>
<path d="M140.16 49.8997C140.16 50.2605 140.053 50.6131 139.852 50.9131C139.652 51.2131 139.367 51.4468 139.034 51.5849C138.7 51.723 138.334 51.7591 137.98 51.6887C137.626 51.6183 137.301 51.4446 137.046 51.1895C136.791 50.9344 136.617 50.6094 136.547 50.2556C136.476 49.9018 136.513 49.535 136.651 49.2017C136.789 48.8684 137.022 48.5836 137.322 48.3831C137.622 48.1827 137.975 48.0757 138.336 48.0757C138.819 48.0757 139.283 48.2679 139.625 48.61C139.968 48.952 140.16 49.416 140.16 49.8997Z" fill="#3D4B5E"/>
<path d="M105.388 19.6608H92.6568C92.3885 19.6618 92.1251 19.733 91.8929 19.8674C91.6608 20.0019 91.4679 20.1948 91.3335 20.427C91.1991 20.6592 91.1279 20.9225 91.127 21.1908C91.1261 21.4591 91.1955 21.7229 91.3283 21.956L99.6457 36.773C100.219 37.7956 101.054 38.6469 102.066 39.2395C103.077 39.8321 104.228 40.1444 105.4 40.1444L105.388 19.6608Z" fill="#3D4B5E"/>
<path d="M142.865 19.6608H155.597C155.865 19.6612 156.128 19.7315 156.361 19.865C156.593 19.9985 156.787 20.1904 156.922 20.4217C157.058 20.653 157.13 20.9157 157.133 21.1838C157.136 21.4519 157.068 21.716 156.937 21.9499L148.62 36.7669C148.047 37.7893 147.211 38.6405 146.2 39.233C145.188 39.8255 144.037 40.138 142.865 40.1383V19.6608Z" fill="#3D4B5E"/>
<path d="M137.932 37.1966C139.77 29.5728 135.081 21.902 127.457 20.0632C119.833 18.2245 112.162 22.9141 110.323 30.5379C108.485 38.1616 113.174 45.8325 120.798 47.6713C128.422 49.51 136.093 44.8203 137.932 37.1966Z" fill="#3D4B5E"/>
<g filter="url(#filter0_d_276_1150)">
<path d="M135.071 28.1059C133.665 25.4315 131.329 23.3642 128.504 22.2941C125.679 21.2239 122.559 21.2251 119.735 22.2973C116.91 23.3696 114.576 25.4387 113.172 28.1141C111.769 30.7896 111.393 33.8862 112.116 36.8196C112.84 39.753 114.612 42.3201 117.098 44.0364C119.585 45.7528 122.613 46.4995 125.612 46.1358C128.612 45.7721 131.374 44.323 133.378 42.0621C135.382 39.8012 136.489 36.8849 136.49 33.8637C136.491 31.8577 136.004 29.8816 135.071 28.1059Z" fill="#9AEDD3"/>
</g>
<path d="M136.491 33.8637C136.49 35.7392 136.062 37.59 135.24 39.2758C134.419 40.9617 133.224 42.4385 131.747 43.5944C130.27 44.7504 128.55 45.5552 126.716 45.9479C124.882 46.3406 122.983 46.311 121.162 45.8612C119.341 45.4114 117.646 44.5532 116.206 43.3517C114.766 42.1502 113.618 40.6368 112.85 38.9261C112.081 37.2154 111.711 35.3522 111.769 33.4776C111.827 31.603 112.31 29.7661 113.183 28.106C114.233 30.099 115.807 31.7674 117.736 32.9313C119.664 34.0952 121.874 34.7103 124.127 34.7103C126.38 34.7103 128.589 34.0952 130.518 32.9313C132.447 31.7674 134.021 30.099 135.071 28.106C136.006 29.881 136.493 31.8575 136.491 33.8637Z" fill="#89DAC4"/>
<path d="M135.071 28.1059C134.021 30.0989 132.446 31.7674 130.518 32.9313C128.589 34.0952 126.379 34.7103 124.127 34.7103C121.874 34.7103 119.664 34.0952 117.735 32.9313C115.807 31.7674 114.233 30.0989 113.183 28.1059C114.233 26.113 115.807 24.4445 117.735 23.2806C119.664 22.1167 121.874 21.5016 124.127 21.5016C126.379 21.5016 128.589 22.1167 130.518 23.2806C132.446 24.4445 134.021 26.113 135.071 28.1059Z" fill="#9AEDD3"/>
<path d="M114.657 35.0311C114.687 36.1197 115.14 37.154 115.92 37.9136C116.701 38.6733 117.747 39.0983 118.836 39.0983C119.925 39.0983 120.971 38.6733 121.751 37.9136C122.532 37.154 122.985 36.1197 123.014 35.0311C123.014 34.6656 122.966 34.3019 122.871 33.9488L124.185 35.3077C124.222 35.3457 124.266 35.3757 124.315 35.3961C124.364 35.4165 124.417 35.4267 124.47 35.4263H125.258C125.344 36.3366 125.726 37.1938 126.345 37.8663C126.965 38.5388 127.788 38.9895 128.688 39.1494C129.589 39.3094 130.516 39.1696 131.33 38.7517C132.143 38.3337 132.797 37.6606 133.191 36.8355C133.585 36.0103 133.698 35.0787 133.512 34.1834C133.326 33.2881 132.851 32.4785 132.161 31.8787C131.471 31.2789 130.603 30.922 129.69 30.8627C128.778 30.8033 127.871 31.0449 127.109 31.5503L126.082 30.2795L126.361 28.9267H127.389C127.444 28.9316 127.499 28.9249 127.551 28.9071C127.604 28.8894 127.652 28.861 127.693 28.8236C127.733 28.7863 127.766 28.741 127.788 28.6904C127.81 28.6399 127.822 28.5852 127.822 28.53C127.822 28.4748 127.81 28.4202 127.788 28.3696C127.766 28.3191 127.733 28.2737 127.693 28.2364C127.652 28.1991 127.604 28.1706 127.551 28.1529C127.499 28.1351 127.444 28.1285 127.389 28.1333H124.251C124.152 28.142 124.06 28.1875 123.993 28.261C123.925 28.3344 123.888 28.4304 123.888 28.53C123.888 28.6296 123.925 28.7256 123.993 28.799C124.06 28.8725 124.152 28.918 124.251 28.9267H125.55L125.331 29.9877H120.467L120.686 28.9267H122.367C122.466 28.918 122.558 28.8725 122.626 28.799C122.693 28.7256 122.73 28.6296 122.73 28.53C122.73 28.4304 122.693 28.3344 122.626 28.261C122.558 28.1875 122.466 28.142 122.367 28.1333H120.363C120.274 28.1333 120.187 28.1633 120.116 28.2184C120.046 28.2734 119.996 28.3505 119.974 28.4373L119.467 30.9088C119.258 30.8783 119.048 30.8631 118.837 30.8632C117.731 30.8632 116.669 31.3019 115.886 32.0832C115.102 32.8645 114.66 33.9246 114.657 35.0311ZM128.587 34.6359H126.063C126.149 33.8963 126.478 33.2059 126.997 32.672L128.587 34.6359ZM126.06 35.4263H129.404C129.479 35.427 129.553 35.4062 129.617 35.3663C129.68 35.3265 129.731 35.2692 129.763 35.2013C129.795 35.1338 129.807 35.0587 129.799 34.9846C129.79 34.9104 129.761 34.8401 129.714 34.7818L127.602 32.1735C128.221 31.7823 128.952 31.6032 129.682 31.6632C130.413 31.7231 131.104 32.0189 131.652 32.5059C132.199 32.9929 132.574 33.6447 132.719 34.3632C132.864 35.0816 132.772 35.8277 132.456 36.4891C132.14 37.1505 131.618 37.6914 130.968 38.0301C130.318 38.3689 129.575 38.4872 128.852 38.3672C128.129 38.2473 127.465 37.8956 126.959 37.3652C126.453 36.8347 126.134 36.1542 126.048 35.4263H126.06ZM120.914 30.7811H125.474L126.501 32.0488C125.798 32.7389 125.361 33.6551 125.267 34.6359H124.659L120.914 30.7811ZM115.457 35.0371C115.456 34.5538 115.559 34.0759 115.759 33.6359C115.959 33.1959 116.251 32.8041 116.616 32.4869C116.981 32.1698 117.409 31.9348 117.873 31.7978C118.336 31.6608 118.824 31.6251 119.302 31.6931L118.624 34.9611C118.603 35.0635 118.623 35.1703 118.68 35.2581C118.737 35.3458 118.826 35.4074 118.928 35.4293H119.007C119.097 35.4298 119.184 35.4 119.255 35.3449C119.325 35.2897 119.375 35.2124 119.397 35.1253L120.068 31.8968C120.641 32.1213 121.141 32.4977 121.516 32.9855C121.89 33.4733 122.124 34.0539 122.193 34.665C122.262 35.276 122.163 35.8943 121.907 36.4532C121.651 37.0121 121.247 37.4906 120.739 37.837C120.23 38.1834 119.638 38.3846 119.024 38.4191C118.41 38.4535 117.798 38.3199 117.254 38.0325C116.711 37.7451 116.256 37.3149 115.938 36.7882C115.621 36.2614 115.454 35.6581 115.454 35.0432L115.457 35.0371Z" fill="white"/>
<path d="M142.865 60.2144V93.1346C142.865 93.5377 142.705 93.9243 142.42 94.2094C142.135 94.4944 141.749 94.6546 141.345 94.6546H106.917C106.514 94.6546 106.128 94.4944 105.843 94.2094C105.558 93.9243 105.397 93.5377 105.397 93.1346V60.2144H142.865Z" fill="#4A596A"/>
<path d="M142.865 55.6606V60.2206H105.388V55.6606C105.388 55.2574 105.548 54.8708 105.833 54.5857C106.118 54.3007 106.505 54.1406 106.908 54.1406H141.333C141.534 54.1389 141.733 54.1771 141.919 54.2527C142.104 54.3284 142.273 54.4401 142.416 54.5814C142.558 54.7227 142.671 54.8908 142.748 55.0761C142.826 55.2613 142.865 55.4599 142.865 55.6606Z" fill="#3D4B5E"/>
<path d="M111.763 58.3631C111.763 58.7238 111.656 59.0765 111.456 59.3764C111.255 59.6764 110.971 59.9102 110.637 60.0482C110.304 60.1863 109.937 60.2224 109.583 60.152C109.23 60.0816 108.905 59.9079 108.649 59.6528C108.394 59.3977 108.221 59.0727 108.15 58.7189C108.08 58.3651 108.116 57.9983 108.254 57.665C108.392 57.3318 108.626 57.0469 108.926 56.8465C109.226 56.646 109.578 56.5391 109.939 56.5391C110.423 56.5391 110.887 56.7312 111.229 57.0733C111.571 57.4154 111.763 57.8793 111.763 58.3631Z" fill="#4A596A"/>
<path d="M140.16 58.3631C140.16 58.7238 140.053 59.0765 139.852 59.3764C139.652 59.6764 139.367 59.9102 139.034 60.0482C138.7 60.1863 138.334 60.2224 137.98 60.152C137.626 60.0816 137.301 59.9079 137.046 59.6528C136.791 59.3977 136.617 59.0727 136.547 58.7189C136.476 58.3651 136.513 57.9983 136.651 57.665C136.789 57.3318 137.022 57.0469 137.322 56.8465C137.622 56.646 137.975 56.5391 138.336 56.5391C138.819 56.5391 139.283 56.7312 139.625 57.0733C139.968 57.4154 140.16 57.8793 140.16 58.3631Z" fill="#4A596A"/>
<path d="M111.763 90.432C111.763 90.7928 111.656 91.1454 111.456 91.4454C111.255 91.7454 110.971 91.9791 110.637 92.1172C110.304 92.2553 109.937 92.2914 109.583 92.221C109.23 92.1506 108.905 91.9769 108.649 91.7218C108.394 91.4667 108.221 91.1417 108.15 90.7879C108.08 90.4341 108.116 90.0673 108.254 89.734C108.392 89.4007 108.626 89.1159 108.926 88.9154C109.226 88.715 109.578 88.608 109.939 88.608C110.423 88.608 110.887 88.8002 111.229 89.1423C111.571 89.4843 111.763 89.9483 111.763 90.432Z" fill="#3D4B5E"/>
<path d="M140.16 90.432C140.16 90.7928 140.053 91.1454 139.852 91.4454C139.652 91.7454 139.367 91.9791 139.034 92.1172C138.7 92.2553 138.334 92.2914 137.98 92.221C137.626 92.1506 137.301 91.9769 137.046 91.7218C136.791 91.4667 136.617 91.1417 136.547 90.7879C136.476 90.4341 136.513 90.0673 136.651 89.734C136.789 89.4007 137.022 89.1159 137.322 88.9154C137.622 88.715 137.975 88.608 138.336 88.608C138.819 88.608 139.283 88.8002 139.625 89.1423C139.968 89.4843 140.16 89.9483 140.16 90.432Z" fill="#3D4B5E"/>
<path d="M105.388 60.1992H92.6567C92.3882 60.1986 92.1244 60.2685 91.8913 60.4017C91.6583 60.5349 91.4643 60.7269 91.3286 60.9586C91.193 61.1902 91.1204 61.4534 91.1182 61.7218C91.116 61.9902 91.1842 62.2545 91.316 62.4883L99.6335 77.3083C100.207 78.3301 101.043 79.1807 102.054 79.7727C103.066 80.3647 104.216 80.6767 105.388 80.6767V60.1992Z" fill="#3D4B5E"/>
<path d="M142.865 60.1992H155.597C155.865 60.1995 156.128 60.2699 156.361 60.4034C156.593 60.5369 156.787 60.7288 156.922 60.9601C157.058 61.1914 157.13 61.4541 157.133 61.7222C157.136 61.9903 157.068 62.2544 156.937 62.4883L148.62 77.3083C148.046 78.3299 147.21 79.1803 146.199 79.7723C145.188 80.3642 144.037 80.6764 142.865 80.6767V60.1992Z" fill="#3D4B5E"/>
<path d="M124.127 88.5806C131.969 88.5806 138.326 82.2232 138.326 74.3808C138.326 66.5385 131.969 60.181 124.127 60.181C116.284 60.181 109.927 66.5385 109.927 74.3808C109.927 82.2232 116.284 88.5806 124.127 88.5806Z" fill="#3D4B5E"/>
<path d="M136.491 74.3809C136.49 76.2564 136.062 78.1071 135.24 79.793C134.419 81.4788 133.224 82.9556 131.747 84.1116C130.27 85.2675 128.55 86.0723 126.716 86.4651C124.882 86.8578 122.983 86.8281 121.162 86.3783C119.341 85.9285 117.646 85.0704 116.206 83.8689C114.766 82.6674 113.618 81.154 112.85 79.4433C112.081 77.7326 111.711 75.8694 111.769 73.9948C111.827 72.1202 112.31 70.2833 113.183 68.6231C114.233 70.6161 115.807 72.2846 117.736 73.4484C119.664 74.6123 121.874 75.2275 124.127 75.2275C126.38 75.2275 128.589 74.6123 130.518 73.4484C132.447 72.2846 134.021 70.6161 135.071 68.6231C136.006 70.3982 136.493 72.3747 136.491 74.3809Z" fill="#F3D064"/>
<path d="M135.071 68.6231C134.021 70.6161 132.446 72.2846 130.518 73.4484C128.589 74.6123 126.379 75.2275 124.127 75.2275C121.874 75.2275 119.664 74.6123 117.735 73.4484C115.807 72.2846 114.233 70.6161 113.183 68.6231C114.233 66.6301 115.807 64.9616 117.735 63.7978C119.664 62.6339 121.874 62.0187 124.127 62.0187C126.379 62.0187 128.589 62.6339 130.518 63.7978C132.446 64.9616 134.021 66.6301 135.071 68.6231Z" fill="#FFDC7B"/>
<path d="M142.865 100.732V133.661C142.865 134.064 142.705 134.451 142.42 134.736C142.135 135.021 141.749 135.181 141.345 135.181H106.917C106.514 135.181 106.128 135.021 105.843 134.736C105.558 134.451 105.397 134.064 105.397 133.661V100.732H142.865Z" fill="#4A596A"/>
<path d="M142.865 96.1776V100.738H105.388V96.1776C105.388 95.7745 105.548 95.3879 105.833 95.1028C106.118 94.8178 106.505 94.6576 106.908 94.6576H141.333C141.534 94.656 141.733 94.6942 141.919 94.7698C142.104 94.8455 142.273 94.9572 142.416 95.0985C142.558 95.2398 142.671 95.4079 142.748 95.5931C142.826 95.7784 142.865 95.977 142.865 96.1776Z" fill="#3D4B5E"/>
<path d="M111.763 98.862C111.763 99.2227 111.656 99.5754 111.456 99.8753C111.255 100.175 110.971 100.409 110.637 100.547C110.304 100.685 109.937 100.721 109.583 100.651C109.23 100.581 108.905 100.407 108.649 100.152C108.394 99.8966 108.221 99.5716 108.15 99.2178C108.08 98.864 108.116 98.4972 108.254 98.1639C108.392 97.8307 108.626 97.5458 108.926 97.3454C109.226 97.1449 109.578 97.038 109.939 97.038C110.423 97.038 110.887 97.2301 111.229 97.5722C111.571 97.9143 111.763 98.3782 111.763 98.862Z" fill="#4A596A"/>
<path d="M140.16 98.862C140.16 99.2227 140.053 99.5754 139.852 99.8753C139.652 100.175 139.367 100.409 139.034 100.547C138.7 100.685 138.334 100.721 137.98 100.651C137.626 100.581 137.301 100.407 137.046 100.152C136.791 99.8966 136.617 99.5716 136.547 99.2178C136.476 98.864 136.513 98.4972 136.651 98.1639C136.789 97.8307 137.022 97.5458 137.322 97.3454C137.622 97.1449 137.975 97.038 138.336 97.038C138.819 97.038 139.283 97.2301 139.625 97.5722C139.968 97.9143 140.16 98.3782 140.16 98.862Z" fill="#4A596A"/>
<path d="M111.763 130.925C111.763 131.286 111.656 131.638 111.456 131.938C111.255 132.238 110.971 132.472 110.637 132.61C110.304 132.748 109.937 132.784 109.583 132.714C109.23 132.643 108.905 132.47 108.649 132.215C108.394 131.96 108.221 131.634 108.15 131.281C108.08 130.927 108.116 130.56 108.254 130.227C108.392 129.894 108.626 129.609 108.926 129.408C109.226 129.208 109.578 129.101 109.939 129.101C110.423 129.101 110.887 129.293 111.229 129.635C111.571 129.977 111.763 130.441 111.763 130.925Z" fill="#3D4B5E"/>
<path d="M140.16 130.925C140.16 131.286 140.053 131.638 139.852 131.938C139.652 132.238 139.367 132.472 139.034 132.61C138.7 132.748 138.334 132.784 137.98 132.714C137.626 132.643 137.301 132.47 137.046 132.215C136.791 131.96 136.617 131.634 136.547 131.281C136.476 130.927 136.513 130.56 136.651 130.227C136.789 129.894 137.022 129.609 137.322 129.408C137.622 129.208 137.975 129.101 138.336 129.101C138.819 129.101 139.283 129.293 139.625 129.635C139.968 129.977 140.16 130.441 140.16 130.925Z" fill="#3D4B5E"/>
<path d="M105.388 100.732H92.6567C92.3882 100.732 92.1244 100.802 91.8914 100.936C91.6585 101.069 91.4647 101.261 91.3291 101.493C91.1935 101.725 91.121 101.988 91.1187 102.257C91.1164 102.525 91.1845 102.79 91.3161 103.024L99.6335 117.853C100.21 118.87 101.047 119.716 102.058 120.303C103.07 120.891 104.219 121.199 105.388 121.197V100.732Z" fill="#3D4B5E"/>
<path d="M142.865 100.732H155.597C155.865 100.732 156.129 100.802 156.362 100.936C156.595 101.069 156.789 101.261 156.924 101.493C157.06 101.725 157.132 101.988 157.135 102.257C157.137 102.525 157.069 102.79 156.937 103.024L148.62 117.853C148.043 118.87 147.206 119.715 146.195 120.303C145.184 120.891 144.035 121.199 142.865 121.197V100.732Z" fill="#3D4B5E"/>
<path d="M134.168 124.938C139.713 119.393 139.713 110.402 134.168 104.857C128.622 99.3113 119.632 99.3113 114.086 104.857C108.541 110.402 108.541 119.393 114.086 124.938C119.632 130.484 128.622 130.484 134.168 124.938Z" fill="#3D4B5E"/>
<path d="M136.491 114.895C136.49 116.77 136.062 118.621 135.24 120.307C134.419 121.993 133.224 123.47 131.747 124.626C130.27 125.782 128.55 126.586 126.716 126.979C124.882 127.372 122.983 127.342 121.162 126.892C119.341 126.443 117.646 125.584 116.206 124.383C114.766 123.181 113.618 121.668 112.85 119.957C112.081 118.247 111.711 116.383 111.769 114.509C111.827 112.634 112.31 110.797 113.183 109.137C114.233 111.13 115.807 112.799 117.736 113.962C119.664 115.126 121.874 115.742 124.127 115.742C126.38 115.742 128.589 115.126 130.518 113.962C132.447 112.799 134.021 111.13 135.071 109.137C136.006 110.912 136.493 112.889 136.491 114.895Z" fill="#E2725C"/>
<path d="M135.071 109.137C134.021 111.13 132.446 112.799 130.518 113.962C128.589 115.126 126.379 115.741 124.127 115.741C121.874 115.741 119.664 115.126 117.735 113.962C115.807 112.799 114.233 111.13 113.183 109.137C114.233 107.144 115.807 105.476 117.735 104.312C119.664 103.148 121.874 102.533 124.127 102.533C126.379 102.533 128.589 103.148 130.518 104.312C132.446 105.476 134.021 107.144 135.071 109.137Z" fill="#FF8983"/>
</g>
<path d="M18.8396 47.9609H14.3402V44.9471C14.3402 44.0707 14.2903 43.5256 14.1906 43.3119C14.0979 43.091 13.8878 42.9806 13.56 42.9806C13.1895 42.9806 12.9544 43.1124 12.8546 43.376C12.7549 43.6396 12.705 44.2096 12.705 45.086V53.123C12.705 53.9637 12.7549 54.5124 12.8546 54.7689C12.9544 55.0254 13.1788 55.1536 13.5279 55.1536C13.8628 55.1536 14.0801 55.0254 14.1799 54.7689C14.2868 54.5124 14.3402 53.9103 14.3402 52.9627V50.7931H18.8396V51.4664C18.8396 53.2548 18.7114 54.5231 18.4549 55.2712C18.2055 56.0193 17.6462 56.6748 16.7769 57.2377C15.9148 57.8006 14.8496 58.082 13.5814 58.082C12.2633 58.082 11.1767 57.8433 10.3217 57.3659C9.46669 56.8886 8.90025 56.2295 8.62238 55.3887C8.3445 54.5409 8.20557 53.2691 8.20557 51.5733V46.5181C8.20557 45.2712 8.24832 44.3379 8.33382 43.718C8.41932 43.091 8.67225 42.4889 9.09263 41.9118C9.52013 41.3347 10.1079 40.8822 10.8561 40.5545C11.6113 40.2196 12.477 40.0522 13.4531 40.0522C14.7784 40.0522 15.8721 40.3087 16.7342 40.8217C17.5963 41.3347 18.1628 41.9759 18.4335 42.7454C18.7043 43.5078 18.8396 44.6977 18.8396 46.3151V47.9609Z" fill="black"/>
<path d="M30.3287 53.978C30.3287 55.4244 30.0116 56.4112 29.3775 56.9384C28.7505 57.4586 27.3825 57.7186 25.2735 57.7186H20.3252V43.5363H25.4231C27.1688 43.5363 28.3693 43.8249 29.0248 44.402C29.6874 44.9791 30.0188 45.9659 30.0188 47.3624C30.0188 48.9656 29.1851 49.8776 27.5179 50.0984C28.3871 50.2409 29.0711 50.5829 29.5699 51.1244C30.0758 51.6588 30.3287 52.3321 30.3287 53.1444V53.978ZM24.6109 48.8052C25.2664 48.8052 25.6654 48.7233 25.8079 48.5594C25.9575 48.3956 26.0323 48.0714 26.0323 47.5869C26.0323 47.1807 25.9504 46.8993 25.7865 46.7426C25.6226 46.5858 25.2308 46.5074 24.6109 46.5074V48.8052ZM26.0323 53.3154V52.8344C26.0323 52.2217 25.9504 51.8405 25.7865 51.6909C25.6226 51.5341 25.2308 51.4557 24.6109 51.4557V54.7368C25.188 54.7368 25.5692 54.6549 25.7544 54.491C25.9397 54.32 26.0323 53.9281 26.0323 53.3154Z" fill="black"/>
<path d="M41.3689 50.8786H35.7793V53.9459C35.7793 54.5872 35.8256 55.0004 35.9183 55.1857C36.0109 55.3709 36.189 55.4636 36.4526 55.4636C36.7804 55.4636 36.9977 55.3424 37.1046 55.1002C37.2186 54.8508 37.2756 54.3734 37.2756 53.6681V51.7977H41.3689V52.8451C41.3689 53.7215 41.3119 54.3948 41.1979 54.8651C41.091 55.3353 40.8345 55.8376 40.4284 56.372C40.0222 56.9064 39.5057 57.3089 38.8787 57.5797C38.2588 57.8433 37.4786 57.9751 36.5381 57.9751C35.6261 57.9751 34.821 57.8433 34.1228 57.5797C33.4245 57.3161 32.8794 56.9562 32.4876 56.5002C32.1028 56.0371 31.8356 55.5312 31.686 54.9826C31.5364 54.4269 31.4616 53.6217 31.4616 52.5672V48.4312C31.4616 47.1914 31.629 46.2153 31.9639 45.5028C32.2987 44.7832 32.8474 44.2346 33.6098 43.8569C34.3721 43.4722 35.2485 43.2798 36.2389 43.2798C37.4501 43.2798 38.4476 43.5114 39.2314 43.9745C40.0222 44.4305 40.5744 45.0397 40.8879 45.8021C41.2086 46.5573 41.3689 47.6225 41.3689 48.9976V50.8786ZM37.0404 48.5701V47.5334C37.0404 46.7996 37.0012 46.3257 36.9229 46.112C36.8445 45.8982 36.6842 45.7914 36.4419 45.7914C36.1427 45.7914 35.9574 45.884 35.8862 46.0692C35.8149 46.2474 35.7793 46.7354 35.7793 47.5334V48.5701H37.0404Z" fill="black"/>
<path d="M51.3403 43.5363V46.5074H48.8715V57.7186H44.5644V46.5074H42.0849V43.5363H51.3403Z" fill="black"/>
<path d="M61.9851 48.5167V51.9901C61.9851 53.2655 61.9209 54.2024 61.7927 54.8009C61.6644 55.3923 61.3901 55.9481 60.9697 56.4682C60.5494 56.9812 60.0079 57.3624 59.3452 57.6117C58.6897 57.854 57.9345 57.9751 57.0795 57.9751C56.1247 57.9751 55.3161 57.8718 54.6534 57.6652C53.9908 57.4514 53.4742 57.1344 53.1037 56.714C52.7404 56.2865 52.4803 55.7735 52.3236 55.175C52.1668 54.5694 52.0884 53.6645 52.0884 52.4604V48.8266C52.0884 47.5085 52.2309 46.4789 52.5159 45.7379C52.8009 44.9969 53.3139 44.402 54.0549 43.9531C54.7959 43.5042 55.7436 43.2798 56.8978 43.2798C57.8668 43.2798 58.6969 43.4259 59.388 43.718C60.0862 44.003 60.6242 44.3771 61.0018 44.8402C61.3794 45.3033 61.6359 45.7807 61.7713 46.2723C61.9138 46.7639 61.9851 47.5121 61.9851 48.5167ZM57.6673 47.4479C57.6673 46.7212 57.6281 46.2652 57.5497 46.0799C57.4714 45.8876 57.3039 45.7914 57.0474 45.7914C56.7909 45.7914 56.6199 45.8876 56.5344 46.0799C56.4489 46.2652 56.4062 46.7212 56.4062 47.4479V53.8497C56.4062 54.5195 56.4489 54.9577 56.5344 55.1643C56.6199 55.3638 56.7874 55.4636 57.0367 55.4636C57.2932 55.4636 57.4607 55.3709 57.5391 55.1857C57.6246 55.0004 57.6673 54.6014 57.6673 53.9887V47.4479Z" fill="black"/>
<path d="M78.8179 53.4329C78.8179 54.4233 78.7573 55.2177 78.6362 55.8162C78.5222 56.4076 78.2514 56.885 77.8239 57.2484C77.3964 57.6046 76.7445 57.7827 75.8681 57.7827C74.7281 57.7827 73.8375 57.3517 73.1962 56.4896V59.7492H68.9106V56.5109C68.2194 57.3731 67.2861 57.8041 66.1104 57.8041C65.3409 57.8041 64.7317 57.6545 64.2829 57.3552C63.834 57.056 63.5526 56.6463 63.4386 56.1262C63.3317 55.5989 63.2782 54.8401 63.2782 53.8497V47.8647C63.2782 46.8744 63.3388 46.0835 63.4599 45.4921C63.5811 44.8936 63.8554 44.4162 64.2829 44.06C64.7104 43.6966 65.3623 43.5149 66.2387 43.5149C67.3787 43.5149 68.2693 43.946 68.9106 44.8081V41.324H73.1962V44.7867C73.8874 43.9246 74.8207 43.4936 75.9964 43.4936C76.7659 43.4936 77.3751 43.6432 77.8239 43.9424C78.2728 44.2417 78.5507 44.6549 78.6576 45.1822C78.7644 45.7023 78.8179 46.4576 78.8179 47.4479V53.4329ZM74.5108 54.3948V47.651C74.5108 46.9599 74.5072 46.5395 74.5001 46.3899C74.493 46.2402 74.4431 46.1049 74.3505 45.9837C74.2579 45.8555 74.1011 45.7914 73.8802 45.7914C73.638 45.7914 73.4634 45.8804 73.3566 46.0586C73.2497 46.2296 73.1962 46.5395 73.1962 46.9884V54.3734C73.1962 55.1002 73.4314 55.4636 73.9016 55.4636C74.1011 55.4636 74.2507 55.3923 74.3505 55.2498C74.4574 55.1073 74.5108 54.8223 74.5108 54.3948ZM68.9106 54.3093V46.9242C68.9106 46.1975 68.6754 45.8341 68.2052 45.8341C68.0057 45.8341 67.8525 45.9054 67.7456 46.0479C67.6459 46.1904 67.596 46.4754 67.596 46.9029V53.6467C67.596 54.3378 67.5996 54.7582 67.6067 54.9078C67.6138 55.0574 67.6637 55.1964 67.7563 55.3246C67.8489 55.4457 68.0057 55.5063 68.2266 55.5063C68.4688 55.5063 68.6434 55.4208 68.7502 55.2498C68.8571 55.0717 68.9106 54.7582 68.9106 54.3093Z" fill="black"/>
<path d="M90.0291 48.5167V51.9901C90.0291 53.2655 89.9649 54.2024 89.8367 54.8009C89.7084 55.3923 89.4341 55.9481 89.0137 56.4682C88.5934 56.9812 88.0519 57.3624 87.3892 57.6117C86.7337 57.854 85.9785 57.9751 85.1235 57.9751C84.1687 57.9751 83.3601 57.8718 82.6974 57.6652C82.0348 57.4514 81.5182 57.1344 81.1477 56.714C80.7844 56.2865 80.5243 55.7735 80.3676 55.175C80.2108 54.5694 80.1324 53.6645 80.1324 52.4604V48.8266C80.1324 47.5085 80.2749 46.4789 80.5599 45.7379C80.8449 44.9969 81.3579 44.402 82.0989 43.9531C82.8399 43.5042 83.7876 43.2798 84.9418 43.2798C85.9108 43.2798 86.7409 43.4259 87.432 43.718C88.1302 44.003 88.6682 44.3771 89.0458 44.8402C89.4234 45.3033 89.6799 45.7807 89.8153 46.2723C89.9578 46.7639 90.0291 47.5121 90.0291 48.5167ZM85.7113 47.4479C85.7113 46.7212 85.6721 46.2652 85.5937 46.0799C85.5154 45.8876 85.3479 45.7914 85.0914 45.7914C84.8349 45.7914 84.6639 45.8876 84.5784 46.0799C84.4929 46.2652 84.4502 46.7212 84.4502 47.4479V53.8497C84.4502 54.5195 84.4929 54.9577 84.5784 55.1643C84.6639 55.3638 84.8314 55.4636 85.0807 55.4636C85.3372 55.4636 85.5047 55.3709 85.5831 55.1857C85.6686 55.0004 85.7113 54.6014 85.7113 53.9887V47.4479Z" fill="black"/>
<path d="M95.8537 43.5363L95.7789 44.7867C96.1637 44.2809 96.5876 43.9032 97.0507 43.6539C97.5139 43.4045 98.0197 43.2798 98.5684 43.2798C99.2381 43.2798 99.8152 43.4615 100.3 43.8249C100.791 44.1811 101.098 44.5944 101.219 45.0646C101.34 45.5349 101.401 46.3329 101.401 47.4586V53.4329C101.401 54.7226 101.322 55.6417 101.165 56.1903C101.016 56.7318 100.702 57.1664 100.225 57.4942C99.7547 57.8148 99.1847 57.9751 98.5149 57.9751C97.9806 57.9751 97.4854 57.8504 97.0294 57.6011C96.5734 57.3517 96.1566 56.9812 95.7789 56.4896V59.7386H91.4612V43.5363H95.8537ZM97.0828 47.6617C97.0828 46.7853 97.0507 46.2545 96.9866 46.0692C96.9225 45.884 96.7444 45.7914 96.4522 45.7914C96.1672 45.7914 95.982 45.8982 95.8965 46.112C95.8181 46.3257 95.7789 46.8423 95.7789 47.6617V53.5398C95.7789 54.3948 95.8217 54.9292 95.9072 55.1429C95.9927 55.3567 96.1779 55.4636 96.4629 55.4636C96.7408 55.4636 96.9118 55.3674 96.9759 55.175C97.0472 54.9755 97.0828 54.4981 97.0828 53.7429V47.6617Z" fill="black"/>
<path d="M53.6713 26.3276C52.2164 25.9381 50.6847 25.9383 49.2299 26.3283C47.7752 26.7183 46.4487 27.4843 45.3837 28.5492C44.3187 29.6142 43.5528 30.9407 43.1628 32.3955C42.7728 33.8502 42.7726 35.382 43.162 36.8368C44.6169 37.2263 46.1487 37.2261 47.6034 36.8361C49.0582 36.4461 50.3847 35.6802 51.4496 34.6152C52.5146 33.5502 53.2806 32.2237 53.6706 30.7689C54.0605 29.3142 54.0608 27.7824 53.6713 26.3276Z" fill="#6B9B89"/>
<path d="M43.1591 36.8369C43.0585 36.736 43.002 36.5993 43.002 36.4569C43.002 36.3144 43.0585 36.1777 43.1591 36.0769L52.9114 26.3276C52.9611 26.2778 53.0201 26.2384 53.085 26.2115C53.15 26.1846 53.2196 26.1707 53.2899 26.1707C53.3602 26.1707 53.4298 26.1846 53.4947 26.2115C53.5597 26.2384 53.6187 26.2778 53.6684 26.3276C53.7181 26.3773 53.7575 26.4363 53.7844 26.5012C53.8114 26.5661 53.8252 26.6358 53.8252 26.7061C53.8252 26.7764 53.8114 26.846 53.7844 26.9109C53.7575 26.9758 53.7181 27.0348 53.6684 27.0845L43.9191 36.8369C43.8182 36.9375 43.6815 36.994 43.5391 36.994C43.3966 36.994 43.2599 36.9375 43.1591 36.8369Z" fill="#75AF9A"/>
<path d="M34.9663 26.1817C34.7716 26.9089 34.7716 27.6746 34.9665 28.4018C35.1614 29.129 35.5443 29.7921 36.0767 30.3245C36.609 30.8568 37.2721 31.2397 37.9993 31.4346C38.7265 31.6295 39.4922 31.6296 40.2195 31.4348C40.4142 30.7076 40.4142 29.9419 40.2193 29.2147C40.0244 28.4875 39.6415 27.8244 39.1091 27.292C38.5768 26.7596 37.9137 26.3768 37.1865 26.1819C36.4593 25.987 35.6936 25.9869 34.9663 26.1817Z" fill="#6B9B89"/>
<path d="M40.2193 31.4378C40.1692 31.4876 40.1014 31.5155 40.0308 31.5155C39.9602 31.5155 39.8924 31.4876 39.8423 31.4378L34.9783 26.5738C34.9284 26.5232 34.9004 26.4549 34.9004 26.3838C34.9004 26.3127 34.9284 26.2444 34.9783 26.1938C35.0032 26.1687 35.0328 26.1488 35.0654 26.1352C35.098 26.1216 35.133 26.1146 35.1683 26.1146C35.2037 26.1146 35.2386 26.1216 35.2713 26.1352C35.3039 26.1488 35.3335 26.1687 35.3583 26.1938L40.2223 31.0578C40.2472 31.0829 40.2669 31.1126 40.2802 31.1454C40.2936 31.1781 40.3003 31.2131 40.3 31.2485C40.2997 31.2838 40.2924 31.3187 40.2786 31.3512C40.2647 31.3837 40.2446 31.4131 40.2193 31.4378Z" fill="#75AF9A"/>
<path d="M56.882 63.5767C56.6858 64.3051 56.6852 65.0723 56.8801 65.801C57.0751 66.5297 57.4588 67.1941 57.9925 67.7272C58.5262 68.2603 59.191 68.6432 59.9199 68.8373C60.6489 69.0314 61.4161 69.0299 62.1442 68.8329C62.3387 68.1055 62.3384 67.3399 62.1435 66.6127C61.9485 65.8855 61.5657 65.2223 61.0335 64.6898C60.5013 64.1573 59.8384 63.7741 59.1113 63.5788C58.3842 63.3834 57.6186 63.3827 56.8911 63.5767H56.882Z" fill="#6B9B89"/>
<path d="M62.1439 68.8328C62.1195 68.8582 62.0902 68.8784 62.0578 68.8922C62.0254 68.906 61.9906 68.9131 61.9554 68.9131C61.9202 68.9131 61.8854 68.906 61.853 68.8922C61.8206 68.8784 61.7913 68.8582 61.7669 68.8328L56.9029 63.9688C56.8778 63.944 56.8579 63.9144 56.8443 63.8818C56.8307 63.8492 56.8237 63.8142 56.8237 63.7788C56.8237 63.7435 56.8307 63.7085 56.8443 63.6759C56.8579 63.6433 56.8778 63.6137 56.9029 63.5888C56.953 63.5391 57.0208 63.5112 57.0914 63.5112C57.162 63.5112 57.2298 63.5391 57.2799 63.5888L62.1439 68.4528C62.1697 68.4773 62.1903 68.5067 62.2044 68.5394C62.2185 68.5721 62.2257 68.6073 62.2257 68.6428C62.2257 68.6784 62.2185 68.7136 62.2044 68.7463C62.1903 68.779 62.1697 68.8084 62.1439 68.8328Z" fill="#75AF9A"/>
<path d="M53.8177 63.5797C53.0903 63.3853 52.3247 63.3855 51.5975 63.5805C50.8703 63.7754 50.2071 64.1582 49.6746 64.6904C49.1421 65.2227 48.7589 65.8856 48.5636 66.6126C48.3682 67.3397 48.3675 68.1054 48.5615 68.8329C49.2888 69.0273 50.0545 69.0271 50.7817 68.8321C51.5089 68.6371 52.1721 68.2544 52.7046 67.7221C53.2371 67.1899 53.6203 66.527 53.8156 65.7999C54.011 65.0729 54.0117 64.3072 53.8177 63.5797Z" fill="#6B9B89"/>
<path d="M48.5611 68.8329C48.5113 68.7828 48.4834 68.715 48.4834 68.6444C48.4834 68.5738 48.5113 68.506 48.5611 68.4559L53.4251 63.5919C53.4757 63.542 53.544 63.514 53.6151 63.514C53.6862 63.514 53.7544 63.542 53.8051 63.5919C53.855 63.6425 53.883 63.7108 53.883 63.7819C53.883 63.853 53.855 63.9213 53.8051 63.9719L48.9411 68.8359C48.916 68.8608 48.8862 68.8805 48.8535 68.8938C48.8208 68.9072 48.7858 68.9139 48.7504 68.9136C48.7151 68.9133 48.6802 68.906 48.6477 68.8922C48.6152 68.8783 48.5857 68.8582 48.5611 68.8329Z" fill="#75AF9A"/>
<path d="M23.9254 79.4519V88.1034H21.9589V82.2627L21.1734 88.1034H19.7787L18.9504 82.3963V88.1034H16.9839V79.4519H19.8962C19.9817 79.972 20.0726 80.5848 20.1688 81.2902L20.4787 83.4918L20.9917 79.4519H23.9254Z" fill="black"/>
<path d="M29.7875 86.0782C29.7875 86.7265 29.7109 87.1914 29.5577 87.4729C29.4081 87.7543 29.1712 87.9307 28.847 88.0019C28.5228 88.0696 27.9938 88.1034 27.2599 88.1034H24.7644V81.0123H26.9072V83.3742H27.2599C27.9475 83.3742 28.4605 83.4152 28.7989 83.4971C29.1374 83.5791 29.3867 83.759 29.547 84.0368C29.7074 84.3147 29.7875 84.7547 29.7875 85.3567V86.0782ZM27.6393 85.8163V85.5331C27.6393 85.1662 27.6019 84.9435 27.5271 84.8651C27.4559 84.7867 27.2492 84.7422 26.9072 84.7315V86.6125C27.1922 86.6125 27.3846 86.5769 27.4844 86.5057C27.5877 86.4308 27.6393 86.2011 27.6393 85.8163ZM32.5876 88.1034H30.4448V81.0123H32.5876V88.1034Z" fill="black"/>
<path d="M37.4772 81.0123L37.4398 81.6375C37.6321 81.3846 37.8441 81.1957 38.0757 81.0711C38.3072 80.9464 38.5602 80.884 38.8345 80.884C39.1694 80.884 39.4579 80.9749 39.7002 81.1566C39.946 81.3347 40.0992 81.5413 40.1597 81.7764C40.2203 82.0116 40.2506 82.4106 40.2506 82.9734V85.9606C40.2506 86.6054 40.2114 87.065 40.133 87.3393C40.0582 87.61 39.9014 87.8273 39.6628 87.9912C39.4276 88.1515 39.1426 88.2317 38.8078 88.2317C38.5406 88.2317 38.293 88.1693 38.065 88.0447C37.837 87.92 37.6286 87.7347 37.4398 87.4889V89.1134H35.2809V81.0123H37.4772ZM38.0917 83.075C38.0917 82.6368 38.0757 82.3714 38.0436 82.2787C38.0115 82.1861 37.9225 82.1398 37.7764 82.1398C37.6339 82.1398 37.5413 82.1932 37.4985 82.3001C37.4594 82.407 37.4398 82.6653 37.4398 83.075V86.014C37.4398 86.4415 37.4611 86.7087 37.5039 86.8156C37.5466 86.9225 37.6393 86.9759 37.7818 86.9759C37.9207 86.9759 38.0062 86.9278 38.0383 86.8316C38.0739 86.7319 38.0917 86.4932 38.0917 86.1156V83.075Z" fill="black"/>
<path d="M45.792 88.1034H43.6439V85.314C43.366 85.314 43.1736 85.3728 43.0667 85.4903C42.9634 85.6079 42.9118 85.8288 42.9118 86.153V88.1034H40.9346V86.4415C40.9346 86.0176 40.9577 85.713 41.004 85.5277C41.0504 85.3389 41.1554 85.1911 41.3193 85.0842C41.4868 84.9773 41.77 84.8705 42.169 84.7636C41.6524 84.7173 41.3175 84.5712 41.1644 84.3254C41.0112 84.076 40.9346 83.6325 40.9346 82.9948C40.9346 82.2894 41.1376 81.7836 41.5438 81.4772C41.9534 81.1672 42.8369 81.0123 44.1943 81.0123H45.792V88.1034ZM43.6439 84.0849V82.391H43.4248C43.268 82.391 43.1433 82.4373 43.0507 82.5299C42.9581 82.619 42.9118 82.8309 42.9118 83.1658V83.2567C42.9118 83.5987 42.9634 83.8231 43.0667 83.93C43.1736 84.0333 43.366 84.0849 43.6439 84.0849Z" fill="black"/>
<path d="M52.8458 89.4714H51.403V88.1034H47.7692V89.4714H46.3264V86.4095H46.786C47.0603 85.9855 47.2847 85.3282 47.4593 84.4376C47.6374 83.5434 47.7265 82.4889 47.7265 81.2741V81.0123H52.3862V86.3988H52.8458V89.4714ZM50.2434 86.3988V82.6101H49.6823V82.6849C49.6823 84.003 49.4685 85.241 49.041 86.3988H50.2434Z" fill="black"/>
<path d="M58.2697 83.5025V85.2392C58.2697 85.8769 58.2376 86.3453 58.1735 86.6446C58.1094 86.9403 57.9722 87.2182 57.762 87.4782C57.5519 87.7347 57.2811 87.9253 56.9498 88.05C56.622 88.1711 56.2444 88.2317 55.8169 88.2317C55.3395 88.2317 54.9352 88.18 54.6039 88.0767C54.2726 87.9698 54.0143 87.8113 53.829 87.6011C53.6474 87.3874 53.5173 87.1309 53.4389 86.8316C53.3606 86.5288 53.3214 86.0764 53.3214 85.4743V83.6574C53.3214 82.9984 53.3926 82.4836 53.5351 82.1131C53.6776 81.7426 53.9341 81.4451 54.3046 81.2207C54.6751 80.9962 55.1489 80.884 55.7261 80.884C56.2106 80.884 56.6256 80.9571 56.9712 81.1031C57.3203 81.2456 57.5893 81.4327 57.7781 81.6642C57.9669 81.8958 58.0951 82.1345 58.1628 82.3803C58.2341 82.6261 58.2697 83.0002 58.2697 83.5025ZM56.1108 82.9681C56.1108 82.6047 56.0912 82.3767 56.052 82.2841C56.0129 82.1879 55.9291 82.1398 55.8009 82.1398C55.6726 82.1398 55.5871 82.1879 55.5444 82.2841C55.5016 82.3767 55.4803 82.6047 55.4803 82.9681V86.169C55.4803 86.5039 55.5016 86.723 55.5444 86.8263C55.5871 86.926 55.6709 86.9759 55.7955 86.9759C55.9238 86.9759 56.0075 86.9296 56.0467 86.837C56.0894 86.7443 56.1108 86.5448 56.1108 86.2385V82.9681Z" fill="black"/>
<path d="M65.6922 88.1034H63.8432V83.2139L62.9455 88.1034H61.7645L60.8347 83.2139V88.1034H58.9858V81.0123H61.663L62.3523 84.9292L62.9775 81.0123H65.6922V88.1034Z" fill="black"/>
<path d="M38.9457 64.1057C37.4904 63.7163 35.9583 63.7167 34.5032 64.1068C33.0481 64.497 31.7213 65.2631 30.6561 66.3284C29.5908 67.3936 28.8247 68.7204 28.4345 70.1755C28.0444 71.6306 28.044 73.1627 28.4334 74.618C29.8887 75.0074 31.4208 75.007 32.8759 74.6169C34.3309 74.2267 35.6577 73.4605 36.723 72.3953C37.7882 71.33 38.5544 70.0032 38.9446 68.5482C39.3347 67.0931 39.3351 65.561 38.9457 64.1057Z" fill="#6B9B89"/>
<path d="M28.4332 74.6149C28.3835 74.5652 28.344 74.5062 28.3171 74.4413C28.2902 74.3764 28.2764 74.3067 28.2764 74.2364C28.2764 74.1662 28.2902 74.0965 28.3171 74.0316C28.344 73.9667 28.3835 73.9077 28.4332 73.858L38.1855 64.1056C38.2352 64.0559 38.2942 64.0165 38.3592 63.9896C38.4241 63.9626 38.4937 63.9488 38.564 63.9488C38.6343 63.9488 38.7039 63.9626 38.7689 63.9896C38.8338 64.0165 38.8928 64.0559 38.9425 64.1056C38.9922 64.1553 39.0317 64.2143 39.0586 64.2793C39.0855 64.3442 39.0994 64.4138 39.0994 64.4841C39.0994 64.5544 39.0855 64.624 39.0586 64.689C39.0317 64.7539 38.9922 64.8129 38.9425 64.8626L29.1932 74.6149C29.0924 74.7155 28.9557 74.7721 28.8132 74.7721C28.6708 74.7721 28.5341 74.7155 28.4332 74.6149Z" fill="#75AF9A"/>
<path d="M20.2378 63.9597C20.0437 64.6872 20.0445 65.4529 20.2398 66.18C20.4352 66.907 20.8184 67.5699 21.3509 68.1022C21.8834 68.6344 22.5465 69.0172 23.2737 69.2121C24.0009 69.4071 24.7666 69.4073 25.4939 69.2129C25.6877 68.4853 25.6868 67.7197 25.4913 66.9926C25.2959 66.2655 24.9128 65.6026 24.3804 65.0702C23.8481 64.5378 23.1851 64.1547 22.4581 63.9593C21.731 63.7639 20.9653 63.763 20.2378 63.9567V63.9597Z" fill="#6B9B89"/>
<path d="M25.4938 69.2129C25.4689 69.238 25.4393 69.2579 25.4067 69.2715C25.3741 69.2851 25.3391 69.2921 25.3038 69.2921C25.2685 69.2921 25.2335 69.2851 25.2009 69.2715C25.1683 69.2579 25.1387 69.238 25.1138 69.2129L20.2498 64.3489C20.1999 64.2982 20.1719 64.23 20.1719 64.1589C20.1719 64.0878 20.1999 64.0195 20.2498 63.9689C20.3004 63.9189 20.3687 63.8909 20.4398 63.8909C20.5109 63.8909 20.5792 63.9189 20.6298 63.9689L25.4938 68.8329C25.5189 68.8577 25.5388 68.8873 25.5524 68.9199C25.566 68.9526 25.573 68.9875 25.573 69.0229C25.573 69.0582 25.566 69.0932 25.5524 69.1258C25.5388 69.1584 25.5189 69.188 25.4938 69.2129Z" fill="#75AF9A"/>
<path d="M42.1562 101.358C41.9638 102.085 41.9655 102.849 42.1614 103.575C42.3572 104.301 42.7403 104.962 43.2722 105.494C43.8041 106.025 44.4662 106.407 45.1922 106.602C45.9183 106.797 46.6828 106.798 47.4093 106.605C47.6048 105.877 47.6052 105.111 47.4106 104.384C47.216 103.656 46.8332 102.992 46.3008 102.46C45.7683 101.927 45.1049 101.544 44.3774 101.349C43.6498 101.154 42.8838 101.154 42.1562 101.349V101.358Z" fill="#6B9B89"/>
<path d="M47.4093 106.605C47.3587 106.655 47.2905 106.683 47.2193 106.683C47.1482 106.683 47.08 106.655 47.0293 106.605L42.1653 101.741C42.1154 101.69 42.0874 101.622 42.0874 101.551C42.0874 101.48 42.1154 101.411 42.1653 101.361C42.216 101.311 42.2842 101.283 42.3553 101.283C42.4265 101.283 42.4947 101.311 42.5453 101.361L47.4093 106.225C47.4344 106.25 47.4544 106.279 47.4679 106.312C47.4815 106.345 47.4885 106.38 47.4885 106.415C47.4885 106.45 47.4815 106.485 47.4679 106.518C47.4544 106.55 47.4344 106.58 47.4093 106.605Z" fill="#75AF9A"/>
<path d="M39.0918 101.358C38.3651 101.164 37.6002 101.164 36.8737 101.359C36.1472 101.554 35.4846 101.936 34.9523 102.467C34.4199 102.999 34.0366 103.661 33.8406 104.387C33.6447 105.113 33.6429 105.878 33.8357 106.605C34.5632 106.799 35.3289 106.798 36.0559 106.602C36.783 106.407 37.4459 106.024 37.9783 105.491C38.5107 104.959 38.8938 104.296 39.0892 103.569C39.2846 102.842 39.2855 102.076 39.0918 101.349V101.358Z" fill="#6B9B89"/>
<path d="M33.8355 106.605C33.8104 106.58 33.7905 106.55 33.7769 106.518C33.7633 106.485 33.7563 106.45 33.7563 106.415C33.7563 106.38 33.7633 106.345 33.7769 106.312C33.7905 106.279 33.8104 106.25 33.8355 106.225L38.6995 101.361C38.7502 101.311 38.8184 101.283 38.8895 101.283C38.9607 101.283 39.0289 101.311 39.0795 101.361C39.1295 101.411 39.1575 101.48 39.1575 101.551C39.1575 101.622 39.1295 101.69 39.0795 101.741L34.2155 106.605C34.1649 106.655 34.0967 106.683 34.0255 106.683C33.9544 106.683 33.8862 106.655 33.8355 106.605Z" fill="#75AF9A"/>
</g>
</g>
<defs>
<filter id="filter0_d_276_1150" x="91.7568" y="1.49231" width="64.7334" height="64.7335" filterUnits="userSpaceOnUse" color-interpolation-filters="sRGB">
<feFlood flood-opacity="0" result="BackgroundImageFix"/>
<feColorMatrix in="SourceAlpha" type="matrix" values="0 0 0 0 0 0 0 0 0 0 0 0 0 0 0 0 0 0 127 0" result="hardAlpha"/>
<feOffset/>
<feGaussianBlur stdDeviation="10"/>
<feColorMatrix type="matrix" values="0 0 0 0 0.670588 0 0 0 0 1 0 0 0 0 0.898039 0 0 0 1 0"/>
<feBlend mode="normal" in2="BackgroundImageFix" result="effect1_dropShadow_276_1150"/>
<feBlend mode="normal" in="SourceGraphic" in2="effect1_dropShadow_276_1150" result="shape"/>
</filter>
<clipPath id="clip0_276_1150">
<rect width="150" height="150" fill="white" transform="translate(0 0.380859)"/>
</clipPath>
<clipPath id="clip1_276_1150">
<rect width="152" height="152" fill="white" transform="translate(-2 -1.61914)"/>
</clipPath>
</defs>
</svg>
