<svg width="150" height="151" viewBox="0 0 150 151" fill="none" xmlns="http://www.w3.org/2000/svg">
<g clip-path="url(#clip0_276_2308)">
<circle cx="75" cy="75.3809" r="75" fill="#F8F7F7"/>
<g clip-path="url(#clip1_276_2308)">
<path d="M122.426 113.108H27.5741C26.2309 113.108 25.1421 114.199 25.1421 115.545V117.61C25.1421 118.956 26.2309 120.047 27.5741 120.047H122.426C123.769 120.047 124.858 118.956 124.858 117.61V115.545C124.858 114.199 123.769 113.108 122.426 113.108Z" stroke="#AF6431" stroke-miterlimit="10"/>
<path d="M76.3169 19.3809C57.532 19.4465 42.4507 34.9878 42.4507 53.8135V92.0838C42.4507 93.6354 43.0656 95.1235 44.1603 96.2207C45.2549 97.3178 46.7395 97.9342 48.2875 97.9342H104.585C106.133 97.9342 107.618 97.3178 108.712 96.2207C109.807 95.1235 110.422 93.6354 110.422 92.0838V53.4458C110.422 48.9622 109.539 44.5227 107.824 40.382C106.108 36.2412 103.594 32.4806 100.426 29.3158C97.2571 26.151 93.4965 23.6443 89.3593 21.9395C85.2222 20.2346 80.79 19.3651 76.3169 19.3809Z" fill="#B9DEFE"/>
<path d="M42.5386 69.714C53.7856 69.5116 65.0327 69.2693 76.2711 68.8017C87.5096 68.3341 98.7225 67.6441 109.91 66.5465L110.422 66.4952V53.4457C110.426 49.55 109.761 45.6826 108.456 42.0128C108.084 42.4885 107.784 43.0169 107.566 43.5809C106.34 43.2046 104.966 43.6465 104.033 44.5389C102.952 45.5767 102.551 47.0792 102.349 48.5304C101.529 48.4297 100.697 48.5399 99.931 48.8506C99.1651 49.1614 98.4908 49.6625 97.9716 50.3067C97.1188 49.858 96.2324 49.4767 95.3205 49.1662C94.1521 48.7139 92.9122 48.4754 91.6597 48.462C90.1895 48.5136 88.7661 48.9929 87.5631 49.8414C86.36 50.6899 85.4292 51.8709 84.8842 53.2404C80.956 51.6723 76.1886 52.7557 73.1109 55.6125C72.3635 56.3081 71.7248 57.1126 71.2165 57.9989C70.6809 57.5201 70.0433 57.1704 69.3523 56.9763C68.6613 56.7822 67.9352 56.749 67.2294 56.8791C66.5236 57.0092 65.8568 57.2992 65.2798 57.727C64.7029 58.1548 64.2312 58.709 63.9006 59.3475C63.5062 58.9349 63.0197 58.6221 62.4812 58.4347C61.9427 58.2474 61.3675 58.1908 60.8029 58.2698C59.833 55.7807 56.5362 54.5006 54.1611 55.6838C53.487 53.3146 50.5572 51.8149 48.2702 52.7728C47.9516 49.993 45.8268 47.5782 43.2042 46.6572C42.7088 49.0103 42.4591 51.4086 42.459 53.8135V69.7169L42.5386 69.714Z" fill="white"/>
<path d="M42.4507 73.4404V92.0837C42.4507 93.6354 43.0656 95.1234 44.1603 96.2206C45.2549 97.3178 46.7395 97.9342 48.2875 97.9342H104.585C106.133 97.9342 107.618 97.3178 108.712 96.2206C109.807 95.1234 110.422 93.6354 110.422 92.0837V73.4404H42.4507Z" fill="#B9DEFE"/>
<path d="M54.3972 68.0861L52.2582 64.7133C52.2088 64.6277 52.1825 64.5307 52.1819 64.4318C52.1812 64.333 52.2062 64.2356 52.2544 64.1494C52.3026 64.0631 52.3723 63.9909 52.4568 63.9398C52.5412 63.8887 52.6374 63.8605 52.736 63.858C52.8354 63.8569 52.9327 63.8297 53.0183 63.7792C53.1039 63.7287 53.1748 63.6567 53.224 63.5702C53.2732 63.4837 53.299 63.3858 53.2987 63.2862C53.2984 63.1866 53.2721 63.0889 53.2224 63.0026L50.853 59.0396C50.8034 58.9536 50.7772 58.8561 50.7767 58.7568C50.7763 58.6574 50.8018 58.5597 50.8507 58.4733C50.8995 58.3869 50.9701 58.3148 51.0553 58.2641C51.1405 58.2134 51.2375 58.1859 51.3366 58.1843H51.4788C51.5761 58.1835 51.6715 58.1578 51.756 58.1095C51.8406 58.0612 51.9113 57.992 51.9615 57.9084C52.0117 57.8249 52.0398 57.7299 52.0429 57.6325C52.046 57.535 52.0242 57.4383 51.9794 57.3518L49.2203 52.1571C49.1472 52.0213 49.0388 51.9079 48.9066 51.8288C48.7744 51.7497 48.6233 51.708 48.4693 51.708C48.3154 51.708 48.1643 51.7497 48.0321 51.8288C47.8999 51.9079 47.7915 52.0213 47.7184 52.1571L44.9564 57.3518C44.9117 57.4383 44.8898 57.535 44.893 57.6325C44.8961 57.7299 44.9241 57.8249 44.9743 57.9084C45.0245 57.992 45.0953 58.0612 45.1798 58.1095C45.2643 58.1578 45.3598 58.1835 45.4571 58.1843H45.5993C45.6984 58.1859 45.7953 58.2134 45.8805 58.2641C45.9658 58.3148 46.0363 58.3869 46.0852 58.4733C46.134 58.5597 46.1595 58.6574 46.1591 58.7568C46.1587 58.8561 46.1324 58.9536 46.0828 59.0396L43.7134 62.977C43.6637 63.0632 43.6374 63.161 43.6372 63.2605C43.6369 63.3601 43.6626 63.458 43.7118 63.5445C43.761 63.631 43.8319 63.7031 43.9175 63.7536C44.0032 63.8041 44.1005 63.8312 44.1998 63.8323C44.2984 63.8349 44.3946 63.8631 44.4791 63.9142C44.5635 63.9652 44.6333 64.0375 44.6815 64.1237C44.7297 64.21 44.7546 64.3073 44.754 64.4062C44.7533 64.505 44.727 64.602 44.6777 64.6876L42.5386 68.0662C42.485 68.1522 42.4552 68.2509 42.4524 68.3523C42.4495 68.4537 42.4737 68.554 42.5224 68.6428C42.571 68.7317 42.6425 68.806 42.7294 68.858C42.8162 68.91 42.9153 68.9378 43.0165 68.9386H53.9193C54.0175 68.9358 54.1133 68.9075 54.1974 68.8566C54.2814 68.8057 54.3509 68.7338 54.399 68.648C54.4471 68.5621 54.4722 68.4653 54.4719 68.3668C54.4716 68.2684 54.4459 68.1717 54.3972 68.0861Z" fill="#383E21"/>
<path d="M74.374 68.3656L72.4199 65.2835C72.3698 65.205 72.3418 65.1144 72.3387 65.0212C72.3356 64.928 72.3577 64.8357 72.4025 64.7541C72.4473 64.6724 72.5133 64.6043 72.5934 64.557C72.6736 64.5097 72.7649 64.4849 72.8579 64.4852C72.9494 64.4854 73.0392 64.4611 73.1182 64.415C73.1972 64.3688 73.2625 64.3024 73.3074 64.2226C73.3523 64.1427 73.3751 64.0523 73.3736 63.9607C73.3721 63.8691 73.3463 63.7795 73.2988 63.7012L71.1342 60.1002C71.0866 60.0217 71.0607 59.9319 71.0594 59.84C71.058 59.7481 71.0811 59.6575 71.1263 59.5776C71.1716 59.4977 71.2373 59.4313 71.3167 59.3854C71.3961 59.3394 71.4862 59.3155 71.5779 59.3162H71.7059C71.7953 59.3157 71.8829 59.2921 71.9606 59.2478C72.0382 59.2035 72.1031 59.1399 72.1491 59.0631C72.1951 58.9864 72.2206 58.8991 72.2232 58.8096C72.2258 58.7201 72.2054 58.6314 72.1639 58.5521L69.6408 53.805C69.5747 53.6804 69.4759 53.5761 69.3552 53.5034C69.2344 53.4307 69.0962 53.3923 68.9553 53.3923C68.8145 53.3923 68.6763 53.4307 68.5555 53.5034C68.4347 53.5761 68.336 53.6804 68.2698 53.805L65.7468 58.5521C65.7045 58.6311 65.6834 58.7197 65.6855 58.8092C65.6875 58.8988 65.7127 58.9864 65.7585 59.0633C65.8043 59.1402 65.8693 59.204 65.947 59.2483C66.0247 59.2926 66.1125 59.316 66.2019 59.3162H66.3327C66.4241 59.3164 66.5137 59.3409 66.5926 59.387C66.6714 59.4332 66.7367 59.4994 66.7818 59.5791C66.8268 59.6587 66.8501 59.7488 66.8491 59.8404C66.8482 59.9319 66.8231 60.0216 66.7765 60.1002L64.609 63.7012C64.5623 63.7799 64.5372 63.8695 64.5363 63.9611C64.5354 64.0526 64.5586 64.1427 64.6037 64.2224C64.6488 64.302 64.714 64.3682 64.7929 64.4144C64.8718 64.4606 64.9614 64.485 65.0527 64.4852C65.1457 64.4849 65.2371 64.5097 65.3172 64.557C65.3974 64.6043 65.4633 64.6724 65.5081 64.7541C65.553 64.8357 65.575 64.928 65.572 65.0212C65.5689 65.1144 65.5409 65.205 65.4908 65.2835L63.5366 68.3713C63.489 68.4493 63.4628 68.5385 63.4606 68.6299C63.4584 68.7213 63.4804 68.8117 63.5243 68.8918C63.5682 68.972 63.6324 69.0391 63.7105 69.0864C63.7886 69.1337 63.8778 69.1594 63.969 69.161H73.9246C74.0181 69.1631 74.1105 69.1397 74.1918 69.0934C74.2732 69.0471 74.3404 68.9795 74.3865 68.898C74.4326 68.8164 74.4558 68.7238 74.4536 68.63C74.4514 68.5363 74.4239 68.4449 74.374 68.3656Z" fill="#383E21"/>
<path d="M100.973 57.5228L99.0187 54.4494C98.9693 54.3709 98.9419 54.2805 98.9392 54.1878C98.9366 54.095 98.9587 54.0033 99.0035 53.9221C99.0482 53.8408 99.1138 53.7731 99.1936 53.7259C99.2733 53.6788 99.3642 53.6539 99.4567 53.6539C99.5485 53.654 99.6386 53.6296 99.7179 53.5833C99.7971 53.537 99.8627 53.4704 99.9078 53.3903C99.953 53.3103 99.9761 53.2196 99.9748 53.1277C99.9735 53.0357 99.9478 52.9458 99.9005 52.867L97.733 49.2689C97.6856 49.1902 97.6599 49.1002 97.6586 49.0083C97.6573 48.9163 97.6804 48.8257 97.7256 48.7456C97.7707 48.6655 97.8363 48.5989 97.9156 48.5526C97.9948 48.5063 98.085 48.4819 98.1767 48.482H98.3075C98.3969 48.4824 98.4847 48.4595 98.5625 48.4155C98.6403 48.3715 98.7054 48.308 98.7513 48.2312C98.7972 48.1545 98.8224 48.067 98.8244 47.9775C98.8264 47.888 98.8051 47.7996 98.7627 47.7208L96.2425 42.9595C96.1765 42.8341 96.0777 42.7292 95.9567 42.656C95.8356 42.5828 95.6969 42.5441 95.5555 42.5441C95.4141 42.5441 95.2755 42.5828 95.1544 42.656C95.0333 42.7292 94.9345 42.8341 94.8686 42.9595L92.3455 47.7065C92.3039 47.7856 92.2833 47.8742 92.2858 47.9636C92.2884 48.053 92.3139 48.1402 92.36 48.2168C92.4061 48.2934 92.4711 48.3568 92.5488 48.4007C92.6265 48.4447 92.7143 48.4678 92.8035 48.4678H92.9315C93.0233 48.4677 93.1134 48.4921 93.1927 48.5384C93.2719 48.5847 93.3375 48.6513 93.3826 48.7313C93.4278 48.8114 93.4509 48.9021 93.4496 48.994C93.4483 49.086 93.4226 49.1759 93.3752 49.2547L91.2106 52.8528C91.1633 52.9313 91.1377 53.021 91.1363 53.1127C91.1349 53.2044 91.1577 53.2949 91.2025 53.3748C91.2473 53.4548 91.3125 53.5215 91.3914 53.568C91.4702 53.6145 91.56 53.6392 91.6515 53.6397C91.7441 53.6397 91.8349 53.6645 91.9147 53.7117C91.9944 53.7588 92.06 53.8266 92.1047 53.9078C92.1495 53.989 92.1717 54.0808 92.169 54.1735C92.1663 54.2663 92.1389 54.3566 92.0895 54.4351L90.1382 57.5228C90.0889 57.6013 90.0615 57.6917 90.0588 57.7844C90.0561 57.8772 90.0783 57.9689 90.1231 58.0502C90.1678 58.1314 90.2334 58.1991 90.3131 58.2463C90.3929 58.2934 90.4837 58.3183 90.5763 58.3183H100.532C100.625 58.3198 100.717 58.2959 100.798 58.2491C100.878 58.2024 100.945 58.1346 100.99 58.0529C101.035 57.9713 101.058 57.8788 101.055 57.7855C101.052 57.6921 101.023 57.6014 100.973 57.5228Z" fill="#383E21"/>
<path d="M63.6105 67.8152L61.1245 63.8836C61.0615 63.7837 61.0263 63.6688 61.0226 63.5508C61.0189 63.4327 61.0468 63.3158 61.1034 63.2123C61.16 63.1087 61.2433 63.0222 61.3445 62.9617C61.4458 62.9013 61.5613 62.8691 61.6791 62.8686C61.796 62.869 61.9109 62.8383 62.0121 62.7796C62.1133 62.7209 62.197 62.6364 62.2549 62.5346C62.3128 62.4328 62.3426 62.3174 62.3414 62.2003C62.3402 62.0831 62.308 61.9684 62.248 61.8678L59.4889 57.2833C59.429 57.1827 59.3967 57.068 59.3955 56.9508C59.3943 56.8337 59.4242 56.7183 59.482 56.6165C59.5399 56.5147 59.6237 56.4302 59.7249 56.3715C59.826 56.3128 59.9409 56.2821 60.0578 56.2825H60.2228C60.3355 56.2802 60.4458 56.249 60.5431 56.1918C60.6403 56.1346 60.7214 56.0534 60.7784 55.9559C60.8355 55.8584 60.8667 55.7478 60.869 55.6348C60.8713 55.5218 60.8447 55.4101 60.7917 55.3103L57.5803 49.266C57.4954 49.1075 57.3692 48.975 57.2152 48.8827C57.0612 48.7903 56.8851 48.7416 56.7056 48.7416C56.5261 48.7416 56.35 48.7903 56.196 48.8827C56.042 48.975 55.9158 49.1075 55.8309 49.266L52.6252 55.3046C52.5722 55.4044 52.5456 55.5161 52.5479 55.6291C52.5502 55.7421 52.5814 55.8527 52.6385 55.9502C52.6955 56.0477 52.7765 56.1289 52.8738 56.1861C52.9711 56.2433 53.0814 56.2745 53.1941 56.2768H53.3591C53.476 56.2764 53.5909 56.3071 53.692 56.3658C53.7932 56.4245 53.877 56.509 53.9349 56.6108C53.9927 56.7126 54.0226 56.828 54.0214 56.9451C54.0202 57.0623 53.9879 57.177 53.928 57.2776L51.1688 61.8621C51.1089 61.9627 51.0767 62.0774 51.0755 62.1946C51.0742 62.3117 51.1041 62.4271 51.162 62.5289C51.2198 62.6307 51.3036 62.7152 51.4048 62.7739C51.506 62.8326 51.6209 62.8633 51.7377 62.8629C51.8568 62.8608 51.9741 62.8911 52.0774 62.9505C52.1807 63.0099 52.266 63.0962 52.3243 63.2003C52.3826 63.3043 52.4117 63.4222 52.4086 63.5415C52.4055 63.6608 52.3703 63.777 52.3066 63.8779L49.8206 67.8095C49.7567 67.9101 49.7212 68.0263 49.718 68.1455C49.7148 68.2647 49.744 68.3826 49.8024 68.4865C49.8608 68.5904 49.9462 68.6765 50.0496 68.7355C50.153 68.7945 50.2705 68.8243 50.3895 68.8217H63.0786C63.1936 68.8171 63.3053 68.7825 63.4027 68.7211C63.5001 68.6597 63.5797 68.5738 63.6335 68.4719C63.6874 68.37 63.7136 68.2557 63.7096 68.1405C63.7055 68.0252 63.6714 67.9131 63.6105 67.8152Z" fill="#383E21"/>
<path d="M81.7158 63.1196L79.3663 59.4131C79.3026 59.3181 79.2663 59.2074 79.2612 59.0931C79.2561 58.9788 79.2824 58.8652 79.3373 58.7649C79.3922 58.6646 79.4735 58.5813 79.5724 58.5241C79.6714 58.467 79.7841 58.4382 79.8982 58.4409C80.0083 58.4412 80.1165 58.4121 80.2117 58.3566C80.3068 58.3011 80.3856 58.2212 80.4397 58.1251C80.4939 58.029 80.5215 57.9202 80.5198 57.8098C80.5182 57.6995 80.4872 57.5916 80.4301 57.4972L77.8274 53.1692C77.7703 53.0749 77.7394 52.9669 77.7377 52.8566C77.736 52.7462 77.7636 52.6374 77.8178 52.5413C77.872 52.4452 77.9507 52.3653 78.0459 52.3098C78.141 52.2543 78.2492 52.2252 78.3593 52.2255H78.5158C78.6233 52.2254 78.7289 52.1974 78.8224 52.1442C78.9159 52.0911 78.9941 52.0146 79.0493 51.9221C79.1046 51.8297 79.1351 51.7246 79.1378 51.6168C79.1405 51.5091 79.1153 51.4026 79.0648 51.3075L76.0269 45.611C75.9469 45.4614 75.828 45.3364 75.6827 45.2492C75.5374 45.162 75.3713 45.116 75.202 45.116C75.0327 45.116 74.8665 45.162 74.7213 45.2492C74.576 45.3364 74.457 45.4614 74.3771 45.611L71.3449 51.3132C71.2943 51.4083 71.2692 51.5148 71.2719 51.6225C71.2746 51.7303 71.3051 51.8354 71.3603 51.9278C71.4156 52.0203 71.4938 52.0968 71.5872 52.1499C71.6807 52.2031 71.7864 52.2311 71.8939 52.2312H72.0475C72.1575 52.2313 72.2655 52.2606 72.3605 52.3161C72.4556 52.3716 72.5343 52.4514 72.5886 52.5473C72.6429 52.6431 72.6709 52.7517 72.6698 52.862C72.6687 52.9722 72.6385 53.0802 72.5822 53.1749L69.9767 57.5029C69.9219 57.5975 69.8928 57.7049 69.8924 57.8143C69.892 57.9237 69.9203 58.0313 69.9745 58.1263C70.0286 58.2213 70.1068 58.3004 70.201 58.3556C70.2952 58.4108 70.4023 58.4402 70.5115 58.4409C70.6226 58.4415 70.7317 58.4719 70.8272 58.5289C70.9227 58.586 71.0012 58.6676 71.0546 58.7654C71.108 58.8631 71.1344 58.9734 71.1309 59.0848C71.1274 59.1962 71.0942 59.3047 71.0348 59.3989L68.6882 63.1053C68.6287 63.1995 68.5956 63.3079 68.5921 63.4193C68.5886 63.5307 68.615 63.641 68.6684 63.7388C68.7218 63.8365 68.8003 63.9182 68.8958 63.9752C68.9913 64.0323 69.1003 64.0627 69.2115 64.0633H81.1896C81.2988 64.0617 81.4058 64.0313 81.4996 63.9752C81.5935 63.9191 81.671 63.8392 81.7243 63.7436C81.7776 63.648 81.8049 63.54 81.8034 63.4304C81.8019 63.3209 81.7717 63.2137 81.7158 63.1196Z" fill="#383E21"/>
<path d="M109.884 66.3099L107.347 62.2956C107.282 62.1937 107.246 62.0761 107.242 61.9553C107.238 61.8344 107.267 61.7147 107.325 61.6088C107.383 61.5029 107.469 61.4147 107.573 61.3534C107.677 61.2921 107.795 61.2601 107.916 61.2607C108.035 61.2591 108.151 61.2262 108.252 61.1653C108.354 61.1044 108.438 61.0177 108.496 60.9139C108.554 60.8101 108.583 60.6928 108.581 60.574C108.579 60.4552 108.546 60.339 108.485 60.2371L105.669 55.5585C105.608 55.4568 105.574 55.3407 105.572 55.222C105.57 55.1033 105.6 54.9861 105.657 54.8825C105.715 54.7788 105.799 54.6923 105.901 54.6318C106.003 54.5712 106.119 54.5388 106.238 54.5378H106.406C106.522 54.5379 106.636 54.5078 106.737 54.4504C106.838 54.3929 106.923 54.3101 106.983 54.2101C107.042 54.1101 107.075 53.9963 107.077 53.8798C107.08 53.7633 107.052 53.6482 106.997 53.5456L103.735 47.3758C103.648 47.2137 103.519 47.0781 103.362 46.9836C103.205 46.889 103.025 46.8391 102.841 46.8391C102.658 46.8391 102.478 46.889 102.321 46.9836C102.163 47.0781 102.035 47.2137 101.948 47.3758L98.6715 53.5456C98.617 53.6485 98.5901 53.7637 98.5932 53.8801C98.5963 53.9965 98.6293 54.1101 98.6892 54.21C98.749 54.3098 98.8335 54.3924 98.9346 54.4499C99.0356 54.5073 99.1498 54.5376 99.2659 54.5378H99.4338C99.5522 54.5388 99.6683 54.5712 99.7703 54.6318C99.8722 54.6923 99.9563 54.7788 100.014 54.8825C100.072 54.9861 100.101 55.1033 100.099 55.222C100.097 55.3407 100.064 55.4568 100.003 55.5585L97.1866 60.2371C97.1256 60.339 97.0924 60.4552 97.0905 60.574C97.0886 60.6928 97.1179 60.8101 97.1756 60.9139C97.2333 61.0177 97.3173 61.1044 97.4191 61.1653C97.521 61.2262 97.637 61.2591 97.7555 61.2607C97.8762 61.2601 97.9947 61.2921 98.0987 61.3534C98.2027 61.4147 98.2884 61.5029 98.3466 61.6088C98.4048 61.7147 98.4335 61.8344 98.4296 61.9553C98.4257 62.0761 98.3893 62.1937 98.3244 62.2956L95.7843 66.3099C95.7204 66.4121 95.6849 66.5294 95.6814 66.6499C95.678 66.7704 95.7068 66.8897 95.7648 66.9953C95.8229 67.1008 95.908 67.1889 96.0115 67.2504C96.115 67.3119 96.2329 67.3445 96.3532 67.3449H109.307C109.428 67.347 109.548 67.3161 109.653 67.2555C109.758 67.1948 109.845 67.1067 109.904 67.0006C109.964 66.8944 109.993 66.7741 109.99 66.6525C109.986 66.5308 109.95 66.4125 109.884 66.3099Z" fill="#383E21"/>
<path d="M110.422 92.0838V66.0903C106.024 66.3331 101.73 67.5234 97.8324 69.5801C89.5152 73.9166 81.508 74.1019 72.8808 70.5323C66.4494 67.8723 59.3525 66.2557 52.3693 66.4809C49.0351 66.5728 45.7157 66.9631 42.4507 67.647V92.0838C42.4507 93.6354 43.0656 95.1235 44.1603 96.2206C45.2549 97.3178 46.7395 97.9342 48.2875 97.9342H104.585C106.133 97.9342 107.618 97.3178 108.712 96.2206C109.807 95.1235 110.422 93.6354 110.422 92.0838Z" fill="#C0C040"/>
<path d="M50.0309 91.542C51.9866 92.0207 53.8561 92.8018 55.5719 93.8571C56.1415 94.2461 56.6816 94.6768 57.1876 95.1458C56.8884 95.471 56.701 95.8836 56.6528 96.3233C56.6523 96.3925 56.6746 96.46 56.7163 96.5152C56.7579 96.5703 56.8166 96.6101 56.8832 96.6284C57.4593 96.7039 58.0426 96.5583 58.516 96.2207C59.1363 96.7134 59.8956 96.9977 60.6863 97.0332C60.8087 97.0311 60.9291 97.0011 61.0384 96.9457C61.1476 96.8902 61.2429 96.8107 61.3171 96.713C61.3913 96.6153 61.4424 96.502 61.4667 96.3817C61.4909 96.2614 61.4877 96.1371 61.4571 96.0182C61.3285 95.5264 61.0746 95.0764 60.7204 94.7124C61.5197 94.1622 62.3133 93.6091 63.1212 93.0731C64.5263 92.1379 65.9315 91.1971 67.3423 90.2704C67.9112 90.5898 68.465 90.9214 69.0035 91.2655C70.275 92.0695 71.4668 93.2185 72.8976 93.706C73.6798 93.974 74.4507 92.9761 73.9899 92.2805C73.1365 91.0003 71.6346 90.1992 70.3518 89.4009C70.0673 89.2241 69.7829 89.0502 69.4984 88.8791L69.8369 88.6624C70.9207 87.9782 72.013 87.311 73.1394 86.7009C73.6463 87.2098 74.185 87.6859 74.7522 88.1264C75.6055 88.7679 76.7262 87.5305 76.1744 86.7009C75.9288 86.3193 75.657 85.9554 75.3609 85.6118C75.8046 85.4122 76.254 85.224 76.712 85.0415C77.9645 84.5777 79.2488 84.2051 80.5549 83.9268C80.8918 84.1958 81.2785 84.3954 81.6927 84.5141C81.7964 84.5414 81.9049 84.5446 82.0101 84.5236C82.1152 84.5025 82.2142 84.4578 82.2995 84.3926C82.3848 84.3275 82.4541 84.2437 82.5023 84.1477C82.5504 84.0516 82.5761 83.9458 82.5773 83.8384C82.5747 83.7382 82.5661 83.6382 82.5517 83.539C82.7686 83.4723 82.9689 83.3603 83.1395 83.2105C83.3101 83.0606 83.4471 82.8762 83.5416 82.6694C83.6055 82.5463 83.6303 82.4065 83.6124 82.2689C83.5946 82.1312 83.5352 82.0023 83.442 81.8996C82.9158 81.2268 82.1364 81.2553 81.3655 81.3893C80.7967 80.7649 80.1424 80.2004 79.6276 79.7185C78.238 78.423 76.7391 77.2506 75.1476 76.2146C71.8876 74.1054 68.3168 72.5236 64.5661 71.5274C60.2995 70.4002 55.8912 69.9055 51.4816 70.059C48.7054 70.1389 45.403 70.2159 42.476 71.0056V72.9529C43.1701 72.8873 43.8613 72.8046 44.5525 72.7277C46.683 72.4939 48.7993 72.2601 50.9468 72.2059C55.1909 72.0519 59.4356 72.4963 63.5564 73.526C67.1236 74.4439 70.5258 75.9147 73.64 77.8853C75.146 78.8427 76.5634 79.9333 77.8754 81.1441C78.1568 81.4148 78.4236 81.7003 78.6747 81.9994C77.8868 82.2133 77.1074 82.4556 76.3394 82.7379C75.4064 83.08 74.4962 83.4734 73.6059 83.904C72.1194 82.7083 70.5319 81.6446 68.8613 80.725C66.0426 79.1218 63.0116 77.9267 59.8586 77.1754C56.3756 76.3559 52.7979 76.0135 49.2231 76.1575C47.0898 76.2374 44.672 76.3657 42.4533 76.9017V78.8404C42.9368 78.7748 43.4204 78.7093 43.9096 78.6522C45.5879 78.4612 47.2718 78.293 48.9557 78.2331C52.4302 78.0878 55.908 78.4265 59.2897 79.2396C62.1773 79.9449 64.9534 81.0484 67.5386 82.5183C68.8712 83.2713 70.142 84.1293 71.3388 85.0843C70.5803 85.5177 69.8294 85.9681 69.086 86.4357C68.4602 86.832 67.8401 87.234 67.22 87.6389C66.7848 87.4165 66.3468 87.197 65.903 86.986C59.8323 84.108 53.2077 82.594 46.4924 82.5497C45.1395 82.5462 43.7874 82.6157 42.4419 82.7578V84.6281C43.7902 84.5454 45.1441 84.5198 46.4924 84.5426C49.6926 84.6009 52.8768 85.012 55.9872 85.7686C59.0214 86.493 61.9683 87.5445 64.7766 88.9048L65.0867 89.0616C64.057 89.7687 63.0415 90.4957 62.0403 91.2427C61.0921 91.9611 60.1439 92.6901 59.1958 93.4295C58.3761 92.7567 57.507 92.1467 56.596 91.6048C54.7284 90.5479 52.7156 89.7727 50.6226 89.3039C48.5013 88.8307 46.3359 88.5851 44.1628 88.5712C43.5939 88.5712 43.025 88.5712 42.4419 88.5854V90.4273L43.6991 90.5213C45.8347 90.6816 47.9529 91.023 50.0309 91.542Z" fill="#878E28"/>
<path d="M76.4363 39.3386C80.103 39.3386 83.0753 36.3593 83.0753 32.6841C83.0753 29.009 80.103 26.0297 76.4363 26.0297C72.7697 26.0297 69.7974 29.009 69.7974 32.6841C69.7974 36.3593 72.7697 39.3386 76.4363 39.3386Z" fill="#FFDB5C"/>
<path d="M99.5248 72.6336C100.663 72.9843 101.8 72.2145 102.907 71.8724C104.158 71.4812 105.429 71.1605 106.716 70.9115C107.943 70.6713 109.182 70.4933 110.428 70.3784V68.4197C107.689 68.5748 104.983 69.0885 102.378 69.9479C101.24 70.3157 99.7268 70.5523 99.1351 71.6785C99.0872 71.7651 99.0592 71.8614 99.0534 71.9603C99.0476 72.0591 99.0639 72.1581 99.1014 72.2497C99.1388 72.3414 99.1962 72.4235 99.2695 72.4899C99.3428 72.5564 99.43 72.6055 99.5248 72.6336Z" fill="#878E28"/>
<path d="M110.422 75.4648V73.298C109.694 73.3493 108.971 73.4519 108.291 73.5517C106.268 73.8581 104.287 74.4036 102.392 75.1768C101.115 75.6929 101.684 77.7998 102.961 77.2695C104.692 76.5462 106.496 76.0147 108.342 75.6843C109.031 75.5731 109.725 75.4998 110.422 75.4648Z" fill="#878E28"/>
<path d="M89.6547 50.0159H84.4521V56.197H89.6547V50.0159Z" fill="#AF6431"/>
<path d="M106.295 66.2529H84.8135V84.0295H106.295V66.2529Z" fill="#AF6431"/>
<path d="M76.2059 53.1036L68.0508 67.3449V84.0295H85.6779V67.3449L76.2059 53.1036Z" fill="#D28F5E"/>
<path d="M105.968 67.3448H85.6381C85.3864 67.3449 85.139 67.2799 84.9197 67.156C84.7005 67.0322 84.5168 66.8536 84.3866 66.6378L76.2002 53.1036H99.1266C99.3782 53.1038 99.6256 53.169 99.8448 53.2928C100.064 53.4167 100.248 53.595 100.378 53.8107L107.205 65.1181C107.339 65.3395 107.412 65.5926 107.417 65.8515C107.422 66.1105 107.359 66.3662 107.233 66.5925C107.107 66.8188 106.924 67.0077 106.701 67.1398C106.479 67.272 106.226 67.3427 105.968 67.3448Z" fill="#442325"/>
<path d="M90.9288 60.4822C91.7505 61.3454 92.8599 61.8757 94.0463 61.9724C95.2326 62.0692 96.413 61.7255 97.363 61.0068C97.6164 60.8173 97.8499 60.6023 98.0599 60.3653C98.2845 60.1527 98.4763 59.9076 98.6288 59.6383C98.6126 59.624 98.5983 59.6077 98.5861 59.5898C98.5993 59.6053 98.6146 59.6187 98.6316 59.6297C98.6408 59.6107 98.6475 59.5906 98.6515 59.5699C98.68 59.433 98.7198 59.6354 98.6715 59.6583C98.6993 59.6722 98.7259 59.6884 98.7511 59.7067C98.8819 59.798 99.0071 59.892 99.1436 59.9747C99.4447 60.1497 99.7643 60.2902 100.097 60.3938C100.726 60.5935 101.391 60.6554 102.047 60.5752C102.703 60.495 103.333 60.2747 103.897 59.9291C103.942 59.9006 103.985 59.8635 104.03 59.8322L103.356 58.7259C102.906 59.0413 102.384 59.2401 101.838 59.3048C101.292 59.3694 100.739 59.2979 100.227 59.0966C99.7068 58.897 99.2887 58.4038 98.734 58.3182C98.0912 58.2185 97.7271 58.6917 97.4114 59.1736C97.1073 59.623 96.7084 60 96.2429 60.2779C95.7775 60.5558 95.2568 60.7277 94.7176 60.7816C94.0951 60.8303 93.4703 60.7223 92.9 60.4674C92.3297 60.2124 91.832 59.8187 91.4522 59.3218C91.2502 59.0538 90.8008 58.8828 90.5391 59.2049C90.2091 59.6255 89.7869 59.9643 89.3053 60.1951C88.8237 60.4259 88.2955 60.5426 87.7617 60.5359C87.2279 60.5293 86.7028 60.3997 86.227 60.157C85.7512 59.9143 85.3376 59.5651 85.018 59.1365C84.9706 59.0611 84.9049 58.999 84.8271 58.956C84.7492 58.9129 84.6618 58.8903 84.5729 58.8903C84.484 58.8903 84.3965 58.9129 84.3187 58.956C84.2408 58.999 84.1751 59.0611 84.1277 59.1365C83.5588 59.9519 82.768 60.7901 81.7554 61.0125C81.5096 61.0658 81.2564 61.0754 81.0073 61.041L81.5762 61.9676L81.7725 61.9505C82.9387 61.8194 83.8603 61.0752 84.5942 60.2028C85.4101 61.0596 86.5249 61.567 87.7055 61.6191C88.886 61.6712 90.0409 61.2638 90.9288 60.4822Z" fill="#7A4018"/>
<path d="M106.15 63.3505C105.682 63.5466 105.17 63.6112 104.669 63.5373C104.168 63.4635 103.696 63.2539 103.305 62.9314C103.24 62.867 103.16 62.8185 103.073 62.7893C102.987 62.7601 102.894 62.751 102.803 62.7628C102.712 62.7746 102.625 62.807 102.549 62.8574C102.472 62.9078 102.408 62.975 102.361 63.054C101.428 64.9898 98.9473 63.9606 97.6076 63.1623C97.4946 63.0986 97.3641 63.073 97.2355 63.0894C97.1069 63.1059 96.987 63.1634 96.8936 63.2535C96.1114 63.9914 95.084 64.4124 94.0101 64.435C92.9362 64.4577 91.892 64.0804 91.0795 63.3761C91.0181 63.3139 90.9432 63.2667 90.8607 63.2381C90.7781 63.2096 90.6901 63.2005 90.6034 63.2115C90.5168 63.2225 90.4339 63.2534 90.361 63.3017C90.2882 63.35 90.2275 63.4145 90.1835 63.4902C89.3131 64.7931 87.0546 64.8901 86.0989 63.6185C85.8713 63.3134 85.3394 63.2051 85.1374 63.6185C84.9476 63.9903 84.6251 64.277 84.2342 64.4217C83.8432 64.5664 83.4123 64.5586 83.0269 64.3997L83.7152 65.5401C84.4383 65.5312 85.1317 65.2503 85.658 64.7532C86.3797 65.3481 87.2937 65.6577 88.2274 65.6235C89.1612 65.5894 90.0503 65.2139 90.7268 64.5679C91.7041 65.2577 92.8773 65.6133 94.0722 65.582C95.2671 65.5506 96.4201 65.134 97.3601 64.394C98.3671 64.9642 99.502 65.4574 100.677 65.3491C101.577 65.2924 102.419 64.8827 103.021 64.2086C103.555 64.5355 104.158 64.7316 104.781 64.7811C105.405 64.8307 106.032 64.7322 106.61 64.4938C106.664 64.4709 106.718 64.4396 106.775 64.4111L106.15 63.3505Z" fill="#7A4018"/>
<path d="M82.2051 56.0488C82.6699 56.5097 83.2231 56.8713 83.8313 57.1118C84.4395 57.3523 85.09 57.4666 85.7435 57.448C86.3971 57.4293 87.0401 57.278 87.6336 57.0032C88.2271 56.7284 88.7589 56.3358 89.1968 55.8492C90.3346 56.7188 91.6004 57.5599 93.0596 57.5085C93.5795 57.4988 94.0901 57.3687 94.5515 57.1283C95.0129 56.888 95.4125 56.5438 95.7192 56.1229C96.5707 56.8136 97.6402 57.1771 98.7352 57.1478C99.8303 57.1185 100.879 56.6985 101.693 55.9632L101.053 54.9026C100.67 55.2904 100.203 55.5833 99.6872 55.758C99.0255 55.9629 98.3187 55.9712 97.6523 55.7819C96.986 55.5927 96.3886 55.214 95.9325 54.6917C95.8585 54.6204 95.7675 54.5694 95.6682 54.5436C95.5688 54.5178 95.4645 54.5181 95.3654 54.5445C95.2662 54.5708 95.1754 54.6224 95.1019 54.6941C95.0283 54.7658 94.9745 54.8553 94.9455 54.954C94.7463 55.9091 93.7423 56.3595 92.8377 56.331C91.5861 56.294 90.4711 55.3845 89.5324 54.6489C89.4695 54.5892 89.3941 54.5442 89.3118 54.5172C89.2294 54.4902 89.1421 54.4819 89.0561 54.4928C88.9701 54.5037 88.8876 54.5336 88.8146 54.5803C88.7415 54.627 88.6797 54.6894 88.6336 54.7629C88.282 55.2428 87.8235 55.6339 87.2947 55.9052C86.7658 56.1764 86.1812 56.3203 85.5872 56.3253C84.9938 56.3159 84.4103 56.1708 83.8814 55.901C83.3524 55.6313 82.8919 55.2439 82.5351 54.7686C82.4738 54.7118 82.4007 54.6691 82.3212 54.6437C82.2416 54.6183 82.1574 54.6108 82.0746 54.6217C81.9918 54.6326 81.9124 54.6616 81.842 54.7067C81.7717 54.7518 81.7121 54.8119 81.6675 54.8827C81.4363 55.3226 81.0962 55.6955 80.6797 55.9656C80.2633 56.2357 79.7846 56.3939 79.2895 56.4251C78.869 56.439 78.4508 56.3571 78.0664 56.1856L78.8117 57.423C78.9916 57.448 79.1733 57.4594 79.3549 57.4572C79.9033 57.4424 80.4419 57.3088 80.9338 57.0657C81.4258 56.8226 81.8595 56.4757 82.2051 56.0488Z" fill="#7A4018"/>
<path d="M77.8471 68.9243H75.8816C74.6893 68.9243 73.7227 69.8932 73.7227 71.0883V82.6438C73.7227 83.8389 74.6893 84.8078 75.8816 84.8078H77.8471C79.0395 84.8078 80.0061 83.8389 80.0061 82.6438V71.0883C80.0061 69.8932 79.0395 68.9243 77.8471 68.9243Z" fill="#442325"/>
<path d="M78.2084 61.577C78.209 61.844 78.1305 62.1051 77.9829 62.3273C77.8353 62.5495 77.6252 62.7228 77.3792 62.8253C77.1332 62.9277 76.8625 62.9546 76.6012 62.9027C76.34 62.8507 76.1 62.7222 75.9116 62.5335C75.7233 62.3447 75.5951 62.1041 75.5433 61.8423C75.4915 61.5804 75.5184 61.309 75.6205 61.0625C75.7227 60.816 75.8956 60.6054 76.1173 60.4574C76.339 60.3094 76.5995 60.2308 76.8658 60.2313C77.2219 60.2313 77.5634 60.3731 77.8152 60.6255C78.067 60.8778 78.2084 61.2201 78.2084 61.577Z" fill="#442325"/>
<path d="M79.2725 75.5246C79.2725 75.6312 79.2409 75.7353 79.1819 75.8239C79.1228 75.9126 79.0388 75.9816 78.9406 76.0224C78.8424 76.0632 78.7343 76.0739 78.63 76.0531C78.5257 76.0323 78.4299 75.981 78.3547 75.9056C78.2795 75.8302 78.2283 75.7342 78.2076 75.6297C78.1869 75.5252 78.1975 75.4168 78.2382 75.3184C78.2789 75.2199 78.3478 75.1357 78.4362 75.0765C78.5246 75.0173 78.6285 74.9857 78.7349 74.9857C78.8775 74.9857 79.0142 75.0425 79.115 75.1435C79.2158 75.2446 79.2725 75.3817 79.2725 75.5246Z" fill="#AF6431"/>
<path d="M91.8304 74.6209C93.0306 74.6209 94.0036 73.6456 94.0036 72.4426C94.0036 71.2396 93.0306 70.2644 91.8304 70.2644C90.6302 70.2644 89.6572 71.2396 89.6572 72.4426C89.6572 73.6456 90.6302 74.6209 91.8304 74.6209Z" fill="#FFD471"/>
<path d="M92.1748 69.7426H91.4893V75.1397H92.1748V69.7426Z" fill="#AF6431"/>
<path d="M94.5244 72.7876V72.1005H89.1398V72.7876H94.5244Z" fill="#AF6431"/>
<path d="M100.247 74.6209C101.448 74.6209 102.421 73.6456 102.421 72.4426C102.421 71.2396 101.448 70.2644 100.247 70.2644C99.0472 70.2644 98.0742 71.2396 98.0742 72.4426C98.0742 73.6456 99.0472 74.6209 100.247 74.6209Z" fill="#FFD471"/>
<path d="M100.591 69.7426H99.9058V75.1397H100.591V69.7426Z" fill="#AF6431"/>
<path d="M102.941 72.7876V72.1005H97.5563V72.7876H102.941Z" fill="#AF6431"/>
<path d="M76.2005 53.1036L67.2831 66.8231C67.2495 66.8741 67.2304 66.9334 67.2278 66.9944C67.2253 67.0555 67.2394 67.1161 67.2686 67.1698C67.2979 67.2234 67.3412 67.2681 67.3938 67.2989C67.4465 67.3298 67.5065 67.3456 67.5675 67.3449H67.9885C68.0768 67.3445 68.1637 67.3225 68.2415 67.2808C68.3194 67.239 68.3858 67.1788 68.4351 67.1054L76.9429 54.3182L76.2005 53.1036Z" fill="#442325"/>
<path d="M89.9588 48.097H84.1504C83.9069 48.097 83.7095 48.2949 83.7095 48.539V50.2268C83.7095 50.4709 83.9069 50.6687 84.1504 50.6687H89.9588C90.2023 50.6687 90.3997 50.4709 90.3997 50.2268V48.539C90.3997 48.2949 90.2023 48.097 89.9588 48.097Z" fill="#442325"/>
<path d="M110.422 77.9736C107.893 77.891 105.373 77.871 102.947 77.7912C97.7302 77.6173 92.6585 78.0079 87.493 78.6465C82.6119 79.2481 77.7564 79.978 73.1313 81.5404C68.1315 83.1899 63.2789 85.2576 58.6245 87.7215C53.8642 90.2617 49.4422 93.3932 45.4632 97.0418L45.3579 97.1387C46.2479 97.6627 47.2612 97.9393 48.2934 97.9399H104.585C105.352 97.9399 106.112 97.7884 106.82 97.494C107.529 97.1996 108.173 96.7682 108.715 96.2243C109.257 95.6804 109.687 95.0348 109.98 94.3243C110.273 93.6139 110.423 92.8525 110.422 92.0837V77.9736Z" fill="#878E28"/>
<path d="M110.422 92.0496C109.91 92.0496 109.398 92.0496 108.889 92.0496C105.075 92.1174 101.271 92.4729 97.5108 93.113C93.6745 93.7595 89.8941 94.7042 86.204 95.9384C84.5201 96.5087 82.8305 97.0988 81.2063 97.823L80.9702 97.9285H86.8554C93.9739 95.585 101.405 94.3354 108.897 94.2221C109.273 94.2221 109.645 94.2221 110.021 94.2221C110.291 93.5427 110.43 92.818 110.43 92.0866L110.422 92.0496Z" fill="#C0C040"/>
<path d="M56.1068 97.9342C56.6046 97.5351 57.1052 97.1359 57.6115 96.7596C59.3296 95.488 61.1083 94.3057 62.9478 93.2128C66.6966 90.9915 70.6391 89.1163 74.7267 87.6104C83.5445 84.3488 92.9142 82.8291 102.295 82.6809C105.003 82.6381 107.717 82.7094 110.422 82.8805V80.8191C108.345 80.6908 106.266 80.6195 104.184 80.6167C99.1424 80.6005 94.1077 80.9895 89.1282 81.7799C80.1255 83.2226 71.3275 86.1421 63.4256 90.7324C61.2328 92.0028 59.1158 93.4003 57.0853 94.9178C55.848 95.8444 54.5253 96.7938 53.4302 97.9342H56.1068Z" fill="#C0C040"/>
<path d="M76.1319 94.6954C80.8194 92.6277 85.7023 91.0374 90.707 89.9483C95.6932 88.8631 100.772 88.2625 105.874 88.155C107.391 88.1208 108.908 88.1331 110.425 88.1921V85.8656C110.007 85.8513 109.589 85.8428 109.173 85.8371C105.137 85.7871 101.104 86.055 97.1099 86.6382C88.9918 87.8205 81.102 90.2406 73.7141 93.8144C71.6581 94.8051 69.654 95.9004 67.7095 97.096C67.2629 97.3811 66.7936 97.6463 66.3242 97.9342H69.6295C71.7543 96.771 73.9246 95.679 76.1319 94.6954Z" fill="#C0C040"/>
<path d="M90.1094 41.7791C90.8462 40.479 90.6044 38.68 89.1992 37.9416C89.129 37.9033 89.0492 37.8864 88.9695 37.8928C88.8899 37.8992 88.8138 37.9286 88.7505 37.9776C88.6872 38.0265 88.6395 38.0928 88.6131 38.1684C88.5867 38.244 88.5828 38.3257 88.6019 38.4034C88.838 39.2588 88.4255 39.943 87.7713 40.4762C87.1171 41.0093 86.5254 41.4969 86.1841 42.2895C86.0223 42.6423 85.932 43.0239 85.9183 43.4119C85.9047 43.8 85.9679 44.187 86.1044 44.5504C86.3739 45.1218 86.817 45.5929 87.3702 45.8961C87.5893 46.033 89.1793 46.9254 88.8607 45.8961C88.6332 45.1748 88.4682 44.3679 88.7071 43.6152C88.9461 42.8626 89.7226 42.4748 90.1094 41.7791Z" fill="white"/>
<path d="M86.1985 46.3608C86.1831 46.3276 86.166 46.2952 86.1473 46.2639C86.1758 46.2228 86.1945 46.1758 86.2019 46.1263C86.2093 46.0769 86.2052 46.0264 86.1899 45.9787C85.7064 44.6558 84.5771 44.0115 85.0806 42.3864C85.1027 42.2938 85.0945 42.1966 85.0571 42.1091C85.0197 42.0217 84.9551 41.9486 84.873 41.9009C84.7909 41.8532 84.6956 41.8333 84.6013 41.8442C84.5069 41.8552 84.4187 41.8963 84.3496 41.9616C83.9927 42.3146 83.7483 42.7657 83.647 43.2579C83.5457 43.7501 83.5923 44.2614 83.7807 44.7271C83.9748 45.2052 84.2743 45.6331 84.6568 45.9787C85.0009 46.2895 85.5528 46.7485 86.0534 46.6202C86.1053 46.6026 86.1488 46.5663 86.1756 46.5184C86.2023 46.4705 86.2105 46.4144 86.1985 46.3608Z" fill="white"/>
<path d="M33.3003 111.3V100.6H43.6229V111.3H40.0758V102.633L40.8523 103.397H36.0594L36.836 102.633V111.3H33.3003Z" fill="#442325"/>
<path d="M50.4381 111.451C49.5682 111.466 48.7075 111.271 47.9293 110.881C47.2326 110.534 46.6428 110.004 46.2226 109.347C45.8131 108.67 45.5967 107.893 45.5967 107.101C45.5967 106.308 45.8131 105.531 46.2226 104.854C46.642 104.198 47.2321 103.67 47.9293 103.326C48.7172 102.963 49.5739 102.775 50.4409 102.775C51.3079 102.775 52.1647 102.963 52.9526 103.326C53.6512 103.668 54.2418 104.196 54.6593 104.854C55.0633 105.533 55.2766 106.31 55.2766 107.101C55.2766 107.891 55.0633 108.668 54.6593 109.347C54.2406 110.005 53.6504 110.535 52.9526 110.881C52.1718 111.269 51.3096 111.465 50.4381 111.451ZM50.4381 108.763C50.6792 108.765 50.9164 108.701 51.1236 108.577C51.3387 108.44 51.508 108.241 51.61 108.007C51.7401 107.722 51.8033 107.411 51.7949 107.098C51.8054 106.784 51.7421 106.473 51.61 106.188C51.5035 105.967 51.3369 105.78 51.1294 105.65C50.9218 105.519 50.6817 105.45 50.4367 105.45C50.1916 105.45 49.9515 105.519 49.7439 105.65C49.5364 105.78 49.3698 105.967 49.2633 106.188C49.1312 106.473 49.0679 106.784 49.0784 107.098C49.07 107.411 49.1332 107.722 49.2633 108.007C49.3653 108.241 49.5346 108.44 49.7497 108.577C49.9578 108.702 50.196 108.766 50.4381 108.763Z" fill="#442325"/>
<path d="M61.8418 112.948V108.594H72.8186V112.948H69.6328V111.3H65.0276V112.948H61.8418ZM68.276 109.812V105.629H66.5522L66.538 106.148C66.538 106.505 66.5096 106.835 66.484 107.143C66.4635 107.419 66.4149 107.693 66.3389 107.959C66.2742 108.185 66.1681 108.398 66.026 108.586C65.8756 108.777 65.68 108.926 65.4571 109.022L62.0893 108.594C62.3249 108.604 62.5562 108.53 62.7435 108.386C62.9264 108.236 63.0659 108.039 63.1474 107.816C63.2505 107.54 63.3221 107.253 63.3607 106.961C63.4082 106.611 63.4367 106.259 63.4461 105.906L63.5513 102.958H71.7064V109.818L68.276 109.812Z" fill="#442325"/>
<path d="M78.8859 111.451C78.017 111.466 77.1574 111.27 76.3799 110.881C75.6832 110.534 75.0935 110.004 74.6733 109.347C74.2638 108.67 74.0474 107.893 74.0474 107.1C74.0474 106.308 74.2638 105.531 74.6733 104.854C75.0927 104.198 75.6828 103.67 76.3799 103.326C77.1601 102.946 78.0189 102.757 78.8859 102.775C79.7565 102.758 80.6189 102.947 81.4033 103.326C82.1019 103.667 82.6925 104.196 83.1099 104.854C83.514 105.533 83.7273 106.309 83.7273 107.1C83.7273 107.891 83.514 108.668 83.1099 109.347C82.6913 110.005 82.1011 110.535 81.4033 110.881C80.6215 111.269 79.7584 111.465 78.8859 111.451ZM78.8859 108.763C79.128 108.766 79.3662 108.701 79.5743 108.577C79.7894 108.44 79.9587 108.241 80.0607 108.007C80.1898 107.722 80.2521 107.411 80.2427 107.098C80.2542 106.784 80.1918 106.473 80.0607 106.188C79.9783 106.026 79.8637 105.882 79.7238 105.766C79.5839 105.65 79.4218 105.564 79.2475 105.514C79.0732 105.463 78.8903 105.448 78.7102 105.471C78.5301 105.494 78.3566 105.554 78.2004 105.646C77.9897 105.776 77.8209 105.964 77.714 106.188C77.5819 106.472 77.5186 106.784 77.5291 107.098C77.5206 107.411 77.5839 107.722 77.714 108.007C77.8149 108.242 77.9845 108.441 78.2004 108.577C78.4076 108.701 78.6448 108.765 78.8859 108.763Z" fill="#442325"/>
<path d="M85.5645 111.3V102.941H89.2082L91.8621 108.15H90.4399L93.4436 102.941H96.6749L96.7062 111.3H93.6001L93.583 106.271L94.1178 106.639L91.8166 110.63H90.3688L88.0647 106.368L88.6592 106.214V111.289L85.5645 111.3Z" fill="#442325"/>
<path d="M101.559 111.451C100.97 111.471 100.386 111.35 99.8521 111.101C99.4305 110.899 99.0758 110.58 98.8301 110.181C98.5845 109.783 98.4584 109.322 98.4669 108.854C98.4518 108.363 98.5955 107.88 98.8765 107.477C99.1982 107.068 99.6384 106.769 100.137 106.622C100.831 106.412 101.554 106.316 102.278 106.336H104.016V108.001H102.825C102.546 107.979 102.267 108.04 102.022 108.175C101.939 108.235 101.873 108.314 101.829 108.407C101.785 108.499 101.766 108.601 101.772 108.703C101.77 108.794 101.789 108.885 101.827 108.969C101.865 109.052 101.921 109.126 101.991 109.185C102.162 109.32 102.377 109.388 102.594 109.376C102.824 109.377 103.05 109.311 103.243 109.185C103.455 109.041 103.609 108.827 103.678 108.58L104.119 109.607C104.028 110.161 103.728 110.658 103.28 110.995C102.768 111.325 102.166 111.484 101.559 111.451ZM103.92 111.3V109.818L103.678 109.418V106.607C103.689 106.434 103.661 106.26 103.596 106.098C103.531 105.937 103.431 105.792 103.302 105.675C102.948 105.429 102.52 105.315 102.091 105.353C101.705 105.356 101.322 105.415 100.953 105.53C100.597 105.631 100.262 105.794 99.9631 106.011L98.8651 103.731C99.4074 103.403 99.9992 103.166 100.617 103.029C101.269 102.87 101.937 102.788 102.608 102.784C104.038 102.784 105.149 103.105 105.939 103.748C106.73 104.39 107.124 105.409 107.12 106.804V111.3H103.92Z" fill="#442325"/>
<path d="M109.288 111.3V102.941H112.931L115.585 108.15H114.163L117.161 102.941H120.392L120.424 111.3H117.323L117.309 106.271L117.841 106.639L115.54 110.63H114.092L111.788 106.368L112.382 106.214V111.289L109.288 111.3Z" fill="#442325"/>
<path d="M33.1154 114.322V118.513L33.5222 118.528L33.4824 120.13H33.0102L32.9647 119.007H30.0264L29.9865 120.13H29.5143L29.4717 118.528L29.8358 118.513C30.021 118.187 30.1735 117.843 30.2909 117.487C30.4585 116.844 30.5332 116.181 30.5128 115.517V114.322H33.1154ZM31.0646 115.702C31.0831 116.346 31.0035 116.99 30.8285 117.61C30.7335 117.918 30.6067 118.217 30.4502 118.499H32.5124V114.821H31.0646V115.702Z" fill="#AF6431"/>
<path d="M38.2582 115.648V119.007H37.6552V116.127H36.5174V117.002C36.5174 117.946 36.4264 118.576 35.9912 118.861C35.8022 119.01 35.5654 119.084 35.3256 119.069L35.2402 118.599C35.3612 118.582 35.4758 118.534 35.573 118.459C35.8859 118.231 35.9201 117.761 35.9201 117.011V115.657L38.2582 115.648Z" fill="#AF6431"/>
<path d="M43.1107 119.007H42.5077V117.598H42.0668C41.9643 117.591 41.8613 117.603 41.7637 117.636C41.666 117.668 41.5757 117.719 41.4979 117.786C41.2476 117.986 41.1566 118.402 41.0257 118.73C40.9859 118.828 40.9393 118.924 40.8863 119.015H40.2378C40.3184 118.894 40.3879 118.767 40.4454 118.633C40.5905 118.308 40.673 117.869 40.9717 117.621C41.077 117.522 41.2081 117.455 41.35 117.427V117.404C40.9148 117.356 40.4653 117.085 40.4653 116.572C40.4646 116.421 40.5057 116.273 40.5841 116.145C40.6624 116.017 40.775 115.913 40.9091 115.845C41.2579 115.676 41.6429 115.597 42.0298 115.614C42.3912 115.617 42.7521 115.641 43.1107 115.685V119.007ZM42.5077 116.05C42.3399 116.027 42.1707 116.015 42.0014 116.016C41.5861 116.016 41.094 116.133 41.094 116.6C41.094 117.068 41.6287 117.171 41.9871 117.171H42.5077V116.05Z" fill="#AF6431"/>
<path d="M48.6093 115.648L49.7158 117.113H49.8409V115.648H50.4098V117.113H50.5293L51.6358 115.648H52.3355L51.0356 117.173C51.5419 117.227 51.8377 117.527 52.0397 118.06C52.1414 118.382 52.264 118.698 52.4066 119.004H51.7979C51.6753 118.756 51.5735 118.499 51.4936 118.234C51.2859 117.687 50.973 117.518 50.5378 117.518H50.4326V119.004H49.8637V117.518H49.7471C49.2749 117.518 48.9933 117.692 48.7856 118.24C48.6973 118.501 48.5908 118.757 48.4671 119.004H47.8726C48.0119 118.733 48.12 118.379 48.2395 118.069C48.4471 117.527 48.743 117.227 49.2493 117.173L47.9209 115.645L48.6093 115.648Z" fill="#AF6431"/>
<path d="M54.8982 115.648V117.074C54.8982 117.607 54.8982 117.929 54.8641 118.419H54.884C55.086 118.012 55.2026 117.775 55.4245 117.387L56.4684 115.651H57.1823V119.01H56.6134V117.584C56.6134 117.037 56.6134 116.751 56.6533 116.21H56.6333C56.4172 116.64 56.2721 116.911 56.0645 117.25C55.7459 117.772 55.3789 118.416 55.0205 119.007H54.3208V115.648H54.8982Z" fill="#AF6431"/>
<path d="M59.8337 117.056H60.1181C60.6301 117.056 60.9715 116.82 60.9715 116.509C60.9715 116.198 60.687 116.024 60.3201 116.024C60.034 116.029 59.7543 116.11 59.5094 116.258L59.3586 115.885C59.695 115.681 60.081 115.576 60.4737 115.58C60.9857 115.58 61.6115 115.808 61.6115 116.461C61.5919 116.655 61.5064 116.837 61.3692 116.976C61.2321 117.115 61.0515 117.203 60.8577 117.225C61.3555 117.267 61.7707 117.572 61.7707 118.066C61.7707 118.793 61.0283 119.064 60.3229 119.064C59.9439 119.065 59.5704 118.972 59.2363 118.793L59.3956 118.385C59.6691 118.531 59.9734 118.609 60.2831 118.613C60.7866 118.613 61.1051 118.371 61.1051 118.043C61.1051 117.592 60.6358 117.473 60.1295 117.473H59.8251L59.8337 117.056Z" fill="#AF6431"/>
<path d="M64.5127 115.648V117.002H66.1056V115.648H66.7086V119.007H66.1056V117.487H64.5127V119.007H63.9097V115.648H64.5127Z" fill="#AF6431"/>
<path d="M69.6582 115.648V117.074C69.6582 117.607 69.6582 117.929 69.6241 118.419H69.644C69.846 118.012 69.9626 117.775 70.1845 117.387L71.2284 115.651H71.9338V119.01H71.3649V117.584C71.3649 117.037 71.3649 116.751 71.4047 116.21H71.3649C71.1487 116.64 71.0037 116.911 70.8103 117.25C70.4917 117.772 70.1247 118.416 69.7663 119.007H69.0894V115.648H69.6582Z" fill="#AF6431"/>
<path d="M77.4377 117.057H77.7221C78.2341 117.057 78.5755 116.82 78.5755 116.509C78.5755 116.198 78.3052 116.024 77.9241 116.024C77.638 116.029 77.3583 116.11 77.1134 116.258L76.9598 115.885C77.2964 115.682 77.6822 115.577 78.0748 115.58C78.5868 115.58 79.2126 115.808 79.2126 116.461C79.193 116.655 79.1075 116.837 78.9704 116.976C78.8332 117.115 78.6527 117.203 78.4588 117.225C78.9566 117.267 79.3719 117.573 79.3719 118.066C79.3719 118.793 78.6323 119.064 77.9269 119.064C77.5479 119.066 77.1744 118.972 76.8403 118.793L76.9996 118.385C77.2721 118.531 77.5754 118.609 77.8843 118.613C78.3906 118.613 78.7091 118.371 78.7091 118.043C78.7091 117.593 78.237 117.473 77.7335 117.473H77.4291L77.4377 117.057Z" fill="#AF6431"/>
<path d="M83.3827 119.007L83.3344 118.585H83.3116C83.1919 118.743 83.0364 118.871 82.8579 118.958C82.6795 119.044 82.4831 119.087 82.2848 119.084C82.1532 119.093 82.021 119.075 81.8967 119.031C81.7723 118.987 81.6585 118.917 81.5623 118.826C81.4661 118.736 81.3897 118.626 81.3378 118.505C81.2859 118.383 81.2597 118.252 81.2608 118.12C81.2608 117.307 81.9804 116.863 83.2775 116.868V116.8C83.2906 116.696 83.28 116.59 83.2465 116.491C83.2131 116.392 83.1575 116.301 83.0841 116.227C83.0107 116.152 82.9214 116.095 82.8229 116.06C82.7243 116.025 82.6191 116.013 82.5152 116.024C82.2069 116.025 81.9049 116.111 81.6419 116.272L81.5026 115.87C81.8348 115.671 82.2159 115.567 82.6034 115.571C83.6302 115.571 83.8777 116.272 83.8777 116.945V118.203C83.8731 118.472 83.8921 118.741 83.9346 119.007H83.3827ZM83.2917 117.296C82.629 117.282 81.8695 117.399 81.8695 118.051C81.8633 118.129 81.8736 118.206 81.8998 118.279C81.926 118.352 81.9674 118.418 82.0213 118.473C82.0752 118.529 82.1404 118.572 82.2123 118.6C82.2842 118.628 82.3613 118.64 82.4384 118.636C82.6165 118.64 82.7912 118.587 82.937 118.484C83.0828 118.382 83.1921 118.235 83.2491 118.066C83.2714 118.003 83.2829 117.936 83.2832 117.869L83.2917 117.296Z" fill="#AF6431"/>
<path d="M91.1425 115.648V116.141H89.689V119.007H89.0859V115.648H91.1425Z" fill="#AF6431"/>
<path d="M96.0435 117.299C96.0435 118.542 95.1902 119.084 94.3767 119.084C93.4693 119.084 92.7695 118.416 92.7695 117.356C92.7695 116.233 93.5034 115.571 94.4307 115.571C95.358 115.571 96.0435 116.272 96.0435 117.299ZM93.3839 117.336C93.3839 118.071 93.8078 118.625 94.4023 118.625C94.9967 118.625 95.4206 118.077 95.4206 117.322C95.4206 116.751 95.1361 116.03 94.4165 116.03C93.6968 116.03 93.3839 116.697 93.3839 117.336Z" fill="#AF6431"/>
<path d="M98.1969 116.746C98.1969 116.315 98.1827 115.967 98.1685 115.648H98.7146L98.743 116.218H98.7573C98.8785 116.012 99.0533 115.842 99.2632 115.727C99.4731 115.612 99.7101 115.556 99.9491 115.565C100.757 115.565 101.371 116.252 101.371 117.276C101.371 118.485 100.637 119.081 99.8467 119.081C99.6438 119.09 99.4421 119.046 99.2612 118.953C99.0803 118.861 98.9263 118.723 98.8141 118.553H98.7999V120.378H98.1997L98.1969 116.746ZM98.7971 117.641C98.7989 117.724 98.8084 117.807 98.8255 117.889C98.876 118.094 98.9937 118.276 99.1598 118.406C99.3259 118.536 99.5308 118.606 99.7414 118.605C100.384 118.605 100.757 118.077 100.757 117.307C100.757 116.635 100.404 116.059 99.7614 116.059C99.5459 116.064 99.3386 116.142 99.1718 116.279C99.005 116.415 98.8882 116.604 98.8397 116.814C98.8152 116.896 98.8009 116.98 98.7971 117.065V117.641Z" fill="#AF6431"/>
<path d="M106.551 117.299C106.551 118.542 105.697 119.084 104.884 119.084C103.977 119.084 103.277 118.416 103.277 117.356C103.277 116.233 104.011 115.571 104.938 115.571C105.865 115.571 106.551 116.272 106.551 117.299ZM103.894 117.336C103.894 118.071 104.315 118.625 104.91 118.625C105.504 118.625 105.928 118.077 105.928 117.322C105.928 116.751 105.643 116.03 104.924 116.03C104.204 116.03 103.894 116.697 103.894 117.336Z" fill="#AF6431"/>
<path d="M111.253 115.648V118.548H111.597L111.563 120.067H111.085L111.057 118.998H108.738L108.71 120.067H108.232L108.207 118.548H108.491C108.635 118.337 108.747 118.105 108.821 117.861C108.954 117.428 109.02 116.976 109.014 116.523V115.648H111.253ZM109.546 116.669C109.548 117.091 109.489 117.512 109.373 117.918C109.306 118.134 109.216 118.344 109.105 118.542H110.647V116.113H109.546V116.669Z" fill="#AF6431"/>
<path d="M116.714 117.299C116.714 118.542 115.861 119.084 115.045 119.084C114.137 119.084 113.44 118.416 113.44 117.356C113.44 116.233 114.174 115.571 115.102 115.571C116.029 115.571 116.714 116.272 116.714 117.299ZM114.055 117.336C114.055 118.071 114.479 118.625 115.073 118.625C115.668 118.625 116.091 118.077 116.091 117.322C116.091 116.751 115.807 116.03 115.087 116.03C114.368 116.03 114.055 116.697 114.055 117.336Z" fill="#AF6431"/>
<path d="M118.902 115.648H119.647L120.258 117.342C120.341 117.593 120.486 118 120.563 118.265H120.574C120.648 118.014 120.836 117.481 120.967 117.125L121.507 115.659H122.261L122.497 119.018H121.928L121.851 117.416C121.831 117.054 121.803 116.623 121.789 116.215H121.769C121.678 116.521 121.59 116.786 121.402 117.305L120.756 118.998H120.315L119.718 117.339C119.616 117.019 119.471 116.535 119.388 116.221H119.36C119.345 116.617 119.326 117.062 119.303 117.43L119.22 119.018H118.651L118.902 115.648Z" fill="#AF6431"/>
</g>
</g>
<defs>
<clipPath id="clip0_276_2308">
<rect width="150" height="150" fill="white" transform="translate(0 0.380859)"/>
</clipPath>
<clipPath id="clip1_276_2308">
<rect width="100" height="101" fill="white" transform="translate(25 19.3809)"/>
</clipPath>
</defs>
</svg>
