<svg width="150" height="151" viewBox="0 0 150 151" fill="none" xmlns="http://www.w3.org/2000/svg">
<g clip-path="url(#clip0_276_1227)">
<circle cx="75" cy="75.3809" r="75" fill="#F8F7F7"/>
<g clip-path="url(#clip1_276_1227)">
<mask id="mask0_276_1227" style="mask-type:luminance" maskUnits="userSpaceOnUse" x="57" y="78" width="24" height="19">
<path d="M57.9668 96.0133C70.6667 93.0903 77.487 86.9062 80.2566 78.4105C76.361 78.9393 74.5995 79.809 72.8937 80.1201C69.6948 87.9036 63.2011 93.1465 57.9678 96.0133" fill="white"/>
</mask>
<g mask="url(#mask0_276_1227)">
<path d="M80.2556 78.4105H57.9668V96.0133H80.2556V78.4105Z" fill="url(#paint0_linear_276_1227)"/>
</g>
<mask id="mask1_276_1227" style="mask-type:luminance" maskUnits="userSpaceOnUse" x="63" y="78" width="18" height="24">
<path d="M63.1896 101.227C74.779 95.3012 79.8632 87.6457 80.4483 78.7354C76.8022 80.1962 75.3094 81.4685 73.7317 82.1853C72.554 90.5097 67.5541 97.1735 63.189 101.227" fill="white"/>
</mask>
<g mask="url(#mask1_276_1227)">
<path d="M80.4478 78.7354H63.1895V101.227H80.4478V78.7354Z" fill="url(#paint1_linear_276_1227)"/>
</g>
<mask id="mask2_276_1227" style="mask-type:luminance" maskUnits="userSpaceOnUse" x="70" y="81" width="11" height="23">
<path d="M70.853 103.327C78.8583 95.9816 81.2321 88.6851 79.6978 81.3754C77.0889 83.3615 76.1723 84.7175 75.0644 85.6456C75.9886 92.6151 73.4593 99.0936 70.8543 103.327" fill="white"/>
</mask>
<g mask="url(#mask2_276_1227)">
<path d="M81.2321 81.3754H70.853V103.327H81.2321V81.3754Z" fill="url(#paint2_linear_276_1227)"/>
</g>
<mask id="mask3_276_1227" style="mask-type:luminance" maskUnits="userSpaceOnUse" x="40" y="50" width="42" height="53">
<path d="M42.5396 58.367C46.9416 38.013 74.2342 63.8278 78.2313 71.4796C78.2313 71.4796 87.0925 88.9089 75.9338 102.593C83.3316 87.4611 71.0939 80.9521 60.2252 77.1039C48.0975 72.8085 49.9347 63.9027 45.6697 61.7633C43.5606 60.7054 41.3197 61.7633 40.1193 63.9053C39.8003 62.0326 39.9705 60.5864 42.5396 58.367Z" fill="white"/>
</mask>
<g mask="url(#mask3_276_1227)">
<path d="M87.0926 38.013H39.8003V102.592H87.0926V38.013Z" fill="url(#paint3_linear_276_1227)"/>
</g>
<path fill-rule="evenodd" clip-rule="evenodd" d="M76.8634 100.476C82.161 86.8431 70.5729 80.7665 60.2251 77.1026C48.0974 72.8085 49.9346 63.9027 45.6695 61.7633C43.5604 60.7054 41.3196 61.7633 40.1191 63.9053C40.1191 63.9053 44.4322 50.058 62.0656 65.7169C62.0656 65.7169 86.5468 76.5999 76.8634 100.476Z" fill="#990038"/>
<path d="M47.6387 63.7363C59.6261 75.3145 69.3688 31.1387 102.765 35.7257C70.5975 38.9187 72.0808 75.6884 55.0605 74.5044" stroke="#231916" stroke-width="0.57" stroke-miterlimit="22.93"/>
<mask id="mask4_276_1227" style="mask-type:luminance" maskUnits="userSpaceOnUse" x="62" y="63" width="6" height="16">
<path d="M65.9007 78.8772C68.5321 72.4261 67.8999 67.5346 64.9901 63.6981C64.0198 65.5633 63.2655 67.1539 62.876 67.9951C64.616 72.4219 65.8007 76.9042 65.9007 78.8782" fill="white"/>
</mask>
<g mask="url(#mask4_276_1227)">
<path d="M68.5324 63.6981H62.876V78.8772H68.5324V63.6981Z" fill="url(#paint4_linear_276_1227)"/>
</g>
<mask id="mask5_276_1227" style="mask-type:luminance" maskUnits="userSpaceOnUse" x="64" y="58" width="9" height="22">
<path d="M70.9069 79.8436C73.5817 70.4273 71.9391 63.6896 67.2773 58.7739C66.2112 61.5287 65.4046 63.8661 64.9897 65.1015C68.1083 71.0205 70.4595 77.1019 70.9059 79.8436" fill="white"/>
</mask>
<g mask="url(#mask5_276_1227)">
<path d="M73.5817 58.7739H64.9907V79.8433H73.5817V58.7739Z" fill="url(#paint5_linear_276_1227)"/>
</g>
<mask id="mask6_276_1227" style="mask-type:luminance" maskUnits="userSpaceOnUse" x="69" y="57" width="10" height="23">
<path d="M78.1463 79.604C79.5673 68.8752 76.6907 61.7597 70.8015 57.1143C70.0752 60.2975 69.264 62.414 69.0088 63.8314C73.3696 69.8184 77.2191 76.6735 78.1463 79.604Z" fill="white"/>
</mask>
<g mask="url(#mask6_276_1227)">
<path d="M79.5673 57.1143H69.0088V79.604H79.5673V57.1143Z" fill="url(#paint6_linear_276_1227)"/>
</g>
<mask id="mask7_276_1227" style="mask-type:luminance" maskUnits="userSpaceOnUse" x="71" y="55" width="14" height="25">
<path d="M83.8009 79.2782C85.751 67.0741 81.4241 59.8688 73.1686 55.6819C72.5312 56.8473 71.9369 57.9775 71.4009 59.0239C77.2035 65.7708 82.7269 75.5345 83.8009 79.2769" fill="white"/>
</mask>
<g mask="url(#mask7_276_1227)">
<path d="M85.751 55.6832H71.4009V79.2785H85.751V55.6832Z" fill="url(#paint7_linear_276_1227)"/>
</g>
<mask id="mask8_276_1227" style="mask-type:luminance" maskUnits="userSpaceOnUse" x="72" y="54" width="23" height="22">
<path d="M94.6984 75.4728C92.3404 61.4195 84.5446 55.7443 73.4655 54.9158C72.9897 55.7701 72.5364 56.6104 72.1123 57.4163C80.9808 61.8437 92.0289 71.6003 94.6984 75.4728Z" fill="white"/>
</mask>
<g mask="url(#mask8_276_1227)">
<path d="M94.6984 54.9158H72.1123V75.4727H94.6984V54.9158Z" fill="url(#paint8_linear_276_1227)"/>
</g>
<mask id="mask9_276_1227" style="mask-type:luminance" maskUnits="userSpaceOnUse" x="72" y="51" width="33" height="18">
<path d="M104.373 68.7164C97.1401 54.3037 86.9536 50.2711 74.8697 52.4712C74.1424 53.6945 73.4477 54.9309 72.8037 56.1198C84.3352 58.1249 100.038 65.2822 104.373 68.7164Z" fill="white"/>
</mask>
<g mask="url(#mask9_276_1227)">
<path d="M104.373 50.2714H72.8037V68.7167H104.373V50.2714Z" fill="url(#paint9_linear_276_1227)"/>
</g>
<mask id="mask10_276_1227" style="mask-type:luminance" maskUnits="userSpaceOnUse" x="74" y="47" width="35" height="14">
<path d="M108.918 60.5309C99.4381 47.3186 88.655 44.9743 76.9675 49.1449C76.1444 50.3665 75.3391 51.6682 74.5723 52.9765C86.3088 52.8546 103.931 57.7173 108.918 60.5309Z" fill="white"/>
</mask>
<g mask="url(#mask10_276_1227)">
<path d="M108.918 44.975H74.5723V60.5309H108.918V44.975Z" fill="url(#paint10_linear_276_1227)"/>
</g>
<mask id="mask11_276_1227" style="mask-type:luminance" maskUnits="userSpaceOnUse" x="76" y="43" width="31" height="9">
<path d="M106.993 51.2483C97.4068 41.5881 88.1972 41.1495 79.1081 46.2224C78.2454 47.2872 77.3782 48.5069 76.5327 49.7998C85.9886 47.747 102.324 49.5151 106.993 51.2483Z" fill="white"/>
</mask>
<g mask="url(#mask11_276_1227)">
<path d="M106.992 41.1499H76.5327V51.2483H106.992V41.1499Z" fill="url(#paint11_linear_276_1227)"/>
</g>
<mask id="mask12_276_1227" style="mask-type:luminance" maskUnits="userSpaceOnUse" x="47" y="35" width="56" height="40">
<path d="M70.1402 61.9513C76.4288 51.3542 83.6662 37.6225 102.765 35.727C83.2909 33.0507 71.8595 46.9575 63.3364 56.7222C57.2431 63.7004 52.6356 68.5628 47.6387 63.7364C49.2961 66.4816 50.108 71.0133 55.0612 74.5044C61.9753 74.9855 65.837 69.2014 70.1405 61.95" fill="white"/>
</mask>
<g mask="url(#mask12_276_1227)">
<path d="M102.765 33.0507H47.6382V74.9851H102.765V33.0507Z" fill="url(#paint12_linear_276_1227)"/>
</g>
<mask id="mask13_276_1227" style="mask-type:luminance" maskUnits="userSpaceOnUse" x="78" y="38" width="32" height="12">
<path d="M109 43.2183C98.8262 36.0512 89.9366 39.4171 89.9366 39.4171C85.0463 41.9663 81.3173 45.5374 78.2422 49.4318C82.5978 43.9821 103.652 42.2418 109.001 43.2183" fill="white"/>
</mask>
<g mask="url(#mask13_276_1227)">
<path d="M109 36.0512H78.2407V49.4318H109V36.0512Z" fill="url(#paint13_linear_276_1227)"/>
</g>
<path fill-rule="evenodd" clip-rule="evenodd" d="M67.2771 58.7739C56.3633 75.4603 49.9733 68.5765 49.9736 68.5765C51.0121 70.5675 52.47 72.6781 55.0601 74.5044C61.9742 74.9855 65.836 69.2014 70.1395 61.95C76.4281 51.3529 83.6655 37.6212 102.764 35.7257C80.5318 35.4619 67.2771 58.7739 67.2771 58.7739Z" fill="#102770"/>
</g>
<path d="M33.2007 108.633H33.2529C33.3463 108.633 33.4061 108.7 33.4322 108.835V110.599H34.2009C35.0106 110.599 35.4656 110.464 35.5659 110.195V108.875C35.5659 108.733 35.6292 108.652 35.7556 108.631H35.8189C35.9126 108.631 35.9734 108.698 36.0012 108.833V110.182C36.0012 110.447 35.8234 110.663 35.4677 110.83V110.851C35.823 111.067 36.0009 111.341 36.0012 111.673V113.418C35.9779 113.56 35.9065 113.631 35.787 113.631H35.7765C35.6549 113.631 35.5853 113.55 35.5675 113.387V111.652C35.5675 111.397 35.3254 111.196 34.8411 111.049C34.7039 111.029 34.5654 111.019 34.4267 111.018H33.4338V113.429C33.4338 113.54 33.3632 113.608 33.2247 113.631H33.2143C33.0878 113.631 33.0164 113.546 33 113.377V108.893C33 108.761 33.0455 108.676 33.1369 108.639L33.2007 108.633Z" fill="black"/>
<path d="M38.6448 110.349H38.7462C38.9392 110.345 39.131 110.38 39.3102 110.451C39.4894 110.522 39.6522 110.629 39.7887 110.764C39.9246 110.925 39.9924 111.08 39.992 111.231V112.743C39.992 113.052 39.7781 113.308 39.3503 113.513C39.1353 113.596 38.9066 113.637 38.6761 113.635C38.1682 113.635 37.7762 113.453 37.5003 113.088C37.4406 112.986 37.4059 112.871 37.3989 112.754V111.231C37.3989 110.913 37.6269 110.654 38.083 110.453C38.2632 110.388 38.453 110.353 38.6448 110.349ZM37.806 111.311V112.642C37.806 112.92 38.0142 113.106 38.4305 113.199C38.5117 113.212 38.5938 113.22 38.6761 113.22H38.7148C39.1524 113.204 39.4355 113.064 39.564 112.802C39.5772 112.757 39.5842 112.71 39.5849 112.662V111.342C39.5849 111.05 39.3627 110.86 38.9181 110.774L38.6939 110.754C38.2208 110.786 37.9318 110.929 37.8269 111.182C37.811 111.223 37.8038 111.267 37.806 111.311Z" fill="black"/>
<path d="M42.6424 110.374C43.1193 110.374 43.4094 110.646 43.5125 111.189C43.763 112.545 43.8883 113.304 43.8883 113.464C43.8883 113.552 43.824 113.609 43.6954 113.635H43.6567C43.5352 113.635 43.4672 113.51 43.4529 113.262C43.2847 112.159 43.1453 111.411 43.0349 111.018C43.0071 110.946 42.9565 110.884 42.8907 110.842C42.8248 110.8 42.7472 110.78 42.669 110.785H42.588C42.3821 110.785 42.2407 110.875 42.1637 111.057C42.0884 111.222 41.9831 111.846 41.8475 112.931C41.8148 113.361 41.7751 113.576 41.7284 113.576C41.7127 113.595 41.6923 113.611 41.6691 113.621C41.6459 113.632 41.6205 113.636 41.5951 113.635H41.5737C41.4451 113.609 41.3809 113.552 41.3809 113.464C41.3809 113.206 41.4791 112.471 41.6756 111.259C41.7453 110.936 41.8435 110.721 41.9703 110.614C42.14 110.454 42.364 110.374 42.6424 110.374Z" fill="black"/>
<path d="M45.4913 110.374C45.6272 110.399 45.6952 110.463 45.6952 110.565V112.679C45.6952 112.934 45.9042 113.109 46.3223 113.202C46.3891 113.215 46.4573 113.222 46.5256 113.222H46.5961C46.9494 113.222 47.2161 113.111 47.3962 112.888C47.4411 112.812 47.4619 112.725 47.4558 112.637V110.562C47.4558 110.458 47.5235 110.395 47.6591 110.371C47.7949 110.396 47.8629 110.46 47.8629 110.562V112.747C47.8629 113.062 47.6364 113.324 47.1835 113.53C46.9844 113.597 46.7759 113.632 46.5658 113.634C46.0432 113.634 45.6513 113.45 45.39 113.08C45.3272 112.985 45.2921 112.874 45.2886 112.76V110.565C45.2881 110.461 45.3555 110.397 45.4913 110.374Z" fill="black"/>
<path d="M50.795 108.636H52.0905C52.2117 108.636 52.2842 108.711 52.3079 108.862C52.3079 108.978 52.2318 109.049 52.0795 109.074H50.7286C50.2677 109.074 49.9331 109.217 49.7247 109.503C49.7137 109.534 49.7067 109.567 49.7038 109.6V110.437C50.0242 110.248 50.3912 110.151 50.7636 110.158H50.806C51.4258 110.158 51.8902 110.359 52.1992 110.76C52.2716 110.888 52.3091 111.032 52.3079 111.178V112.614C52.3079 113.06 51.9978 113.375 51.3777 113.558C51.181 113.611 50.9779 113.637 50.7741 113.635C50.0209 113.611 49.5307 113.369 49.3035 112.908C49.278 112.821 49.2639 112.731 49.2617 112.64V109.632C49.2617 109.179 49.6033 108.864 50.2865 108.688C50.4535 108.652 50.6241 108.634 50.795 108.636ZM49.7038 111.123V112.67C49.7038 112.867 49.9303 113.032 50.3832 113.164C50.5004 113.183 50.6188 113.194 50.7375 113.196H50.8253C51.2956 113.196 51.6348 113.053 51.8428 112.767C51.8539 112.736 51.8611 112.703 51.8642 112.67V111.123C51.8642 110.958 51.6946 110.812 51.3552 110.684C51.1952 110.628 51.0265 110.599 50.8567 110.6H50.7072C50.2742 110.6 49.9465 110.739 49.7242 111.018C49.7144 111.052 49.7076 111.088 49.7038 111.123Z" fill="black"/>
<path d="M55.1183 110.329H55.2532C55.7792 110.329 56.1973 110.505 56.5074 110.858C56.5814 110.968 56.6239 111.095 56.6302 111.227V112.736C56.6302 113.064 56.3729 113.328 55.8583 113.53C55.6383 113.598 55.4094 113.633 55.179 113.634C54.8188 113.636 54.4643 113.544 54.1505 113.369V114.529C54.1272 114.652 54.0664 114.714 53.9681 114.714H53.9258C53.8019 114.688 53.7397 114.627 53.7397 114.529V111.227C53.7397 110.901 53.9836 110.639 54.4714 110.44C54.6797 110.369 54.8981 110.331 55.1183 110.329ZM54.15 111.308V112.657C54.15 112.958 54.4623 113.145 55.087 113.217H55.1889C55.654 113.217 55.9862 113.084 56.1855 112.817C56.2068 112.766 56.2174 112.712 56.2168 112.657V111.308C56.2168 111.034 55.9555 110.85 55.4329 110.757L55.1873 110.736C54.7125 110.736 54.3731 110.876 54.1693 111.154C54.1577 111.205 54.1513 111.256 54.15 111.308Z" fill="black"/>
<path d="M58.2174 110.374C58.3533 110.399 58.4212 110.463 58.4212 110.565V112.679C58.4212 112.934 58.6303 113.109 59.0483 113.202C59.1152 113.215 59.1833 113.222 59.2516 113.222H59.3222C59.6754 113.222 59.9421 113.111 60.1223 112.888C60.1672 112.812 60.1879 112.725 60.1818 112.637V110.562C60.1818 110.458 60.2498 110.395 60.3856 110.371C60.5208 110.396 60.5886 110.46 60.5889 110.562V112.747C60.5889 113.062 60.3625 113.324 59.9096 113.53C59.7105 113.597 59.502 113.632 59.2919 113.634C58.7693 113.634 58.3775 113.45 58.1166 113.08C58.0536 112.985 58.0184 112.874 58.0146 112.76V110.565C58.0143 110.461 58.0819 110.397 58.2174 110.374Z" fill="black"/>
<path d="M62.2621 113.123C62.4492 113.153 62.5427 113.241 62.5427 113.387V113.751C62.5002 113.918 62.4208 114.002 62.3044 114.002H62.248C62.0703 113.967 61.9814 113.888 61.9814 113.765V113.388C61.9814 113.244 62.075 113.155 62.2621 113.123Z" fill="black"/>
<path d="M67.0972 108.636H67.2587C67.792 108.636 68.2214 108.814 68.5468 109.172C68.6447 109.302 68.6975 109.459 68.6974 109.621V109.987C68.6764 110.131 68.6068 110.203 68.4883 110.203H68.4465C68.3173 110.175 68.2528 110.093 68.2531 109.956V109.59C68.2531 109.406 68.0441 109.25 67.626 109.119C67.4774 109.086 67.3258 109.068 67.1735 109.064C66.6143 109.09 66.261 109.241 66.1137 109.517C66.0994 109.542 66.0921 109.571 66.0922 109.6V112.661C66.0922 112.861 66.3157 113.025 66.7627 113.152C66.8981 113.179 67.0355 113.194 67.1735 113.198C67.8187 113.16 68.1789 112.985 68.2542 112.672V112.274C68.2779 112.124 68.3528 112.048 68.4789 112.048C68.6242 112.076 68.6963 112.148 68.6963 112.264V112.64C68.6963 113.096 68.3465 113.41 67.6469 113.584C67.5192 113.613 67.3886 113.627 67.2576 113.626H67.2153C67.2006 113.626 67.1861 113.629 67.1735 113.637C67.1594 113.63 67.1438 113.626 67.128 113.626H67.0857C66.5732 113.626 66.1551 113.458 65.8315 113.121C65.7063 112.975 65.6412 112.787 65.6491 112.595V109.669C65.6491 109.141 66.041 108.805 66.8249 108.658C66.9148 108.643 67.0059 108.635 67.0972 108.636Z" fill="black"/>
<path d="M71.4629 110.397H71.5151C72.0583 110.397 72.4736 110.577 72.761 110.937C72.8362 111.065 72.875 111.21 72.8734 111.358V111.986C72.8524 112.139 72.7913 112.215 72.691 112.215H70.5128V112.707C70.5128 112.953 70.7678 113.122 71.2779 113.215C71.3385 113.223 71.3996 113.226 71.4608 113.225H71.513C72.0325 113.205 72.3473 113.051 72.4574 112.766C72.4574 112.601 72.5286 112.518 72.6711 112.518C72.7788 112.518 72.8455 112.588 72.8713 112.726C72.8713 113.077 72.6197 113.346 72.1166 113.534C71.9126 113.605 71.6978 113.64 71.4817 113.638C70.9389 113.638 70.5259 113.468 70.2426 113.129C70.1493 113.009 70.1024 112.848 70.1021 112.649V111.382C70.1021 110.946 70.3736 110.64 70.9168 110.463C71.0956 110.42 71.2789 110.398 71.4629 110.397ZM70.5128 111.325V111.806H72.4574V111.294C72.4574 111.131 72.2971 110.992 71.9766 110.876C71.8399 110.829 71.6963 110.805 71.5517 110.806H71.4221C71.0263 110.806 70.7302 110.936 70.5337 111.196C70.5222 111.238 70.5152 111.281 70.5128 111.325Z" fill="black"/>
<path d="M74.4808 110.308H76.5409C76.6579 110.342 76.7165 110.4 76.7165 110.482V110.545C76.6816 110.661 76.6231 110.719 76.5409 110.719H75.7126V113.429C75.6843 113.568 75.6147 113.637 75.5035 113.637C75.3798 113.637 75.3074 113.558 75.2861 113.4V110.721H74.4787C74.3711 110.721 74.3056 110.652 74.2822 110.514C74.307 110.376 74.3732 110.307 74.4808 110.308Z" fill="black"/>
<path d="M78.3102 110.329C78.4461 110.361 78.5135 110.423 78.5135 110.514V111.279C78.7248 111.176 78.9575 111.123 79.1929 111.126H79.2211C79.6848 111.126 80.0264 111.281 80.2459 111.593C80.2845 111.668 80.306 111.752 80.3091 111.836V112.937C80.3091 113.174 80.1349 113.37 79.7865 113.526C79.6045 113.598 79.4107 113.636 79.2148 113.637C78.7682 113.637 78.4288 113.495 78.1968 113.209C78.1289 113.126 78.094 112.984 78.0923 112.784V110.605C78.0923 110.478 78.1336 110.393 78.2156 110.351L78.3102 110.329ZM78.5135 111.865V112.882C78.5135 113.041 78.702 113.149 79.0789 113.206C79.123 113.213 79.1676 113.217 79.2122 113.217C79.6024 113.196 79.8304 113.092 79.8963 112.906V111.909C79.8963 111.744 79.7595 111.631 79.486 111.571C79.4098 111.548 79.3304 111.537 79.2509 111.54H79.1385C78.8647 111.54 78.6598 111.628 78.5239 111.804L78.5135 111.865Z" fill="black"/>
<path d="M84.3877 110.397C84.6378 110.397 84.8695 110.507 85.0827 110.728C85.1725 110.624 85.2839 110.54 85.4093 110.483C85.5347 110.426 85.6711 110.396 85.8091 110.397C86.1812 110.397 86.4633 110.59 86.6552 110.975C86.6922 111.078 86.7123 111.186 86.7148 111.296V113.438C86.6913 113.57 86.6249 113.637 86.5146 113.637H86.5042C86.3824 113.637 86.3145 113.556 86.3004 113.397V111.279C86.3004 111.065 86.1694 110.912 85.9074 110.819C85.8751 110.812 85.8422 110.809 85.8091 110.809H85.7673C85.5398 110.809 85.3818 110.944 85.2933 111.216C85.287 111.266 85.2835 111.316 85.2829 111.366V113.446C85.2829 113.553 85.2162 113.617 85.0827 113.637C84.9497 113.612 84.8829 113.555 84.8826 113.467V111.408C84.8826 111.136 84.7878 110.952 84.5983 110.857C84.5355 110.829 84.4677 110.812 84.3987 110.809H84.3386C84.1233 110.809 83.9689 110.939 83.8756 111.199C83.8684 111.225 83.8648 111.252 83.8651 111.279V113.376C83.8651 113.549 83.7972 113.635 83.6613 113.635H83.6508C83.5174 113.612 83.4507 113.548 83.4507 113.444V111.284C83.4507 110.921 83.6449 110.644 84.0334 110.454C84.1474 110.415 84.2672 110.396 84.3877 110.397Z" fill="black"/>
<path d="M89.5516 110.374H89.6117C90.1635 110.374 90.5893 110.551 90.8889 110.907C90.9707 111.032 91.0117 111.197 91.0117 111.402V112.731C91.0117 113.089 90.8222 113.337 90.4431 113.477C90.1675 113.59 89.8711 113.644 89.573 113.637C88.9696 113.637 88.5297 113.472 88.2534 113.142C88.1888 113.055 88.1523 112.951 88.1489 112.843V112.208C88.1489 111.888 88.4437 111.646 89.0332 111.482C89.1926 111.449 89.3548 111.432 89.5176 111.43H89.6404C89.9719 111.429 90.2991 111.505 90.5952 111.653V111.312C90.5952 111.053 90.3109 110.878 89.7423 110.785H89.481C89.3259 110.781 89.1715 110.807 89.0268 110.863C88.8821 110.919 88.7501 111.002 88.6386 111.109C88.6017 111.137 88.5679 111.235 88.5372 111.402C88.518 111.427 88.4938 111.449 88.466 111.464C88.4382 111.48 88.4075 111.49 88.3757 111.493H88.3235C88.2367 111.493 88.1798 111.429 88.1515 111.301V111.27C88.1515 110.903 88.4463 110.624 89.0358 110.434C89.2051 110.396 89.378 110.376 89.5516 110.374ZM88.5691 112.217V112.839C88.5691 112.974 88.7891 113.095 89.2291 113.203C89.3643 113.216 89.4718 113.223 89.5516 113.223H89.6326C90.0371 113.223 90.3447 113.122 90.5555 112.92C90.5823 112.889 90.5973 112.85 90.5978 112.809V112.244C90.5978 112.068 90.3438 111.938 89.8359 111.854C89.7493 111.842 89.662 111.835 89.5746 111.834C89.1251 111.834 88.7942 111.944 88.5816 112.165L88.5691 112.217Z" fill="black"/>
<path d="M93.7359 110.378H94.2094C94.3452 110.401 94.4132 110.457 94.4132 110.548V110.618C94.4132 110.706 94.3452 110.763 94.2094 110.789H93.6868C93.2798 110.789 93.0001 110.875 92.8475 111.048V113.441C92.8475 113.545 92.7801 113.61 92.6442 113.633H92.6374C92.5203 113.633 92.4524 113.556 92.4336 113.403V111.128C92.4336 110.756 92.7097 110.518 93.2619 110.414C93.4184 110.387 93.5771 110.375 93.7359 110.378Z" fill="black"/>
<path d="M97.1996 110.374H97.2592C97.8114 110.374 98.2373 110.551 98.5369 110.907C98.625 111.056 98.6676 111.228 98.6597 111.402V112.731C98.6597 113.089 98.4702 113.337 98.0912 113.477C97.8153 113.59 97.5188 113.644 97.2205 113.637C96.6171 113.637 96.1773 113.472 95.901 113.142C95.8363 113.055 95.7998 112.951 95.7965 112.843V112.208C95.7965 111.888 96.0914 111.646 96.6812 111.482C96.8406 111.449 97.0029 111.432 97.1656 111.43H97.2885C97.6198 111.429 97.9468 111.505 98.2427 111.653V111.312C98.2427 111.053 97.9584 110.878 97.3898 110.785H97.1285C96.9734 110.781 96.819 110.807 96.6743 110.863C96.5296 110.919 96.3977 111.002 96.2861 111.109C96.2485 111.137 96.2137 111.235 96.1816 111.402C96.1625 111.427 96.1383 111.449 96.1105 111.464C96.0827 111.48 96.0519 111.49 96.0201 111.493H95.9679C95.8811 111.493 95.8236 111.429 95.7954 111.301V111.27C95.7954 110.903 96.0903 110.624 96.6802 110.434C96.8507 110.395 97.0248 110.375 97.1996 110.374ZM96.2171 112.217V112.839C96.2171 112.974 96.437 113.095 96.8766 113.203C97.0125 113.216 97.1202 113.223 97.1996 113.223H97.2801C97.6853 113.223 97.9931 113.122 98.2035 112.92C98.23 112.889 98.2447 112.85 98.2453 112.809V112.244C98.2453 112.068 97.9915 111.938 97.4839 111.854C97.3973 111.842 97.3101 111.835 97.2226 111.834C96.7739 111.834 96.4429 111.944 96.2297 112.165L96.2171 112.217Z" fill="black"/>
<path d="M100.245 110.374H101.038C101.471 110.374 101.773 110.513 101.944 110.792C101.965 110.85 101.977 110.911 101.979 110.973V111.353C101.979 111.499 101.908 111.631 101.77 111.75C101.928 111.805 102.062 111.916 102.145 112.061C102.182 112.138 102.204 112.221 102.208 112.305V112.928C102.208 113.153 102.053 113.347 101.741 113.509C101.553 113.594 101.348 113.636 101.141 113.635H100.275C100.141 113.623 100.074 113.568 100.074 113.471V113.436C100.074 113.353 100.127 113.295 100.231 113.262H101.179C101.529 113.243 101.748 113.135 101.835 112.938C101.841 112.905 101.844 112.871 101.845 112.837V112.384C101.845 112.233 101.766 112.131 101.607 112.077C101.492 112.036 101.298 112.015 101.024 112.015H100.677C100.583 112.015 100.526 111.955 100.505 111.834C100.526 111.713 100.583 111.653 100.677 111.653H100.943C101.241 111.653 101.462 111.562 101.607 111.381V110.973C101.607 110.869 101.443 110.794 101.115 110.747H100.301C100.167 110.747 100.091 110.695 100.072 110.591V110.528C100.073 110.449 100.13 110.397 100.245 110.374Z" fill="black"/>
<path d="M103.825 110.374C103.961 110.399 104.029 110.463 104.029 110.565V112.679C104.029 112.934 104.238 113.109 104.656 113.202C104.723 113.215 104.791 113.222 104.86 113.222H104.93C105.284 113.222 105.55 113.111 105.73 112.888C105.775 112.812 105.796 112.725 105.79 112.637V110.562C105.79 110.458 105.858 110.395 105.994 110.371C106.129 110.396 106.197 110.46 106.197 110.562V112.747C106.197 113.062 105.971 113.324 105.518 113.53C105.319 113.597 105.11 113.632 104.9 113.634C104.377 113.634 103.986 113.45 103.725 113.08C103.661 112.985 103.625 112.874 103.62 112.76V110.565C103.622 110.461 103.69 110.397 103.825 110.374Z" fill="black"/>
<path d="M107.781 110.374C107.917 110.397 107.985 110.461 107.985 110.565V111.802H109.588V110.587C109.61 110.444 109.68 110.374 109.797 110.374C109.908 110.374 109.976 110.444 110.001 110.587V113.432C109.975 113.567 109.907 113.635 109.797 113.635H109.787C109.665 113.635 109.599 113.558 109.587 113.405V112.217H107.984V113.462C107.984 113.548 107.92 113.605 107.791 113.633H107.781C107.648 113.612 107.581 113.548 107.581 113.441V110.553C107.581 110.466 107.648 110.406 107.781 110.374Z" fill="black"/>
<path d="M112.63 110.349H112.735C112.928 110.345 113.119 110.38 113.299 110.451C113.478 110.522 113.64 110.629 113.777 110.764C113.913 110.925 113.981 111.081 113.981 111.231V112.743C113.981 113.052 113.766 113.309 113.338 113.513C113.123 113.596 112.895 113.637 112.665 113.635C112.157 113.635 111.765 113.453 111.489 113.088C111.428 112.986 111.392 112.872 111.384 112.754V111.231C111.384 110.913 111.612 110.654 112.069 110.453C112.249 110.388 112.439 110.353 112.63 110.349ZM111.794 111.311V112.642C111.794 112.92 112.002 113.106 112.418 113.199C112.5 113.213 112.582 113.22 112.665 113.22H112.703C113.141 113.204 113.424 113.064 113.553 112.802C113.565 112.757 113.572 112.71 113.573 112.662V111.342C113.573 111.05 113.351 110.86 112.907 110.774L112.682 110.754C112.209 110.786 111.92 110.929 111.815 111.182C111.798 111.223 111.79 111.267 111.791 111.311H111.794Z" fill="black"/>
<path d="M115.564 110.419H116.425C116.965 110.419 117.311 110.561 117.463 110.845C117.475 110.908 117.482 110.972 117.484 111.036V111.235C117.484 111.411 117.425 111.546 117.305 111.639C117.406 111.669 117.518 111.769 117.642 111.938C117.7 112.023 117.731 112.122 117.734 112.224V112.861C117.734 113.171 117.503 113.405 117.042 113.565C116.877 113.614 116.705 113.637 116.533 113.635H115.593C115.441 113.635 115.365 113.548 115.365 113.376V110.678C115.365 110.506 115.431 110.42 115.564 110.419ZM115.773 110.827V111.461H116.303C116.704 111.461 116.96 111.405 117.072 111.294V110.977C116.894 110.872 116.689 110.82 116.483 110.827H115.773ZM115.773 111.858V113.227H116.574C116.929 113.227 117.178 113.118 117.321 112.9L117.332 112.782V112.315C117.332 112.082 117.125 111.934 116.71 111.869C116.61 111.862 116.518 111.858 116.433 111.858H115.773Z" fill="black"/>
</g>
<defs>
<linearGradient id="paint0_linear_276_1227" x1="72.525" y1="84.657" x2="50.4033" y2="101.461" gradientUnits="userSpaceOnUse">
<stop stop-color="#00478F"/>
<stop offset="1" stop-color="#29C4FF"/>
</linearGradient>
<linearGradient id="paint1_linear_276_1227" x1="76.0431" y1="84.3841" x2="57.8293" y2="108.876" gradientUnits="userSpaceOnUse">
<stop stop-color="#00478F"/>
<stop offset="1" stop-color="#29C4FF"/>
</linearGradient>
<linearGradient id="paint2_linear_276_1227" x1="78.1379" y1="84.2459" x2="72.7913" y2="105.236" gradientUnits="userSpaceOnUse">
<stop stop-color="#00478F"/>
<stop offset="1" stop-color="#29C4FF"/>
</linearGradient>
<linearGradient id="paint3_linear_276_1227" x1="60.8344" y1="41.91" x2="64.0685" y2="77.5873" gradientUnits="userSpaceOnUse">
<stop stop-color="#FFCE4B"/>
<stop offset="1" stop-color="#D3226F"/>
</linearGradient>
<linearGradient id="paint4_linear_276_1227" x1="65.533" y1="69.7008" x2="66.9113" y2="82.6685" gradientUnits="userSpaceOnUse">
<stop stop-color="#00478F"/>
<stop offset="1" stop-color="#51F4E9"/>
</linearGradient>
<linearGradient id="paint5_linear_276_1227" x1="68.832" y1="66.0927" x2="71.7146" y2="86.8022" gradientUnits="userSpaceOnUse">
<stop stop-color="#00478F"/>
<stop offset="1" stop-color="#29C4FF"/>
</linearGradient>
<linearGradient id="paint6_linear_276_1227" x1="69.4276" y1="58.7546" x2="79.7699" y2="79.4961" gradientUnits="userSpaceOnUse">
<stop stop-color="#003780"/>
<stop offset="1" stop-color="#B222D3"/>
</linearGradient>
<linearGradient id="paint7_linear_276_1227" x1="79.0469" y1="67.7928" x2="92.184" y2="76.6298" gradientUnits="userSpaceOnUse">
<stop stop-color="#4E046D"/>
<stop offset="1" stop-color="#FF8BC7"/>
</linearGradient>
<linearGradient id="paint8_linear_276_1227" x1="73.4313" y1="56.3074" x2="100.03" y2="80.3604" gradientUnits="userSpaceOnUse">
<stop stop-color="#4E046D"/>
<stop offset="1" stop-color="#FF8BC7"/>
</linearGradient>
<linearGradient id="paint9_linear_276_1227" x1="85.7667" y1="58.0676" x2="105.832" y2="68.3644" gradientUnits="userSpaceOnUse">
<stop stop-color="#B91C58"/>
<stop offset="1" stop-color="#F95C97"/>
</linearGradient>
<linearGradient id="paint10_linear_276_1227" x1="80.4815" y1="50.6672" x2="113.449" y2="56.863" gradientUnits="userSpaceOnUse">
<stop stop-color="#B91C58"/>
<stop offset="1" stop-color="#FF8BC7"/>
</linearGradient>
<linearGradient id="paint11_linear_276_1227" x1="105.369" y1="48.5661" x2="82.7668" y2="44.5757" gradientUnits="userSpaceOnUse">
<stop stop-color="#FFCE4B"/>
<stop offset="1" stop-color="#D3226F"/>
</linearGradient>
<linearGradient id="paint12_linear_276_1227" x1="65.9455" y1="77.4503" x2="79.6352" y2="42.2782" gradientUnits="userSpaceOnUse">
<stop stop-color="#00478F"/>
<stop offset="1" stop-color="#C11FDA"/>
</linearGradient>
<linearGradient id="paint13_linear_276_1227" x1="105.802" y1="43.9357" x2="74.2394" y2="40.7954" gradientUnits="userSpaceOnUse">
<stop stop-color="#FFCE4B"/>
<stop offset="1" stop-color="#D3226F"/>
</linearGradient>
<clipPath id="clip0_276_1227">
<rect width="150" height="150" fill="white" transform="translate(0 0.380859)"/>
</clipPath>
<clipPath id="clip1_276_1227">
<rect width="69" height="79" fill="white" transform="translate(40 35.3809)"/>
</clipPath>
</defs>
</svg>
