<svg width="150" height="151" viewBox="0 0 150 151" fill="none" xmlns="http://www.w3.org/2000/svg">
<g clip-path="url(#clip0_276_1135)">
<circle cx="75" cy="75.3809" r="75" fill="#F8F7F7"/>
<path d="M74.8698 34.3194C75.7698 34.3187 76.6498 34.5868 77.3985 35.0897C78.1472 35.5927 78.7309 36.308 79.0758 37.145C79.4207 37.9821 79.5113 38.9034 79.3362 39.7923C79.161 40.6812 78.728 41.4979 78.0918 42.1389C77.4556 42.78 76.6449 43.2167 75.7623 43.3938C74.8796 43.5708 73.9646 43.4803 73.133 43.1337C72.3015 42.787 71.5907 42.1998 71.0906 41.4463C70.5905 40.6929 70.3235 39.807 70.3235 38.9007C70.3231 38.2992 70.4403 37.7036 70.6686 37.1478C70.8968 36.592 71.2317 36.0869 71.6539 35.6614C72.0761 35.236 72.5774 34.8984 73.1292 34.6682C73.681 34.4379 74.2725 34.3194 74.8698 34.3194ZM74.8698 30.0123C73.1247 30.0159 71.4198 30.5401 69.9705 31.5189C68.5212 32.4978 67.3926 33.8872 66.7272 35.5116C66.0618 37.136 65.8895 38.9226 66.2321 40.6456C66.5747 42.3686 67.4168 43.9507 68.652 45.192C69.8872 46.4333 71.4601 47.2781 73.1719 47.6196C74.8837 47.9611 76.6577 47.784 78.2696 47.1108C79.8815 46.4375 81.2591 45.2983 82.2283 43.837C83.1974 42.3757 83.7147 40.6579 83.7147 38.9007C83.71 36.5417 82.7761 34.281 81.1178 32.6146C79.4596 30.9482 77.2126 30.0123 74.8698 30.0123Z" fill="#3C32A3"/>
<path d="M55.7473 41.0453C55.2934 41.9076 54.5777 42.6013 53.7046 43.0251C52.8314 43.449 51.8467 43.5807 50.894 43.4011C49.9412 43.2216 49.0705 42.7401 48.4087 42.027C47.7469 41.3139 47.3288 40.4065 47.2153 39.4373C47.1019 38.468 47.2991 37.4876 47.7781 36.6391C48.2571 35.7907 48.9929 35.1186 49.878 34.7209C50.7632 34.3233 51.7514 34.2209 52.6984 34.4287C53.6455 34.6365 54.5018 35.1437 55.1423 35.8761C55.4163 36.1988 55.7823 36.4287 56.1906 36.5345C56.5989 36.6403 57.0297 36.6169 57.4243 36.4675L57.633 36.3891C57.9341 36.2741 58.2036 36.0885 58.4192 35.8477C58.6349 35.607 58.7905 35.3179 58.8731 35.0046C58.9557 34.6912 58.9631 34.3625 58.8945 34.0457C58.8259 33.7289 58.6833 33.4332 58.4786 33.1829C57.2595 31.729 55.6091 30.7076 53.7703 30.269C51.9315 29.8304 50.0014 29.9978 48.2642 30.7466C46.5269 31.4954 45.0743 32.786 44.1202 34.4285C43.1661 36.0709 42.7608 37.9784 42.964 39.8702C43.1673 41.762 43.9683 43.538 45.2492 44.937C46.5302 46.336 48.2233 47.2839 50.0793 47.6413C51.9354 47.9986 53.8564 47.7465 55.5595 46.9221C57.2627 46.0977 58.6579 44.7445 59.54 43.0617C59.6999 42.7377 59.7755 42.3783 59.7598 42.0169C59.7441 41.6555 59.6376 41.3041 59.4502 40.9955C59.2629 40.6868 59.0008 40.4312 58.6885 40.2523C58.3763 40.0735 58.0241 39.9774 57.6649 39.973H57.6189C57.2395 39.9632 56.8647 40.0579 56.5349 40.2469C56.2051 40.4358 55.9327 40.7119 55.7473 41.0453Z" fill="#825EF6"/>
<path d="M68.9761 61.5511L60.2586 52.766C58.3309 50.8275 55.7178 49.7386 52.9934 49.7386C50.269 49.7386 47.6559 50.8275 45.7282 52.766L37.0036 61.5511C35.0802 63.4931 34 66.1239 34 68.8666C34 71.6094 35.0802 74.2402 37.0036 76.1822L42.2752 81.4867L45.7282 84.9637C46.6799 85.927 47.8119 86.6906 49.0587 87.2104C50.3054 87.7302 51.6422 87.9958 52.9916 87.9918C53.1332 87.9918 53.2676 87.9918 53.4056 87.9918C55.9873 87.8975 58.4369 86.8189 60.2586 84.9744L68.9761 76.1929C69.3073 75.8599 69.6136 75.5026 69.8924 75.1241C71.3928 73.1316 72.1265 70.6596 71.9581 68.1649C71.7897 65.6701 70.7305 63.3209 68.9761 61.5511ZM63.2128 70.3932L54.4917 79.1569C54.385 79.2632 54.2663 79.3564 54.1379 79.4347L54.0106 79.5095C53.9881 79.5246 53.9644 79.5377 53.9398 79.5487L53.8195 79.6057L53.7204 79.6485H53.678H53.6461H53.6108L53.5117 79.677H53.4657H53.3914C53.3339 79.6945 53.2745 79.7053 53.2145 79.709H53.119H52.9739C52.6877 79.71 52.4045 79.6505 52.1425 79.5345C51.8942 79.4297 51.6692 79.2758 51.4809 79.0821L46.6092 74.1801L42.7669 70.3932C42.5696 70.1946 42.413 69.9589 42.3062 69.6994C42.1994 69.4399 42.1444 69.1618 42.1444 68.8809C42.1444 68.6 42.1994 68.3219 42.3062 68.0624C42.413 67.8029 42.5696 67.5671 42.7669 67.3686L51.4915 58.5836C51.8896 58.1833 52.4291 57.9584 52.9916 57.9584C53.5542 57.9584 54.0937 58.1833 54.4917 58.5836L63.2128 67.3686C63.5667 67.7266 63.7832 68.1992 63.824 68.7027C63.8648 69.2061 63.7272 69.7078 63.4357 70.1189C63.3705 70.2175 63.2959 70.3093 63.2128 70.3932Z" fill="#825EF6"/>
<path d="M69.8927 75.1205C69.6138 75.4991 69.3075 75.8563 68.9763 76.1893L60.2588 84.9637C58.4371 86.8082 55.9875 87.8868 53.4058 87.9811C53.2678 87.9811 53.1334 87.9811 52.9919 87.9811C51.6425 87.9851 50.3057 87.7195 49.0589 87.1997C47.8121 86.6799 46.6801 85.9163 45.7284 84.953L42.2754 81.476C43.593 78.9883 45.0434 76.5742 46.62 74.2442L51.4918 79.1461C51.6801 79.3399 51.905 79.4938 52.1534 79.5986C52.4153 79.7146 52.6986 79.7741 52.9848 79.7731H53.1298H53.2254L53.4023 79.7411H53.4766H53.5225L53.6216 79.7126H53.657H53.6888H53.7313L53.8303 79.6698L53.9506 79.6128C53.9753 79.6018 53.9989 79.5887 54.0214 79.5736L54.1488 79.4988C54.2771 79.4205 54.3959 79.3273 54.5026 79.221L63.213 70.3931C63.2961 70.3093 63.3707 70.2174 63.4359 70.1188L65.1766 70.3931L69.8927 75.1205Z" fill="url(#paint0_linear_276_1135)"/>
<path d="M91.3889 61.5476L82.6679 52.7696C81.7147 51.8072 80.5824 51.0436 79.3357 50.5226C78.089 50.0016 76.7525 49.7334 75.4027 49.7334C74.0529 49.7334 72.7163 50.0016 71.4696 50.5226C70.2229 51.0436 69.0906 51.8072 68.1375 52.7696L64.1997 56.7382L68.976 61.5476C69.3073 61.8805 69.6135 62.2377 69.8923 62.6163L73.9008 58.5836C74.098 58.3849 74.3321 58.2272 74.5898 58.1196C74.8475 58.0121 75.1237 57.9567 75.4027 57.9567C75.6816 57.9567 75.9579 58.0121 76.2156 58.1196C76.4733 58.2272 76.7074 58.3849 76.9045 58.5836L85.6256 67.3651C85.8229 67.5636 85.9795 67.7994 86.0863 68.0588C86.1932 68.3183 86.2482 68.5965 86.2482 68.8774C86.2482 69.1583 86.1932 69.4364 86.0863 69.6959C85.9795 69.9554 85.8229 70.1911 85.6256 70.3896L76.9151 79.1569C76.718 79.3556 76.4839 79.5133 76.2262 79.6209C75.9685 79.7284 75.6922 79.7838 75.4133 79.7838C75.1343 79.7838 74.8581 79.7284 74.6004 79.6209C74.3427 79.5133 74.1086 79.3556 73.9114 79.1569L69.9065 75.1242L65.1798 70.3932C64.9759 70.1875 64.8159 69.942 64.7094 69.6719C64.603 69.4018 64.5523 69.1127 64.5606 68.8222C64.1856 68.4196 63.8035 68.017 63.4285 67.6252C63.3633 67.5341 63.2912 67.4483 63.2127 67.3687L62.1336 66.2999L62.0168 66.1788C60.0497 64.1624 58.5001 62.6163 58.5001 62.6163C56.9995 64.609 56.2659 67.0813 56.435 69.5763C56.6041 72.0714 57.6644 74.4204 59.42 76.1894L65.9475 82.7443L68.1481 84.9637C69.1012 85.9262 70.2335 86.6898 71.4802 87.2108C72.7269 87.7318 74.0635 88 75.4133 88C76.7631 88 78.0996 87.7318 79.3463 87.2108C80.593 86.6898 81.7254 85.9262 82.6785 84.9637L91.3995 76.1787C93.3233 74.2362 94.4027 71.6042 94.4008 68.8609C94.3988 66.1176 93.3155 63.4873 91.3889 61.5476Z" fill="#3C32A3"/>
<path d="M113.996 61.5476L105.275 52.7696C104.322 51.8072 103.19 51.0436 101.943 50.5226C100.696 50.0016 99.3599 49.7334 98.0101 49.7334C96.6603 49.7334 95.3238 50.0016 94.0771 50.5226C92.8304 51.0436 91.6981 51.8072 90.7449 52.7696L86.7081 56.8309L91.3924 61.5476C91.7546 61.9127 92.0893 62.3044 92.3936 62.7196L96.5118 58.5729C96.9098 58.1726 97.4494 57.9478 98.0119 57.9478C98.5744 57.9478 99.114 58.1726 99.512 58.5729L108.233 67.3544C108.43 67.5529 108.587 67.7887 108.694 68.0482C108.801 68.3076 108.856 68.5858 108.856 68.8667C108.856 69.1476 108.801 69.4257 108.694 69.6852C108.587 69.9447 108.43 70.1804 108.233 70.379L99.512 79.1569C99.114 79.5572 98.5744 79.782 98.0119 79.782C97.4494 79.782 96.9098 79.5572 96.5118 79.1569L92.8146 75.4412L92.3901 75.0244L87.7907 70.3932C87.4272 70.0263 87.2084 69.5389 87.1751 69.0217C86.7364 68.5585 86.2977 68.1025 85.8696 67.6608C85.7996 67.5554 85.719 67.4575 85.6291 67.3687L83.432 65.1599L83.0216 64.7431L82.636 64.337C81.9036 63.596 81.3623 63.0509 81.1359 62.8336L81.0226 62.7161C79.5596 64.708 78.8562 67.1631 79.0406 69.6337C79.225 72.1042 80.2851 74.4258 82.0274 76.1751L86.7117 80.8918L88.6717 82.8654L90.7485 84.9602C91.7016 85.9226 92.8339 86.6862 94.0806 87.2072C95.3273 87.7282 96.6639 87.9964 98.0137 87.9964C99.3635 87.9964 100.7 87.7282 101.947 87.2072C103.193 86.6862 104.326 85.9226 105.279 84.9602L114 76.1751C115.922 74.2328 117.001 71.6025 117 68.8606C116.999 66.1188 115.919 63.489 113.996 61.5476Z" fill="#42D3D8"/>
<path d="M98.0127 57.9459C97.7338 57.9446 97.4575 57.9993 97.1999 58.107C96.9423 58.2147 96.7086 58.3731 96.5127 58.5729L92.3945 62.7196C92.0901 62.3044 91.7555 61.9126 91.3932 61.5475L86.709 56.8308L90.7458 52.7696C92.1489 51.3569 93.928 50.3832 95.8685 49.966C97.8089 49.5488 99.8278 49.7059 101.682 50.4184C105.665 54.362 98.0127 57.9459 98.0127 57.9459Z" fill="url(#paint1_linear_276_1135)"/>
<path d="M93.9928 36.7491C94.446 35.8856 95.1614 35.1905 96.0347 34.7652C96.9079 34.34 97.8933 34.2069 98.8469 34.3854C99.8006 34.5639 100.673 35.0446 101.336 35.7574C101.999 36.4702 102.419 37.3777 102.533 38.3476C102.648 39.3175 102.452 40.2989 101.974 41.1486C101.495 41.9983 100.76 42.6719 99.8747 43.071C98.9893 43.4701 98.0005 43.5739 97.0525 43.3672C96.1045 43.1604 95.2469 42.654 94.6049 41.9219C94.3304 41.5998 93.9646 41.3702 93.5566 41.2638C93.1486 41.1575 92.7181 41.1795 92.3229 41.3269L92.1106 41.4089C91.8099 41.5243 91.5407 41.7102 91.3254 41.9511C91.1102 42.192 90.955 42.4811 90.8727 42.7945C90.7904 43.1078 90.7834 43.4363 90.8522 43.7529C90.9211 44.0695 91.0638 44.3651 91.2686 44.6151C92.4875 46.0694 94.1379 47.0912 95.9768 47.5301C97.8157 47.969 99.746 47.8018 101.484 47.053C103.221 46.3043 104.674 45.0136 105.628 43.3711C106.582 41.7285 106.988 39.8208 106.784 37.9288C106.581 36.0369 105.78 34.2607 104.498 32.8617C103.217 31.4628 101.524 30.5149 99.6676 30.1578C97.8113 29.8007 95.8902 30.0532 94.187 30.8781C92.4839 31.703 91.0889 33.0567 90.2072 34.7399C90.0473 35.0638 89.9717 35.4233 89.9874 35.7847C90.0031 36.146 90.1096 36.4975 90.297 36.8061C90.4843 37.1147 90.7464 37.3704 91.0586 37.5492C91.3709 37.7281 91.7231 37.8242 92.0823 37.8286H92.1283C92.5072 37.8364 92.881 37.74 93.2095 37.5498C93.5381 37.3596 93.8089 37.0828 93.9928 36.7491Z" fill="#42D3D8"/>
<path d="M51.9317 99.1296C51.3837 99.1296 50.8886 99.2237 50.4464 99.412C50.0042 99.5908 49.6293 99.8591 49.3216 100.217C49.014 100.565 48.7785 100.993 48.6151 101.502C48.4516 102.001 48.3699 102.565 48.3699 103.196C48.3699 104.025 48.4997 104.745 48.7593 105.357C49.0284 105.968 49.4226 106.439 49.9417 106.769C50.4704 107.098 51.129 107.263 51.9173 107.263C52.3691 107.263 52.7969 107.225 53.2007 107.15C53.6044 107.074 53.9986 106.98 54.3831 106.867V107.969C53.9986 108.11 53.5996 108.213 53.1862 108.279C52.7825 108.345 52.297 108.378 51.7298 108.378C50.6819 108.378 49.8071 108.166 49.1053 107.743C48.4036 107.319 47.8748 106.717 47.5191 105.935C47.173 105.154 47 104.236 47 103.182C47 102.42 47.1057 101.723 47.3172 101.092C47.5384 100.462 47.8556 99.9156 48.269 99.4544C48.692 98.9931 49.2111 98.6401 49.8263 98.3954C50.4416 98.1412 51.1482 98.0141 51.9461 98.0141C52.4748 98.0141 52.9844 98.0659 53.4746 98.1694C53.9649 98.273 54.4023 98.4189 54.7869 98.6072L54.2677 99.6803C53.9505 99.5391 53.5948 99.412 53.2007 99.299C52.8161 99.1861 52.3931 99.1296 51.9317 99.1296Z" fill="#301C7B"/>
<path d="M65.3324 103.182C65.3324 103.963 65.2314 104.674 65.0296 105.314C64.8277 105.945 64.5248 106.491 64.1211 106.952C63.7269 107.413 63.2318 107.766 62.6358 108.011C62.0494 108.256 61.3668 108.378 60.5882 108.378C59.7806 108.378 59.0788 108.256 58.4828 108.011C57.8868 107.757 57.3917 107.404 56.9975 106.952C56.6034 106.491 56.3102 105.94 56.1179 105.3C55.9256 104.66 55.8295 103.949 55.8295 103.168C55.8295 102.132 56.0026 101.229 56.3486 100.457C56.6947 99.685 57.2187 99.0825 57.9204 98.6495C58.6318 98.2165 59.5259 98 60.6026 98C61.6312 98 62.4964 98.2165 63.1982 98.6495C63.9 99.0731 64.4287 99.6756 64.7844 100.457C65.1497 101.229 65.3324 102.137 65.3324 103.182ZM57.1994 103.182C57.1994 104.029 57.3196 104.759 57.5599 105.371C57.8003 105.982 58.1704 106.453 58.6703 106.783C59.1798 107.112 59.8191 107.277 60.5882 107.277C61.3668 107.277 62.0013 107.112 62.4916 106.783C62.9915 106.453 63.3616 105.982 63.602 105.371C63.8423 104.759 63.9625 104.029 63.9625 103.182C63.9625 101.911 63.6933 100.918 63.1549 100.203C62.6166 99.4779 61.7658 99.1155 60.6026 99.1155C59.8239 99.1155 59.1798 99.2802 58.6703 99.6097C58.1704 99.9297 57.8003 100.396 57.5599 101.008C57.3196 101.61 57.1994 102.335 57.1994 103.182Z" fill="#301C7B"/>
<path d="M72.0269 99.1296C71.479 99.1296 70.9839 99.2237 70.5416 99.412C70.0994 99.5908 69.7245 99.8591 69.4169 100.217C69.1092 100.565 68.8737 100.993 68.7103 101.502C68.5469 102.001 68.4651 102.565 68.4651 103.196C68.4651 104.025 68.5949 104.745 68.8545 105.357C69.1237 105.968 69.5178 106.439 70.0369 106.769C70.5657 107.098 71.2242 107.263 72.0125 107.263C72.4643 107.263 72.8921 107.225 73.2959 107.15C73.6997 107.074 74.0938 106.98 74.4783 106.867V107.969C74.0938 108.11 73.6948 108.213 73.2815 108.279C72.8777 108.345 72.3922 108.378 71.825 108.378C70.7772 108.378 69.9024 108.166 69.2006 107.743C68.4988 107.319 67.9701 106.717 67.6144 105.935C67.2683 105.154 67.0952 104.236 67.0952 103.182C67.0952 102.42 67.201 101.723 67.4125 101.092C67.6336 100.462 67.9508 99.9156 68.3642 99.4544C68.7872 98.9931 69.3063 98.6401 69.9216 98.3954C70.5368 98.1412 71.2434 98.0141 72.0413 98.0141C72.5701 98.0141 73.0796 98.0659 73.5699 98.1694C74.0602 98.273 74.4976 98.4189 74.8821 98.6072L74.363 99.6803C74.0457 99.5391 73.69 99.412 73.2959 99.299C72.9114 99.1861 72.4884 99.1296 72.0269 99.1296Z" fill="#301C7B"/>
<path d="M82.4791 108.237H76.7255V98.1553H82.4791V99.2708H78.0233V102.42H82.2196V103.521H78.0233V107.122H82.4791V108.237Z" fill="#301C7B"/>
<path d="M91.6743 98.1553V107.107H92.9866V110.892H91.7464V108.237H84.6662V110.892H83.426V107.107H84.2191C84.5652 106.524 84.8921 105.87 85.1997 105.145C85.5169 104.42 85.7957 103.662 86.0361 102.871C86.2764 102.071 86.4735 101.271 86.6273 100.471C86.7811 99.6709 86.8772 98.899 86.9157 98.1553H91.6743ZM88.0549 99.299C88.0164 99.845 87.9203 100.462 87.7665 101.149C87.6223 101.836 87.4348 102.542 87.2041 103.267C86.983 103.982 86.733 104.674 86.4543 105.342C86.1851 106.011 85.8967 106.599 85.589 107.107H90.3909V99.299H88.0549Z" fill="#301C7B"/>
<path d="M94.7228 98.1553H95.9341V103.69C95.9341 103.926 95.9293 104.185 95.9197 104.467C95.9197 104.74 95.9149 105.013 95.9053 105.286C95.8957 105.559 95.8813 105.804 95.862 106.02C95.8524 106.227 95.8428 106.387 95.8332 106.5H95.8909L101.558 98.1553H103V108.237H101.789V102.758C101.789 102.504 101.794 102.231 101.803 101.939C101.813 101.638 101.822 101.351 101.832 101.078C101.851 100.796 101.866 100.546 101.875 100.33C101.885 100.113 101.894 99.9533 101.904 99.8497H101.846L96.1649 108.237H94.7228V98.1553Z" fill="#301C7B"/>
<path d="M49.6201 117.735C49.4679 117.735 49.3303 117.761 49.2074 117.814C49.0845 117.863 48.9804 117.938 48.8949 118.037C48.8094 118.134 48.744 118.253 48.6985 118.394C48.6531 118.533 48.6304 118.69 48.6304 118.865C48.6304 119.095 48.6665 119.296 48.7386 119.466C48.8134 119.636 48.9229 119.766 49.0672 119.858C49.2141 119.949 49.3971 119.995 49.6161 119.995C49.7417 119.995 49.8606 119.985 49.9728 119.964C50.085 119.943 50.1945 119.917 50.3013 119.885V120.191C50.1945 120.231 50.0836 120.259 49.9688 120.278C49.8566 120.296 49.7217 120.305 49.5641 120.305C49.2729 120.305 49.0298 120.246 48.8348 120.129C48.6398 120.011 48.4928 119.844 48.394 119.626C48.2978 119.409 48.2498 119.154 48.2498 118.861C48.2498 118.649 48.2791 118.456 48.3379 118.281C48.3994 118.105 48.4875 117.954 48.6024 117.826C48.7199 117.697 48.8642 117.599 49.0351 117.531C49.2061 117.461 49.4024 117.425 49.6242 117.425C49.7711 117.425 49.9127 117.44 50.0489 117.468C50.1851 117.497 50.3067 117.538 50.4135 117.59L50.2693 117.888C50.1811 117.849 50.0823 117.814 49.9728 117.782C49.8659 117.751 49.7484 117.735 49.6201 117.735Z" fill="#04004F"/>
<path d="M52.5246 120.266H50.9258V117.465H52.5246V117.775H51.2864V118.649H52.4524V118.956H51.2864V119.956H52.5246V120.266Z" fill="#04004F"/>
<path d="M54.0579 120.266H53.6973V117.775H52.8037V117.465H54.9474V117.775H54.0579V120.266Z" fill="#04004F"/>
<path d="M55.3789 120.266V117.465H55.7395V118.649H56.2764C56.5436 118.649 56.7559 118.685 56.9135 118.755C57.0711 118.826 57.1847 118.922 57.2541 119.042C57.3236 119.162 57.3583 119.297 57.3583 119.446C57.3583 119.611 57.3196 119.755 57.2421 119.878C57.1673 120 57.0538 120.096 56.9015 120.164C56.7493 120.232 56.5556 120.266 56.3205 120.266H55.3789ZM56.2844 119.964C56.5168 119.964 56.6918 119.922 56.8094 119.838C56.9269 119.752 56.9857 119.621 56.9857 119.446C56.9857 119.326 56.9563 119.23 56.8975 119.16C56.8414 119.086 56.7573 119.034 56.6451 119.003C56.5355 118.971 56.398 118.956 56.2323 118.956H55.7395V119.964H56.2844Z" fill="#04004F"/>
<path d="M60.3115 120.266L59.3699 117.81H59.3539C59.3592 117.862 59.3632 117.929 59.3659 118.01C59.3712 118.091 59.3752 118.18 59.3779 118.277C59.3806 118.371 59.3819 118.468 59.3819 118.567V120.266H59.0493V117.465H59.5823L60.4638 119.76H60.4798L61.3774 117.465H61.9063V120.266H61.5497V118.544C61.5497 118.452 61.551 118.362 61.5537 118.273C61.5564 118.181 61.5604 118.096 61.5657 118.018C61.5711 117.937 61.5751 117.869 61.5777 117.814H61.5617L60.6081 120.266H60.3115Z" fill="#04004F"/>
<path d="M64.4797 120.266L64.1351 119.399H63.0011L62.6605 120.266H62.2959L63.4139 117.453H63.7384L64.8524 120.266H64.4797ZM63.7064 118.237C63.6984 118.217 63.685 118.179 63.6663 118.124C63.6476 118.069 63.6289 118.013 63.6102 117.955C63.5942 117.895 63.5808 117.849 63.5701 117.818C63.5568 117.87 63.5421 117.924 63.5261 117.979C63.5127 118.031 63.498 118.079 63.482 118.124C63.4686 118.168 63.4566 118.206 63.4459 118.237L63.1213 119.085H64.0269L63.7064 118.237Z" fill="#04004F"/>
<path d="M66.8586 117.465V117.778H65.6044V120.266H65.2437V117.465H66.8586Z" fill="#04004F"/>
<path d="M68.8585 120.266L68.5139 119.399H67.3799L67.0393 120.266H66.6746L67.7926 117.453H68.1172L69.2311 120.266H68.8585ZM68.0851 118.237C68.0771 118.217 68.0637 118.179 68.045 118.124C68.0263 118.069 68.0076 118.013 67.9889 117.955C67.9729 117.895 67.9596 117.849 67.9489 117.818C67.9355 117.87 67.9208 117.924 67.9048 117.979C67.8914 118.031 67.8767 118.079 67.8607 118.124C67.8474 118.168 67.8353 118.206 67.8247 118.237L67.5001 119.085H68.4057L68.0851 118.237Z" fill="#04004F"/>
<path d="M71.3134 118.12C71.3134 118.311 71.252 118.462 71.1291 118.575C71.0062 118.685 70.8419 118.755 70.6362 118.787V118.802C70.8767 118.834 71.0597 118.907 71.1852 119.022C71.3108 119.137 71.3735 119.288 71.3735 119.473C71.3735 119.638 71.3308 119.783 71.2453 119.909C71.1598 120.032 71.0316 120.129 70.8606 120.199C70.6897 120.27 70.476 120.305 70.2195 120.305C70.0646 120.305 69.9163 120.293 69.7747 120.27C69.6358 120.249 69.5063 120.21 69.3861 120.152V119.83C69.4689 119.87 69.557 119.904 69.6505 119.932C69.7467 119.959 69.8429 119.98 69.939 119.995C70.0352 120.008 70.1274 120.015 70.2155 120.015C70.472 120.015 70.6656 119.968 70.7965 119.874C70.9301 119.779 70.9969 119.646 70.9969 119.473C70.9969 119.296 70.9194 119.166 70.7645 119.085C70.6095 119.004 70.3932 118.963 70.1153 118.963H69.7066V118.669H70.0953C70.285 118.669 70.4412 118.648 70.5641 118.606C70.6897 118.564 70.7832 118.506 70.8446 118.43C70.9087 118.351 70.9408 118.26 70.9408 118.155C70.9408 118.014 70.8874 117.905 70.7805 117.829C70.6736 117.754 70.5347 117.716 70.3638 117.716C70.1848 117.716 70.0352 117.738 69.915 117.782C69.7974 117.827 69.6826 117.884 69.5704 117.955L69.3981 117.716C69.4729 117.661 69.5584 117.612 69.6545 117.57C69.7534 117.526 69.8629 117.491 69.9831 117.465C70.1033 117.438 70.2315 117.425 70.3678 117.425C70.5735 117.425 70.7458 117.455 70.8847 117.516C71.0263 117.576 71.1331 117.658 71.2052 117.763C71.2774 117.865 71.3134 117.984 71.3134 118.12Z" fill="#04004F"/>
<path d="M71.9822 117.465H72.3187V119.003C72.3187 119.068 72.3174 119.14 72.3147 119.218C72.3147 119.294 72.3134 119.37 72.3107 119.446C72.3081 119.522 72.3041 119.59 72.2987 119.65C72.296 119.708 72.2934 119.752 72.2907 119.783H72.3067L73.8815 117.465H74.2822V120.266H73.9456V118.744C73.9456 118.673 73.9469 118.597 73.9496 118.516C73.9523 118.432 73.9549 118.353 73.9576 118.277C73.963 118.198 73.967 118.129 73.9696 118.069C73.9723 118.009 73.975 117.964 73.9776 117.935H73.9616L72.3829 120.266H71.9822V117.465Z" fill="#04004F"/>
<path d="M77.2417 120.266H76.881V118.959H75.4145V120.266H75.0538V117.465H75.4145V118.649H76.881V117.465H77.2417V120.266Z" fill="#04004F"/>
<path d="M80.5202 118.861C80.5202 119.078 80.4922 119.276 80.4361 119.454C80.38 119.629 80.2958 119.781 80.1836 119.909C80.0741 120.037 79.9365 120.135 79.7709 120.203C79.608 120.271 79.4183 120.305 79.2019 120.305C78.9775 120.305 78.7825 120.271 78.6169 120.203C78.4513 120.133 78.3137 120.034 78.2042 119.909C78.0947 119.781 78.0132 119.628 77.9598 119.45C77.9063 119.272 77.8796 119.075 77.8796 118.857C77.8796 118.57 77.9277 118.319 78.0239 118.104C78.12 117.89 78.2656 117.722 78.4606 117.602C78.6583 117.482 78.9067 117.421 79.2059 117.421C79.4918 117.421 79.7322 117.482 79.9272 117.602C80.1222 117.72 80.2691 117.887 80.368 118.104C80.4695 118.319 80.5202 118.571 80.5202 118.861ZM78.2603 118.861C78.2603 119.097 78.2937 119.299 78.3605 119.47C78.4272 119.64 78.5301 119.77 78.669 119.862C78.8106 119.953 78.9882 119.999 79.2019 119.999C79.4183 119.999 79.5946 119.953 79.7308 119.862C79.8698 119.77 79.9726 119.64 80.0394 119.47C80.1062 119.299 80.1396 119.097 80.1396 118.861C80.1396 118.508 80.0648 118.232 79.9152 118.033C79.7656 117.832 79.5292 117.731 79.2059 117.731C78.9896 117.731 78.8106 117.777 78.669 117.869C78.5301 117.958 78.4272 118.087 78.3605 118.257C78.2937 118.425 78.2603 118.626 78.2603 118.861Z" fill="#04004F"/>
<path d="M81.9718 117.465C82.2095 117.465 82.4085 117.487 82.5688 117.531C82.7318 117.576 82.8533 117.649 82.9334 117.751C83.0162 117.853 83.0577 117.989 83.0577 118.159C83.0577 118.269 83.0363 118.367 82.9935 118.453C82.9535 118.537 82.892 118.608 82.8092 118.665C82.7291 118.72 82.6302 118.758 82.5127 118.779V118.799C82.6329 118.817 82.7411 118.851 82.8373 118.901C82.9361 118.95 83.0136 119.021 83.0697 119.112C83.1258 119.204 83.1538 119.323 83.1538 119.47C83.1538 119.64 83.1138 119.785 83.0336 119.905C82.9535 120.023 82.8386 120.113 82.689 120.176C82.5421 120.236 82.3658 120.266 82.1601 120.266H81.1543V117.465H81.9718ZM82.0439 118.657C82.2896 118.657 82.4579 118.619 82.5488 118.544C82.6396 118.465 82.685 118.35 82.685 118.198C82.685 118.044 82.6289 117.934 82.5167 117.869C82.4072 117.801 82.2309 117.767 81.9878 117.767H81.515V118.657H82.0439ZM81.515 118.952V119.968H82.092C82.3457 119.968 82.5221 119.919 82.6209 119.823C82.7197 119.726 82.7691 119.599 82.7691 119.442C82.7691 119.343 82.7464 119.256 82.701 119.183C82.6583 119.11 82.5848 119.054 82.4806 119.014C82.3791 118.973 82.2402 118.952 82.0639 118.952H81.515Z" fill="#04004F"/>
<path d="M86.0581 119.47C85.9726 119.655 85.8858 119.811 85.7977 119.936C85.7122 120.059 85.6107 120.152 85.4931 120.215C85.3756 120.275 85.226 120.305 85.0443 120.305C84.9695 120.305 84.8988 120.3 84.832 120.29C84.7679 120.279 84.7091 120.265 84.6557 120.246V119.897C84.7091 119.921 84.7665 119.94 84.828 119.956C84.8894 119.969 84.9535 119.976 85.0203 119.976C85.1191 119.976 85.2033 119.963 85.2727 119.936C85.3449 119.908 85.4076 119.862 85.4611 119.799C85.5172 119.736 85.5693 119.653 85.6173 119.548L84.5154 117.465H84.9121L85.7095 119.007C85.7202 119.025 85.7309 119.047 85.7416 119.073C85.7522 119.097 85.7629 119.122 85.7736 119.148C85.787 119.174 85.7977 119.199 85.8057 119.222H85.8217C85.8297 119.204 85.8377 119.183 85.8457 119.16C85.8564 119.133 85.8658 119.109 85.8738 119.085C85.8845 119.059 85.8938 119.037 85.9018 119.018L86.591 117.465H86.9717L86.0581 119.47Z" fill="#04004F"/>
<path d="M90.3874 117.465V119.952H90.7521V121.004H90.4075V120.266H88.44V121.004H88.0954V119.952H88.3158C88.412 119.79 88.5028 119.608 88.5883 119.407C88.6764 119.205 88.7539 118.995 88.8207 118.775C88.8875 118.553 88.9422 118.33 88.985 118.108C89.0277 117.886 89.0544 117.671 89.0651 117.465H90.3874ZM89.3817 117.782C89.371 117.934 89.3443 118.105 89.3015 118.296C89.2615 118.487 89.2094 118.683 89.1453 118.885C89.0838 119.084 89.0144 119.276 88.9369 119.462C88.8621 119.647 88.7819 119.811 88.6965 119.952H90.0308V117.782H89.3817Z" fill="#04004F"/>
<path d="M93.7269 118.861C93.7269 119.078 93.6988 119.276 93.6427 119.454C93.5866 119.629 93.5025 119.781 93.3903 119.909C93.2808 120.037 93.1432 120.135 92.9776 120.203C92.8146 120.271 92.625 120.305 92.4086 120.305C92.1842 120.305 91.9892 120.271 91.8236 120.203C91.6579 120.133 91.5204 120.034 91.4108 119.909C91.3013 119.781 91.2198 119.628 91.1664 119.45C91.113 119.272 91.0863 119.075 91.0863 118.857C91.0863 118.57 91.1343 118.319 91.2305 118.104C91.3267 117.89 91.4723 117.722 91.6673 117.602C91.865 117.482 92.1134 117.421 92.4126 117.421C92.6984 117.421 92.9388 117.482 93.1338 117.602C93.3288 117.72 93.4758 117.887 93.5746 118.104C93.6761 118.319 93.7269 118.571 93.7269 118.861ZM91.4669 118.861C91.4669 119.097 91.5003 119.299 91.5671 119.47C91.6339 119.64 91.7367 119.77 91.8756 119.862C92.0172 119.953 92.1949 119.999 92.4086 119.999C92.625 119.999 92.8013 119.953 92.9375 119.862C93.0764 119.77 93.1793 119.64 93.246 119.47C93.3128 119.299 93.3462 119.097 93.3462 118.861C93.3462 118.508 93.2714 118.232 93.1218 118.033C92.9722 117.832 92.7358 117.731 92.4126 117.731C92.1962 117.731 92.0172 117.777 91.8756 117.869C91.7367 117.958 91.6339 118.087 91.5671 118.257C91.5003 118.425 91.4669 118.626 91.4669 118.861Z" fill="#04004F"/>
<path d="M95.6232 120.266L94.6815 117.81H94.6655C94.6709 117.862 94.6749 117.929 94.6775 118.01C94.6829 118.091 94.6869 118.18 94.6896 118.277C94.6922 118.371 94.6936 118.468 94.6936 118.567V120.266H94.361V117.465H94.8939L95.7755 119.76H95.7915L96.689 117.465H97.218V120.266H96.8613V118.544C96.8613 118.452 96.8627 118.362 96.8654 118.273C96.868 118.181 96.872 118.096 96.8774 118.018C96.8827 117.937 96.8867 117.869 96.8894 117.814H96.8734L95.9197 120.266H95.6232Z" fill="#04004F"/>
<path d="M99.7914 120.266L99.4468 119.399H98.3128L97.9722 120.266H97.6076L98.7255 117.453H99.0501L100.164 120.266H99.7914ZM99.018 118.237C99.01 118.217 98.9967 118.179 98.978 118.124C98.9593 118.069 98.9406 118.013 98.9219 117.955C98.9058 117.895 98.8925 117.849 98.8818 117.818C98.8684 117.87 98.8537 117.924 98.8377 117.979C98.8244 118.031 98.8097 118.079 98.7936 118.124C98.7803 118.168 98.7683 118.206 98.7576 118.237L98.433 119.085H99.3386L99.018 118.237Z" fill="#04004F"/>
</g>
<defs>
<linearGradient id="paint0_linear_276_1135" x1="59.9369" y1="72.5164" x2="52.7571" y2="81.6844" gradientUnits="userSpaceOnUse">
<stop stop-color="#4223ED"/>
<stop offset="0.99" stop-color="#825EF6"/>
</linearGradient>
<linearGradient id="paint1_linear_276_1135" x1="94.0962" y1="56.1718" x2="90.5077" y2="59.909" gradientUnits="userSpaceOnUse">
<stop stop-color="#42D3D8"/>
<stop offset="0.99" stop-color="#11AFB7"/>
</linearGradient>
<clipPath id="clip0_276_1135">
<rect width="150" height="150" fill="white" transform="translate(0 0.380859)"/>
</clipPath>
</defs>
</svg>
