<svg width="150" height="151" viewBox="0 0 150 151" fill="none" xmlns="http://www.w3.org/2000/svg">
<g clip-path="url(#clip0_276_1327)">
<circle cx="75" cy="75.3809" r="75" fill="#F8F7F7"/>
<mask id="mask0_276_1327" style="mask-type:luminance" maskUnits="userSpaceOnUse" x="58" y="32" width="18" height="19">
<path d="M68.1354 50.6287C78.9163 47.3304 74.1902 32.2648 74.1902 32.2648C73.8948 49.1011 58.0923 49.2015 58.0923 49.2015C60.4125 50.0578 65.7005 51.0279 68.1354 50.6287Z" fill="white"/>
</mask>
<g mask="url(#mask0_276_1327)">
<path d="M78.9163 32.2664H58.0923V51.0271H78.9163V32.2664Z" fill="url(#paint0_linear_276_1327)"/>
</g>
<mask id="mask1_276_1327" style="mask-type:luminance" maskUnits="userSpaceOnUse" x="37" y="27" width="50" height="68">
<path d="M71.6188 58.5196C69.1202 61.1058 64.7019 60.8108 64.7019 56.5752C64.7019 56.5752 69.1078 56.6228 71.6188 58.5196ZM67.9884 72.7198C72.4323 65.9265 82.5111 65.8771 82.5111 65.8771C88.1249 63.514 86.2034 55.4648 86.2034 55.4648C81.2313 56.4001 77.2189 56.1784 77.2189 56.1784C74.5361 56.1784 72.9847 55.3169 72.9847 55.3169C68.0298 52.0266 61.4092 53.0742 55.4838 50.7197C34.7097 45.0654 41.7004 27.3809 41.7004 27.3809C33.8467 37.7998 38.1465 52.7978 50.771 55.9463C51.9647 56.2793 51.546 57.2636 51.546 57.2636C44.6862 63.3256 47.4108 70.0137 47.4108 70.0137C48.7905 69.5213 52.7278 66.7648 52.7278 66.7648C57.5519 63.6139 58.9292 58.5924 58.9292 58.5924C59.7665 62.8266 56.0247 66.4694 56.0247 66.4694C52.8738 68.6845 52.3324 73.706 52.3324 73.706C55.5818 90.8372 68.3809 94.677 68.3809 94.677C59.423 82.7638 67.9884 72.7198 67.9884 72.7198Z" fill="white"/>
</mask>
<g mask="url(#mask1_276_1327)">
<path d="M88.1235 27.3809H33.8467V94.677H88.1235V27.3809Z" fill="url(#paint1_linear_276_1327)"/>
</g>
<mask id="mask2_276_1327" style="mask-type:luminance" maskUnits="userSpaceOnUse" x="66" y="70" width="40" height="28">
<path d="M78.9853 75.3486C75.1269 74.1036 74.3938 70.1378 74.3938 70.1378C64.6086 74.3843 64.0777 91.4166 74.3938 96.008C88.6082 100.766 104.682 88.1582 105.334 74.1498C101.882 69.7857 93.6136 72.7372 87.446 74.5503C84.777 75.3348 81.7313 76.2359 78.9838 75.3486" fill="white"/>
</mask>
<g mask="url(#mask2_276_1327)">
<path d="M105.334 69.7858H64.0776V100.764H105.334V69.7858Z" fill="url(#paint2_linear_276_1327)"/>
</g>
<path d="M37.3336 112.095C36.7089 112.095 36.1311 111.993 35.6002 111.79C35.077 111.579 34.6202 111.286 34.2298 110.912C33.8472 110.529 33.5466 110.084 33.3279 109.576C33.1093 109.069 33 108.511 33 107.902C33 107.293 33.1093 106.734 33.3279 106.227C33.5466 105.719 33.8511 105.278 34.2415 104.903C34.6319 104.521 35.0887 104.228 35.6119 104.025C36.1428 103.814 36.7207 103.708 37.3453 103.708C37.9778 103.708 38.5595 103.818 39.0905 104.036C39.6293 104.247 40.086 104.563 40.4608 104.985L39.6995 105.723C39.3872 105.395 39.0358 105.153 38.6454 104.997C38.255 104.833 37.8373 104.751 37.3922 104.751C36.9315 104.751 36.502 104.829 36.1038 104.985C35.7134 105.141 35.3737 105.36 35.0848 105.641C34.7959 105.922 34.5695 106.258 34.4055 106.648C34.2493 107.031 34.1712 107.449 34.1712 107.902C34.1712 108.354 34.2493 108.776 34.4055 109.166C34.5695 109.549 34.7959 109.881 35.0848 110.162C35.3737 110.443 35.7134 110.662 36.1038 110.818C36.502 110.974 36.9315 111.052 37.3922 111.052C37.8373 111.052 38.255 110.974 38.6454 110.818C39.0358 110.654 39.3872 110.404 39.6995 110.068L40.4608 110.806C40.086 111.228 39.6293 111.548 39.0905 111.767C38.5595 111.985 37.9739 112.095 37.3336 112.095Z" fill="black"/>
<path d="M41.8871 112.001V105.793H43.0115V110.314L46.8181 105.793H47.837V112.001H46.7126V107.48L42.9178 112.001H41.8871Z" fill="black"/>
<path d="M48.9888 111.989L49.0591 111.04C49.1137 111.048 49.1645 111.056 49.2113 111.064C49.2582 111.072 49.3011 111.076 49.3402 111.076C49.59 111.076 49.7852 110.99 49.9258 110.818C50.0742 110.646 50.1835 110.42 50.2537 110.139C50.324 109.85 50.3748 109.526 50.406 109.166C50.4372 108.807 50.4607 108.448 50.4763 108.089L50.5817 105.793H55.3487V112.001H54.2243V106.449L54.4937 106.777H51.3079L51.5655 106.437L51.4836 108.159C51.4601 108.706 51.4172 109.217 51.3547 109.694C51.2923 110.17 51.1947 110.588 51.0619 110.947C50.937 111.306 50.7613 111.587 50.5348 111.79C50.3162 111.993 50.0312 112.095 49.6798 112.095C49.5783 112.095 49.469 112.083 49.3519 112.059C49.2426 112.044 49.1215 112.02 48.9888 111.989Z" fill="black"/>
<path d="M61.3294 112.001V110.689L61.2708 110.443V108.206C61.2708 107.73 61.1302 107.363 60.8491 107.105C60.5759 106.84 60.162 106.707 59.6076 106.707C59.2406 106.707 58.8814 106.769 58.5301 106.894C58.1787 107.011 57.882 107.171 57.6399 107.374L57.1714 106.531C57.4916 106.274 57.8742 106.078 58.3192 105.946C58.7721 105.805 59.2445 105.735 59.7365 105.735C60.5876 105.735 61.2435 105.942 61.7042 106.356C62.1648 106.769 62.3952 107.402 62.3952 108.253V112.001H61.3294ZM59.2914 112.071C58.8307 112.071 58.4247 111.993 58.0733 111.837C57.7297 111.681 57.4642 111.466 57.2768 111.193C57.0894 110.912 56.9957 110.595 56.9957 110.244C56.9957 109.908 57.0738 109.604 57.23 109.33C57.394 109.057 57.6555 108.839 58.0147 108.675C58.3817 108.511 58.8736 108.429 59.4905 108.429H61.4582V109.237H59.5373C58.9751 109.237 58.5964 109.33 58.4012 109.518C58.206 109.705 58.1084 109.932 58.1084 110.197C58.1084 110.502 58.2295 110.748 58.4715 110.935C58.7136 111.115 59.0493 111.204 59.4788 111.204C59.9004 111.204 60.2674 111.111 60.5798 110.923C60.8999 110.736 61.1302 110.463 61.2708 110.103L61.4933 110.877C61.345 111.244 61.0834 111.536 60.7086 111.755C60.3338 111.966 59.8614 112.071 59.2914 112.071Z" fill="black"/>
<path d="M70.4349 112.095C69.9195 112.095 69.4627 112.013 69.0645 111.849C68.6741 111.685 68.3384 111.443 68.0573 111.122C67.7762 110.795 67.5614 110.385 67.4131 109.893C67.2725 109.393 67.2022 108.807 67.2022 108.136C67.2022 107.605 67.2491 107.129 67.3428 106.707C67.4365 106.285 67.5692 105.91 67.741 105.582C67.9206 105.255 68.1392 104.97 68.3969 104.727C68.6624 104.485 68.9591 104.286 69.2871 104.13C69.6228 103.966 69.9898 103.841 70.388 103.755L73.2225 103.123L73.3864 104.165L70.7745 104.727C70.6184 104.759 70.431 104.806 70.2123 104.868C69.9937 104.93 69.7712 105.028 69.5447 105.161C69.3183 105.286 69.1075 105.461 68.9123 105.688C68.7171 105.914 68.5609 106.211 68.4438 106.578C68.3266 106.937 68.2681 107.382 68.2681 107.913C68.2681 108.062 68.272 108.175 68.2798 108.253C68.2876 108.331 68.2954 108.409 68.3032 108.487C68.3188 108.565 68.3305 108.682 68.3384 108.839L67.8699 108.358C67.9948 107.929 68.1939 107.554 68.4672 107.234C68.7405 106.914 69.0684 106.668 69.451 106.496C69.8415 106.316 70.267 106.227 70.7277 106.227C71.3055 106.227 71.817 106.352 72.262 106.601C72.7149 106.851 73.0702 107.195 73.3279 107.632C73.5855 108.069 73.7144 108.569 73.7144 109.131C73.7144 109.701 73.5777 110.213 73.3044 110.666C73.039 111.111 72.6603 111.462 72.1683 111.72C71.6764 111.97 71.0986 112.095 70.4349 112.095ZM70.5403 111.158C70.9385 111.158 71.2899 111.072 71.5944 110.9C71.8989 110.72 72.1371 110.482 72.3089 110.185C72.4807 109.881 72.5666 109.541 72.5666 109.166C72.5666 108.792 72.4807 108.46 72.3089 108.171C72.1371 107.882 71.8989 107.656 71.5944 107.492C71.2899 107.32 70.9307 107.234 70.5169 107.234C70.1265 107.234 69.7751 107.316 69.4627 107.48C69.1504 107.636 68.9084 107.859 68.7366 108.148C68.5648 108.429 68.4789 108.757 68.4789 109.131C68.4789 109.506 68.5648 109.85 68.7366 110.162C68.9162 110.467 69.1582 110.709 69.4627 110.888C69.7751 111.068 70.1343 111.158 70.5403 111.158Z" fill="black"/>
<path d="M75.4649 114.343C75.1682 114.343 74.8793 114.293 74.5982 114.191C74.3171 114.097 74.0751 113.957 73.872 113.769L74.3522 112.926C74.5084 113.075 74.6802 113.188 74.8676 113.266C75.055 113.344 75.2541 113.383 75.4649 113.383C75.7382 113.383 75.9647 113.313 76.1443 113.172C76.3238 113.032 76.4917 112.782 76.6479 112.423L77.0344 111.568L77.1515 111.427L79.5877 105.793H80.6887L77.6786 112.622C77.499 113.059 77.296 113.403 77.0695 113.652C76.8509 113.902 76.6088 114.078 76.3434 114.179C76.0779 114.289 75.7851 114.343 75.4649 114.343ZM76.9407 112.2L74.1063 105.793H75.2775L77.6903 111.322L76.9407 112.2Z" fill="black"/>
<path d="M81.8399 112.001V105.793H82.9643V110.314L86.7708 105.793H87.7898V112.001H86.6654V107.48L82.8706 112.001H81.8399ZM84.7446 104.985C84.1746 104.985 83.7256 104.849 83.3977 104.575C83.0775 104.294 82.9135 103.892 82.9057 103.369H83.667C83.6749 103.666 83.7725 103.9 83.9599 104.072C84.1551 104.243 84.4127 104.329 84.7329 104.329C85.053 104.329 85.3107 104.243 85.5059 104.072C85.7011 103.9 85.8026 103.666 85.8104 103.369H86.5952C86.5874 103.892 86.4195 104.294 86.0915 104.575C85.7636 104.849 85.3146 104.985 84.7446 104.985Z" fill="black"/>
<path d="M89.9723 112.001V105.793H92.8536C93.5797 105.793 94.1497 105.934 94.5636 106.215C94.9852 106.488 95.1961 106.879 95.1961 107.386C95.1961 107.894 94.9969 108.288 94.5987 108.569C94.2083 108.842 93.689 108.979 93.041 108.979L93.2166 108.675C93.9584 108.675 94.5089 108.811 94.8681 109.085C95.2273 109.358 95.4069 109.76 95.4069 110.291C95.4069 110.83 95.2039 111.251 94.7978 111.556C94.3996 111.853 93.7867 112.001 92.959 112.001H89.9723ZM91.0733 111.134H92.877C93.3455 111.134 93.6969 111.064 93.9311 110.923C94.1654 110.775 94.2825 110.541 94.2825 110.221C94.2825 109.893 94.1732 109.655 93.9545 109.506C93.7437 109.35 93.408 109.272 92.9473 109.272H91.0733V111.134ZM91.0733 108.464H92.7599C93.1893 108.464 93.5134 108.386 93.732 108.229C93.9584 108.066 94.0717 107.839 94.0717 107.55C94.0717 107.253 93.9584 107.031 93.732 106.883C93.5134 106.734 93.1893 106.66 92.7599 106.66H91.0733V108.464Z" fill="black"/>
<path d="M99.8255 112.071C99.2008 112.071 98.6464 111.935 98.1623 111.661C97.6782 111.388 97.2956 111.013 97.0145 110.537C96.7334 110.053 96.5929 109.506 96.5929 108.897C96.5929 108.28 96.7334 107.734 97.0145 107.257C97.2956 106.781 97.6782 106.41 98.1623 106.145C98.6464 105.871 99.2008 105.735 99.8255 105.735C100.442 105.735 100.993 105.871 101.477 106.145C101.969 106.41 102.351 106.781 102.625 107.257C102.906 107.726 103.046 108.272 103.046 108.897C103.046 109.514 102.906 110.061 102.625 110.537C102.351 111.013 101.969 111.388 101.477 111.661C100.993 111.935 100.442 112.071 99.8255 112.071ZM99.8255 111.087C100.224 111.087 100.579 110.998 100.891 110.818C101.211 110.638 101.461 110.385 101.641 110.057C101.821 109.721 101.91 109.334 101.91 108.897C101.91 108.452 101.821 108.069 101.641 107.749C101.461 107.421 101.211 107.168 100.891 106.988C100.579 106.808 100.224 106.719 99.8255 106.719C99.4273 106.719 99.072 106.808 98.7597 106.988C98.4473 107.168 98.1975 107.421 98.0101 107.749C97.8227 108.069 97.729 108.452 97.729 108.897C97.729 109.334 97.8227 109.721 98.0101 110.057C98.1975 110.385 98.4473 110.638 98.7597 110.818C99.072 110.998 99.4273 111.087 99.8255 111.087Z" fill="black"/>
<path d="M103.594 111.989L103.664 111.04C103.719 111.048 103.769 111.056 103.816 111.064C103.863 111.072 103.906 111.076 103.945 111.076C104.195 111.076 104.39 110.99 104.531 110.818C104.679 110.646 104.788 110.42 104.859 110.139C104.929 109.85 104.98 109.526 105.011 109.166C105.042 108.807 105.065 108.448 105.081 108.089L105.187 105.793H109.953V112.001H108.829V106.449L109.098 106.777H105.913L106.17 106.437L106.088 108.159C106.065 108.706 106.022 109.217 105.96 109.694C105.897 110.17 105.799 110.588 105.667 110.947C105.542 111.306 105.366 111.587 105.14 111.79C104.921 111.993 104.636 112.095 104.285 112.095C104.183 112.095 104.074 112.083 103.957 112.059C103.847 112.044 103.726 112.02 103.594 111.989Z" fill="black"/>
<path d="M115.934 112.001V110.689L115.876 110.443V108.206C115.876 107.73 115.735 107.363 115.454 107.105C115.181 106.84 114.767 106.707 114.212 106.707C113.845 106.707 113.486 106.769 113.135 106.894C112.784 107.011 112.487 107.171 112.245 107.374L111.776 106.531C112.096 106.274 112.479 106.078 112.924 105.946C113.377 105.805 113.849 105.735 114.341 105.735C115.192 105.735 115.848 105.942 116.309 106.356C116.77 106.769 117 107.402 117 108.253V112.001H115.934ZM113.896 112.071C113.436 112.071 113.029 111.993 112.678 111.837C112.335 111.681 112.069 111.466 111.882 111.193C111.694 110.912 111.601 110.595 111.601 110.244C111.601 109.908 111.679 109.604 111.835 109.33C111.999 109.057 112.26 108.839 112.62 108.675C112.987 108.511 113.478 108.429 114.095 108.429H116.063V109.237H114.142C113.58 109.237 113.201 109.33 113.006 109.518C112.811 109.705 112.713 109.932 112.713 110.197C112.713 110.502 112.834 110.748 113.076 110.935C113.318 111.115 113.654 111.204 114.084 111.204C114.505 111.204 114.872 111.111 115.185 110.923C115.505 110.736 115.735 110.463 115.876 110.103L116.098 110.877C115.95 111.244 115.688 111.536 115.313 111.755C114.939 111.966 114.466 112.071 113.896 112.071Z" fill="black"/>
<path d="M54.701 122.381C54.3123 122.381 53.9532 122.32 53.6236 122.198C53.2939 122.072 53.0086 121.896 52.7675 121.672C52.5264 121.447 52.337 121.182 52.1993 120.878C52.0664 120.574 52 120.241 52 119.881C52 119.52 52.0664 119.188 52.1993 118.884C52.337 118.579 52.5264 118.315 52.7675 118.09C53.0135 117.865 53.3013 117.692 53.6309 117.57C53.9606 117.444 54.3197 117.381 54.7084 117.381C55.0823 117.381 55.4341 117.442 55.7637 117.563C56.0933 117.68 56.3713 117.858 56.5976 118.097L56.2508 118.427C56.0392 118.221 55.8055 118.074 55.5497 117.985C55.2938 117.891 55.0183 117.844 54.7231 117.844C54.4132 117.844 54.1254 117.896 53.8597 117.999C53.594 118.097 53.3628 118.24 53.166 118.427C52.9692 118.61 52.8142 118.825 52.7011 119.073C52.5928 119.317 52.5387 119.586 52.5387 119.881C52.5387 120.176 52.5928 120.447 52.7011 120.695C52.8142 120.939 52.9692 121.154 53.166 121.342C53.3628 121.524 53.594 121.667 53.8597 121.77C54.1254 121.868 54.4132 121.917 54.7231 121.917C55.0183 121.917 55.2938 121.871 55.5497 121.777C55.8055 121.683 56.0392 121.533 56.2508 121.327L56.5976 121.658C56.3713 121.896 56.0933 122.077 55.7637 122.198C55.4341 122.32 55.0798 122.381 54.701 122.381Z" fill="#414042"/>
<path d="M59.0874 122.374C58.684 122.374 58.3298 122.294 58.0247 122.135C57.7197 121.971 57.4811 121.749 57.3089 121.468C57.1367 121.182 57.0506 120.857 57.0506 120.492C57.0506 120.127 57.1318 119.804 57.2941 119.523C57.4614 119.242 57.6877 119.022 57.9731 118.863C58.2634 118.699 58.5881 118.617 58.9472 118.617C59.3113 118.617 59.6335 118.696 59.914 118.856C60.1993 119.01 60.4232 119.23 60.5855 119.516C60.7479 119.797 60.8291 120.122 60.8291 120.492C60.8291 120.515 60.8266 120.541 60.8217 120.569C60.8217 120.592 60.8217 120.618 60.8217 120.646H57.4491V120.274H60.5413L60.3346 120.422C60.3346 120.155 60.2731 119.918 60.1501 119.712C60.032 119.502 59.8697 119.338 59.6631 119.221C59.4564 119.104 59.2178 119.045 58.9472 119.045C58.6815 119.045 58.4429 119.104 58.2314 119.221C58.0198 119.338 57.855 119.502 57.7369 119.712C57.6189 119.923 57.5598 120.164 57.5598 120.436V120.513C57.5598 120.794 57.6238 121.042 57.7517 121.257C57.8845 121.468 58.0666 121.634 58.2978 121.756C58.5339 121.873 58.8021 121.931 59.1022 121.931C59.3383 121.931 59.5573 121.892 59.759 121.812C59.9656 121.732 60.1427 121.611 60.2903 121.447L60.5855 121.77C60.4133 121.967 60.1969 122.116 59.9361 122.219C59.6803 122.322 59.3974 122.374 59.0874 122.374Z" fill="#414042"/>
<path d="M62.5539 122.339V118.954L62.6868 119.087H61.0853V118.652H64.5465V119.087H62.945L63.0779 118.954V122.339H62.5539Z" fill="#414042"/>
<path d="M66.9719 119.951C67.4589 119.956 67.8279 120.059 68.0788 120.26C68.3347 120.461 68.4626 120.752 68.4626 121.131C68.4626 121.524 68.3248 121.826 68.0493 122.037C67.7787 122.247 67.3851 122.35 66.8686 122.346L65.304 122.339V118.652H65.828V119.937L66.9719 119.951ZM66.839 121.967C67.1982 121.971 67.4688 121.903 67.6508 121.763C67.8378 121.618 67.9313 121.407 67.9313 121.131C67.9313 120.855 67.8402 120.653 67.6582 120.527C67.4762 120.396 67.2031 120.328 66.839 120.323L65.828 120.309V121.952L66.839 121.967Z" fill="#414042"/>
<path d="M73.7996 122.339V121.524L73.7775 121.391V120.028C73.7775 119.715 73.684 119.474 73.4971 119.305C73.315 119.136 73.042 119.052 72.6779 119.052C72.427 119.052 72.1884 119.092 71.9621 119.172C71.7358 119.251 71.5439 119.357 71.3864 119.488L71.1503 119.115C71.3471 118.956 71.5832 118.835 71.8587 118.75C72.1343 118.661 72.4245 118.617 72.7296 118.617C73.2314 118.617 73.6176 118.736 73.8882 118.975C74.1637 119.209 74.3015 119.567 74.3015 120.049V122.339H73.7996ZM72.4639 122.374C72.1736 122.374 71.9202 122.329 71.7038 122.24C71.4922 122.147 71.3299 122.02 71.2167 121.861C71.1035 121.697 71.047 121.51 71.047 121.299C71.047 121.107 71.0937 120.934 71.1872 120.78C71.2856 120.621 71.443 120.494 71.6595 120.401C71.8809 120.302 72.1761 120.253 72.5451 120.253H73.8808V120.625H72.5598C72.1859 120.625 71.9252 120.688 71.7776 120.815C71.6349 120.941 71.5636 121.098 71.5636 121.285C71.5636 121.496 71.6497 121.665 71.8218 121.791C71.994 121.917 72.2351 121.981 72.5451 121.981C72.8403 121.981 73.0936 121.917 73.3052 121.791C73.5217 121.66 73.6791 121.473 73.7775 121.229L73.8956 121.573C73.7972 121.817 73.625 122.011 73.379 122.156C73.1379 122.301 72.8329 122.374 72.4639 122.374Z" fill="#414042"/>
<path d="M75.6963 122.339V118.652H79.1796V122.339H78.6556V118.954L78.7884 119.087H76.0874L76.2203 118.954V122.339H75.6963Z" fill="#414042"/>
<path d="M81.407 122.339V118.954L81.5398 119.087H79.9384V118.652H83.3995V119.087H81.7981L81.931 118.954V122.339H81.407Z" fill="#414042"/>
<path d="M85.6374 122.374C85.234 122.374 84.8797 122.294 84.5747 122.135C84.2697 121.971 84.0311 121.749 83.8589 121.468C83.6867 121.182 83.6006 120.857 83.6006 120.492C83.6006 120.127 83.6818 119.804 83.8441 119.523C84.0114 119.242 84.2377 119.022 84.5231 118.863C84.8133 118.699 85.138 118.617 85.4972 118.617C85.8613 118.617 86.1835 118.696 86.4639 118.856C86.7493 119.01 86.9731 119.23 87.1355 119.516C87.2979 119.797 87.379 120.122 87.379 120.492C87.379 120.515 87.3766 120.541 87.3717 120.569C87.3717 120.592 87.3717 120.618 87.3717 120.646H83.9991V120.274H87.0912L86.8846 120.422C86.8846 120.155 86.8231 119.918 86.7001 119.712C86.582 119.502 86.4197 119.338 86.213 119.221C86.0064 119.104 85.7678 119.045 85.4972 119.045C85.2315 119.045 84.9929 119.104 84.7813 119.221C84.5698 119.338 84.405 119.502 84.2869 119.712C84.1688 119.923 84.1098 120.164 84.1098 120.436V120.513C84.1098 120.794 84.1737 121.042 84.3017 121.257C84.4345 121.468 84.6165 121.634 84.8478 121.756C85.0839 121.873 85.3521 121.931 85.6522 121.931C85.8883 121.931 86.1073 121.892 86.309 121.812C86.5156 121.732 86.6927 121.611 86.8403 121.447L87.1355 121.77C86.9633 121.967 86.7468 122.116 86.4861 122.219C86.2302 122.322 85.9474 122.374 85.6374 122.374Z" fill="#414042"/>
<path d="M91.3801 122.339L89.7861 120.513L90.2215 120.267L92 122.339H91.3801ZM88.5389 122.339V118.652H89.0628V122.339H88.5389ZM88.9005 120.695V120.267H90.1477V120.695H88.9005ZM90.2657 120.548L89.7787 120.478L91.3211 118.652H91.8893L90.2657 120.548Z" fill="#414042"/>
</g>
<defs>
<linearGradient id="paint0_linear_276_1327" x1="55.2887" y1="55.9021" x2="76.2849" y2="33.2541" gradientUnits="userSpaceOnUse">
<stop stop-color="#003780"/>
<stop offset="1" stop-color="#29C5FF"/>
</linearGradient>
<linearGradient id="paint1_linear_276_1327" x1="59.3701" y1="98.698" x2="62.0505" y2="36.1708" gradientUnits="userSpaceOnUse">
<stop stop-color="#003780"/>
<stop offset="1" stop-color="#29C5FF"/>
</linearGradient>
<linearGradient id="paint2_linear_276_1327" x1="64.4311" y1="82.63" x2="110.254" y2="88.6078" gradientUnits="userSpaceOnUse">
<stop stop-color="#003780"/>
<stop offset="1" stop-color="#29C5FF"/>
</linearGradient>
<clipPath id="clip0_276_1327">
<rect width="150" height="150" fill="white" transform="translate(0 0.380859)"/>
</clipPath>
</defs>
</svg>
