<svg width="150" height="151" viewBox="0 0 150 151" fill="none" xmlns="http://www.w3.org/2000/svg">
<g clip-path="url(#clip0_276_2376)">
<circle cx="75" cy="75.3809" r="75" fill="#F8F7F7"/>
<path d="M127.279 39.3835C127.279 39.535 127.234 39.6831 127.15 39.809C127.066 39.935 126.946 40.033 126.806 40.0909C126.666 40.1487 126.512 40.1636 126.363 40.1338C126.215 40.104 126.078 40.0307 125.971 39.9233C125.865 39.816 125.792 39.6793 125.763 39.5306C125.734 39.3819 125.749 39.2279 125.808 39.0881C125.866 38.9483 125.965 38.8291 126.091 38.7454C126.218 38.6617 126.366 38.6175 126.517 38.6182C126.618 38.6182 126.717 38.638 126.81 38.6765C126.902 38.715 126.987 38.7714 127.057 38.8425C127.128 38.9137 127.184 38.998 127.222 39.0909C127.26 39.1837 127.28 39.2831 127.279 39.3835Z" fill="#FEF9EC"/>
<path d="M117.158 43.3754C117.158 43.5269 117.114 43.6752 117.03 43.8015C116.947 43.9278 116.827 44.0265 116.688 44.085C116.548 44.1434 116.394 44.1591 116.245 44.13C116.096 44.1009 115.96 44.0283 115.852 43.9214C115.745 43.8145 115.672 43.6781 115.642 43.5296C115.612 43.381 115.627 43.227 115.685 43.0869C115.743 42.9469 115.841 42.8271 115.967 42.7429C116.093 42.6586 116.241 42.6136 116.392 42.6136C116.595 42.6136 116.789 42.6938 116.932 42.8365C117.076 42.9793 117.157 43.173 117.158 43.3754Z" fill="#FEF9EC"/>
<path d="M98.3524 18.2245C98.3523 18.3767 98.3068 18.5255 98.2218 18.6518C98.1367 18.7781 98.0159 18.8761 97.8748 18.9333C97.7337 18.9906 97.5787 19.0044 97.4297 18.9731C97.2807 18.9418 97.1444 18.8667 97.0383 18.7575C96.9321 18.6483 96.861 18.51 96.8339 18.3601C96.8069 18.2103 96.8252 18.0558 96.8864 17.9164C96.9477 17.7769 97.0491 17.659 97.1777 17.5775C97.3064 17.4961 97.4564 17.4549 97.6086 17.4592C97.8082 17.4639 97.9979 17.5467 98.1369 17.6898C98.276 17.8329 98.3534 18.0249 98.3524 18.2245Z" fill="#FEF9EC"/>
<path d="M28.9823 47.5755C28.9823 47.7268 28.9374 47.8748 28.8533 48.0007C28.7692 48.1265 28.6497 48.2246 28.5098 48.2825C28.37 48.3405 28.2161 48.3556 28.0677 48.3261C27.9192 48.2966 27.7828 48.2237 27.6758 48.1166C27.5688 48.0096 27.4959 47.8732 27.4664 47.7248C27.4368 47.5763 27.452 47.4225 27.5099 47.2826C27.5678 47.1428 27.6659 47.0233 27.7918 46.9392C27.9176 46.8551 28.0656 46.8102 28.217 46.8102C28.4199 46.8102 28.6146 46.8908 28.7581 47.0343C28.9016 47.1779 28.9823 47.3725 28.9823 47.5755Z" fill="#FEF9EC"/>
<path d="M48.6937 11.8003C48.6937 11.9516 48.6488 12.0996 48.5647 12.2255C48.4806 12.3513 48.3611 12.4494 48.2213 12.5073C48.0814 12.5653 47.9275 12.5804 47.7791 12.5509C47.6306 12.5214 47.4943 12.4485 47.3872 12.3414C47.2802 12.2344 47.2073 12.098 47.1778 11.9496C47.1483 11.8011 47.1634 11.6473 47.2213 11.5074C47.2793 11.3676 47.3774 11.2481 47.5032 11.164C47.6291 11.0799 47.777 11.035 47.9284 11.035C48.029 11.0345 48.1288 11.054 48.2218 11.0923C48.3149 11.1306 48.3994 11.1869 48.4706 11.2581C48.5418 11.3292 48.5981 11.4138 48.6364 11.5069C48.6747 11.5999 48.6942 11.6997 48.6937 11.8003Z" fill="#FEF9EC"/>
<path d="M21.5306 67.1932C21.5306 67.3445 21.4857 67.4925 21.4016 67.6183C21.3175 67.7442 21.198 67.8423 21.0582 67.9002C20.9183 67.9581 20.7645 67.9733 20.616 67.9438C20.4675 67.9142 20.3312 67.8413 20.2242 67.7343C20.1171 67.6273 20.0442 67.4909 20.0147 67.3425C19.9852 67.194 20.0003 67.0401 20.0583 66.9003C20.1162 66.7604 20.2143 66.6409 20.3401 66.5568C20.466 66.4727 20.6139 66.4279 20.7653 66.4279C20.9683 66.4279 21.1629 66.5085 21.3065 66.652C21.45 66.7955 21.5306 66.9902 21.5306 67.1932Z" fill="#FEF9EC"/>
<path d="M68.2249 12.562C68.2256 12.7135 68.1814 12.8618 68.0977 12.9882C68.0141 13.1145 67.8948 13.2131 67.755 13.2716C67.6152 13.3301 67.4612 13.3458 67.3125 13.3166C67.1639 13.2875 67.0272 13.2149 66.9198 13.108C66.8124 13.0011 66.7391 12.8648 66.7093 12.7162C66.6795 12.5677 66.6944 12.4136 66.7522 12.2736C66.8101 12.1335 66.9082 12.0138 67.0341 11.9295C67.16 11.8453 67.3081 11.8003 67.4596 11.8003C67.662 11.8003 67.8561 11.8804 67.9995 12.0232C68.1429 12.1659 68.224 12.3597 68.2249 12.562Z" fill="#FEF9EC"/>
<path d="M28.2103 31.903C28.2103 32.0545 28.1653 32.2026 28.0811 32.3286C27.9968 32.4545 27.8771 32.5526 27.737 32.6104C27.597 32.6682 27.4429 32.6832 27.2944 32.6533C27.1458 32.6235 27.0095 32.5503 26.9026 32.4429C26.7957 32.3355 26.7231 32.1988 26.694 32.0501C26.6648 31.9014 26.6805 31.7474 26.739 31.6076C26.7975 31.4679 26.8961 31.3486 27.0224 31.2649C27.1488 31.1813 27.2971 31.137 27.4486 31.1377C27.5489 31.1377 27.6483 31.1575 27.7409 31.196C27.8336 31.2345 27.9177 31.291 27.9885 31.3621C28.0592 31.4332 28.1153 31.5176 28.1533 31.6104C28.1914 31.7032 28.2108 31.8027 28.2103 31.903Z" fill="#FEF9EC"/>
<path d="M86.0462 8.14616C86.0462 8.29753 86.0014 8.44549 85.9173 8.57134C85.8332 8.6972 85.7136 8.79529 85.5738 8.85321C85.434 8.91114 85.2801 8.92629 85.1316 8.89676C84.9832 8.86723 84.8468 8.79435 84.7398 8.68732C84.6328 8.58029 84.5599 8.44392 84.5303 8.29547C84.5008 8.14701 84.516 7.99314 84.5739 7.85329C84.6318 7.71345 84.7299 7.59393 84.8558 7.50984C84.9816 7.42574 85.1296 7.38086 85.2809 7.38086C85.4836 7.3818 85.6777 7.46274 85.821 7.60606C85.9644 7.74937 86.0453 7.94348 86.0462 8.14616Z" fill="#FEF9EC"/>
<path d="M39.6541 27.8609C39.6541 28.0123 39.6093 28.1602 39.5252 28.2861C39.4411 28.4119 39.3216 28.51 39.1817 28.5679C39.0419 28.6259 38.888 28.641 38.7395 28.6115C38.5911 28.582 38.4547 28.5091 38.3477 28.402C38.2407 28.295 38.1678 28.1587 38.1382 28.0102C38.1087 27.8617 38.1239 27.7079 38.1818 27.568C38.2397 27.4282 38.3378 27.3087 38.4637 27.2246C38.5895 27.1405 38.7375 27.0956 38.8888 27.0956C38.9895 27.0951 39.0892 27.1146 39.1823 27.1529C39.2753 27.1912 39.3599 27.2475 39.4311 27.3187C39.5022 27.3898 39.5586 27.4744 39.5969 27.5675C39.6352 27.6605 39.6546 27.7603 39.6541 27.8609Z" fill="#FEF9EC"/>
<path d="M109.267 22.4462C109.267 22.5976 109.223 22.7455 109.138 22.8714C109.054 22.9972 108.935 23.0953 108.795 23.1533C108.655 23.2112 108.501 23.2263 108.353 23.1968C108.204 23.1673 108.068 23.0944 107.961 22.9874C107.854 22.8803 107.781 22.744 107.752 22.5955C107.722 22.4471 107.737 22.2932 107.795 22.1533C107.853 22.0135 107.951 21.894 108.077 21.8099C108.203 21.7258 108.351 21.6809 108.502 21.6809C108.705 21.6809 108.9 21.7615 109.043 21.9051C109.187 22.0486 109.267 22.2432 109.267 22.4462Z" fill="#FEF9EC"/>
<path d="M128.045 75.0942C128.045 75.2455 128 75.3935 127.916 75.5193C127.832 75.6452 127.713 75.7433 127.573 75.8012C127.433 75.8591 127.279 75.8743 127.131 75.8448C126.982 75.8152 126.846 75.7423 126.739 75.6353C126.632 75.5283 126.559 75.3919 126.529 75.2435C126.5 75.095 126.515 74.9411 126.573 74.8013C126.631 74.6614 126.729 74.5419 126.855 74.4578C126.981 74.3737 127.129 74.3289 127.28 74.3289C127.483 74.3289 127.678 74.4095 127.821 74.553C127.965 74.6965 128.045 74.8912 128.045 75.0942Z" fill="#FEF9EC"/>
<path d="M128.81 56.6585C129.233 56.6585 129.576 56.3159 129.576 55.8932C129.576 55.4706 129.233 55.1279 128.81 55.1279C128.388 55.1279 128.045 55.4706 128.045 55.8932C128.045 56.3159 128.388 56.6585 128.81 56.6585Z" fill="#FEF9EC"/>
<path d="M74.7857 87.1271C97.3418 87.1271 115.627 85.8692 115.627 84.3174C115.627 82.7656 97.3418 81.5077 74.7857 81.5077C52.2296 81.5077 33.9443 82.7656 33.9443 84.3174C33.9443 85.8692 52.2296 87.1271 74.7857 87.1271Z" fill="#709469"/>
<path d="M115.886 69.8879V58.2L111.862 45.8401L104.209 35.3271L93.6778 27.692L81.2964 23.675H68.2791L55.8977 27.692L45.363 35.3271L37.7136 45.8401L33.6895 58.2V69.8879H115.886Z" fill="#E49E54"/>
<mask id="mask0_276_2376" style="mask-type:luminance" maskUnits="userSpaceOnUse" x="33" y="23" width="83" height="47">
<path d="M115.886 69.8879V58.2L111.862 45.8401L104.209 35.3271L93.6778 27.692L81.2964 23.675H68.2791L55.8977 27.692L45.363 35.3271L37.7136 45.8401L33.6895 58.2V69.8879H115.886Z" fill="white"/>
</mask>
<g mask="url(#mask0_276_2376)">
<path d="M121.171 57.8442H32V72.7012H121.171V57.8442Z" fill="#B87F44"/>
</g>
<path d="M102.747 58.1927L99.0533 46.9287L93.4806 37.0804L85.4072 30.3507H64.1691L56.0957 37.0804L50.5194 46.9287L46.8294 58.1927L46.7036 67.053H102.873L102.747 58.1927Z" fill="#66421B"/>
<mask id="mask1_276_2376" style="mask-type:luminance" maskUnits="userSpaceOnUse" x="46" y="30" width="57" height="38">
<path d="M102.745 58.1928L99.0518 46.9288L93.4791 37.0805L85.4057 30.3508H64.1676L56.0942 37.0805L50.5179 46.9288L46.8279 58.1928L46.7021 67.0531H102.871L102.745 58.1928Z" fill="white"/>
</mask>
<g mask="url(#mask1_276_2376)">
<path opacity="0.6" d="M45.6101 54.8729H30.8968L23.542 42.1573L30.8968 29.4418H45.628L52.9649 42.1573L52.9397 42.204L45.6101 54.8729ZM31.001 54.6932H45.5095L52.7565 42.1573L45.5095 29.6214H31.001L23.7468 42.1573L31.001 54.6932Z" fill="#EEC1CB"/>
<path opacity="0.6" d="M52.8576 42.0674H23.6431V42.247H52.8576V42.0674Z" fill="#EEC1CB"/>
<path opacity="0.6" d="M74.8249 54.8729H60.1117L52.7568 42.1573L52.782 42.1142L60.1117 29.4418H74.8429L82.1977 42.1573L74.8249 54.8729ZM60.2159 54.6932H74.7207L81.9749 42.1573L74.7207 29.6214H60.2159L52.9652 42.1573L60.2159 54.6932Z" fill="#EEC1CB"/>
<path opacity="0.6" d="M60.2424 29.4821L60.0869 29.5721L74.6964 54.8256L74.852 54.7357L60.2424 29.4821Z" fill="#EEC1CB"/>
<path opacity="0.6" d="M74.6891 29.4775L60.0928 54.7386L60.2483 54.8285L74.8446 29.5673L74.6891 29.4775Z" fill="#EEC1CB"/>
<path opacity="0.6" d="M60.2424 29.4821L60.0869 29.5721L74.6964 54.8256L74.852 54.7357L60.2424 29.4821Z" fill="#EEC1CB"/>
<path opacity="0.6" d="M74.6891 29.4775L60.0928 54.7386L60.2483 54.8285L74.8446 29.5673L74.6891 29.4775Z" fill="#EEC1CB"/>
<path opacity="0.6" d="M82.0784 42.0674H52.8604V42.247H82.0784V42.0674Z" fill="#EEC1CB"/>
<path d="M69.137 42.1573C69.1377 41.8274 69.0406 41.5047 68.8578 41.2301C68.675 40.9555 68.4149 40.7412 68.1104 40.6145C67.8058 40.4878 67.4705 40.4542 67.1468 40.5182C66.8232 40.5821 66.5258 40.7406 66.2923 40.9736C66.0588 41.2066 65.8997 41.5037 65.835 41.8271C65.7704 42.1506 65.8032 42.486 65.9293 42.7909C66.0554 43.0957 66.2691 43.3563 66.5433 43.5396C66.8175 43.723 67.14 43.8209 67.4699 43.8209C67.6886 43.8213 67.9053 43.7786 68.1076 43.6953C68.3098 43.6119 68.4936 43.4894 68.6485 43.3349C68.8034 43.1804 68.9262 42.9968 69.01 42.7948C69.0939 42.5927 69.137 42.3761 69.137 42.1573Z" fill="#EEC1CB"/>
<path d="M83.7425 42.1573C83.7432 41.8273 83.6459 41.5044 83.463 41.2297C83.2801 40.955 83.0198 40.7408 82.715 40.6142C82.4102 40.4875 82.0747 40.4542 81.751 40.5184C81.4273 40.5826 81.1299 40.7415 80.8965 40.9749C80.6631 41.2082 80.5043 41.5056 80.4401 41.8294C80.3758 42.1531 80.4092 42.4886 80.5358 42.7934C80.6624 43.0981 80.8767 43.3585 81.1514 43.5414C81.4261 43.7243 81.7489 43.8216 82.0789 43.8209C82.5201 43.8209 82.9433 43.6456 83.2552 43.3336C83.5672 43.0216 83.7425 42.5985 83.7425 42.1573Z" fill="#EEC1CB"/>
<path d="M76.4524 54.783C76.4532 54.4532 76.356 54.1305 76.1732 53.8559C75.9905 53.5812 75.7304 53.367 75.4258 53.2402C75.1212 53.1135 74.7859 53.08 74.4623 53.1439C74.1386 53.2078 73.8412 53.3663 73.6077 53.5993C73.3742 53.8323 73.2151 54.1294 73.1505 54.4529C73.0858 54.7764 73.1186 55.1118 73.2447 55.4166C73.3708 55.7214 73.5845 55.982 73.8587 56.1654C74.133 56.3487 74.4554 56.4466 74.7853 56.4466C75.0041 56.4471 75.2208 56.4044 75.423 56.321C75.6253 56.2376 75.8091 56.1151 75.9639 55.9606C76.1188 55.8061 76.2416 55.6225 76.3255 55.4205C76.4093 55.2184 76.4524 55.0018 76.4524 54.783Z" fill="#EEC1CB"/>
<path d="M61.8323 54.783C61.833 54.4532 61.7359 54.1305 61.5531 53.8559C61.3704 53.5812 61.1102 53.367 60.8057 53.2402C60.5011 53.1135 60.1658 53.08 59.8422 53.1439C59.5185 53.2078 59.2211 53.3663 58.9876 53.5993C58.7541 53.8323 58.595 54.1294 58.5303 54.4529C58.4657 54.7764 58.4985 55.1118 58.6246 55.4166C58.7507 55.7214 58.9644 55.982 59.2386 56.1654C59.5128 56.3487 59.8353 56.4466 60.1652 56.4466C60.6067 56.4466 61.0302 56.2714 61.3428 55.9596C61.6553 55.6477 61.8314 55.2246 61.8323 54.783Z" fill="#EEC1CB"/>
<path d="M91.0467 54.783C91.0474 54.4532 90.9502 54.1305 90.7675 53.8559C90.5847 53.5812 90.3246 53.367 90.02 53.2402C89.7155 53.1135 89.3801 53.08 89.0565 53.1439C88.7329 53.2078 88.4355 53.3663 88.202 53.5993C87.9685 53.8323 87.8093 54.1294 87.7447 54.4529C87.6801 54.7764 87.7129 55.1118 87.839 55.4166C87.965 55.7214 88.1787 55.982 88.453 56.1654C88.7272 56.3487 89.0497 56.4466 89.3795 56.4466C89.5983 56.4471 89.815 56.4044 90.0173 56.321C90.2195 56.2376 90.4033 56.1151 90.5582 55.9606C90.713 55.8061 90.8359 55.6225 90.9197 55.4205C91.0035 55.2184 91.0467 55.0018 91.0467 54.783Z" fill="#EEC1CB"/>
<path opacity="0.6" d="M104.043 54.8729H89.3443L81.9751 42.1573L89.3443 29.4418H104.058L111.412 42.1573L104.043 54.8729ZM89.4341 54.6932H103.939L111.19 42.1573L103.939 29.6214H89.4341L82.1799 42.1573L89.4341 54.6932Z" fill="#EEC1CB"/>
<path opacity="0.6" d="M103.911 54.8298L89.3052 29.5747L89.4597 29.4849L104.069 54.74L103.911 54.8298Z" fill="#EEC1CB"/>
<path opacity="0.6" d="M89.4597 54.8298L89.3052 54.74L103.911 29.4849L104.069 29.5747L89.4597 54.8298Z" fill="#EEC1CB"/>
<path opacity="0.6" d="M103.911 54.8298L89.3052 29.5747L89.4597 29.4849L104.069 54.74L103.911 54.8298Z" fill="#EEC1CB"/>
<path opacity="0.6" d="M89.4597 54.8298L89.3052 54.74L103.911 29.4849L104.069 29.5747L89.4597 54.8298Z" fill="#EEC1CB"/>
<path opacity="0.6" d="M111.294 42.0674H82.0791V42.247H111.294V42.0674Z" fill="#EEC1CB"/>
<path d="M98.3514 42.1573C98.3521 41.8274 98.2549 41.5047 98.0722 41.2301C97.8894 40.9555 97.6293 40.7412 97.3247 40.6145C97.0201 40.4878 96.6848 40.4542 96.3612 40.5182C96.0376 40.5821 95.7402 40.7406 95.5067 40.9736C95.2731 41.2066 95.114 41.5037 95.0494 41.8271C94.9848 42.1506 95.0176 42.486 95.1437 42.7909C95.2697 43.0957 95.4834 43.3563 95.7576 43.5396C96.0319 43.723 96.3543 43.8209 96.6842 43.8209C96.903 43.8213 97.1197 43.7786 97.3219 43.6953C97.5242 43.6119 97.708 43.4894 97.8629 43.3349C98.0177 43.1804 98.1406 42.9968 98.2244 42.7948C98.3082 42.5927 98.3514 42.3761 98.3514 42.1573Z" fill="#EEC1CB"/>
<path opacity="0.6" d="M60.2155 80.1279H45.5095L38.1475 67.4124L38.1762 67.3657L45.5095 54.6932H60.2191L67.5775 67.4124L67.5488 67.4555L60.2155 80.1279ZM45.6101 79.9591H60.1113L67.3656 67.4232L60.1113 54.8837H45.6101L38.3559 67.4232L45.6101 79.9591Z" fill="#EEC1CB"/>
<path opacity="0.6" d="M45.635 54.7383L45.4795 54.8282L60.089 80.0818L60.2445 79.9918L45.635 54.7383Z" fill="#EEC1CB"/>
<path opacity="0.6" d="M60.0826 54.7331L45.4863 79.9943L45.6419 80.0841L60.2382 54.823L60.0826 54.7331Z" fill="#EEC1CB"/>
<path opacity="0.6" d="M45.635 54.7383L45.4795 54.8282L60.089 80.0818L60.2445 79.9918L45.635 54.7383Z" fill="#EEC1CB"/>
<path opacity="0.6" d="M60.0826 54.7331L45.4863 79.9943L45.6419 80.0841L60.2382 54.823L60.0826 54.7331Z" fill="#EEC1CB"/>
<path d="M54.5276 67.4123C54.5283 67.0824 54.4312 66.7598 54.2484 66.4851C54.0657 66.2105 53.8055 65.9962 53.501 65.8695C53.1964 65.7428 52.8611 65.7093 52.5375 65.7732C52.2138 65.8371 51.9164 65.9956 51.6829 66.2286C51.4494 66.4616 51.2903 66.7587 51.2257 67.0822C51.161 67.4056 51.1938 67.741 51.3199 68.0459C51.446 68.3507 51.6597 68.6113 51.9339 68.7946C52.2081 68.978 52.5306 69.0759 52.8605 69.0759C53.0793 69.0763 53.296 69.0337 53.4982 68.9503C53.7005 68.8669 53.8843 68.7444 54.0391 68.5899C54.194 68.4354 54.3168 68.2518 54.4007 68.0498C54.4845 67.8477 54.5276 67.6311 54.5276 67.4123Z" fill="#EEC1CB"/>
<path opacity="0.6" d="M89.4338 80.1279H74.7206L67.3657 67.4124L67.3909 67.3657L74.7206 54.6932H89.4338L96.7886 67.4124L89.4338 80.1279ZM74.8247 79.9483H89.344L96.5946 67.4124L89.344 54.8729H74.8247L67.5741 67.4124L74.8247 79.9483Z" fill="#EEC1CB"/>
<path opacity="0.6" d="M74.8528 54.7341L74.6973 54.8241L89.3068 80.0776L89.4623 79.9877L74.8528 54.7341Z" fill="#EEC1CB"/>
<path opacity="0.6" d="M89.2989 54.7292L74.7026 79.9904L74.8582 80.0802L89.4545 54.8191L89.2989 54.7292Z" fill="#EEC1CB"/>
<path opacity="0.6" d="M74.8528 54.7341L74.6973 54.8241L89.3068 80.0776L89.4623 79.9877L74.8528 54.7341Z" fill="#EEC1CB"/>
<path opacity="0.6" d="M89.2989 54.7292L74.7026 79.9904L74.8582 80.0802L89.4545 54.8191L89.2989 54.7292Z" fill="#EEC1CB"/>
<path d="M83.7425 67.4123C83.7432 67.0823 83.6459 66.7595 83.463 66.4847C83.2801 66.21 83.0198 65.9958 82.715 65.8692C82.4102 65.7425 82.0747 65.7092 81.751 65.7734C81.4273 65.8376 81.1299 65.9965 80.8965 66.2299C80.6631 66.4632 80.5043 66.7606 80.4401 67.0844C80.3758 67.4081 80.4092 67.7436 80.5358 68.0484C80.6624 68.3531 80.8767 68.6135 81.1514 68.7964C81.4261 68.9793 81.7489 69.0766 82.0789 69.0759C82.5201 69.0759 82.9433 68.9006 83.2552 68.5886C83.5672 68.2766 83.7425 67.8535 83.7425 67.4123Z" fill="#EEC1CB"/>
<path opacity="0.6" d="M118.649 80.1279H103.939L96.5806 67.4124L103.939 54.6932H118.649L125.993 67.4124L118.649 80.1279ZM104.043 79.9483H118.544L125.799 67.4124L118.544 54.8729H104.043L96.789 67.4124L104.043 79.9483Z" fill="#EEC1CB"/>
</g>
<path d="M116.838 69.525H32.7407V71.0628H116.838V69.525Z" fill="#66421B"/>
<path d="M117.969 71.0629H31.6084V74.778H117.969V71.0629Z" fill="#66421B"/>
<path d="M110.245 72.9204H107.65V84.3173H110.245V72.9204Z" fill="#66421B"/>
<path d="M41.9242 72.9204H39.3301V84.3173H41.9242V72.9204Z" fill="#66421B"/>
<path d="M57.7266 79.0069C62.322 81.7591 68.2684 83.4262 74.7717 83.4262C81.2749 83.4262 87.2249 81.7591 91.8203 79.0069C87.2249 76.2511 81.2749 74.5875 74.7717 74.5875C68.2684 74.5875 62.3364 76.2511 57.7266 79.0069Z" fill="#66421B"/>
<path d="M74.7855 83.4263C68.2858 83.4263 62.3394 81.7627 57.7476 79.0105C59.0632 82.464 61.3972 85.4362 64.4402 87.5333C67.4832 89.6303 71.0916 90.7533 74.7873 90.7533C78.4829 90.7533 82.0913 89.6303 85.1343 87.5333C88.1773 85.4362 90.5113 82.464 91.827 79.0105C87.2351 81.7555 81.2888 83.4263 74.7855 83.4263Z" fill="#9C6529"/>
<path d="M68.5018 89.5593H81.2964L86.402 94.6649H64.165L68.5018 89.5593Z" fill="#66421B"/>
<mask id="mask2_276_2376" style="mask-type:luminance" maskUnits="userSpaceOnUse" x="57" y="47" width="35" height="37">
<path d="M74.7859 83.4263C68.2863 83.4263 62.3399 81.7628 57.748 79.0106C58.5565 75.4427 74.1141 47.3169 81.9 47.3169C89.686 47.3169 90.498 73.5816 91.8274 79.0106C87.2356 81.7556 81.2892 83.4263 74.7859 83.4263Z" fill="white"/>
</mask>
<g mask="url(#mask2_276_2376)">
<path d="M71.0203 84.8777C66.547 83.4406 62.7061 80.0847 63.881 74.706C65.4332 67.6279 72.9605 67.3512 69.8813 59.7197C69.8813 59.7197 72.5114 60.9485 72.7773 63.8732C72.8886 65.0804 72.8168 66.6146 73.3953 67.6997C74.2863 69.3812 76.3631 69.1692 76.5463 67.2722C76.6577 66.0829 76.4888 64.8397 76.4565 63.6504C76.3738 60.4167 76.7116 57.0034 78.7668 54.456C80.4087 52.4296 82.7981 51.3409 85.191 50.7732C85.191 50.7732 80.9154 54.4812 82.1118 58.6167C83.4556 63.2516 85.8737 67.3296 86.7432 72.1802C87.2246 74.8677 87.3755 77.8535 86.2366 80.3793C84.7994 83.5735 81.5298 84.8131 78.4901 85.4347C75.992 85.8618 73.4274 85.6706 71.0203 84.8777Z" fill="#FF9A00"/>
<path d="M72.2454 85.1652C69.0117 84.1376 66.2666 81.7195 67.111 77.8535C68.2284 72.7622 72.8597 72.4892 70.6608 67.0027C70.6608 67.0027 72.0621 66.9524 72.9136 69.9633C73.1716 70.944 73.5192 71.899 73.952 72.8161C74.6706 74.1563 77.6133 73.7934 77.9726 72.3239C78.2205 71.3214 78.0947 70.222 78.0696 69.198C78.0085 66.8697 79.3559 63.3091 80.2254 66.2841C81.1883 69.6148 82.9273 72.5502 83.556 76.0354C83.9153 77.9684 84.0088 80.1135 83.1967 81.9315C82.162 84.2238 79.8122 85.1149 77.6312 85.564C75.8304 85.8749 73.9807 85.7379 72.2454 85.1652Z" fill="#FF8800"/>
</g>
<path d="M31.3481 122.058V117.354H32.9925C33.3202 117.354 33.5904 117.411 33.8033 117.524C34.0161 117.636 34.1746 117.787 34.2787 117.977C34.3828 118.165 34.4348 118.374 34.4348 118.604C34.4348 118.806 34.3989 118.973 34.3269 119.104C34.2565 119.236 34.1631 119.34 34.0467 119.417C33.9319 119.493 33.8071 119.55 33.6724 119.587V119.633C33.8163 119.642 33.961 119.692 34.1064 119.784C34.2519 119.876 34.3736 120.008 34.4716 120.179C34.5696 120.351 34.6186 120.56 34.6186 120.809C34.6186 121.044 34.565 121.256 34.4578 121.445C34.3506 121.633 34.1814 121.782 33.9502 121.893C33.7191 122.003 33.4182 122.058 33.0477 122.058H31.3481ZM31.9177 121.553H33.0477C33.4197 121.553 33.6838 121.481 33.84 121.337C33.9977 121.191 34.0766 121.015 34.0766 120.809C34.0766 120.649 34.036 120.502 33.9548 120.368C33.8737 120.231 33.7581 120.123 33.608 120.041C33.458 119.959 33.2804 119.917 33.0752 119.917H31.9177V121.553ZM31.9177 119.421H32.9742C33.1457 119.421 33.3003 119.388 33.4381 119.32C33.5774 119.253 33.6877 119.158 33.7688 119.036C33.8515 118.913 33.8928 118.769 33.8928 118.604C33.8928 118.397 33.8209 118.222 33.6769 118.078C33.533 117.932 33.3049 117.86 32.9925 117.86H31.9177V119.421Z" fill="black"/>
<path d="M36.9141 122.131C36.5834 122.131 36.2986 122.053 36.0597 121.897C35.8209 121.741 35.6371 121.526 35.5085 121.252C35.3799 120.978 35.3156 120.665 35.3156 120.312C35.3156 119.954 35.3814 119.638 35.5131 119.364C35.6463 119.088 35.8316 118.873 36.0689 118.719C36.3078 118.562 36.5864 118.484 36.9049 118.484C37.1529 118.484 37.3765 118.53 37.5755 118.622C37.7745 118.714 37.9376 118.843 38.0647 119.008C38.1918 119.173 38.2706 119.366 38.3012 119.587H37.7592C37.7179 119.426 37.626 119.284 37.4836 119.16C37.3428 119.034 37.1529 118.971 36.9141 118.971C36.7028 118.971 36.5175 119.026 36.3583 119.137C36.2006 119.245 36.0773 119.399 35.9885 119.598C35.9012 119.796 35.8576 120.028 35.8576 120.294C35.8576 120.567 35.9005 120.804 35.9862 121.006C36.0735 121.208 36.196 121.365 36.3537 121.477C36.5129 121.589 36.6997 121.645 36.9141 121.645C37.0549 121.645 37.1828 121.62 37.2976 121.571C37.4124 121.522 37.5097 121.452 37.5893 121.36C37.6689 121.268 37.7256 121.158 37.7592 121.029H38.3012C38.2706 121.237 38.1948 121.425 38.0739 121.592C37.9545 121.757 37.796 121.889 37.5985 121.987C37.4025 122.083 37.1744 122.131 36.9141 122.131Z" fill="black"/>
<path d="M40.5726 122.131C40.2327 122.131 39.9395 122.056 39.693 121.906C39.448 121.755 39.2589 121.543 39.1257 121.272C38.9941 121 38.9282 120.683 38.9282 120.322C38.9282 119.96 38.9941 119.642 39.1257 119.366C39.2589 119.089 39.4442 118.873 39.6815 118.719C39.9204 118.562 40.199 118.484 40.5175 118.484C40.7012 118.484 40.8827 118.515 41.0618 118.576C41.241 118.637 41.404 118.737 41.551 118.875C41.698 119.011 41.8151 119.192 41.9024 119.417C41.9897 119.642 42.0333 119.919 42.0333 120.248V120.478H39.3141V120.009H41.4821C41.4821 119.81 41.4423 119.633 41.3627 119.476C41.2846 119.32 41.1728 119.197 41.0274 119.107C40.8834 119.016 40.7135 118.971 40.5175 118.971C40.3016 118.971 40.1148 119.025 39.9571 119.132C39.801 119.238 39.6808 119.375 39.5966 119.545C39.5123 119.715 39.4702 119.898 39.4702 120.092V120.404C39.4702 120.671 39.5162 120.897 39.608 121.082C39.7014 121.266 39.8308 121.406 39.9962 121.502C40.1615 121.597 40.3537 121.645 40.5726 121.645C40.715 121.645 40.8436 121.625 40.9585 121.585C41.0748 121.543 41.1751 121.482 41.2593 121.401C41.3435 121.318 41.4086 121.216 41.4545 121.093L41.9782 121.24C41.9231 121.418 41.8304 121.574 41.7003 121.709C41.5701 121.842 41.4094 121.946 41.218 122.021C41.0266 122.095 40.8115 122.131 40.5726 122.131Z" fill="black"/>
<path d="M44.3001 123.068V121.553H44.5941C44.666 121.478 44.728 121.396 44.7801 121.309C44.8321 121.222 44.8773 121.119 44.9156 120.999C44.9554 120.878 44.9891 120.731 45.0166 120.558C45.0442 120.384 45.0687 120.173 45.0901 119.927L45.2096 118.53H47.4511V121.553H47.9931V123.068H47.4511V122.058H44.8421V123.068H44.3001ZM45.2096 121.553H46.9091V119.036H45.7148L45.623 119.927C45.5847 120.296 45.5372 120.618 45.4806 120.894C45.4239 121.169 45.3336 121.389 45.2096 121.553Z" fill="black"/>
<path d="M48.4002 122.058V121.553H48.5288C48.6344 121.553 48.7225 121.532 48.7929 121.491C48.8633 121.448 48.92 121.374 48.9629 121.268C49.0073 121.161 49.0409 121.012 49.0639 120.822C49.0884 120.631 49.106 120.387 49.1167 120.092L49.181 118.53H51.5328V122.058H50.9908V119.036H49.6955L49.6404 120.294C49.6281 120.583 49.6021 120.838 49.5623 121.059C49.524 121.278 49.4651 121.462 49.3854 121.61C49.3074 121.759 49.2032 121.87 49.0731 121.945C48.943 122.02 48.7799 122.058 48.5839 122.058H48.4002Z" fill="black"/>
<path d="M54.6494 122.058V119.026H53.7123C53.501 119.026 53.3349 119.075 53.214 119.173C53.093 119.271 53.0325 119.406 53.0325 119.578C53.0325 119.746 53.0869 119.878 53.1956 119.975C53.3058 120.071 53.4566 120.12 53.648 120.12H54.7872V120.625H53.648C53.4092 120.625 53.2032 120.583 53.0302 120.498C52.8572 120.414 52.724 120.294 52.6306 120.138C52.5372 119.98 52.4905 119.793 52.4905 119.578C52.4905 119.36 52.5395 119.173 52.6375 119.017C52.7355 118.861 52.8756 118.741 53.0578 118.657C53.2415 118.572 53.4597 118.53 53.7123 118.53H55.1638V122.058H54.6494ZM52.2976 122.058L53.2989 120.303H53.8869L52.8855 122.058H52.2976Z" fill="black"/>
<path d="M59.4109 122.131C59.0924 122.131 58.813 122.056 58.5726 121.904C58.3338 121.752 58.147 121.54 58.0122 121.268C57.879 120.995 57.8124 120.677 57.8124 120.312C57.8124 119.945 57.879 119.624 58.0122 119.35C58.147 119.076 58.3338 118.863 58.5726 118.712C58.813 118.56 59.0924 118.484 59.4109 118.484C59.7294 118.484 60.008 118.56 60.2469 118.712C60.4872 118.863 60.674 119.076 60.8072 119.35C60.942 119.624 61.0094 119.945 61.0094 120.312C61.0094 120.677 60.942 120.995 60.8072 121.268C60.674 121.54 60.4872 121.752 60.2469 121.904C60.008 122.056 59.7294 122.131 59.4109 122.131ZM59.4109 121.645C59.6528 121.645 59.8518 121.582 60.008 121.458C60.1642 121.334 60.2798 121.171 60.3548 120.969C60.4298 120.767 60.4673 120.548 60.4673 120.312C60.4673 120.077 60.4298 119.857 60.3548 119.653C60.2798 119.45 60.1642 119.285 60.008 119.16C59.8518 119.034 59.6528 118.971 59.4109 118.971C59.169 118.971 58.9699 119.034 58.8138 119.16C58.6576 119.285 58.542 119.45 58.467 119.653C58.3919 119.857 58.3544 120.077 58.3544 120.312C58.3544 120.548 58.3919 120.767 58.467 120.969C58.542 121.171 58.6576 121.334 58.8138 121.458C58.9699 121.582 59.169 121.645 59.4109 121.645Z" fill="black"/>
<path d="M61.3757 119.036V118.53H64.2419V119.036H63.0844V122.058H62.5424V119.036H61.3757Z" fill="black"/>
<path d="M64.359 123.068V121.553H64.653C64.7249 121.478 64.787 121.396 64.839 121.309C64.8911 121.222 64.9362 121.119 64.9745 120.999C65.0143 120.878 65.048 120.731 65.0756 120.558C65.1031 120.384 65.1276 120.173 65.1491 119.927L65.2685 118.53H67.51V121.553H68.052V123.068H67.51V122.058H64.901V123.068H64.359ZM65.2685 121.553H66.968V119.036H65.7738L65.6819 119.927C65.6436 120.296 65.5961 120.618 65.5395 120.894C65.4828 121.169 65.3925 121.389 65.2685 121.553Z" fill="black"/>
<path d="M69.24 119.807H70.2505C70.6639 119.807 70.9801 119.912 71.199 120.122C71.418 120.332 71.5274 120.597 71.5274 120.919C71.5274 121.13 71.4784 121.322 71.3804 121.495C71.2824 121.667 71.1385 121.804 70.9487 121.906C70.7588 122.007 70.5261 122.058 70.2505 122.058H68.7715V118.53H69.3135V121.553H70.2505C70.4648 121.553 70.6409 121.496 70.7787 121.383C70.9165 121.269 70.9854 121.124 70.9854 120.946C70.9854 120.76 70.9165 120.607 70.7787 120.489C70.6409 120.371 70.4648 120.312 70.2505 120.312H69.24V119.807ZM72.0878 122.058V118.53H72.6298V122.058H72.0878Z" fill="black"/>
<path d="M74.0262 118.53L74.8713 119.973L75.7165 118.53H76.3412L75.2021 120.294L76.3412 122.058H75.7165L74.8713 120.689L74.0262 122.058H73.4015L74.5223 120.294L73.4015 118.53H74.0262Z" fill="black"/>
<path d="M78.1527 122.141C77.9291 122.141 77.7263 122.098 77.5441 122.014C77.3619 121.929 77.2172 121.805 77.11 121.645C77.0028 121.482 76.9492 121.286 76.9492 121.057C76.9492 120.854 76.989 120.691 77.0687 120.565C77.1483 120.438 77.2547 120.338 77.3879 120.267C77.5211 120.195 77.6681 120.141 77.8289 120.106C77.9912 120.069 78.1542 120.04 78.318 120.018C78.5324 119.991 78.7062 119.97 78.8394 119.956C78.9741 119.941 79.0721 119.916 79.1334 119.881C79.1961 119.845 79.2275 119.784 79.2275 119.697V119.679C79.2275 119.452 79.1655 119.276 79.0415 119.15C78.919 119.025 78.733 118.962 78.4834 118.962C78.2246 118.962 78.0218 119.019 77.8748 119.132C77.7278 119.245 77.6245 119.366 77.5647 119.495L77.0503 119.311C77.1422 119.097 77.2646 118.93 77.4178 118.81C77.5724 118.689 77.7408 118.605 77.923 118.558C78.1068 118.509 78.2874 118.484 78.465 118.484C78.5783 118.484 78.7085 118.498 78.8555 118.526C79.004 118.552 79.1471 118.606 79.2849 118.689C79.4243 118.771 79.5399 118.896 79.6317 119.063C79.7236 119.23 79.7695 119.454 79.7695 119.734V122.058H79.2275V121.58H79.2C79.1632 121.657 79.102 121.739 79.0162 121.826C78.9305 121.913 78.8164 121.987 78.674 122.049C78.5316 122.11 78.3578 122.141 78.1527 122.141ZM78.2354 121.654C78.4497 121.654 78.6304 121.612 78.7774 121.527C78.9259 121.443 79.0377 121.334 79.1127 121.201C79.1892 121.068 79.2275 120.928 79.2275 120.781V120.285C79.2046 120.312 79.154 120.338 79.0759 120.361C78.9994 120.382 78.9106 120.401 78.8095 120.418C78.71 120.433 78.6128 120.447 78.5179 120.459C78.4245 120.47 78.3487 120.479 78.2905 120.487C78.1496 120.505 78.0179 120.535 77.8955 120.577C77.7745 120.616 77.6765 120.677 77.6015 120.758C77.528 120.838 77.4912 120.946 77.4912 121.084C77.4912 121.272 77.5609 121.415 77.7002 121.511C77.8411 121.606 78.0195 121.654 78.2354 121.654Z" fill="black"/>
<path d="M84.9387 120.046V120.551H82.9911V120.046H84.9387ZM83.1198 118.53V122.058H82.5777V118.53H83.1198ZM85.3521 118.53V122.058H84.8101V118.53H85.3521Z" fill="black"/>
<path d="M87.38 122.141C87.1565 122.141 86.9536 122.098 86.7714 122.014C86.5892 121.929 86.4445 121.805 86.3374 121.645C86.2302 121.482 86.1766 121.286 86.1766 121.057C86.1766 120.854 86.2164 120.691 86.296 120.565C86.3756 120.438 86.4821 120.338 86.6153 120.267C86.7485 120.195 86.8954 120.141 87.0562 120.106C87.2185 120.069 87.3816 120.04 87.5454 120.018C87.7598 119.991 87.9335 119.97 88.0667 119.956C88.2015 119.941 88.2995 119.916 88.3607 119.881C88.4235 119.845 88.4549 119.784 88.4549 119.697V119.679C88.4549 119.452 88.3929 119.276 88.2688 119.15C88.1464 119.025 87.9603 118.962 87.7108 118.962C87.452 118.962 87.2491 119.019 87.1021 119.132C86.9552 119.245 86.8518 119.366 86.7921 119.495L86.2776 119.311C86.3695 119.097 86.492 118.93 86.6451 118.81C86.7998 118.689 86.9682 118.605 87.1504 118.558C87.3341 118.509 87.5148 118.484 87.6924 118.484C87.8057 118.484 87.9358 118.498 88.0828 118.526C88.2313 118.552 88.3745 118.606 88.5123 118.689C88.6516 118.771 88.7672 118.896 88.8591 119.063C88.951 119.23 88.9969 119.454 88.9969 119.734V122.058H88.4549V121.58H88.4273C88.3906 121.657 88.3293 121.739 88.2436 121.826C88.1578 121.913 88.0438 121.987 87.9014 122.049C87.759 122.11 87.5852 122.141 87.38 122.141ZM87.4627 121.654C87.6771 121.654 87.8577 121.612 88.0047 121.527C88.1532 121.443 88.265 121.334 88.34 121.201C88.4166 121.068 88.4549 120.928 88.4549 120.781V120.285C88.4319 120.312 88.3814 120.338 88.3033 120.361C88.2267 120.382 88.1379 120.401 88.0369 120.418C87.9374 120.433 87.8401 120.447 87.7452 120.459C87.6518 120.47 87.576 120.479 87.5178 120.487C87.377 120.505 87.2453 120.535 87.1228 120.577C87.0019 120.616 86.9039 120.677 86.8288 120.758C86.7554 120.838 86.7186 120.946 86.7186 121.084C86.7186 121.272 86.7883 121.415 86.9276 121.511C87.0685 121.606 87.2468 121.654 87.4627 121.654Z" fill="black"/>
<path d="M91.8051 122.058V118.53H94.5795V122.058H94.0374V119.036H92.3471V122.058H91.8051Z" fill="black"/>
<path d="M95.5693 123.381V118.53H96.0929V119.091H96.1573C96.1971 119.029 96.2522 118.951 96.3226 118.856C96.3946 118.76 96.4972 118.674 96.6304 118.599C96.7651 118.523 96.9473 118.484 97.177 118.484C97.474 118.484 97.7358 118.559 97.9624 118.707C98.189 118.856 98.3659 119.066 98.493 119.339C98.62 119.611 98.6836 119.933 98.6836 120.303C98.6836 120.677 98.62 121.001 98.493 121.275C98.3659 121.547 98.1898 121.759 97.9647 121.909C97.7396 122.057 97.4801 122.131 97.1861 122.131C96.9595 122.131 96.7781 122.094 96.6418 122.019C96.5056 121.942 96.4007 121.856 96.3272 121.759C96.2537 121.661 96.1971 121.58 96.1573 121.516H96.1113V123.381H95.5693ZM96.1021 120.294C96.1021 120.56 96.1412 120.796 96.2193 120.999C96.2974 121.201 96.4114 121.36 96.5615 121.475C96.7115 121.588 96.8952 121.645 97.1127 121.645C97.3393 121.645 97.5284 121.585 97.6799 121.465C97.833 121.344 97.9479 121.182 98.0244 120.978C98.1025 120.773 98.1416 120.545 98.1416 120.294C98.1416 120.046 98.1033 119.823 98.0267 119.623C97.9517 119.423 97.8376 119.264 97.6845 119.148C97.533 119.03 97.3423 118.971 97.1127 118.971C96.8922 118.971 96.7069 119.027 96.5569 119.139C96.4068 119.249 96.2935 119.404 96.217 119.603C96.1404 119.8 96.1021 120.031 96.1021 120.294Z" fill="black"/>
<path d="M100.052 121.259L101.752 118.53H102.377V122.058H101.835V119.329L100.144 122.058H99.5104V118.53H100.052V121.259Z" fill="black"/>
<path d="M103.369 123.381V118.53H103.893V119.091H103.957C103.997 119.029 104.052 118.951 104.123 118.856C104.195 118.76 104.297 118.674 104.43 118.599C104.565 118.523 104.747 118.484 104.977 118.484C105.274 118.484 105.536 118.559 105.762 118.707C105.989 118.856 106.166 119.066 106.293 119.339C106.42 119.611 106.484 119.933 106.484 120.303C106.484 120.677 106.42 121.001 106.293 121.275C106.166 121.547 105.99 121.759 105.765 121.909C105.54 122.057 105.28 122.131 104.986 122.131C104.76 122.131 104.578 122.094 104.442 122.019C104.306 121.942 104.201 121.856 104.127 121.759C104.054 121.661 103.997 121.58 103.957 121.516H103.911V123.381H103.369ZM103.902 120.294C103.902 120.56 103.941 120.796 104.019 120.999C104.097 121.201 104.211 121.36 104.361 121.475C104.512 121.588 104.695 121.645 104.913 121.645C105.139 121.645 105.328 121.585 105.48 121.465C105.633 121.344 105.748 121.182 105.824 120.978C105.903 120.773 105.942 120.545 105.942 120.294C105.942 120.046 105.903 119.823 105.827 119.623C105.752 119.423 105.638 119.264 105.485 119.148C105.333 119.03 105.142 118.971 104.913 118.971C104.692 118.971 104.507 119.027 104.357 119.139C104.207 119.249 104.094 119.404 104.017 119.603C103.94 119.8 103.902 120.031 103.902 120.294Z" fill="black"/>
<path d="M108.743 122.131C108.425 122.131 108.146 122.056 107.905 121.904C107.666 121.752 107.48 121.54 107.345 121.268C107.212 120.995 107.145 120.677 107.145 120.312C107.145 119.945 107.212 119.624 107.345 119.35C107.48 119.076 107.666 118.863 107.905 118.712C108.146 118.56 108.425 118.484 108.743 118.484C109.062 118.484 109.341 118.56 109.579 118.712C109.82 118.863 110.007 119.076 110.14 119.35C110.275 119.624 110.342 119.945 110.342 120.312C110.342 120.677 110.275 120.995 110.14 121.268C110.007 121.54 109.82 121.752 109.579 121.904C109.341 122.056 109.062 122.131 108.743 122.131ZM108.743 121.645C108.985 121.645 109.184 121.582 109.341 121.458C109.497 121.334 109.612 121.171 109.687 120.969C109.762 120.767 109.8 120.548 109.8 120.312C109.8 120.077 109.762 119.857 109.687 119.653C109.612 119.45 109.497 119.285 109.341 119.16C109.184 119.034 108.985 118.971 108.743 118.971C108.502 118.971 108.303 119.034 108.146 119.16C107.99 119.285 107.875 119.45 107.8 119.653C107.725 119.857 107.687 120.077 107.687 120.312C107.687 120.548 107.725 120.767 107.8 120.969C107.875 121.171 107.99 121.334 108.146 121.458C108.303 121.582 108.502 121.645 108.743 121.645Z" fill="black"/>
<path d="M110.793 123.068V121.553H111.087C111.159 121.478 111.221 121.396 111.273 121.309C111.325 121.222 111.37 121.119 111.408 120.999C111.448 120.878 111.482 120.731 111.509 120.558C111.537 120.384 111.561 120.173 111.583 119.927L111.702 118.53H113.944V121.553H114.486V123.068H113.944V122.058H111.335V123.068H110.793ZM111.702 121.553H113.402V119.036H112.207L112.116 119.927C112.077 120.296 112.03 120.618 111.973 120.894C111.916 121.169 111.826 121.389 111.702 121.553Z" fill="black"/>
<path d="M116.684 122.131C116.344 122.131 116.051 122.056 115.805 121.906C115.56 121.755 115.37 121.543 115.237 121.272C115.106 121 115.04 120.683 115.04 120.322C115.04 119.96 115.106 119.642 115.237 119.366C115.37 119.089 115.556 118.873 115.793 118.719C116.032 118.562 116.311 118.484 116.629 118.484C116.813 118.484 116.994 118.515 117.173 118.576C117.352 118.637 117.516 118.737 117.662 118.875C117.809 119.011 117.927 119.192 118.014 119.417C118.101 119.642 118.145 119.919 118.145 120.248V120.478H115.426V120.009H117.594C117.594 119.81 117.554 119.633 117.474 119.476C117.396 119.32 117.284 119.197 117.139 119.107C116.995 119.016 116.825 118.971 116.629 118.971C116.413 118.971 116.226 119.025 116.069 119.132C115.912 119.238 115.792 119.375 115.708 119.545C115.624 119.715 115.582 119.898 115.582 120.092V120.404C115.582 120.671 115.628 120.897 115.72 121.082C115.813 121.266 115.942 121.406 116.108 121.502C116.273 121.597 116.465 121.645 116.684 121.645C116.827 121.645 116.955 121.625 117.07 121.585C117.186 121.543 117.287 121.482 117.371 121.401C117.455 121.318 117.52 121.216 117.566 121.093L118.09 121.24C118.035 121.418 117.942 121.574 117.812 121.709C117.682 121.842 117.521 121.946 117.329 122.021C117.138 122.095 116.923 122.131 116.684 122.131Z" fill="black"/>
<path d="M32.194 100.816C32.0818 100.473 31.9338 100.165 31.75 99.8925C31.5697 99.6169 31.3536 99.3821 31.1019 99.1882C30.8535 98.9942 30.5711 98.8462 30.2547 98.7441C29.9382 98.6421 29.5912 98.591 29.2135 98.591C28.5943 98.591 28.0312 98.7509 27.5242 99.0708C27.0172 99.3906 26.614 99.8618 26.3146 100.484C26.0152 101.107 25.8655 101.871 25.8655 102.776C25.8655 103.681 26.0169 104.445 26.3197 105.068C26.6225 105.69 27.0325 106.161 27.5497 106.481C28.0669 106.801 28.6487 106.961 29.2952 106.961C29.894 106.961 30.4214 106.833 30.8773 106.578C31.3366 106.32 31.6939 105.956 31.9491 105.486C32.2077 105.013 32.3369 104.457 32.3369 103.817L32.7248 103.899H29.581V102.776H33.5618V103.899C33.5618 104.76 33.3781 105.508 33.0106 106.144C32.6466 106.781 32.143 107.274 31.4999 107.625C30.8603 107.972 30.1254 108.145 29.2952 108.145C28.3697 108.145 27.5565 107.927 26.8556 107.492C26.1581 107.056 25.6137 106.437 25.2224 105.634C24.8346 104.831 24.6406 103.878 24.6406 102.776C24.6406 101.949 24.7512 101.206 24.9724 100.546C25.1969 99.8823 25.5134 99.3175 25.9216 98.8513C26.3299 98.3852 26.8131 98.0279 27.3711 97.7796C27.9291 97.5312 28.5432 97.407 29.2135 97.407C29.7647 97.407 30.2785 97.4903 30.7548 97.6571C31.2346 97.8204 31.6616 98.0534 32.0358 98.3563C32.4135 98.6557 32.7282 99.0146 32.98 99.4331C33.2318 99.8482 33.4053 100.309 33.5006 100.816H32.194Z" fill="black"/>
<path d="M35.7296 108.002V97.5499H36.9953V106.879H41.854V108.002H35.7296Z" fill="black"/>
<path d="M44.9022 108.002H43.5752L47.4132 97.5499H48.7197L52.5577 108.002H51.2307L48.1073 99.2035H48.0256L44.9022 108.002ZM45.3921 103.919H50.7408V105.042H45.3921V103.919Z" fill="black"/>
<path d="M54.1857 97.5499H55.6964L59.2486 106.226H59.371L62.9232 97.5499H64.4339V108.002H63.2498V100.061H63.1478L59.8814 108.002H58.7382L55.4718 100.061H55.3698V108.002H54.1857V97.5499Z" fill="black"/>
<path d="M66.9717 108.002V97.5499H70.5034C71.3234 97.5499 71.9937 97.6979 72.5142 97.9939C73.0382 98.2865 73.4261 98.6829 73.6779 99.1831C73.9297 99.6832 74.0555 100.241 74.0555 100.857C74.0555 101.473 73.9297 102.033 73.6779 102.536C73.4295 103.04 73.045 103.441 72.5245 103.741C72.0039 104.037 71.337 104.185 70.5238 104.185H67.9924V103.062H70.483C71.0444 103.062 71.4952 102.965 71.8355 102.771C72.1757 102.577 72.4224 102.315 72.5755 101.985C72.732 101.652 72.8103 101.276 72.8103 100.857C72.8103 100.439 72.732 100.064 72.5755 99.7343C72.4224 99.4042 72.174 99.1456 71.8304 98.9585C71.4867 98.768 71.0308 98.6727 70.4626 98.6727H68.2374V108.002H66.9717Z" fill="black"/>
<path d="M77.3602 97.5499V108.002H76.0945V97.5499H77.3602Z" fill="black"/>
<path d="M88.1863 97.5499V108.002H86.9614L81.2658 99.7955H81.1637V108.002H79.898V97.5499H81.1228L86.839 105.777H86.941V97.5499H88.1863Z" fill="black"/>
<path d="M97.8641 100.816C97.7519 100.473 97.6038 100.165 97.4201 99.8925C97.2398 99.6169 97.0237 99.3821 96.7719 99.1882C96.5236 98.9942 96.2412 98.8462 95.9247 98.7441C95.6083 98.6421 95.2613 98.591 94.8836 98.591C94.2644 98.591 93.7012 98.7509 93.1943 99.0708C92.6873 99.3906 92.2841 99.8618 91.9847 100.484C91.6853 101.107 91.5356 101.871 91.5356 102.776C91.5356 103.681 91.687 104.445 91.9898 105.068C92.2926 105.69 92.7026 106.161 93.2198 106.481C93.737 106.801 94.3188 106.961 94.9653 106.961C95.5641 106.961 96.0915 106.833 96.5474 106.578C97.0067 106.32 97.364 105.956 97.6192 105.486C97.8777 105.013 98.007 104.457 98.007 103.817L98.3949 103.899H95.2511V102.776H99.2319V103.899C99.2319 104.76 99.0482 105.508 98.6807 106.144C98.3167 106.781 97.8131 107.274 97.17 107.625C96.5304 107.972 95.7954 108.145 94.9653 108.145C94.0398 108.145 93.2266 107.927 92.5257 107.492C91.8282 107.056 91.2838 106.437 90.8925 105.634C90.5047 104.831 90.3107 103.878 90.3107 102.776C90.3107 101.949 90.4213 101.206 90.6425 100.546C90.867 99.8823 91.1834 99.3175 91.5917 98.8513C92 98.3852 92.4832 98.0279 93.0412 97.7796C93.5992 97.5312 94.2133 97.407 94.8836 97.407C95.4348 97.407 95.9486 97.4903 96.4249 97.6571C96.9046 97.8204 97.3316 98.0534 97.7059 98.3563C98.0836 98.6557 98.3983 99.0146 98.6501 99.4331C98.9019 99.8482 99.0754 100.309 99.1707 100.816H97.8641Z" fill="black"/>
<path d="M102.114 108.084C101.862 108.084 101.646 107.994 101.466 107.813C101.286 107.633 101.196 107.417 101.196 107.165C101.196 106.913 101.286 106.697 101.466 106.517C101.646 106.337 101.862 106.247 102.114 106.247C102.366 106.247 102.582 106.337 102.762 106.517C102.943 106.697 103.033 106.913 103.033 107.165C103.033 107.332 102.99 107.485 102.905 107.625C102.824 107.764 102.713 107.876 102.574 107.961C102.437 108.043 102.284 108.084 102.114 108.084Z" fill="black"/>
<path d="M105.358 108.002V97.5499H109.012C109.74 97.5499 110.34 97.6758 110.813 97.9276C111.286 98.1759 111.638 98.5111 111.87 98.933C112.101 99.3515 112.217 99.8159 112.217 100.326C112.217 100.775 112.137 101.146 111.977 101.439C111.821 101.731 111.613 101.963 111.354 102.133C111.099 102.303 110.822 102.429 110.522 102.511V102.613C110.842 102.633 111.164 102.745 111.487 102.95C111.81 103.154 112.081 103.446 112.299 103.827C112.516 104.208 112.625 104.675 112.625 105.226C112.625 105.75 112.506 106.221 112.268 106.64C112.03 107.058 111.654 107.39 111.14 107.635C110.626 107.88 109.958 108.002 109.134 108.002H105.358ZM106.623 106.879H109.134C109.961 106.879 110.548 106.719 110.895 106.4C111.246 106.076 111.421 105.685 111.421 105.226C111.421 104.872 111.331 104.545 111.15 104.246C110.97 103.943 110.713 103.701 110.38 103.521C110.046 103.337 109.651 103.246 109.196 103.246H106.623V106.879ZM106.623 102.143H108.971C109.352 102.143 109.696 102.068 110.002 101.919C110.312 101.769 110.557 101.558 110.737 101.286C110.921 101.014 111.012 100.694 111.012 100.326C111.012 99.8669 110.853 99.4774 110.533 99.1575C110.213 98.8343 109.706 98.6727 109.012 98.6727H106.623V102.143Z" fill="black"/>
<path d="M113.807 97.5499H115.256L118.155 102.429H118.278L121.176 97.5499H122.626L118.849 103.695V108.002H117.583V103.695L113.807 97.5499Z" fill="black"/>
</g>
<defs>
<clipPath id="clip0_276_2376">
<rect width="150" height="150" fill="white" transform="translate(0 0.380859)"/>
</clipPath>
</defs>
</svg>
