<svg width="150" height="151" viewBox="0 0 150 151" fill="none" xmlns="http://www.w3.org/2000/svg">
<g clip-path="url(#clip0_344_1140)">
<circle cx="75" cy="75.3809" r="75" fill="#F8F7F7"/>
<g clip-path="url(#clip1_344_1140)">
<mask id="mask0_344_1140" style="mask-type:luminance" maskUnits="userSpaceOnUse" x="15" y="59" width="41" height="33">
<path d="M33.7393 65.8198L34.017 65.9835L34.2964 66.1472V66.7904L34.017 66.9541L33.7393 67.1178L33.4615 66.9541L33.1822 66.7904V66.1423L33.4615 65.9786L33.7393 65.8198ZM28.6958 61.836L29.0504 62.0455L29.4 62.2468V63.0537L29.0504 63.2567L28.7024 63.458L28.3528 63.2567L28.0031 63.0537V62.2468L28.3528 62.0455L28.6958 61.836ZM37.7191 62.363L38.0688 62.5643L38.4167 62.7673V63.5742L38.0688 63.7755L37.7191 63.9785L37.3695 63.7755L37.0215 63.5742V62.7738L37.3695 62.5709L37.7191 62.363ZM38.7827 66.7282L39.232 66.9868L39.6796 67.2471V68.2848L39.232 68.5466L38.7827 68.8052L38.3334 68.5466L37.8858 68.2864V67.2536L38.3334 66.9934L38.7827 66.7282ZM38.9248 72.1606L39.544 72.519L40.16 72.884V74.3178L39.5408 74.6762L38.9216 75.0347L38.3007 74.6762L37.6816 74.3178V72.884L38.3007 72.5256L38.9248 72.1606ZM35.0953 73.6942L35.5103 73.9348L35.9269 74.1754V75.1362L35.5103 75.3768L35.0953 75.6157L34.6803 75.3768L34.2637 75.1362V74.1754L34.6803 73.9348L35.0953 73.6942ZM30.3737 72.5927L30.9047 72.9004L31.4373 73.2081V74.4389L30.9047 74.7466L30.3737 75.0527L29.8428 74.745L29.3101 74.4389V73.2081L29.8428 72.9004L30.3737 72.5927ZM19.5386 72.4928L20.0647 72.8022L20.5973 73.1099V74.3391L20.0647 74.6451L19.5337 74.9529L19.0011 74.6451L18.4701 74.3374V73.1082L19.006 72.8022L19.5386 72.4928ZM23.7864 66.9606L24.6833 67.4811L25.5803 68V70.0753L24.6833 70.5942L23.7864 71.113L22.8894 70.5942L21.9909 70.0753V68L22.8894 67.4811L23.7864 66.9606ZM17.6777 65.4368L19.0158 66.211L20.3538 66.9852V70.0868L19.0158 70.861L17.6777 71.6352L16.3381 70.861L15 70.0868V66.9901L16.3381 66.2159L17.6777 65.4368ZM23.5266 61.0176L24.5199 61.5921L25.5133 62.1633V64.4548L24.5199 65.0276L23.5266 65.6005L22.5333 65.026L21.5351 64.4548V62.1633L22.5268 61.5888L23.5266 61.0176ZM34.0971 59.3809L35.0953 59.9554L36.0756 60.5266V62.818L35.0953 63.4023L34.102 63.9752L33.1086 63.4023L32.1153 62.8278V60.5266L33.1086 59.9521L34.0971 59.3809ZM40.6501 62.818L41.3641 63.2305L42.078 63.6446V65.2977L41.3641 65.7102L40.6501 66.1292L39.9345 65.7151L39.2206 65.3026V63.6495L39.9345 63.2354L40.6501 62.818ZM42.774 69.3994L43.6807 69.9231L44.5875 70.4485V72.5501L43.6807 73.0755L42.774 73.5993L41.8673 73.0755L40.9605 72.5501V70.4534L41.8673 69.928L42.774 69.3994ZM36.3255 68.9886L37.0068 69.3814L37.6881 69.7758V71.352L37.0068 71.7465L36.3239 72.1475L35.6426 71.753L34.9613 71.3586V69.7807L35.6426 69.3863L36.3255 68.9886ZM29.8084 65.9409L30.9521 66.6071L32.0957 67.2732V69.9362L30.9521 70.6024L29.8084 71.2685L28.6648 70.6024L27.5212 69.9362V67.2732L28.6648 66.6071L29.8084 65.9409ZM24.1589 72.5534L25.1718 73.1393L26.1864 73.7253V76.0757L25.1718 76.6616L24.1589 77.2492L23.1443 76.6616L22.1314 76.0757V73.7253L23.1443 73.1393L24.1589 72.5534ZM31.6742 76.1542L32.6871 76.7402L33.7017 77.3261V79.6716L32.6871 80.2592L31.6742 80.8451L30.6596 80.2592L29.6467 79.6716V77.3212L30.6596 76.7353L31.6742 76.1542ZM39.7499 75.4684L40.9164 76.1428L42.0813 76.8171V79.5128L40.9164 80.1872L39.7499 80.8615L38.585 80.1872L37.4152 79.5128V76.8122L38.5818 76.1379L39.7499 75.4684ZM35.7619 82.5277L36.9284 83.202L38.0933 83.8764V86.5737L36.9284 87.2481L35.7619 87.9224L34.5954 87.2481L33.4305 86.5737V83.8715L34.5954 83.1971L35.7619 82.5277ZM38.0491 61.8491H47.7668L52.8429 70.6564L54.2561 73.1115L49.4659 80.8042L55.5615 91.3825H41.2268L38.9543 87.4396L38.8889 84.1661L40.441 81.8648L43.5729 87.2988H48.5085L44.7165 80.7191L49.5084 73.0264L49.3205 72.6991L45.4191 65.9278H42.2169L42.6923 65.6529V63.291L40.6501 62.1077L38.0491 61.8491Z" fill="white"/>
</mask>
<g mask="url(#mask0_344_1140)">
<path d="M55.5598 59.3809H15V91.3809H55.5598V59.3809Z" fill="url(#paint0_linear_344_1140)"/>
</g>
<path d="M102.583 82.6537H103.826V83.2544H101.827V79.4752H102.583V82.6537ZM96.4122 81.9286L95.8715 80.3475L95.3258 81.9286H96.4122ZM96.6165 82.5342H95.1134L94.8651 83.2544H94.0743L95.4303 79.4702H96.3126L97.6686 83.2544H96.8681L96.6165 82.5342ZM90.0994 79.4752V80.0873H89.0946V83.2544H88.3382V80.0873H87.3318V79.4752H90.0994ZM83.1346 79.4752V83.2544H82.3766V79.4752H83.1346ZM77.2008 80.6209C77.1194 80.4674 76.9951 80.3411 76.843 80.2575C76.6801 80.1713 76.4978 80.1285 76.3137 80.1331C76.1054 80.1292 75.8999 80.1818 75.719 80.2853C75.5451 80.3872 75.4044 80.5373 75.3138 80.7174C75.2132 80.9207 75.1633 81.1453 75.1684 81.3721C75.1637 81.5993 75.2148 81.8241 75.3171 82.0268C75.4098 82.2086 75.5534 82.3594 75.7304 82.4606C75.9191 82.5637 76.1314 82.6156 76.3463 82.6112C76.6019 82.6219 76.8529 82.5406 77.0538 82.382C77.245 82.2165 77.3731 81.9898 77.4165 81.7404H76.1192V81.1495H78.1631V81.8042C78.1114 82.0699 77.9996 82.3202 77.8363 82.5359C77.6674 82.7626 77.4481 82.947 77.1959 83.0744C76.9242 83.2124 76.6231 83.282 76.3186 83.2773C75.9762 83.281 75.6386 83.1965 75.3383 83.0318C75.0488 82.8714 74.8091 82.6341 74.6456 82.346C74.4804 82.0395 74.394 81.6967 74.394 81.3484C74.394 81.0001 74.4804 80.6573 74.6456 80.3508C74.8082 80.0616 75.0481 79.8235 75.3383 79.6634C75.6617 79.4906 76.0247 79.4057 76.391 79.4172C76.7573 79.4287 77.1143 79.5362 77.4263 79.7289C77.7412 79.9328 77.973 80.2428 78.0798 80.6029L77.2008 80.6209ZM70.1756 79.4752V83.2544H69.4192V79.4752H70.1756ZM63.1831 82.6112C63.3503 82.6288 63.5193 82.6089 63.6778 82.5529C63.8363 82.4968 63.9804 82.4061 64.0994 82.2872C64.2185 82.1684 64.3097 82.0244 64.3662 81.8659C64.4228 81.7073 64.4434 81.5381 64.4264 81.3705C64.4356 81.2026 64.4115 81.0346 64.3554 80.8761C64.2993 80.7177 64.2124 80.5719 64.0996 80.4474C63.9772 80.3326 63.8325 80.2444 63.6745 80.188C63.5166 80.1317 63.3487 80.1086 63.1815 80.12H62.6456V82.6177L63.1831 82.6112ZM63.2092 79.4752C63.5714 79.467 63.9301 79.5468 64.2549 79.7076C64.5479 79.855 64.7907 80.0863 64.9525 80.3721C65.1212 80.6773 65.2063 81.0217 65.1992 81.3705C65.2068 81.7178 65.1216 82.0608 64.9525 82.364C64.7884 82.6456 64.546 82.8731 64.2549 83.0187C63.9301 83.1795 63.5714 83.2592 63.2092 83.2511H61.8892V79.4752H63.2092Z" fill="#D820F3"/>
<path d="M61.7878 71.776C60.5319 71.776 59.5005 71.3635 58.6934 70.5386C58.2978 70.1418 57.9862 69.6691 57.7773 69.1488C57.5685 68.6285 57.4666 68.0713 57.4779 67.5106C57.4676 66.9491 57.5708 66.3913 57.781 65.8706C57.9913 65.35 58.3044 64.8773 58.7016 64.481C59.5087 63.6561 60.5401 63.2436 61.7959 63.2436C62.524 63.2421 63.2394 63.4341 63.8692 63.8001C64.4873 64.1475 64.9995 64.6567 65.351 65.2732L64.6223 65.6971C64.3619 65.1933 63.9613 64.776 63.4689 64.4957C62.9593 64.1968 62.3783 64.0418 61.7878 64.0472C60.752 64.0472 59.9127 64.3811 59.2701 65.0489C58.9509 65.3732 58.6996 65.7582 58.5313 66.1812C58.3629 66.6043 58.2808 67.0569 58.2899 67.5122C58.2821 67.9662 58.3648 68.4172 58.5331 68.8387C58.7014 69.2603 58.952 69.644 59.2701 69.9673C59.9117 70.6351 60.7509 70.969 61.7878 70.969C62.3782 70.974 62.9591 70.8191 63.4689 70.5206C63.9613 70.2403 64.3619 69.823 64.6223 69.3192L65.351 69.7317C65.0107 70.3557 64.5009 70.8704 63.8806 71.2162C63.2448 71.5851 62.5225 71.7783 61.7878 71.776Z" fill="black"/>
<path d="M66.5862 65.7429H71.5283V71.6351H70.7523V66.4974H67.3622V71.6351H66.5862V65.7429Z" fill="black"/>
<path d="M78.1025 70.8921C77.5123 71.4593 76.7262 71.776 75.9084 71.776C75.0905 71.776 74.3044 71.4593 73.7142 70.8921C73.4228 70.6056 73.1931 70.2623 73.0394 69.8834C72.8857 69.5044 72.8112 69.0979 72.8205 68.689C72.8101 68.2817 72.8842 67.8766 73.038 67.4993C73.1918 67.1221 73.4221 66.781 73.7142 66.4974C74.3004 65.9226 75.0881 65.6007 75.9084 65.6007C76.7286 65.6007 77.5163 65.9226 78.1025 66.4974C78.3967 66.78 78.6291 67.1207 78.7849 67.4979C78.9407 67.8752 79.0166 68.2808 79.0076 68.689C79.0149 69.0987 78.9384 69.5055 78.7827 69.8844C78.627 70.2633 78.3955 70.6063 78.1025 70.8921ZM74.2681 70.347C74.7086 70.7774 75.2996 71.0182 75.9149 71.0182C76.5302 71.0182 77.1212 70.7774 77.5617 70.347C77.7769 70.1287 77.9465 69.8697 78.0606 69.585C78.1748 69.3004 78.2312 68.9958 78.2267 68.689C78.2293 68.3829 78.1712 68.0793 78.0559 67.7958C77.9405 67.5123 77.7702 67.2546 77.5547 67.0375C77.3393 66.8204 77.0829 66.6483 76.8006 66.5312C76.5183 66.414 76.2156 66.3542 75.91 66.355C75.6043 66.3542 75.3015 66.414 75.0191 66.5311C74.7367 66.6483 74.4803 66.8203 74.2647 67.0374C74.0491 67.2544 73.8786 67.5122 73.7631 67.7957C73.6476 68.0792 73.5893 68.3828 73.5917 68.689C73.5884 68.9966 73.6465 69.3018 73.7626 69.5865C73.8788 69.8713 74.0506 70.1298 74.2681 70.347Z" fill="black"/>
<path d="M83.4547 65.6005C83.8539 65.5941 84.25 65.6705 84.6183 65.8249C84.9866 65.9792 85.3191 66.2082 85.5949 66.4974C85.8856 66.7821 86.1148 67.1234 86.2685 67.5004C86.4222 67.8773 86.4971 68.2819 86.4886 68.689C86.497 69.0961 86.4221 69.5006 86.2684 69.8776C86.1147 70.2545 85.8855 70.5959 85.5949 70.8806C85.319 71.1696 84.9865 71.3983 84.6182 71.5524C84.2499 71.7064 83.8538 71.7825 83.4547 71.7759C82.4112 71.7759 81.6189 71.3438 81.0776 70.4796V73.9921H80.3015V65.7429H81.0776V66.8968C81.6189 66.0326 82.4112 65.6005 83.4547 65.6005ZM81.749 70.347C82.1896 70.7773 82.7806 71.0182 83.3959 71.0182C84.0112 71.0182 84.6021 70.7773 85.0427 70.347C85.2591 70.1287 85.4298 69.8693 85.5449 69.5841C85.6599 69.2988 85.7169 68.9934 85.7125 68.6857C85.7151 68.3796 85.6571 68.076 85.5417 67.7925C85.4264 67.509 85.2561 67.2513 85.0406 67.0342C84.8251 66.8171 84.5688 66.645 84.2865 66.5279C84.0042 66.4107 83.7014 66.3508 83.3959 66.3517C83.0902 66.3509 82.7874 66.4107 82.505 66.5278C82.2226 66.645 81.9662 66.817 81.7506 67.0341C81.535 67.2511 81.3645 67.5089 81.249 67.7924C81.1334 68.0759 81.0752 68.3795 81.0776 68.6857C81.0731 68.9935 81.1303 69.2991 81.2456 69.5844C81.3609 69.8697 81.5321 70.129 81.749 70.347Z" fill="black"/>
<path d="M86.8416 65.7429H91.787V66.4974H89.7006V71.6351H88.9246V66.4974H86.8416V65.7429Z" fill="black"/>
<path d="M96.7225 68.3698H92.4878V67.6169H96.7225V68.3698Z" fill="black"/>
<path d="M104.604 71.6352H103.733L102.968 69.6073H99.0636L98.299 71.6352H97.4282L100.593 63.386H101.439L104.604 71.6352ZM101.009 64.4106L99.3512 68.8298H102.668L101.009 64.4106Z" fill="black"/>
<path d="M105.545 65.7429H110.485V71.6351H109.709V66.4974H106.327V71.6351H105.551L105.545 65.7429Z" fill="black"/>
<path d="M111.427 65.7429H116.367V66.4974H114.286V71.6351H113.516V66.4974H111.427V65.7429Z" fill="black"/>
<path d="M119.79 65.6005C120.188 65.5852 120.585 65.6611 120.95 65.8224C121.315 65.9838 121.638 66.2264 121.896 66.5318C122.433 67.1293 122.724 67.908 122.712 68.712C122.712 68.7512 122.712 68.8756 122.688 69.077H117.525C117.582 69.6284 117.852 70.1358 118.277 70.4911C118.726 70.8529 119.289 71.0412 119.865 71.0214C120.76 71.0214 121.392 70.6875 121.76 70.0197L122.441 70.4207C122.184 70.8439 121.816 71.1885 121.378 71.4175C120.907 71.6613 120.383 71.7844 119.853 71.776C118.929 71.776 118.176 71.4852 117.596 70.9036C117.307 70.6135 117.081 70.2674 116.932 69.8865C116.782 69.5057 116.711 69.0982 116.725 68.689C116.712 68.2824 116.781 67.8774 116.929 67.4985C117.077 67.1195 117.3 66.7745 117.584 66.4844C117.87 66.1915 118.214 65.9616 118.594 65.8094C118.974 65.6572 119.381 65.5861 119.79 65.6005ZM119.79 66.3551C119.228 66.3372 118.68 66.5305 118.254 66.8968C117.839 67.2638 117.577 67.773 117.519 68.3241H121.905C121.858 67.7687 121.604 67.2515 121.195 66.8739C120.805 66.5346 120.306 66.35 119.79 66.3551Z" fill="black"/>
<path d="M125.542 68.5712L128.695 71.6351H127.659L124.719 68.7954V71.6351H123.943V65.7429H124.719V68.3469L127.519 65.7429H128.578L125.542 68.5712Z" fill="black"/>
<path d="M134.224 66.8968V65.7429H135V71.6352H134.224V70.4796C133.679 71.3438 132.887 71.7759 131.847 71.7759C131.445 71.7821 131.047 71.7058 130.676 71.5518C130.305 71.3979 129.97 71.1694 129.69 70.8806C129.403 70.5941 129.177 70.2522 129.025 69.8755C128.873 69.4987 128.799 69.0951 128.808 68.689C128.799 68.2829 128.873 67.8792 129.025 67.5025C129.176 67.1257 129.403 66.7838 129.69 66.4974C129.97 66.2083 130.305 65.9796 130.676 65.8253C131.047 65.6711 131.445 65.5945 131.847 65.6005C132.891 65.6005 133.684 66.0326 134.224 66.8968ZM130.259 70.347C130.699 70.7773 131.29 71.0182 131.906 71.0182C132.521 71.0182 133.112 70.7773 133.553 70.347C133.769 70.129 133.941 69.8697 134.056 69.5844C134.171 69.2991 134.228 68.9935 134.224 68.6857C134.232 68.3757 134.178 68.0671 134.066 67.7782C133.953 67.4893 133.783 67.226 133.567 67.0038C133.351 66.7815 133.093 66.6049 132.808 66.4843C132.523 66.3637 132.216 66.3016 131.907 66.3016C131.597 66.3016 131.29 66.3637 131.005 66.4843C130.72 66.6049 130.462 66.7815 130.246 67.0038C130.03 67.226 129.86 67.4893 129.747 67.7782C129.635 68.0671 129.581 68.3757 129.589 68.6857C129.585 68.9934 129.642 69.2988 129.757 69.5841C129.872 69.8693 130.042 70.1287 130.259 70.347Z" fill="black"/>
</g>
</g>
<defs>
<linearGradient id="paint0_linear_344_1140" x1="57.3815" y1="93.7836" x2="17.5745" y2="60.7583" gradientUnits="userSpaceOnUse">
<stop stop-color="#9200F7"/>
<stop offset="0.38" stop-color="#F12BF2"/>
<stop offset="1" stop-color="#F6EC4F"/>
</linearGradient>
<clipPath id="clip0_344_1140">
<rect width="150" height="150" fill="white" transform="translate(0 0.380859)"/>
</clipPath>
<clipPath id="clip1_344_1140">
<rect width="120" height="32" fill="white" transform="translate(15 59.3809)"/>
</clipPath>
</defs>
</svg>
