<svg width="150" height="151" viewBox="0 0 150 151" fill="none" xmlns="http://www.w3.org/2000/svg">
<g clip-path="url(#clip0_276_1350)">
<g clip-path="url(#clip1_276_1350)">
<circle cx="75" cy="75.3809" r="75" fill="#F8F7F7"/>
<path d="M61.1053 67.6026H90.3947V71.217C90.3947 72.6795 89.7697 74.0821 88.6571 75.1162C87.5446 76.1503 86.0357 76.7313 84.4623 76.7313H55.1753V73.1147C55.1753 71.6522 55.8003 70.2496 56.9129 69.2155C58.0254 68.1813 59.5343 67.6003 61.1077 67.6003L61.1053 67.6026Z" fill="url(#paint0_linear_276_1350)"/>
<path d="M78.6548 54.556L78.6548 83.8434C78.6548 85.4167 77.9907 86.9255 76.8085 88.038C75.6263 89.1505 74.023 89.7755 72.3511 89.7755H68.2194V60.4856C68.2201 58.9128 68.8845 57.4046 70.0666 56.2926C71.2487 55.1807 72.8517 54.556 74.523 54.556H78.6548Z" fill="url(#paint1_linear_276_1350)"/>
<path d="M54.6698 87.1666C51.1564 85.171 47.8595 82.8026 44.834 80.1009C43.3086 78.7264 41.8834 77.2404 40.5697 75.6548C39.2353 74.0531 38.0374 72.3382 36.9893 70.5286L36.2429 69.1341L35.5711 67.7347C35.1406 66.7483 34.7589 65.7404 34.4274 64.715C33.7713 62.6656 33.333 60.5503 33.12 58.4055C32.7227 54.1066 33.2909 49.5991 35.1425 45.5065L35.8889 43.9942L36.763 42.5531L36.8184 42.4622L36.9195 42.3198L37.0302 42.1652L37.2518 41.8583L37.6924 41.242C38.0704 40.7928 38.4533 40.3263 38.8433 39.8991C40.3724 38.2617 42.1278 36.8606 44.0538 35.7402C45.9664 34.6229 48.0178 33.7732 50.1528 33.214C52.2895 32.6433 54.4909 32.3635 56.6996 32.3817C57.2534 32.3817 57.8072 32.4308 58.361 32.4578L59.9333 32.637C60.4967 32.7352 61.0818 32.8236 61.6188 32.9414C62.1557 33.0593 62.6927 33.187 63.22 33.3367C65.3287 33.9273 67.3633 34.7652 69.2828 35.8335C73.1045 37.9557 76.4541 40.8612 79.1211 44.3674L75.2879 44.0826C76.7571 42.6739 78.3718 41.4318 80.1035 40.3779C81.826 39.3213 83.6604 38.4672 85.5716 37.832C89.3784 36.575 93.4813 36.0741 97.5023 36.7247C98.0056 36.7787 98.4992 36.9113 98.9976 37.0095C99.4972 37.1079 99.9908 37.2358 100.476 37.3925L101.198 37.6085L101.29 37.6355L101.336 37.6503L101.47 37.6969L101.632 37.7608L101.95 37.8835L102.59 38.129L102.908 38.2542L103.271 38.4261C103.753 38.6716 104.251 38.8925 104.716 39.143L106.031 39.9261C106.883 40.4815 107.7 41.0907 108.477 41.7502C111.597 44.3738 113.961 47.8097 115.32 51.6933C115.999 53.6323 116.391 55.6637 116.483 57.7205L116.469 59.2647V59.4587V59.606V59.6919L116.435 60.0405L116.365 60.7378C116.231 61.7596 116.026 62.7704 115.751 63.7624C115.217 65.6784 114.449 67.5186 113.466 69.2397C112.511 70.9309 111.387 72.5178 110.114 73.9755C107.58 76.7909 104.667 79.2245 101.461 81.2033C98.3306 83.2017 95.0536 84.8711 91.7621 86.4866C94.7791 84.385 97.8322 82.335 100.671 80.0494C103.51 77.7637 106.125 75.2792 108.203 72.3994C109.235 70.9746 110.139 69.4577 110.904 67.8673C111.65 66.3071 112.201 64.6574 112.544 62.9572C112.707 62.1473 112.816 61.327 112.869 60.5021L112.888 59.8098L112.903 59.4611V59.3286C112.903 59.2696 112.903 59.385 112.903 59.3654V59.3458V59.1911L112.85 57.9488C112.684 56.2913 112.279 54.668 111.646 53.132C111.014 51.59 110.178 50.1429 109.163 48.8307C108.14 47.5252 106.97 46.3469 105.677 45.3199C105.034 44.8118 104.361 44.3444 103.661 43.9205L102.585 43.3485L101.555 42.882L101.297 42.7642L100.972 42.6513L100.327 42.4205L100.004 42.3051L99.8427 42.2486H99.8235L99.8981 42.2756H99.862L99.7873 42.256L99.2143 42.0841C98.8266 41.9704 98.4326 41.8802 98.0345 41.8141C97.6372 41.7502 97.2447 41.6471 96.8305 41.6226C93.6185 41.2003 90.2933 41.6619 87.1993 42.7347C84.1024 43.841 81.2676 45.5974 78.8779 47.8904L76.8217 49.8986L75.0447 47.6031C72.7988 44.6809 70.0033 42.2453 66.822 40.4392C65.2456 39.554 63.5802 38.8445 61.8547 38.323C61.4261 38.1855 60.9879 38.0971 60.5569 37.9793C60.1259 37.8614 59.7311 37.8148 59.3169 37.7338L57.9228 37.5496C57.4822 37.5251 57.0415 37.4809 56.6009 37.4661C53.0242 37.36 49.4811 38.1972 46.3148 39.8967C44.7421 40.7347 43.2969 41.8006 42.024 43.0613L41.1669 43.9745L40.2856 45.0842L39.5271 46.1939L38.8602 47.3699C38.023 49.003 37.4167 50.7487 37.0591 52.555C36.6962 54.3992 36.5459 56.2802 36.6113 58.16C36.6627 60.0719 36.917 61.9726 37.3697 63.8287C37.5985 64.7788 37.8658 65.6504 38.1788 66.5612L38.7085 67.9385L39.3008 69.2692C40.1313 71.0459 41.1042 72.7498 42.2094 74.3634C43.3344 75.9954 44.5592 77.5534 45.8765 79.0281C48.5179 81.9889 51.5204 84.6575 54.6698 87.1666Z" fill="url(#paint2_linear_276_1350)"/>
<path d="M38.2706 106.444H37.2656V99.8579H34.0049V106.444H33V98.9065H38.2706V106.444Z" fill="black"/>
<path d="M43.4783 106.444H42.5362V102.181H42.3897C42.0826 102.181 41.8575 102.195 41.7145 102.223C41.4423 102.283 41.1981 102.398 40.9817 102.57C40.7096 102.791 40.5316 103.078 40.4479 103.432C40.392 103.653 40.3641 103.958 40.3641 104.347V106.444H38.7992V105.54H39.4587V104.347C39.4587 103.807 39.5058 103.383 39.6 103.075C39.757 102.56 40.0641 102.139 40.5212 101.813C40.8212 101.606 41.1754 101.466 41.5836 101.393C41.9919 101.316 42.4246 101.277 42.8817 101.277H43.4783V106.444Z" fill="black"/>
<path d="M49.6125 106.444H48.6651V104.131C48.6651 103.353 48.4628 102.793 48.058 102.449C47.7649 102.2 47.3811 102.076 46.9065 102.076C46.4076 102.076 45.9906 102.237 45.6556 102.56C45.3207 102.882 45.1532 103.32 45.1532 103.874C45.1532 104.469 45.3521 104.929 45.7498 105.251C46.0778 105.514 46.4721 105.645 46.9327 105.645C47.1874 105.645 47.423 105.598 47.6393 105.503C47.8591 105.405 48.0737 105.26 48.2831 105.067V106.055C47.8678 106.385 47.3706 106.549 46.7914 106.549C46.0552 106.549 45.4358 106.309 44.9334 105.829C44.4344 105.349 44.1849 104.718 44.1849 103.937C44.1849 103.117 44.4501 102.451 44.9805 101.939C45.5143 101.424 46.1686 101.167 46.9432 101.167C47.6934 101.167 48.304 101.394 48.7751 101.85C49.3333 102.379 49.6125 103.15 49.6125 104.163V106.444Z" fill="black"/>
<path d="M54.7941 106.444H53.852V104.084H51.4077V106.444H50.4656V101.277H51.4077V103.18H53.852V101.277H54.7941V106.444Z" fill="black"/>
<path d="M60.8602 104.152C60.8113 104.695 60.6334 105.165 60.3263 105.561C60.1239 105.82 59.8692 106.036 59.5622 106.208C59.3703 106.323 59.1522 106.409 58.9079 106.465C58.6672 106.521 58.4247 106.549 58.1804 106.549C57.7652 106.549 57.3657 106.456 56.9818 106.271C56.5317 106.05 56.1741 105.729 55.9089 105.309C55.6437 104.888 55.5111 104.405 55.5111 103.858C55.5111 103.091 55.7658 102.451 56.2753 101.939C56.7882 101.424 57.4232 101.167 58.1804 101.167C58.7108 101.167 59.1958 101.303 59.6354 101.577C60.0751 101.85 60.4188 102.26 60.6665 102.807L57.1964 104.741L56.8091 103.989L59.3476 102.57C59.1766 102.381 58.9864 102.251 58.7771 102.181C58.5712 102.111 58.3653 102.076 58.1595 102.076C57.6605 102.076 57.2558 102.243 56.9452 102.575C56.6347 102.908 56.4794 103.336 56.4794 103.858C56.4794 104.212 56.5492 104.522 56.6887 104.788C56.8318 105.051 57.0185 105.254 57.2488 105.398C57.3779 105.479 57.5209 105.54 57.678 105.582C57.835 105.624 57.9955 105.645 58.1595 105.645C58.3514 105.645 58.5241 105.629 58.6776 105.598C58.8312 105.566 58.983 105.507 59.133 105.419C59.3633 105.286 59.55 105.095 59.693 104.846C59.8361 104.597 59.9076 104.326 59.9076 104.031L60.8602 104.152Z" fill="black"/>
<path d="M65.2986 102.181H63.676V106.444H62.7339V102.181H61.1167V101.277H65.2986V102.181Z" fill="black"/>
<path d="M70.9774 106.444H70.03V104.131C70.03 103.353 69.8276 102.793 69.4229 102.449C69.1298 102.2 68.746 102.076 68.2714 102.076C67.7725 102.076 67.3555 102.237 67.0205 102.56C66.6855 102.882 66.5181 103.32 66.5181 103.874C66.5181 104.469 66.717 104.929 67.1147 105.251C67.4427 105.514 67.837 105.645 68.2976 105.645C68.5523 105.645 68.7878 105.598 69.0042 105.503C69.224 105.405 69.4386 105.26 69.6479 105.067V106.055C69.2327 106.385 68.7355 106.549 68.1563 106.549C67.42 106.549 66.8007 106.309 66.2982 105.829C65.7993 105.349 65.5498 104.718 65.5498 103.937C65.5498 103.117 65.815 102.451 66.3453 101.939C66.8792 101.424 67.5334 101.167 68.3081 101.167C69.0583 101.167 69.6689 101.394 70.1399 101.85C70.6982 102.379 70.9774 103.15 70.9774 104.163V106.444Z" fill="black"/>
<path d="M78.3677 104.993C78.3677 105.295 78.2892 105.559 78.1321 105.787C77.9333 106.074 77.6611 106.265 77.3157 106.36C77.1028 106.416 76.7609 106.444 76.2898 106.444H74.6463V105.54H76.3212C76.6143 105.54 76.8324 105.522 76.9754 105.487C77.1185 105.449 77.2319 105.36 77.3157 105.219C77.375 105.118 77.4046 105.009 77.4046 104.893C77.4046 104.764 77.3819 104.66 77.3366 104.583C77.2528 104.426 77.115 104.328 76.9231 104.289C76.7347 104.247 76.4835 104.226 76.1694 104.226H75.0337V103.322H76.1694H76.3107C76.5375 103.322 76.6946 103.311 76.7818 103.29C76.9388 103.248 77.0574 103.159 77.1377 103.022C77.1796 102.949 77.2005 102.847 77.2005 102.717C77.2005 102.64 77.1865 102.572 77.1586 102.512C77.0854 102.341 76.9563 102.243 76.7713 102.218C76.5864 102.193 76.3962 102.181 76.2008 102.181H74.6463V101.277H76.159C76.644 101.277 76.9702 101.295 77.1377 101.33C77.4936 101.41 77.7675 101.594 77.9594 101.882C78.0955 102.088 78.1635 102.311 78.1635 102.549C78.1635 102.728 78.1287 102.893 78.0589 103.043C77.9926 103.194 77.9245 103.311 77.8547 103.395C77.7536 103.518 77.6245 103.623 77.4674 103.711C77.6035 103.746 77.7256 103.804 77.8338 103.884C77.9978 103.996 78.1269 104.156 78.2211 104.363C78.3188 104.566 78.3677 104.776 78.3677 104.993Z" fill="black"/>
<path d="M84.3972 105.939C84.3972 106.434 84.3535 106.835 84.2663 107.143C84.1512 107.546 83.9401 107.898 83.633 108.2C83.4271 108.399 83.1916 108.557 82.9264 108.673C82.5775 108.823 82.1745 108.899 81.7174 108.899C81.501 108.899 81.2585 108.878 80.9899 108.836C80.7212 108.797 80.3949 108.718 80.0111 108.599L80.2362 107.737C80.5293 107.814 80.791 107.876 81.0213 107.921C81.2551 107.97 81.4679 107.995 81.6598 107.995C82.2181 107.995 82.6438 107.865 82.9369 107.606C83.2788 107.304 83.4498 106.824 83.4498 106.165V104.389C83.4498 103.909 83.4114 103.539 83.3347 103.28C83.1846 102.793 82.895 102.444 82.4658 102.234C82.2355 102.129 81.9895 102.076 81.7279 102.076C81.2184 102.076 80.7927 102.244 80.4508 102.581C80.1088 102.917 79.9378 103.359 79.9378 103.905C79.9378 104.406 80.0844 104.822 80.3775 105.151C80.6706 105.48 81.0701 105.645 81.5761 105.645C82.1623 105.645 82.6595 105.452 83.0677 105.067V106.055C82.6386 106.385 82.1692 106.549 81.6598 106.549C80.962 106.549 80.3618 106.346 79.8593 105.939C79.2662 105.459 78.9696 104.781 78.9696 103.905C78.9696 103.106 79.2382 102.451 79.7756 101.939C80.3164 101.424 80.9672 101.167 81.7279 101.167C82.0907 101.167 82.4292 101.225 82.7432 101.34C83.2143 101.512 83.5859 101.806 83.8581 102.223C84.2175 102.77 84.3972 103.492 84.3972 104.389V105.939Z" fill="black"/>
<path d="M90.4633 103.858C90.4633 104.604 90.2016 105.24 89.6782 105.766C89.1583 106.288 88.5267 106.549 87.7835 106.549C87.0403 106.549 86.407 106.288 85.8836 105.766C85.3637 105.24 85.1037 104.604 85.1037 103.858C85.1037 103.112 85.3637 102.477 85.8836 101.955C86.407 101.43 87.0403 101.167 87.7835 101.167C88.5267 101.167 89.1583 101.43 89.6782 101.955C90.2016 102.477 90.4633 103.112 90.4633 103.858ZM89.5002 103.858C89.5002 103.336 89.3415 102.908 89.0239 102.575C88.7064 102.243 88.2929 102.076 87.7835 102.076C87.2845 102.076 86.8745 102.241 86.5535 102.57C86.2325 102.9 86.072 103.329 86.072 103.858C86.072 104.391 86.229 104.822 86.5431 105.151C86.8571 105.48 87.2706 105.645 87.7835 105.645C88.2999 105.645 88.7151 105.48 89.0292 105.151C89.3432 104.822 89.5002 104.391 89.5002 103.858Z" fill="black"/>
<path d="M96.587 103.937C96.587 104.732 96.3131 105.377 95.7652 105.871C95.2628 106.323 94.6504 106.549 93.9281 106.549C93.6664 106.549 93.41 106.509 93.1587 106.428C92.9075 106.344 92.6859 106.22 92.494 106.055V105.067C92.7139 105.274 92.9302 105.423 93.143 105.514C93.3594 105.601 93.5827 105.645 93.813 105.645C94.3468 105.645 94.7813 105.484 95.1162 105.162C95.4547 104.839 95.6239 104.424 95.6239 103.916C95.6239 103.376 95.4547 102.935 95.1162 102.591C94.7813 102.248 94.3643 102.076 93.8653 102.076C93.3943 102.076 93.0087 102.214 92.7086 102.491C92.3074 102.866 92.1067 103.462 92.1067 104.278V108.788H91.1646V104.205C91.1646 103.115 91.4647 102.307 92.0649 101.782C92.5359 101.372 93.1326 101.167 93.8549 101.167C94.6051 101.167 95.2418 101.416 95.7652 101.913C96.3131 102.435 96.587 103.11 96.587 103.937Z" fill="black"/>
<path d="M102.512 103.858C102.512 104.604 102.25 105.24 101.727 105.766C101.207 106.288 100.575 106.549 99.832 106.549C99.0888 106.549 98.4555 106.288 97.9321 105.766C97.4122 105.24 97.1522 104.604 97.1522 103.858C97.1522 103.112 97.4122 102.477 97.9321 101.955C98.4555 101.43 99.0888 101.167 99.832 101.167C100.575 101.167 101.207 101.43 101.727 101.955C102.25 102.477 102.512 103.112 102.512 103.858ZM101.549 103.858C101.549 103.336 101.39 102.908 101.072 102.575C100.755 102.243 100.341 102.076 99.832 102.076C99.333 102.076 98.923 102.241 98.602 102.57C98.281 102.9 98.1205 103.329 98.1205 103.858C98.1205 104.391 98.2775 104.822 98.5916 105.151C98.9056 105.48 99.3191 105.645 99.832 105.645C100.348 105.645 100.764 105.48 101.078 105.151C101.392 104.822 101.549 104.391 101.549 103.858Z" fill="black"/>
<path d="M107.746 105.035C107.746 105.27 107.688 105.489 107.573 105.692C107.388 106.015 107.125 106.23 106.783 106.339C106.559 106.409 106.219 106.444 105.762 106.444H104.543V105.54H105.731C106.052 105.54 106.28 105.515 106.416 105.466C106.661 105.372 106.783 105.191 106.783 104.925C106.783 104.631 106.647 104.434 106.374 104.336C106.196 104.27 105.91 104.236 105.516 104.236H104.543V103.374H105.343C105.766 103.374 106.055 103.331 106.212 103.243C106.369 103.152 106.448 102.999 106.448 102.786C106.448 102.547 106.357 102.37 106.176 102.255C105.994 102.136 105.76 102.076 105.474 102.076C105.059 102.076 104.734 102.19 104.501 102.418C104.27 102.642 104.155 102.961 104.155 103.374V106.444H103.213V103.169C103.213 102.546 103.428 102.057 103.857 101.703C104.286 101.345 104.808 101.167 105.422 101.167C106.043 101.167 106.53 101.314 106.882 101.608C107.238 101.903 107.416 102.262 107.416 102.686C107.416 102.931 107.351 103.143 107.222 103.322C107.093 103.501 106.922 103.641 106.709 103.742C107.016 103.812 107.266 103.965 107.458 104.2C107.65 104.434 107.746 104.713 107.746 105.035Z" fill="black"/>
<path d="M112.786 104.494C112.786 104.848 112.694 105.195 112.509 105.535C112.324 105.875 112.067 106.13 111.739 106.302C111.575 106.39 111.397 106.453 111.205 106.491C111.017 106.53 110.811 106.549 110.588 106.549C110.274 106.549 109.989 106.504 109.735 106.413C109.183 106.202 108.812 105.833 108.62 105.303C108.512 105.009 108.458 104.611 108.458 104.11V101.277H109.4V104.31C109.4 104.604 109.424 104.82 109.473 104.957C109.553 105.181 109.712 105.358 109.949 105.487C110.141 105.593 110.377 105.645 110.656 105.645C110.799 105.645 110.9 105.64 110.959 105.629C111.022 105.619 111.109 105.593 111.221 105.551C111.385 105.487 111.521 105.391 111.629 105.261C111.772 105.09 111.844 104.885 111.844 104.646C111.844 104.433 111.797 104.245 111.703 104.084C111.612 103.919 111.481 103.79 111.31 103.695C111.139 103.597 110.942 103.548 110.719 103.548C110.534 103.548 110.361 103.578 110.2 103.637C110.04 103.693 109.902 103.786 109.787 103.916V102.922C110.094 102.737 110.436 102.644 110.813 102.644C111.099 102.644 111.366 102.693 111.614 102.791C111.861 102.886 112.067 103.015 112.231 103.18C112.395 103.341 112.528 103.543 112.629 103.784C112.734 104.023 112.786 104.259 112.786 104.494Z" fill="black"/>
<path d="M117.79 106.444H116.847V103.895V103.658C116.847 103.269 116.816 102.982 116.753 102.796C116.652 102.495 116.451 102.286 116.151 102.171C116.057 102.136 115.959 102.111 115.858 102.097C115.761 102.083 115.654 102.076 115.539 102.076C115.291 102.076 115.077 102.125 114.895 102.223C114.756 102.304 114.653 102.407 114.586 102.533C114.524 102.656 114.492 102.779 114.492 102.901C114.492 103.238 114.646 103.471 114.953 103.6C115.138 103.681 115.387 103.721 115.701 103.721H116.46V104.583H115.811C115.417 104.583 115.145 104.636 114.995 104.741C114.845 104.843 114.749 104.962 114.707 105.098C114.668 105.235 114.649 105.407 114.649 105.614V106.444H113.707V105.808C113.707 105.479 113.716 105.24 113.733 105.093C113.751 104.946 113.814 104.794 113.922 104.636C113.988 104.534 114.074 104.448 114.178 104.378C114.286 104.305 114.405 104.243 114.534 104.194C114.227 104.131 113.985 103.977 113.807 103.732C113.632 103.487 113.545 103.213 113.545 102.912C113.545 102.603 113.62 102.32 113.77 102.06C113.958 101.738 114.244 101.498 114.628 101.34C114.907 101.225 115.211 101.167 115.539 101.167C115.891 101.167 116.198 101.212 116.46 101.303C116.725 101.394 116.947 101.519 117.125 101.677C117.404 101.925 117.594 102.237 117.695 102.612C117.758 102.865 117.79 103.21 117.79 103.648V106.444Z" fill="black"/>
<path d="M65.3596 118.328H65.0115C64.6574 118.328 64.3625 118.284 64.127 118.194C63.7659 118.058 63.478 117.81 63.2634 117.451C63.1779 117.307 63.1125 117.147 63.0671 116.972C63.0235 116.797 63.0017 116.621 63.0017 116.444C63.0017 116.081 63.0924 115.757 63.2739 115.472C63.4239 115.233 63.6245 115.037 63.8758 114.883C64.0433 114.776 64.2299 114.695 64.4358 114.641C64.6434 114.587 64.8545 114.56 65.0691 114.56H65.3596V115.035H65.0063C64.6905 115.035 64.4096 115.114 64.1636 115.272C63.956 115.405 63.7973 115.574 63.6874 115.779C63.5792 115.982 63.5251 116.204 63.5251 116.444C63.5251 116.598 63.5434 116.745 63.5801 116.885C63.6184 117.026 63.6795 117.157 63.7632 117.28C63.9168 117.509 64.1113 117.669 64.3468 117.758C64.5143 117.823 64.7141 117.855 64.9461 117.855H65.3596V118.328Z" fill="black"/>
<path d="M68.3141 117.182C68.2897 117.454 68.2007 117.689 68.0472 117.887C67.946 118.016 67.8187 118.124 67.6651 118.21C67.5692 118.268 67.4601 118.311 67.338 118.339C67.2176 118.367 67.0964 118.381 66.9743 118.381C66.7666 118.381 66.5669 118.334 66.375 118.242C66.1499 118.131 65.9711 117.971 65.8385 117.761C65.7059 117.55 65.6396 117.309 65.6396 117.035C65.6396 116.652 65.767 116.332 66.0217 116.076C66.2781 115.818 66.5957 115.69 66.9743 115.69C67.2394 115.69 67.4819 115.758 67.7018 115.895C67.9216 116.031 68.0934 116.236 68.2173 116.51L66.4823 117.477L66.2886 117.101L67.5578 116.391C67.4724 116.297 67.3773 116.232 67.2726 116.197C67.1697 116.162 67.0667 116.144 66.9638 116.144C66.7143 116.144 66.5119 116.228 66.3567 116.394C66.2014 116.56 66.1237 116.774 66.1237 117.035C66.1237 117.212 66.1586 117.367 66.2284 117.5C66.3 117.632 66.3933 117.734 66.5084 117.805C66.573 117.846 66.6445 117.876 66.723 117.897C66.8015 117.918 66.8818 117.929 66.9638 117.929C67.0597 117.929 67.1461 117.921 67.2229 117.905C67.2996 117.889 67.3755 117.86 67.4505 117.816C67.5657 117.749 67.659 117.654 67.7306 117.529C67.8021 117.405 67.8379 117.269 67.8379 117.122L68.3141 117.182Z" fill="black"/>
<path d="M70.5333 116.197H69.7221V118.328H69.251V116.197H68.4424V115.745H70.5333V116.197Z" fill="black"/>
<path d="M72.8964 117.353C72.8964 117.53 72.8502 117.704 72.7577 117.874C72.6653 118.044 72.537 118.172 72.3731 118.257C72.2911 118.301 72.2021 118.333 72.1061 118.352C72.0119 118.371 71.909 118.381 71.7973 118.381C71.6403 118.381 71.4981 118.358 71.3708 118.313C71.0951 118.207 70.9093 118.023 70.8133 117.758C70.7593 117.611 70.7322 117.412 70.7322 117.161V115.745H71.2033V117.261C71.2033 117.409 71.2155 117.516 71.2399 117.585C71.28 117.697 71.3594 117.785 71.4781 117.85C71.574 117.903 71.6918 117.929 71.8313 117.929C71.9029 117.929 71.9535 117.926 71.9831 117.921C72.0145 117.916 72.0581 117.903 72.114 117.882C72.196 117.85 72.264 117.802 72.3181 117.737C72.3896 117.651 72.4254 117.549 72.4254 117.43C72.4254 117.323 72.4018 117.229 72.3547 117.148C72.3094 117.066 72.2439 117.001 72.1585 116.954C72.073 116.905 71.9744 116.88 71.8627 116.88C71.7703 116.88 71.6839 116.895 71.6037 116.925C71.5234 116.953 71.4545 116.999 71.3969 117.064V116.567C71.5505 116.475 71.7214 116.428 71.9099 116.428C72.0529 116.428 72.1864 116.453 72.3102 116.502C72.4341 116.549 72.537 116.614 72.619 116.696C72.701 116.777 72.7673 116.878 72.8179 116.999C72.8703 117.118 72.8964 117.236 72.8964 117.353Z" fill="black"/>
<path d="M77.429 118.328H76.9554V117.172C76.9554 116.783 76.8542 116.503 76.6518 116.331C76.5052 116.207 76.3133 116.144 76.0761 116.144C75.8266 116.144 75.6181 116.225 75.4506 116.386C75.2831 116.547 75.1994 116.766 75.1994 117.043C75.1994 117.341 75.2988 117.571 75.4977 117.732C75.6617 117.863 75.8588 117.929 76.0891 117.929C76.2165 117.929 76.3343 117.905 76.4424 117.858C76.5523 117.809 76.6596 117.736 76.7643 117.64V118.134C76.5567 118.299 76.3081 118.381 76.0185 118.381C75.6504 118.381 75.3407 118.261 75.0895 118.021C74.84 117.781 74.7152 117.465 74.7152 117.075C74.7152 116.665 74.8478 116.332 75.113 116.076C75.3799 115.818 75.7071 115.69 76.0944 115.69C76.4695 115.69 76.7748 115.804 77.0103 116.031C77.2895 116.296 77.429 116.681 77.429 117.188V118.328Z" fill="black"/>
<path d="M79.9884 118.328H79.5174V116.875C79.5174 116.745 79.5121 116.654 79.5017 116.602C79.4755 116.479 79.4231 116.384 79.3446 116.315C79.2923 116.268 79.2216 116.236 79.1327 116.221C79.0454 116.205 78.9591 116.197 78.8736 116.197H78.8212H78.3266V118.328H77.8556V115.745H78.782C78.9791 115.745 79.1414 115.755 79.2687 115.774C79.3979 115.793 79.52 115.843 79.6351 115.924C79.7852 116.027 79.8855 116.165 79.9361 116.336C79.971 116.459 79.9884 116.637 79.9884 116.87V118.328Z" fill="black"/>
<path d="M82.273 116.197H81.4618V118.328H80.9907V116.197H80.1821V115.745H82.273V116.197Z" fill="black"/>
<path d="M85.0732 117.182C85.0487 117.454 84.9598 117.689 84.8062 117.887C84.7051 118.016 84.5777 118.124 84.4242 118.21C84.3282 118.268 84.2192 118.311 84.097 118.339C83.9767 118.367 83.8554 118.381 83.7333 118.381C83.5257 118.381 83.3259 118.334 83.134 118.242C82.9089 118.131 82.7301 117.971 82.5975 117.761C82.4649 117.55 82.3986 117.309 82.3986 117.035C82.3986 116.652 82.526 116.332 82.7807 116.076C83.0372 115.818 83.3547 115.69 83.7333 115.69C83.9985 115.69 84.241 115.758 84.4608 115.895C84.6806 116.031 84.8525 116.236 84.9763 116.51L83.2413 117.477L83.0476 117.101L84.3169 116.391C84.2314 116.297 84.1363 116.232 84.0316 116.197C83.9287 116.162 83.8258 116.144 83.7228 116.144C83.4733 116.144 83.271 116.228 83.1157 116.394C82.9604 116.56 82.8828 116.774 82.8828 117.035C82.8828 117.212 82.9177 117.367 82.9875 117.5C83.059 117.632 83.1523 117.734 83.2675 117.805C83.332 117.846 83.4036 117.876 83.4821 117.897C83.5606 117.918 83.6408 117.929 83.7228 117.929C83.8188 117.929 83.9051 117.921 83.9819 117.905C84.0587 117.889 84.1346 117.86 84.2096 117.816C84.3247 117.749 84.4181 117.654 84.4896 117.529C84.5611 117.405 84.5969 117.269 84.5969 117.122L85.0732 117.182Z" fill="black"/>
<path d="M87.5043 115.745L87.2243 116.278C87.1633 116.392 87.1039 116.507 87.0464 116.623C86.9766 116.74 86.8841 116.843 86.769 116.93C86.8789 116.944 86.9783 116.978 87.0673 117.033C87.158 117.085 87.2287 117.147 87.2793 117.219C87.3456 117.309 87.3874 117.41 87.4049 117.524C87.4241 117.636 87.4337 117.776 87.4337 117.942V118.328H86.9626V117.934C86.9626 117.734 86.9356 117.582 86.8815 117.477C86.796 117.309 86.6355 117.225 86.4 117.225H85.8949V118.328H85.4238V115.745H85.8949V116.772H86.1958C86.3773 116.772 86.5596 116.596 86.7428 116.244L86.9993 115.745H87.5043Z" fill="black"/>
</g>
</g>
<defs>
<linearGradient id="paint0_linear_276_1350" x1="55.1753" y1="72.1669" x2="90.3947" y2="72.1669" gradientUnits="userSpaceOnUse">
<stop stop-color="#4FBFA5"/>
<stop offset="0.02" stop-color="#3EBAA2"/>
<stop offset="0.04" stop-color="#27B49D"/>
<stop offset="0.08" stop-color="#16AF99"/>
<stop offset="0.12" stop-color="#09AC97"/>
<stop offset="0.17" stop-color="#02AA95"/>
<stop offset="0.3" stop-color="#00A995"/>
<stop offset="1" stop-color="#007570"/>
</linearGradient>
<linearGradient id="paint1_linear_276_1350" x1="73.4371" y1="89.773" x2="73.4371" y2="54.5536" gradientUnits="userSpaceOnUse">
<stop stop-color="#007570"/>
<stop offset="0.7" stop-color="#00A995"/>
<stop offset="0.83" stop-color="#02AA95"/>
<stop offset="0.88" stop-color="#09AC97"/>
<stop offset="0.92" stop-color="#16AF99"/>
<stop offset="0.96" stop-color="#27B49D"/>
<stop offset="0.98" stop-color="#3EBAA2"/>
<stop offset="1" stop-color="#4FBFA5"/>
</linearGradient>
<linearGradient id="paint2_linear_276_1350" x1="32.9996" y1="59.7729" x2="116.493" y2="59.7729" gradientUnits="userSpaceOnUse">
<stop stop-color="#00386C"/>
<stop offset="0.7" stop-color="#007DB0"/>
<stop offset="0.86" stop-color="#007EB2"/>
<stop offset="0.92" stop-color="#0081B9"/>
<stop offset="0.97" stop-color="#0087C5"/>
<stop offset="1" stop-color="#008FD5"/>
</linearGradient>
<clipPath id="clip0_276_1350">
<rect width="150" height="150" fill="white" transform="translate(0 0.380859)"/>
</clipPath>
<clipPath id="clip1_276_1350">
<rect width="150" height="150" fill="white" transform="translate(0 0.380859)"/>
</clipPath>
</defs>
</svg>
