<svg width="150" height="151" viewBox="0 0 150 151" fill="none" xmlns="http://www.w3.org/2000/svg">
<g clip-path="url(#clip0_276_2499)">
<circle cx="75" cy="75.3809" r="75" fill="#F8F7F7"/>
<path d="M125.144 108.609H74.5722H24L27.8208 102.288L24 95.9662H74.5722H125.144L121.324 102.288L125.144 108.609Z" fill="#C7E58D"/>
<path d="M113.253 56.238H35.8911C33.538 56.238 31.6304 58.1456 31.6304 60.4988V82.0755C31.6304 84.4286 33.538 86.3363 35.8911 86.3363H113.253C115.606 86.3363 117.514 84.4286 117.514 82.0755V60.4988C117.514 58.1456 115.606 56.238 113.253 56.238Z" fill="#C1EAE2"/>
<path d="M53.1791 39.8355L37.25 87.6228C37.1479 87.9303 37.1201 88.2576 37.1689 88.5779C37.2178 88.8982 37.3419 89.2024 37.531 89.4654C37.7202 89.7285 37.969 89.943 38.257 90.0913C38.5451 90.2396 38.8642 90.3174 39.1882 90.3185H71.0465C71.3728 90.3219 71.6952 90.2472 71.9869 90.1008C72.2786 89.9544 72.5311 89.7405 72.7234 89.4768C72.9157 89.2131 73.0423 88.9073 73.0926 88.5848C73.1429 88.2624 73.1154 87.9326 73.0125 87.6228L57.0834 39.8355C56.9541 39.4189 56.6948 39.0545 56.3436 38.7958C55.9923 38.537 55.5675 38.3975 55.1313 38.3975C54.695 38.3975 54.2702 38.537 53.9189 38.7958C53.5677 39.0545 53.3085 39.4189 53.1791 39.8355Z" fill="#C7E58D"/>
<g style="mix-blend-mode:multiply" opacity="0.3">
<path d="M55.8751 38.9054C55.5995 38.8014 55.3056 38.7543 55.0113 38.7671C54.717 38.7798 54.4283 38.8522 54.1628 38.9798C53.8972 39.1073 53.6603 39.2875 53.4664 39.5092C53.2725 39.731 53.1256 39.9898 53.0346 40.27L37.3171 87.4224C37.2132 87.7527 37.1876 88.1027 37.2426 88.4446C37.2975 88.7865 37.4314 89.1109 37.6336 89.392C37.8358 89.6731 38.1007 89.9032 38.4073 90.0641C38.714 90.2249 39.0539 90.312 39.4001 90.3186H60.3586C37.9632 82.471 47.5095 55.7869 55.8751 38.9054Z" fill="#89AE4E"/>
</g>
<path d="M64.4021 82.716L62.1074 82.0254C61.9275 83.1979 61.4031 84.2904 60.6008 85.1641C59.7985 86.0378 58.7545 86.6533 57.6016 86.9322V80.4715H52.834V84.192C48.6791 83.4846 48.189 80.1874 48.1667 80.0315L45.833 80.4492C46.0614 82.6214 47.8492 86.4978 52.834 87.1996V95.9662H57.6016V89.9844C59.3394 89.6074 60.9212 88.7099 62.1361 87.4114C63.351 86.1129 64.1414 84.4751 64.4021 82.716Z" fill="#7E4B3A"/>
<path d="M100.638 69.0872C100.638 81.0229 89.6882 90.6973 76.1874 90.6973C62.6867 90.6973 51.7368 81.0229 51.7368 69.0872C51.7368 57.1515 62.6811 43.8903 76.1874 43.8903C89.6938 43.8903 100.638 57.1571 100.638 69.0872Z" fill="#B0D14A"/>
<g style="mix-blend-mode:multiply" opacity="0.3">
<path d="M61.4001 79.948C52.11 65.4948 61.9571 51.0417 75.6026 43.8903C62.3692 44.2634 51.7368 57.3297 51.7368 69.0872C51.7368 80.6108 61.9404 90.0234 74.8006 90.6584C69.2978 88.6644 64.4745 85.1778 61.4001 79.948Z" fill="#89AE4E"/>
</g>
<path d="M87.9725 82.716L85.0596 82.0254C84.3077 85.1945 81.5563 86.4421 79.3451 86.9322V80.4715H73.2854V84.192C68.0165 83.4846 67.3927 80.1874 67.3649 80.0315L64.4019 80.4492C64.6915 82.6214 66.9583 86.4978 73.2854 87.1996V95.9662H79.3451V89.9844C82.7649 89.3439 86.8586 87.3834 87.9725 82.716Z" fill="#C7735B"/>
<path d="M104.175 31.3809H91.476C89.8273 31.3809 88.4907 32.7174 88.4907 34.3662V87.712C88.4907 89.3607 89.8273 90.6973 91.476 90.6973H104.175C105.824 90.6973 107.16 89.3607 107.16 87.712V34.3662C107.16 32.7174 105.824 31.3809 104.175 31.3809Z" fill="#89AE4E"/>
<g style="mix-blend-mode:multiply" opacity="0.3">
<path d="M94.9069 79.9479C87.1095 65.4669 89.1647 47.3323 92.8684 31.3809H91.6933C91.2725 31.3801 90.8557 31.4625 90.4668 31.6231C90.078 31.7838 89.7246 32.0197 89.4271 32.3172C89.1296 32.6148 88.8937 32.9681 88.733 33.357C88.5723 33.7459 88.49 34.1626 88.4907 34.5834V87.4948C88.49 87.9158 88.5723 88.3329 88.7329 88.7221C88.8935 89.1112 89.1293 89.465 89.4268 89.7629C89.7242 90.0609 90.0775 90.2973 90.4664 90.4586C90.8553 90.6199 91.2722 90.7029 91.6933 90.7029H103.946C104.675 90.7013 105.381 90.4517 105.949 89.9951C106.517 89.5386 106.913 88.9023 107.071 88.191C101.824 86.9713 97.1181 84.3702 94.9069 79.9479Z" fill="#89AE4E"/>
</g>
<path d="M91.5762 82.716L93.0633 82.0254C93.4476 85.1945 94.8511 86.4421 95.9817 86.9322V80.4715H99.0729V84.192C101.757 83.4846 102.08 80.1874 102.092 80.0315L103.601 80.4492C103.456 82.6214 102.298 86.4978 99.0729 87.1996V95.9662H95.9817V89.9844C94.2329 89.3439 92.1443 87.3834 91.5762 82.716Z" fill="#7E4B3A"/>
<path d="M49.7745 119.362V118.804H50.0949C50.2184 118.804 50.3219 118.78 50.4053 118.734C50.4905 118.687 50.5606 118.627 50.6156 118.553C50.6724 118.48 50.7191 118.403 50.7558 118.322L50.8359 118.14L49.0635 114.368H49.7344L51.1464 117.428L52.4382 114.368H53.0991L51.3266 118.496C51.2565 118.65 51.1764 118.792 51.0863 118.924C50.9978 119.055 50.8768 119.161 50.7233 119.241C50.5714 119.321 50.3653 119.362 50.1049 119.362H49.7745Z" fill="#89AE4E"/>
<path d="M58.3795 117.187V117.716H56.2566V117.187H58.3795ZM56.3968 115.6V119.294H55.806V115.6H56.3968ZM58.8302 115.6V119.294H58.2393V115.6H58.8302Z" fill="#89AE4E"/>
<path d="M61.0407 119.381C60.7971 119.381 60.5759 119.337 60.3773 119.249C60.1787 119.159 60.021 119.03 59.9041 118.861C59.7873 118.691 59.7289 118.486 59.7289 118.246C59.7289 118.034 59.7723 117.862 59.8591 117.731C59.9459 117.598 60.0619 117.493 60.2071 117.418C60.3523 117.343 60.5125 117.287 60.6877 117.25C60.8646 117.211 61.0424 117.181 61.221 117.158C61.4546 117.129 61.6441 117.108 61.7893 117.093C61.9361 117.077 62.043 117.051 62.1097 117.014C62.1781 116.977 62.2124 116.913 62.2124 116.822V116.802C62.2124 116.565 62.1448 116.381 62.0096 116.249C61.8761 116.118 61.6733 116.052 61.4012 116.052C61.1192 116.052 60.898 116.111 60.7378 116.23C60.5776 116.349 60.4649 116.475 60.3998 116.61L59.8391 116.417C59.9392 116.193 60.0727 116.018 60.2396 115.893C60.4082 115.766 60.5918 115.678 60.7904 115.629C60.9907 115.577 61.1876 115.552 61.3812 115.552C61.5047 115.552 61.6466 115.566 61.8068 115.595C61.9687 115.622 62.1247 115.679 62.2749 115.766C62.4268 115.852 62.5528 115.983 62.653 116.158C62.7531 116.332 62.8032 116.567 62.8032 116.86V119.294H62.2124V118.794H62.1823C62.1423 118.874 62.0755 118.96 61.982 119.051C61.8886 119.143 61.7642 119.22 61.609 119.285C61.4538 119.349 61.2644 119.381 61.0407 119.381ZM61.1309 118.871C61.3645 118.871 61.5615 118.827 61.7217 118.739C61.8836 118.65 62.0054 118.537 62.0872 118.397C62.1706 118.258 62.2124 118.111 62.2124 117.957V117.437C62.1873 117.466 62.1322 117.493 62.0471 117.517C61.9637 117.539 61.8669 117.559 61.7567 117.577C61.6482 117.593 61.5423 117.607 61.4388 117.62C61.337 117.631 61.2544 117.641 61.1909 117.649C61.0374 117.668 60.8939 117.7 60.7603 117.743C60.6285 117.785 60.5217 117.848 60.4399 117.933C60.3598 118.016 60.3197 118.13 60.3197 118.274C60.3197 118.472 60.3957 118.621 60.5475 118.722C60.7011 118.821 60.8955 118.871 61.1309 118.871Z" fill="#89AE4E"/>
<path d="M65.4437 119.371C65.0832 119.371 64.7728 119.289 64.5124 119.126C64.2521 118.962 64.0518 118.737 63.9116 118.45C63.7714 118.163 63.7013 117.835 63.7013 117.466C63.7013 117.091 63.7731 116.76 63.9166 116.473C64.0618 116.184 64.2637 115.959 64.5224 115.797C64.7828 115.633 65.0866 115.552 65.4337 115.552C65.7041 115.552 65.9477 115.6 66.1647 115.696C66.3817 115.792 66.5594 115.927 66.698 116.1C66.8365 116.273 66.9224 116.475 66.9558 116.706H66.365C66.3199 116.538 66.2198 116.389 66.0646 116.259C65.911 116.127 65.7041 116.061 65.4437 116.061C65.2134 116.061 65.0114 116.119 64.8379 116.235C64.666 116.349 64.5316 116.51 64.4348 116.718C64.3397 116.925 64.2921 117.168 64.2921 117.447C64.2921 117.732 64.3388 117.981 64.4323 118.193C64.5274 118.404 64.661 118.569 64.8329 118.686C65.0064 118.803 65.2101 118.861 65.4437 118.861C65.5973 118.861 65.7366 118.836 65.8618 118.784C65.987 118.733 66.0929 118.659 66.1797 118.563C66.2665 118.467 66.3283 118.351 66.365 118.217H66.9558C66.9224 118.435 66.8398 118.631 66.708 118.806C66.5778 118.979 66.405 119.117 66.1897 119.22C65.9761 119.321 65.7274 119.371 65.4437 119.371Z" fill="#89AE4E"/>
<path d="M71.4145 119.371C71.044 119.371 70.7244 119.293 70.4557 119.135C70.1886 118.977 69.9825 118.755 69.8373 118.472C69.6938 118.186 69.622 117.854 69.622 117.476C69.622 117.097 69.6938 116.764 69.8373 116.475C69.9825 116.185 70.1845 115.959 70.4432 115.797C70.7035 115.633 71.0073 115.552 71.3544 115.552C71.5547 115.552 71.7525 115.584 71.9477 115.648C72.143 115.712 72.3208 115.816 72.481 115.96C72.6412 116.103 72.7689 116.292 72.864 116.528C72.9591 116.764 73.0067 117.054 73.0067 117.399V117.639H70.0426V117.149H72.4059C72.4059 116.94 72.3625 116.754 72.2757 116.591C72.1906 116.427 72.0687 116.298 71.9102 116.203C71.7533 116.109 71.568 116.061 71.3544 116.061C71.1191 116.061 70.9155 116.118 70.7436 116.23C70.5733 116.341 70.4423 116.485 70.3505 116.663C70.2587 116.841 70.2128 117.032 70.2128 117.235V117.562C70.2128 117.841 70.2629 118.078 70.363 118.272C70.4648 118.464 70.6059 118.611 70.7861 118.712C70.9664 118.812 71.1758 118.861 71.4145 118.861C71.5697 118.861 71.7099 118.84 71.8351 118.799C71.9619 118.755 72.0712 118.691 72.163 118.606C72.2548 118.52 72.3258 118.412 72.3758 118.284L72.9466 118.438C72.8865 118.624 72.7856 118.788 72.6437 118.929C72.5018 119.068 72.3266 119.177 72.118 119.256C71.9094 119.333 71.6749 119.371 71.4145 119.371Z" fill="#89AE4E"/>
<path d="M75.4676 119.371C75.1071 119.371 74.7967 119.289 74.5363 119.126C74.276 118.962 74.0757 118.737 73.9355 118.45C73.7953 118.163 73.7252 117.835 73.7252 117.466C73.7252 117.091 73.797 116.76 73.9405 116.473C74.0857 116.184 74.2877 115.959 74.5463 115.797C74.8067 115.633 75.1105 115.552 75.4576 115.552C75.728 115.552 75.9717 115.6 76.1886 115.696C76.4056 115.792 76.5833 115.927 76.7219 116.1C76.8604 116.273 76.9463 116.475 76.9797 116.706H76.3889C76.3438 116.538 76.2437 116.389 76.0885 116.259C75.9349 116.127 75.728 116.061 75.4676 116.061C75.2373 116.061 75.0354 116.119 74.8618 116.235C74.6899 116.349 74.5555 116.51 74.4587 116.718C74.3636 116.925 74.316 117.168 74.316 117.447C74.316 117.732 74.3628 117.981 74.4562 118.193C74.5514 118.404 74.6849 118.569 74.8568 118.686C75.0304 118.803 75.234 118.861 75.4676 118.861C75.6212 118.861 75.7605 118.836 75.8857 118.784C76.0109 118.733 76.1169 118.659 76.2036 118.563C76.2904 118.467 76.3522 118.351 76.3889 118.217H76.9797C76.9463 118.435 76.8637 118.631 76.7319 118.806C76.6017 118.979 76.429 119.117 76.2137 119.22C76 119.321 75.7514 119.371 75.4676 119.371Z" fill="#89AE4E"/>
<path d="M77.5405 116.129V115.6H80.6648V116.129H79.4031V119.294H78.8123V116.129H77.5405Z" fill="#89AE4E"/>
<path d="M82.0374 116.937H83.1389C83.5895 116.937 83.9342 117.047 84.1728 117.267C84.4115 117.486 84.5308 117.764 84.5308 118.101C84.5308 118.322 84.4774 118.524 84.3706 118.705C84.2638 118.885 84.1069 119.028 83.9 119.135C83.693 119.241 83.4393 119.294 83.1389 119.294H81.5267V115.6H82.1175V118.765H83.1389C83.3726 118.765 83.5645 118.706 83.7147 118.587C83.8649 118.468 83.94 118.316 83.94 118.13C83.94 117.934 83.8649 117.775 83.7147 117.651C83.5645 117.528 83.3726 117.466 83.1389 117.466H82.0374V116.937Z" fill="#89AE4E"/>
<path d="M87.413 119.294V115.6H88.9851C89.399 115.6 89.7278 115.689 89.9715 115.869C90.2152 116.049 90.337 116.286 90.337 116.581C90.337 116.806 90.2678 116.98 90.1292 117.103C89.9907 117.225 89.813 117.307 89.596 117.351C89.7379 117.37 89.8755 117.418 90.0091 117.495C90.1442 117.572 90.2561 117.678 90.3445 117.813C90.433 117.946 90.4772 118.109 90.4772 118.303C90.4772 118.492 90.4271 118.662 90.327 118.811C90.2269 118.96 90.0833 119.078 89.8964 119.164C89.7095 119.251 89.4858 119.294 89.2255 119.294H87.413ZM87.9737 118.775H89.2255C89.4291 118.775 89.5885 118.728 89.7036 118.635C89.8188 118.542 89.8764 118.415 89.8764 118.255C89.8764 118.064 89.8188 117.914 89.7036 117.805C89.5885 117.695 89.4291 117.639 89.2255 117.639H87.9737V118.775ZM87.9737 117.149H88.9851C89.1437 117.149 89.2797 117.128 89.3932 117.086C89.5067 117.043 89.5935 116.982 89.6536 116.903C89.7153 116.823 89.7462 116.729 89.7462 116.62C89.7462 116.464 89.6786 116.342 89.5434 116.254C89.4082 116.164 89.2221 116.119 88.9851 116.119H87.9737V117.149Z" fill="#89AE4E"/>
<path d="M92.9337 119.371C92.5732 119.371 92.2628 119.289 92.0025 119.126C91.7421 118.962 91.5418 118.737 91.4016 118.45C91.2614 118.163 91.1913 117.835 91.1913 117.466C91.1913 117.091 91.2631 116.76 91.4066 116.473C91.5518 116.184 91.7538 115.959 92.0125 115.797C92.2728 115.633 92.5766 115.552 92.9237 115.552C93.1941 115.552 93.4378 115.6 93.6547 115.696C93.8717 115.792 94.0495 115.927 94.188 116.1C94.3265 116.273 94.4125 116.475 94.4458 116.706H93.855C93.81 116.538 93.7098 116.389 93.5546 116.259C93.4011 116.127 93.1941 116.061 92.9337 116.061C92.7034 116.061 92.5015 116.119 92.3279 116.235C92.156 116.349 92.0216 116.51 91.9248 116.718C91.8297 116.925 91.7821 117.168 91.7821 117.447C91.7821 117.732 91.8289 117.981 91.9223 118.193C92.0175 118.404 92.151 118.569 92.3229 118.686C92.4965 118.803 92.7001 118.861 92.9337 118.861C93.0873 118.861 93.2267 118.836 93.3518 118.784C93.477 118.733 93.583 118.659 93.6698 118.563C93.7566 118.467 93.8183 118.351 93.855 118.217H94.4458C94.4125 118.435 94.3299 118.631 94.198 118.806C94.0678 118.979 93.8951 119.117 93.6798 119.22C93.4662 119.321 93.2175 119.371 92.9337 119.371Z" fill="#89AE4E"/>
<path d="M96.9218 119.371C96.5513 119.371 96.2317 119.293 95.963 119.135C95.6959 118.977 95.4898 118.755 95.3446 118.472C95.2011 118.186 95.1293 117.854 95.1293 117.476C95.1293 117.097 95.2011 116.764 95.3446 116.475C95.4898 116.185 95.6917 115.959 95.9504 115.797C96.2108 115.633 96.5145 115.552 96.8617 115.552C97.062 115.552 97.2597 115.584 97.455 115.648C97.6503 115.712 97.828 115.816 97.9883 115.96C98.1485 116.103 98.2762 116.292 98.3713 116.528C98.4664 116.764 98.514 117.054 98.514 117.399V117.639H95.5499V117.149H97.9132C97.9132 116.94 97.8698 116.754 97.783 116.591C97.6979 116.427 97.576 116.298 97.4175 116.203C97.2606 116.109 97.0753 116.061 96.8617 116.061C96.6264 116.061 96.4228 116.118 96.2508 116.23C96.0806 116.341 95.9496 116.485 95.8578 116.663C95.766 116.841 95.7201 117.032 95.7201 117.235V117.562C95.7201 117.841 95.7702 118.078 95.8703 118.272C95.9721 118.464 96.1132 118.611 96.2934 118.712C96.4737 118.812 96.6831 118.861 96.9218 118.861C97.077 118.861 97.2172 118.84 97.3424 118.799C97.4692 118.755 97.5785 118.691 97.6703 118.606C97.7621 118.52 97.833 118.412 97.8831 118.284L98.4539 118.438C98.3938 118.624 98.2929 118.788 98.151 118.929C98.0091 119.068 97.8339 119.177 97.6253 119.256C97.4166 119.333 97.1821 119.371 96.9218 119.371Z" fill="#89AE4E"/>
<path d="M100.194 114.368L100.144 117.909H99.563L99.5129 114.368H100.194ZM99.8534 119.333C99.7299 119.333 99.6239 119.29 99.5354 119.205C99.447 119.12 99.4027 119.018 99.4027 118.9C99.4027 118.781 99.447 118.679 99.5354 118.594C99.6239 118.509 99.7299 118.467 99.8534 118.467C99.9769 118.467 100.083 118.509 100.171 118.594C100.26 118.679 100.304 118.781 100.304 118.9C100.304 118.978 100.283 119.05 100.241 119.116C100.201 119.182 100.147 119.235 100.079 119.275C100.012 119.313 99.9368 119.333 99.8534 119.333Z" fill="#89AE4E"/>
<path d="M38.752 97.3728H40.6957L42.8569 101.67L44.6855 97.3728H46.5014L42.5499 105.902H40.7341L41.9233 103.524L38.752 97.3728Z" fill="#8A5214"/>
<path d="M47.0728 100.365H51.6765V104.572H52.4949V107.514H51.0882V105.902H47.2775V107.514H45.8708V104.572C46.3567 104.547 46.6892 104.202 46.8555 103.869C47.0089 103.537 47.0728 103.102 47.0728 102.45V100.365ZM50.1164 104.572V101.695H48.4795V102.923C48.4795 103.639 48.3261 104.176 47.8657 104.572H50.1164Z" fill="#8A5214"/>
<path d="M57.588 101.081V100.365H59.1481V105.902H57.588V105.186C57.0253 105.992 56.2836 106.081 55.8872 106.081C54.1864 106.081 53.0611 104.751 53.0611 103.127C53.0611 101.491 54.1736 100.186 55.8104 100.186C56.2324 100.186 57.0637 100.263 57.588 101.081ZM56.2069 101.567C55.3117 101.567 54.6723 102.245 54.6723 103.127C54.6723 104.01 55.3117 104.7 56.2069 104.7C57.102 104.7 57.7414 104.01 57.7414 103.127C57.7414 102.245 57.102 101.567 56.2069 101.567Z" fill="#8A5214"/>
<path d="M63.7813 105.902V104.01C63.3848 104.086 62.9373 104.138 62.4769 104.138C62.0549 104.138 61.4155 104.086 60.9296 103.626C60.482 103.204 60.4309 102.731 60.4309 102.322V100.365H61.991V102.002C61.991 102.194 61.991 102.424 62.1828 102.603C62.4002 102.808 62.771 102.808 62.9756 102.808C63.257 102.808 63.4999 102.782 63.7813 102.731V100.365H65.3414V105.902H63.7813Z" fill="#8A5214"/>
<path d="M66.8296 105.902V100.365H68.3897V102.322H70.5636V100.365H72.1237V105.902H70.5636V103.652H68.3897V105.902H66.8296Z" fill="#8A5214"/>
<path d="M73.6106 100.365H75.1707V103.78L77.7283 100.365H79.2884V105.902H77.7283V102.488L75.1707 105.902H73.6106V100.365Z" fill="#8A5214"/>
<path d="M80.7663 100.365H82.3264V102.514L84.3981 100.365H86.3418L83.8354 102.833L86.4697 105.902H84.4748L82.5566 103.613L82.3264 103.843V105.902H80.7663V100.365Z" fill="#8A5214"/>
<path d="M87.0324 105.071C87.0324 104.508 87.4672 104.074 88.0298 104.074C88.5925 104.074 89.0273 104.508 89.0273 105.071C89.0273 105.634 88.5925 106.069 88.0298 106.069C87.4672 106.069 87.0324 105.634 87.0324 105.071Z" fill="#8A5214"/>
<path d="M94.8068 96.6951H96.239C96.0088 98.0634 95.0498 98.4982 94.4231 98.69C93.3362 99.0225 92.684 98.9841 92.1213 99.6874C91.8656 100.007 91.6865 100.455 91.6482 100.941H91.6738C92.0958 100.404 92.927 100.186 93.6175 100.186C94.4487 100.186 95.1521 100.442 95.6891 100.966C95.996 101.26 96.5459 101.938 96.5459 103.115C96.5459 104.189 96.06 104.892 95.6124 105.301C94.9986 105.864 94.2953 106.081 93.4129 106.081C92.8119 106.081 91.9167 106.005 91.2006 105.352C90.2799 104.521 90.2032 103.345 90.2032 102.552C90.2032 100.429 90.6379 99.3805 91.0472 98.8179C91.7633 97.8332 92.7991 97.6158 93.5408 97.4623C94.3592 97.2961 94.6789 97.0915 94.8068 96.6951ZM93.3745 104.7C94.2953 104.7 94.9347 104.01 94.9347 103.14C94.9347 102.258 94.3081 101.567 93.3745 101.567C92.441 101.567 91.8144 102.258 91.8144 103.14C91.8144 104.01 92.4538 104.7 93.3745 104.7Z" fill="#8A5214"/>
<path d="M101.753 104.125L103.185 104.355C103.019 104.764 102.392 106.081 100.461 106.081C99.5661 106.081 98.8883 105.826 98.3384 105.301C97.7246 104.726 97.4688 104.01 97.4688 103.14C97.4688 102.04 97.9164 101.363 98.3128 100.966C98.965 100.327 99.7323 100.186 100.397 100.186C101.523 100.186 102.175 100.634 102.558 101.094C103.147 101.797 103.223 102.667 103.223 103.268V103.396H99.0801C99.0801 103.728 99.1696 104.086 99.3487 104.329C99.5149 104.56 99.8602 104.854 100.461 104.854C101.049 104.854 101.497 104.572 101.753 104.125ZM99.1313 102.398H101.753C101.625 101.644 101.011 101.286 100.436 101.286C99.8602 101.286 99.2592 101.657 99.1313 102.398Z" fill="#8A5214"/>
<path d="M109.342 100.365V105.902H107.782V101.695H106.273V103.728C106.273 104.176 106.209 104.867 105.748 105.365C105.633 105.493 105.16 105.953 104.252 105.953C104.099 105.953 103.945 105.941 103.792 105.902V104.572C103.869 104.585 103.958 104.598 104.035 104.598C104.38 104.598 104.572 104.457 104.674 104.329C104.841 104.125 104.866 103.843 104.866 103.626V100.365H109.342Z" fill="#8A5214"/>
</g>
<defs>
<clipPath id="clip0_276_2499">
<rect width="150" height="150" fill="white" transform="translate(0 0.380859)"/>
</clipPath>
</defs>
</svg>
