<svg width="366" height="366" viewBox="0 0 366 366" fill="none" xmlns="http://www.w3.org/2000/svg">
<path d="M183.949 27.4609C110.028 81.4509 28.9306 106.117 28.9306 106.117L28.9137 106.101C28.7973 106.096 28.3912 109.319 41.3433 203.56C55.255 304.779 174.829 338.681 174.829 338.681C174.829 338.681 296.192 311.381 316.01 211.09C334.466 117.715 334.25 114.471 334.129 114.47L334.113 114.486C334.113 114.486 254.593 85.4163 183.949 27.4609ZM182.902 63.2132C228.515 97.1262 274.408 119.76 300.763 131.382C298.268 144.847 293.917 167.598 286.333 205.965C279.781 239.118 258.546 266.705 223.211 287.957C204.208 299.386 185.792 306.022 175.636 309.172C151.597 300.304 80.686 268.559 71.2756 200.071C65.95 161.349 62.9417 138.395 61.2381 124.816C88.2308 114.653 135.376 94.5737 182.902 63.2132Z" fill="#C7BCBC"/>
<path d="M67.3369 222.013C53.7878 186.792 48.7968 132.363 46.9745 99.5924C35.7499 103.715 29.1017 105.724 29.1017 105.724L29.0847 105.708C28.9676 105.702 28.5585 108.923 41.5768 203.084C55.5595 304.217 175.861 338.075 175.861 338.075C175.861 338.075 185.295 335.963 199.335 330.772C123.036 308.556 85.0548 268.076 67.3369 222.013Z" fill="#696060"/>
<path d="M70.3327 111.692C70.3327 111.692 137.16 83.8429 162.836 68.0093C179.412 58.0085 184.843 53.6942 184.843 53.6942C184.843 53.6942 255.901 109.455 315.291 129.205C307.255 173.633 297.983 211.752 297.983 211.752C297.983 211.752 286.405 258.792 252.03 280.13C217.659 301.466 207.235 304.113 197.866 307.499C188.496 310.888 182.952 314.923 186.616 317.811C190.279 320.693 205.064 315.82 223.769 309.042C242.474 302.263 278.083 277.66 293.522 249.821C308.955 221.98 313.556 201.932 320.295 165.55C327.027 129.169 327.297 126.285 327.297 126.285C327.297 126.285 211.78 69.6435 185.564 39.7502C167.784 53.6502 119.632 82.6399 68.6472 99.9373C53.0393 106.014 51.0097 115.679 70.3327 111.692Z" fill="#847D7D"/>
<path d="M109.701 139.44V137.472H118.701V139.44H109.701ZM111.861 130.008C113.077 130.008 114.197 130.224 115.221 130.656C116.245 131.072 117.133 131.672 117.885 132.456C118.653 133.224 119.245 134.128 119.661 135.168C120.093 136.208 120.309 137.352 120.309 138.6C120.309 139.848 120.093 140.992 119.661 142.032C119.245 143.072 118.653 143.984 117.885 144.768C117.133 145.536 116.245 146.136 115.221 146.568C114.197 146.984 113.077 147.192 111.861 147.192C110.517 147.192 109.277 146.968 108.141 146.52C107.021 146.072 106.077 145.416 105.309 144.552L106.821 143.04C107.493 143.728 108.237 144.232 109.053 144.552C109.885 144.872 110.781 145.032 111.741 145.032C112.621 145.032 113.437 144.872 114.189 144.552C114.941 144.232 115.589 143.792 116.133 143.232C116.693 142.656 117.125 141.976 117.429 141.192C117.733 140.392 117.885 139.528 117.885 138.6C117.885 137.672 117.733 136.816 117.429 136.032C117.125 135.232 116.693 134.552 116.133 133.992C115.589 133.416 114.941 132.968 114.189 132.648C113.437 132.328 112.621 132.168 111.741 132.168C110.781 132.168 109.885 132.328 109.053 132.648C108.237 132.968 107.493 133.472 106.821 134.16L105.309 132.648C106.077 131.784 107.021 131.128 108.141 130.68C109.277 130.232 110.517 130.008 111.861 130.008ZM133.03 147L128.11 140.808L130.006 139.656L135.742 147H133.03ZM123.814 147V134.28H126.118V147H123.814ZM125.422 141.624V139.656H129.622V141.624H125.422ZM130.198 140.904L128.062 140.616L132.934 134.28H135.406L130.198 140.904ZM143.184 147.144C141.904 147.144 140.768 146.864 139.776 146.304C138.784 145.744 138 144.976 137.424 144C136.848 143.008 136.56 141.888 136.56 140.64C136.56 139.376 136.848 138.256 137.424 137.28C138 136.304 138.784 135.544 139.776 135C140.768 134.44 141.904 134.16 143.184 134.16C144.448 134.16 145.576 134.44 146.568 135C147.576 135.544 148.36 136.304 148.92 137.28C149.496 138.24 149.784 139.36 149.784 140.64C149.784 141.904 149.496 143.024 148.92 144C148.36 144.976 147.576 145.744 146.568 146.304C145.576 146.864 144.448 147.144 143.184 147.144ZM143.184 145.128C144 145.128 144.728 144.944 145.368 144.576C146.024 144.208 146.536 143.688 146.904 143.016C147.272 142.328 147.456 141.536 147.456 140.64C147.456 139.728 147.272 138.944 146.904 138.288C146.536 137.616 146.024 137.096 145.368 136.728C144.728 136.36 144 136.176 143.184 136.176C142.368 136.176 141.64 136.36 141 136.728C140.36 137.096 139.848 137.616 139.464 138.288C139.08 138.944 138.888 139.728 138.888 140.64C138.888 141.536 139.08 142.328 139.464 143.016C139.848 143.688 140.36 144.208 141 144.576C141.64 144.944 142.368 145.128 143.184 145.128ZM150.905 146.976L151.049 145.032C151.161 145.048 151.265 145.064 151.361 145.08C151.457 145.096 151.545 145.104 151.625 145.104C152.137 145.104 152.537 144.928 152.825 144.576C153.129 144.224 153.353 143.76 153.497 143.184C153.641 142.592 153.745 141.928 153.809 141.192C153.873 140.456 153.921 139.72 153.953 138.984L154.169 134.28H163.937V147H161.633V135.624L162.185 136.296H155.657L156.185 135.6L156.017 139.128C155.969 140.248 155.881 141.296 155.753 142.272C155.625 143.248 155.425 144.104 155.153 144.84C154.897 145.576 154.537 146.152 154.073 146.568C153.625 146.984 153.041 147.192 152.321 147.192C152.113 147.192 151.889 147.168 151.649 147.12C151.425 147.088 151.177 147.04 150.905 146.976ZM173.84 147.144C172.56 147.144 171.424 146.864 170.432 146.304C169.44 145.744 168.656 144.976 168.08 144C167.504 143.008 167.216 141.888 167.216 140.64C167.216 139.376 167.504 138.256 168.08 137.28C168.656 136.304 169.44 135.544 170.432 135C171.424 134.44 172.56 134.16 173.84 134.16C175.104 134.16 176.232 134.44 177.224 135C178.232 135.544 179.016 136.304 179.576 137.28C180.152 138.24 180.44 139.36 180.44 140.64C180.44 141.904 180.152 143.024 179.576 144C179.016 144.976 178.232 145.744 177.224 146.304C176.232 146.864 175.104 147.144 173.84 147.144ZM173.84 145.128C174.656 145.128 175.384 144.944 176.024 144.576C176.68 144.208 177.192 143.688 177.56 143.016C177.928 142.328 178.112 141.536 178.112 140.64C178.112 139.728 177.928 138.944 177.56 138.288C177.192 137.616 176.68 137.096 176.024 136.728C175.384 136.36 174.656 136.176 173.84 136.176C173.024 136.176 172.296 136.36 171.656 136.728C171.016 137.096 170.504 137.616 170.12 138.288C169.736 138.944 169.544 139.728 169.544 140.64C169.544 141.536 169.736 142.328 170.12 143.016C170.504 143.688 171.016 144.208 171.656 144.576C172.296 144.944 173.024 145.128 173.84 145.128ZM183.767 147V134.28H193.127V136.296H185.519L186.071 135.768V147H183.767ZM195.486 147V134.28H197.79V143.544L205.59 134.28H207.678V147H205.374V137.736L197.598 147H195.486ZM220.166 141.792C219.494 142.112 218.798 142.368 218.078 142.56C217.374 142.736 216.646 142.824 215.894 142.824C214.358 142.824 213.142 142.464 212.246 141.744C211.366 141.024 210.926 139.912 210.926 138.408V134.28H213.23V138.264C213.23 139.176 213.51 139.848 214.07 140.28C214.646 140.712 215.414 140.928 216.374 140.928C216.982 140.928 217.606 140.848 218.246 140.688C218.902 140.528 219.542 140.304 220.166 140.016V141.792ZM219.998 147V134.28H222.302V147H219.998ZM232.439 147.144C231.079 147.144 229.879 146.864 228.839 146.304C227.815 145.744 227.015 144.976 226.439 144C225.879 143.024 225.599 141.904 225.599 140.64C225.599 139.376 225.871 138.256 226.415 137.28C226.975 136.304 227.735 135.544 228.695 135C229.671 134.44 230.767 134.16 231.983 134.16C233.215 134.16 234.303 134.432 235.247 134.976C236.191 135.52 236.927 136.288 237.455 137.28C237.999 138.256 238.271 139.4 238.271 140.712C238.271 140.808 238.263 140.92 238.247 141.048C238.247 141.176 238.239 141.296 238.223 141.408H227.399V139.752H237.023L236.087 140.328C236.103 139.512 235.935 138.784 235.583 138.144C235.231 137.504 234.743 137.008 234.119 136.656C233.511 136.288 232.799 136.104 231.983 136.104C231.183 136.104 230.471 136.288 229.847 136.656C229.223 137.008 228.735 137.512 228.383 138.168C228.031 138.808 227.855 139.544 227.855 140.376V140.76C227.855 141.608 228.047 142.368 228.431 143.04C228.831 143.696 229.383 144.208 230.087 144.576C230.791 144.944 231.599 145.128 232.511 145.128C233.263 145.128 233.943 145 234.551 144.744C235.175 144.488 235.719 144.104 236.183 143.592L237.455 145.08C236.879 145.752 236.159 146.264 235.295 146.616C234.447 146.968 233.495 147.144 232.439 147.144ZM241.845 147V134.28H244.149V139.68H251.397V134.28H253.701V147H251.397V141.672H244.149V147H241.845ZM258.685 147.144C258.237 147.144 257.853 146.992 257.533 146.688C257.213 146.368 257.053 145.968 257.053 145.488C257.053 145.008 257.213 144.616 257.533 144.312C257.853 144.008 258.237 143.856 258.685 143.856C259.117 143.856 259.485 144.008 259.789 144.312C260.109 144.616 260.269 145.008 260.269 145.488C260.269 145.968 260.109 146.368 259.789 146.688C259.485 146.992 259.117 147.144 258.685 147.144ZM145.344 175.872C143.296 175.872 141.544 175.592 140.088 175.032C138.632 174.456 137.52 173.624 136.752 172.536C135.984 171.448 135.6 170.128 135.6 168.576C135.6 167.024 135.984 165.704 136.752 164.616C137.52 163.528 138.632 162.696 140.088 162.12C141.544 161.544 143.296 161.256 145.344 161.256C145.376 161.256 145.432 161.256 145.512 161.256C145.608 161.256 145.696 161.256 145.776 161.256C145.872 161.256 145.928 161.256 145.944 161.256C147.992 161.256 149.736 161.544 151.176 162.12C152.632 162.696 153.744 163.528 154.512 164.616C155.28 165.704 155.664 167.024 155.664 168.576C155.664 170.112 155.28 171.432 154.512 172.536C153.76 173.624 152.664 174.456 151.224 175.032C149.8 175.592 148.072 175.872 146.04 175.872C146.008 175.872 145.936 175.872 145.824 175.872C145.728 175.872 145.632 175.872 145.536 175.872C145.44 175.872 145.376 175.872 145.344 175.872ZM145.608 174C145.64 174 145.68 174 145.728 174C145.776 174 145.8 174 145.8 174C147.432 173.984 148.808 173.776 149.928 173.376C151.048 172.96 151.896 172.352 152.472 171.552C153.064 170.736 153.36 169.736 153.36 168.552C153.36 167.384 153.064 166.4 152.472 165.6C151.88 164.8 151.024 164.192 149.904 163.776C148.8 163.36 147.448 163.152 145.848 163.152C145.832 163.152 145.792 163.152 145.728 163.152C145.68 163.152 145.64 163.152 145.608 163.152C143.96 163.152 142.56 163.36 141.408 163.776C140.272 164.176 139.408 164.776 138.816 165.576C138.224 166.376 137.928 167.376 137.928 168.576C137.928 169.776 138.232 170.776 138.84 171.576C139.448 172.376 140.32 172.984 141.456 173.4C142.608 173.8 143.992 174 145.608 174ZM144.528 177.624V159.576H146.76V177.624H144.528ZM156.46 176.976L156.604 175.032C156.716 175.048 156.82 175.064 156.916 175.08C157.012 175.096 157.1 175.104 157.18 175.104C157.692 175.104 158.092 174.928 158.38 174.576C158.684 174.224 158.908 173.76 159.052 173.184C159.196 172.592 159.3 171.928 159.364 171.192C159.428 170.456 159.476 169.72 159.508 168.984L159.724 164.28H169.492V177H167.188V165.624L167.74 166.296H161.212L161.74 165.6L161.572 169.128C161.524 170.248 161.436 171.296 161.308 172.272C161.18 173.248 160.98 174.104 160.708 174.84C160.452 175.576 160.092 176.152 159.628 176.568C159.18 176.984 158.596 177.192 157.876 177.192C157.668 177.192 157.444 177.168 157.204 177.12C156.98 177.088 156.732 177.04 156.46 176.976ZM181.747 177V174.312L181.627 173.808V169.224C181.627 168.248 181.339 167.496 180.763 166.968C180.203 166.424 179.355 166.152 178.219 166.152C177.467 166.152 176.731 166.28 176.011 166.536C175.291 166.776 174.683 167.104 174.187 167.52L173.227 165.792C173.883 165.264 174.667 164.864 175.579 164.592C176.507 164.304 177.475 164.16 178.483 164.16C180.227 164.16 181.571 164.584 182.515 165.432C183.459 166.28 183.931 167.576 183.931 169.32V177H181.747ZM177.571 177.144C176.627 177.144 175.795 176.984 175.075 176.664C174.371 176.344 173.827 175.904 173.443 175.344C173.059 174.768 172.867 174.12 172.867 173.4C172.867 172.712 173.027 172.088 173.347 171.528C173.683 170.968 174.219 170.52 174.955 170.184C175.707 169.848 176.715 169.68 177.979 169.68H182.011V171.336H178.075C176.923 171.336 176.147 171.528 175.747 171.912C175.347 172.296 175.147 172.76 175.147 173.304C175.147 173.928 175.395 174.432 175.891 174.816C176.387 175.184 177.075 175.368 177.955 175.368C178.819 175.368 179.571 175.176 180.211 174.792C180.867 174.408 181.339 173.848 181.627 173.112L182.083 174.696C181.779 175.448 181.243 176.048 180.475 176.496C179.707 176.928 178.739 177.144 177.571 177.144ZM197.296 177L192.376 170.808L194.272 169.656L200.008 177H197.296ZM188.08 177V164.28H190.384V177H188.08ZM189.688 171.624V169.656H193.888V171.624H189.688ZM194.464 170.904L192.328 170.616L197.2 164.28H199.672L194.464 170.904ZM207.45 177.144C206.17 177.144 205.034 176.864 204.042 176.304C203.05 175.744 202.266 174.976 201.69 174C201.114 173.008 200.826 171.888 200.826 170.64C200.826 169.376 201.114 168.256 201.69 167.28C202.266 166.304 203.05 165.544 204.042 165C205.034 164.44 206.17 164.16 207.45 164.16C208.714 164.16 209.842 164.44 210.834 165C211.842 165.544 212.626 166.304 213.186 167.28C213.762 168.24 214.05 169.36 214.05 170.64C214.05 171.904 213.762 173.024 213.186 174C212.626 174.976 211.842 175.744 210.834 176.304C209.842 176.864 208.714 177.144 207.45 177.144ZM207.45 175.128C208.266 175.128 208.994 174.944 209.634 174.576C210.29 174.208 210.802 173.688 211.17 173.016C211.538 172.328 211.722 171.536 211.722 170.64C211.722 169.728 211.538 168.944 211.17 168.288C210.802 167.616 210.29 167.096 209.634 166.728C208.994 166.36 208.266 166.176 207.45 166.176C206.634 166.176 205.906 166.36 205.266 166.728C204.626 167.096 204.114 167.616 203.73 168.288C203.346 168.944 203.154 169.728 203.154 170.64C203.154 171.536 203.346 172.328 203.73 173.016C204.114 173.688 204.626 174.208 205.266 174.576C205.906 174.944 206.634 175.128 207.45 175.128ZM217.377 177V164.28H219.681V169.68H226.929V164.28H229.233V177H226.929V171.672H219.681V177H217.377ZM104.396 207V194.28H106.772L112.244 203.688H111.284L116.9 194.28H119.06V207H116.972V196.872L117.356 197.088L112.22 205.56H111.212L106.052 196.92L106.508 196.824V207H104.396ZM128.993 207.144C127.713 207.144 126.577 206.864 125.585 206.304C124.593 205.744 123.809 204.976 123.233 204C122.657 203.008 122.369 201.888 122.369 200.64C122.369 199.376 122.657 198.256 123.233 197.28C123.809 196.304 124.593 195.544 125.585 195C126.577 194.44 127.713 194.16 128.993 194.16C130.257 194.16 131.385 194.44 132.377 195C133.385 195.544 134.169 196.304 134.729 197.28C135.305 198.24 135.593 199.36 135.593 200.64C135.593 201.904 135.305 203.024 134.729 204C134.169 204.976 133.385 205.744 132.377 206.304C131.385 206.864 130.257 207.144 128.993 207.144ZM128.993 205.128C129.809 205.128 130.537 204.944 131.177 204.576C131.833 204.208 132.345 203.688 132.713 203.016C133.081 202.328 133.265 201.536 133.265 200.64C133.265 199.728 133.081 198.944 132.713 198.288C132.345 197.616 131.833 197.096 131.177 196.728C130.537 196.36 129.809 196.176 128.993 196.176C128.177 196.176 127.449 196.36 126.809 196.728C126.169 197.096 125.657 197.616 125.273 198.288C124.889 198.944 124.697 199.728 124.697 200.64C124.697 201.536 124.889 202.328 125.273 203.016C125.657 203.688 126.169 204.208 126.809 204.576C127.449 204.944 128.177 205.128 128.993 205.128ZM153.594 207L149.538 200.808L151.434 199.656L156.33 207H153.594ZM146.898 201.624V199.656H151.026V201.624H146.898ZM151.65 200.904L149.466 200.616L153.522 194.28H155.994L151.65 200.904ZM139.314 207H136.578L141.45 199.656L143.346 200.808L139.314 207ZM147.594 207H145.29V194.28H147.594V207ZM145.986 201.624H141.882V199.656H145.986V201.624ZM141.258 200.904L136.914 194.28H139.362L143.418 200.616L141.258 200.904ZM158.865 207V194.28H161.169V199.68H168.417V194.28H170.721V207H168.417V201.672H161.169V207H158.865ZM180.649 207.144C179.369 207.144 178.233 206.864 177.241 206.304C176.249 205.744 175.465 204.976 174.889 204C174.313 203.008 174.025 201.888 174.025 200.64C174.025 199.376 174.313 198.256 174.889 197.28C175.465 196.304 176.249 195.544 177.241 195C178.233 194.44 179.369 194.16 180.649 194.16C181.913 194.16 183.041 194.44 184.033 195C185.041 195.544 185.825 196.304 186.385 197.28C186.961 198.24 187.249 199.36 187.249 200.64C187.249 201.904 186.961 203.024 186.385 204C185.825 204.976 185.041 205.744 184.033 206.304C183.041 206.864 181.913 207.144 180.649 207.144ZM180.649 205.128C181.465 205.128 182.193 204.944 182.833 204.576C183.489 204.208 184.001 203.688 184.369 203.016C184.737 202.328 184.921 201.536 184.921 200.64C184.921 199.728 184.737 198.944 184.369 198.288C184.001 197.616 183.489 197.096 182.833 196.728C182.193 196.36 181.465 196.176 180.649 196.176C179.833 196.176 179.105 196.36 178.465 196.728C177.825 197.096 177.313 197.616 176.929 198.288C176.545 198.944 176.353 199.728 176.353 200.64C176.353 201.536 176.545 202.328 176.929 203.016C177.313 203.688 177.825 204.208 178.465 204.576C179.105 204.944 179.833 205.128 180.649 205.128ZM202.565 207.144C201.269 207.144 200.109 206.864 199.085 206.304C198.077 205.744 197.285 204.976 196.709 204C196.133 203.024 195.845 201.904 195.845 200.64C195.845 199.376 196.133 198.256 196.709 197.28C197.285 196.304 198.077 195.544 199.085 195C200.109 194.44 201.269 194.16 202.565 194.16C203.717 194.16 204.741 194.392 205.637 194.856C206.549 195.304 207.253 195.976 207.749 196.872L205.997 198C205.581 197.376 205.069 196.92 204.461 196.632C203.869 196.328 203.229 196.176 202.541 196.176C201.709 196.176 200.965 196.36 200.309 196.728C199.653 197.096 199.133 197.616 198.749 198.288C198.365 198.944 198.173 199.728 198.173 200.64C198.173 201.552 198.365 202.344 198.749 203.016C199.133 203.688 199.653 204.208 200.309 204.576C200.965 204.944 201.709 205.128 202.541 205.128C203.229 205.128 203.869 204.984 204.461 204.696C205.069 204.392 205.581 203.928 205.997 203.304L207.749 204.408C207.253 205.288 206.549 205.968 205.637 206.448C204.741 206.912 203.717 207.144 202.565 207.144ZM219.045 205.92V196.296H213.525L213.405 198.744C213.373 199.544 213.317 200.32 213.237 201.072C213.173 201.808 213.061 202.488 212.901 203.112C212.757 203.736 212.541 204.248 212.253 204.648C211.965 205.048 211.581 205.296 211.101 205.392L208.821 204.984C209.317 205 209.717 204.84 210.021 204.504C210.325 204.152 210.557 203.672 210.717 203.064C210.893 202.456 211.021 201.768 211.101 201C211.181 200.216 211.245 199.408 211.293 198.576L211.485 194.28H221.349V205.92H219.045ZM208.317 209.952V204.984H223.293V209.952H221.133V207H210.501V209.952H208.317ZM234.095 207V204.312L233.975 203.808V199.224C233.975 198.248 233.687 197.496 233.111 196.968C232.551 196.424 231.703 196.152 230.567 196.152C229.815 196.152 229.079 196.28 228.359 196.536C227.639 196.776 227.031 197.104 226.535 197.52L225.575 195.792C226.231 195.264 227.015 194.864 227.927 194.592C228.855 194.304 229.823 194.16 230.831 194.16C232.575 194.16 233.919 194.584 234.863 195.432C235.807 196.28 236.279 197.576 236.279 199.32V207H234.095ZM229.919 207.144C228.975 207.144 228.143 206.984 227.423 206.664C226.719 206.344 226.175 205.904 225.791 205.344C225.407 204.768 225.215 204.12 225.215 203.4C225.215 202.712 225.375 202.088 225.695 201.528C226.031 200.968 226.567 200.52 227.303 200.184C228.055 199.848 229.063 199.68 230.327 199.68H234.359V201.336H230.423C229.271 201.336 228.495 201.528 228.095 201.912C227.695 202.296 227.495 202.76 227.495 203.304C227.495 203.928 227.743 204.432 228.239 204.816C228.735 205.184 229.423 205.368 230.303 205.368C231.167 205.368 231.919 205.176 232.559 204.792C233.215 204.408 233.687 203.848 233.975 203.112L234.431 204.696C234.127 205.448 233.591 206.048 232.823 206.496C232.055 206.928 231.087 207.144 229.919 207.144ZM242.947 207V195.696L243.523 196.296H238.291V194.28H249.907V196.296H244.699L245.251 195.696V207H242.947ZM258.143 198.6C259.759 198.616 260.991 198.984 261.839 199.704C262.687 200.424 263.111 201.44 263.111 202.752C263.111 204.128 262.647 205.192 261.719 205.944C260.791 206.68 259.479 207.04 257.783 207.024L252.263 207V194.28H254.567V198.576L258.143 198.6ZM257.591 205.272C258.631 205.288 259.415 205.08 259.943 204.648C260.487 204.216 260.759 203.576 260.759 202.728C260.759 201.896 260.495 201.288 259.967 200.904C259.439 200.52 258.647 200.32 257.591 200.304L254.567 200.256V205.248L257.591 205.272ZM132.615 237V224.28H138.519C140.007 224.28 141.175 224.568 142.023 225.144C142.887 225.704 143.319 226.504 143.319 227.544C143.319 228.584 142.911 229.392 142.095 229.968C141.295 230.528 140.231 230.808 138.903 230.808L139.263 230.184C140.783 230.184 141.911 230.464 142.647 231.024C143.383 231.584 143.751 232.408 143.751 233.496C143.751 234.6 143.335 235.464 142.503 236.088C141.687 236.696 140.431 237 138.735 237H132.615ZM134.871 235.224H138.567C139.527 235.224 140.247 235.08 140.727 234.792C141.207 234.488 141.447 234.008 141.447 233.352C141.447 232.68 141.223 232.192 140.775 231.888C140.343 231.568 139.655 231.408 138.711 231.408H134.871V235.224ZM134.871 229.752H138.327C139.207 229.752 139.871 229.592 140.319 229.272C140.783 228.936 141.015 228.472 141.015 227.88C141.015 227.272 140.783 226.816 140.319 226.512C139.871 226.208 139.207 226.056 138.327 226.056H134.871V229.752ZM161.602 237V234.312L161.482 233.808V229.224C161.482 228.248 161.194 227.496 160.618 226.968C160.058 226.424 159.21 226.152 158.074 226.152C157.322 226.152 156.586 226.28 155.866 226.536C155.146 226.776 154.538 227.104 154.042 227.52L153.082 225.792C153.738 225.264 154.522 224.864 155.434 224.592C156.362 224.304 157.33 224.16 158.338 224.16C160.082 224.16 161.426 224.584 162.37 225.432C163.314 226.28 163.786 227.576 163.786 229.32V237H161.602ZM157.426 237.144C156.482 237.144 155.65 236.984 154.93 236.664C154.226 236.344 153.682 235.904 153.298 235.344C152.914 234.768 152.722 234.12 152.722 233.4C152.722 232.712 152.882 232.088 153.202 231.528C153.538 230.968 154.074 230.52 154.81 230.184C155.562 229.848 156.57 229.68 157.834 229.68H161.866V231.336H157.93C156.778 231.336 156.002 231.528 155.602 231.912C155.202 232.296 155.002 232.76 155.002 233.304C155.002 233.928 155.25 234.432 155.746 234.816C156.242 235.184 156.93 235.368 157.81 235.368C158.674 235.368 159.426 235.176 160.066 234.792C160.722 234.408 161.194 233.848 161.482 233.112L161.938 234.696C161.634 235.448 161.098 236.048 160.33 236.496C159.562 236.928 158.594 237.144 157.426 237.144ZM167.935 237V224.28H179.719V237H177.415V225.72L177.967 226.296H169.687L170.239 225.72V237H167.935ZM186.697 237V225.696L187.273 226.296H182.041V224.28H193.657V226.296H188.449L189.001 225.696V237H186.697ZM201.115 237.144C199.755 237.144 198.555 236.864 197.515 236.304C196.491 235.744 195.691 234.976 195.115 234C194.555 233.024 194.275 231.904 194.275 230.64C194.275 229.376 194.547 228.256 195.091 227.28C195.651 226.304 196.411 225.544 197.371 225C198.347 224.44 199.443 224.16 200.659 224.16C201.891 224.16 202.979 224.432 203.923 224.976C204.867 225.52 205.603 226.288 206.131 227.28C206.675 228.256 206.947 229.4 206.947 230.712C206.947 230.808 206.939 230.92 206.923 231.048C206.923 231.176 206.915 231.296 206.899 231.408H196.075V229.752H205.699L204.763 230.328C204.779 229.512 204.611 228.784 204.259 228.144C203.907 227.504 203.419 227.008 202.795 226.656C202.187 226.288 201.475 226.104 200.659 226.104C199.859 226.104 199.147 226.288 198.523 226.656C197.899 227.008 197.411 227.512 197.059 228.168C196.707 228.808 196.531 229.544 196.531 230.376V230.76C196.531 231.608 196.723 232.368 197.107 233.04C197.507 233.696 198.059 234.208 198.763 234.576C199.467 234.944 200.275 235.128 201.187 235.128C201.939 235.128 202.619 235 203.227 234.744C203.851 234.488 204.395 234.104 204.859 233.592L206.131 235.08C205.555 235.752 204.835 236.264 203.971 236.616C203.123 236.968 202.171 237.144 201.115 237.144ZM219.737 237L214.817 230.808L216.713 229.656L222.449 237H219.737ZM210.521 237V224.28H212.825V237H210.521ZM212.129 231.624V229.656H216.329V231.624H212.129ZM216.905 230.904L214.769 230.616L219.641 224.28H222.113L216.905 230.904ZM224.786 241.8C224.178 241.8 223.586 241.696 223.01 241.488C222.434 241.296 221.938 241.008 221.522 240.624L222.506 238.896C222.826 239.2 223.178 239.432 223.562 239.592C223.946 239.752 224.354 239.832 224.786 239.832C225.346 239.832 225.81 239.688 226.178 239.4C226.546 239.112 226.89 238.6 227.21 237.864L228.002 236.112L228.242 235.824L233.234 224.28H235.49L229.322 238.272C228.954 239.168 228.538 239.872 228.074 240.384C227.626 240.896 227.13 241.256 226.586 241.464C226.042 241.688 225.442 241.8 224.786 241.8ZM227.81 237.408L222.002 224.28H224.402L229.346 235.608L227.81 237.408Z" fill="#4E4E4E"/>
</svg>
