<svg width="366" height="366" viewBox="0 0 366 366" fill="none" xmlns="http://www.w3.org/2000/svg">
<path d="M183.949 27.4609C110.028 81.4509 28.9306 106.117 28.9306 106.117L28.9137 106.101C28.7973 106.096 28.3912 109.319 41.3433 203.56C55.255 304.779 174.829 338.681 174.829 338.681C174.829 338.681 296.192 311.381 316.01 211.09C334.466 117.715 334.25 114.471 334.129 114.47L334.113 114.486C334.113 114.486 254.593 85.4163 183.949 27.4609ZM182.902 63.2132C228.515 97.1262 274.408 119.76 300.763 131.382C298.268 144.847 293.917 167.598 286.333 205.965C279.781 239.118 258.546 266.705 223.211 287.957C204.208 299.386 185.792 306.022 175.636 309.172C151.597 300.304 80.686 268.559 71.2756 200.071C65.95 161.349 62.9417 138.395 61.2381 124.816C88.2308 114.653 135.376 94.5737 182.902 63.2132Z" fill="#C7BCBC"/>
<path d="M67.3369 222.013C53.7878 186.792 48.7968 132.363 46.9745 99.5924C35.7499 103.715 29.1017 105.724 29.1017 105.724L29.0847 105.708C28.9676 105.702 28.5585 108.923 41.5768 203.084C55.5595 304.217 175.861 338.075 175.861 338.075C175.861 338.075 185.295 335.963 199.335 330.772C123.036 308.556 85.0548 268.076 67.3369 222.013Z" fill="#696060"/>
<path d="M70.3327 111.692C70.3327 111.692 137.16 83.8429 162.836 68.0093C179.412 58.0085 184.843 53.6942 184.843 53.6942C184.843 53.6942 255.901 109.455 315.291 129.205C307.255 173.633 297.983 211.752 297.983 211.752C297.983 211.752 286.405 258.792 252.03 280.13C217.659 301.466 207.235 304.113 197.866 307.499C188.496 310.888 182.952 314.923 186.616 317.811C190.279 320.693 205.064 315.82 223.769 309.042C242.474 302.263 278.083 277.66 293.522 249.821C308.955 221.98 313.556 201.932 320.295 165.55C327.027 129.169 327.297 126.285 327.297 126.285C327.297 126.285 211.78 69.6435 185.564 39.7502C167.784 53.6502 119.632 82.6399 68.6472 99.9373C53.0393 106.014 51.0097 115.679 70.3327 111.692Z" fill="#847D7D"/>
<path d="M117.577 162V145.2H130.249V147.24H119.953V152.04H125.185C127.185 152.04 128.705 152.456 129.745 153.288C130.785 154.12 131.305 155.328 131.305 156.912C131.305 158.544 130.737 159.8 129.601 160.68C128.481 161.56 126.873 162 124.777 162H117.577ZM119.953 160.104H124.681C126.073 160.104 127.121 159.84 127.825 159.312C128.545 158.784 128.905 158 128.905 156.96C128.905 154.944 127.497 153.936 124.681 153.936H119.953V160.104ZM140.412 162.144C139.052 162.144 137.852 161.864 136.812 161.304C135.788 160.744 134.988 159.976 134.412 159C133.852 158.024 133.572 156.904 133.572 155.64C133.572 154.376 133.844 153.256 134.388 152.28C134.948 151.304 135.708 150.544 136.668 150C137.644 149.44 138.74 149.16 139.956 149.16C141.188 149.16 142.276 149.432 143.22 149.976C144.164 150.52 144.9 151.288 145.428 152.28C145.972 153.256 146.244 154.4 146.244 155.712C146.244 155.808 146.236 155.92 146.22 156.048C146.22 156.176 146.212 156.296 146.196 156.408H135.372V154.752H144.996L144.06 155.328C144.076 154.512 143.908 153.784 143.556 153.144C143.204 152.504 142.716 152.008 142.092 151.656C141.484 151.288 140.772 151.104 139.956 151.104C139.156 151.104 138.444 151.288 137.82 151.656C137.196 152.008 136.708 152.512 136.356 153.168C136.004 153.808 135.828 154.544 135.828 155.376V155.76C135.828 156.608 136.02 157.368 136.404 158.04C136.804 158.696 137.356 159.208 138.06 159.576C138.764 159.944 139.572 160.128 140.484 160.128C141.236 160.128 141.916 160 142.524 159.744C143.148 159.488 143.692 159.104 144.156 158.592L145.428 160.08C144.852 160.752 144.132 161.264 143.268 161.616C142.42 161.968 141.468 162.144 140.412 162.144ZM153.257 162.168C152.297 162.168 151.353 162.048 150.425 161.808C149.513 161.552 148.697 161.192 147.977 160.728L148.673 158.976C149.281 159.36 149.977 159.664 150.761 159.888C151.545 160.096 152.337 160.2 153.137 160.2C153.873 160.2 154.505 160.112 155.033 159.936C155.577 159.76 155.993 159.52 156.281 159.216C156.569 158.896 156.713 158.528 156.713 158.112C156.713 157.52 156.449 157.064 155.921 156.744C155.393 156.424 154.657 156.264 153.713 156.264H151.409V154.608H153.569C154.129 154.608 154.617 154.544 155.033 154.416C155.449 154.288 155.769 154.096 155.993 153.84C156.233 153.568 156.353 153.256 156.353 152.904C156.353 152.52 156.217 152.192 155.945 151.92C155.673 151.648 155.289 151.44 154.793 151.296C154.313 151.152 153.745 151.08 153.089 151.08C152.449 151.096 151.793 151.184 151.121 151.344C150.465 151.504 149.793 151.752 149.105 152.088L148.481 150.288C149.249 149.92 150.001 149.64 150.737 149.448C151.489 149.24 152.233 149.128 152.969 149.112C154.073 149.08 155.057 149.208 155.921 149.496C156.785 149.768 157.465 150.168 157.961 150.696C158.473 151.224 158.729 151.848 158.729 152.568C158.729 153.176 158.537 153.72 158.153 154.2C157.769 154.664 157.257 155.032 156.617 155.304C155.977 155.576 155.241 155.712 154.409 155.712L154.505 155.16C155.929 155.16 157.049 155.44 157.865 156C158.681 156.56 159.089 157.32 159.089 158.28C159.089 159.048 158.833 159.728 158.321 160.32C157.809 160.896 157.113 161.352 156.233 161.688C155.369 162.008 154.377 162.168 153.257 162.168ZM168.039 162.144C166.759 162.144 165.623 161.864 164.631 161.304C163.639 160.744 162.855 159.976 162.279 159C161.703 158.008 161.415 156.888 161.415 155.64C161.415 154.376 161.703 153.256 162.279 152.28C162.855 151.304 163.639 150.544 164.631 150C165.623 149.44 166.759 149.16 168.039 149.16C169.303 149.16 170.431 149.44 171.423 150C172.431 150.544 173.215 151.304 173.775 152.28C174.351 153.24 174.639 154.36 174.639 155.64C174.639 156.904 174.351 158.024 173.775 159C173.215 159.976 172.431 160.744 171.423 161.304C170.431 161.864 169.303 162.144 168.039 162.144ZM168.039 160.128C168.855 160.128 169.583 159.944 170.223 159.576C170.879 159.208 171.391 158.688 171.759 158.016C172.127 157.328 172.311 156.536 172.311 155.64C172.311 154.728 172.127 153.944 171.759 153.288C171.391 152.616 170.879 152.096 170.223 151.728C169.583 151.36 168.855 151.176 168.039 151.176C167.223 151.176 166.495 151.36 165.855 151.728C165.215 152.096 164.703 152.616 164.319 153.288C163.935 153.944 163.743 154.728 163.743 155.64C163.743 156.536 163.935 157.328 164.319 158.016C164.703 158.688 165.215 159.208 165.855 159.576C166.495 159.944 167.223 160.128 168.039 160.128ZM177.966 162V149.28H189.75V162H187.446V150.72L187.998 151.296H179.718L180.27 150.72V162H177.966ZM202.009 162V159.312L201.889 158.808V154.224C201.889 153.248 201.601 152.496 201.025 151.968C200.465 151.424 199.617 151.152 198.481 151.152C197.729 151.152 196.993 151.28 196.273 151.536C195.553 151.776 194.945 152.104 194.449 152.52L193.489 150.792C194.145 150.264 194.929 149.864 195.841 149.592C196.769 149.304 197.737 149.16 198.745 149.16C200.489 149.16 201.833 149.584 202.777 150.432C203.721 151.28 204.193 152.576 204.193 154.32V162H202.009ZM197.833 162.144C196.889 162.144 196.057 161.984 195.337 161.664C194.633 161.344 194.089 160.904 193.705 160.344C193.321 159.768 193.129 159.12 193.129 158.4C193.129 157.712 193.289 157.088 193.609 156.528C193.945 155.968 194.481 155.52 195.217 155.184C195.969 154.848 196.977 154.68 198.241 154.68H202.273V156.336H198.337C197.185 156.336 196.409 156.528 196.009 156.912C195.609 157.296 195.409 157.76 195.409 158.304C195.409 158.928 195.657 159.432 196.153 159.816C196.649 160.184 197.337 160.368 198.217 160.368C199.081 160.368 199.833 160.176 200.473 159.792C201.129 159.408 201.601 158.848 201.889 158.112L202.345 159.696C202.041 160.448 201.505 161.048 200.737 161.496C199.969 161.928 199.001 162.144 197.833 162.144ZM213.885 162.144C212.589 162.144 211.429 161.864 210.405 161.304C209.397 160.744 208.605 159.976 208.029 159C207.453 158.024 207.165 156.904 207.165 155.64C207.165 154.376 207.453 153.256 208.029 152.28C208.605 151.304 209.397 150.544 210.405 150C211.429 149.44 212.589 149.16 213.885 149.16C215.037 149.16 216.061 149.392 216.957 149.856C217.869 150.304 218.573 150.976 219.069 151.872L217.317 153C216.901 152.376 216.389 151.92 215.781 151.632C215.189 151.328 214.549 151.176 213.861 151.176C213.029 151.176 212.285 151.36 211.629 151.728C210.973 152.096 210.453 152.616 210.069 153.288C209.685 153.944 209.493 154.728 209.493 155.64C209.493 156.552 209.685 157.344 210.069 158.016C210.453 158.688 210.973 159.208 211.629 159.576C212.285 159.944 213.029 160.128 213.861 160.128C214.549 160.128 215.189 159.984 215.781 159.696C216.389 159.392 216.901 158.928 217.317 158.304L219.069 159.408C218.573 160.288 217.869 160.968 216.957 161.448C216.061 161.912 215.037 162.144 213.885 162.144ZM227.529 162.144C226.169 162.144 224.969 161.864 223.929 161.304C222.905 160.744 222.105 159.976 221.529 159C220.969 158.024 220.689 156.904 220.689 155.64C220.689 154.376 220.961 153.256 221.505 152.28C222.065 151.304 222.825 150.544 223.785 150C224.761 149.44 225.857 149.16 227.073 149.16C228.305 149.16 229.393 149.432 230.337 149.976C231.281 150.52 232.017 151.288 232.545 152.28C233.089 153.256 233.361 154.4 233.361 155.712C233.361 155.808 233.353 155.92 233.337 156.048C233.337 156.176 233.329 156.296 233.313 156.408H222.489V154.752H232.113L231.177 155.328C231.193 154.512 231.025 153.784 230.673 153.144C230.321 152.504 229.833 152.008 229.209 151.656C228.601 151.288 227.889 151.104 227.073 151.104C226.273 151.104 225.561 151.288 224.937 151.656C224.313 152.008 223.825 152.512 223.473 153.168C223.121 153.808 222.945 154.544 222.945 155.376V155.76C222.945 156.608 223.137 157.368 223.521 158.04C223.921 158.696 224.473 159.208 225.177 159.576C225.881 159.944 226.689 160.128 227.601 160.128C228.353 160.128 229.033 160 229.641 159.744C230.265 159.488 230.809 159.104 231.273 158.592L232.545 160.08C231.969 160.752 231.249 161.264 230.385 161.616C229.537 161.968 228.585 162.144 227.529 162.144ZM236.935 162V149.28H239.239V154.68H246.487V149.28H248.791V162H246.487V156.672H239.239V162H236.935ZM123.186 190.92V181.296H117.666L117.546 183.744C117.514 184.544 117.458 185.32 117.378 186.072C117.314 186.808 117.202 187.488 117.042 188.112C116.898 188.736 116.682 189.248 116.394 189.648C116.106 190.048 115.722 190.296 115.242 190.392L112.962 189.984C113.458 190 113.858 189.84 114.162 189.504C114.466 189.152 114.698 188.672 114.858 188.064C115.034 187.456 115.162 186.768 115.242 186C115.322 185.216 115.386 184.408 115.434 183.576L115.626 179.28H125.49V190.92H123.186ZM112.458 194.952V189.984H127.434V194.952H125.274V192H114.642V194.952H112.458ZM128.323 191.976L128.467 190.032C128.579 190.048 128.683 190.064 128.779 190.08C128.875 190.096 128.963 190.104 129.043 190.104C129.555 190.104 129.955 189.928 130.243 189.576C130.547 189.224 130.771 188.76 130.915 188.184C131.059 187.592 131.163 186.928 131.227 186.192C131.291 185.456 131.339 184.72 131.371 183.984L131.587 179.28H141.355V192H139.051V180.624L139.603 181.296H133.075L133.603 180.6L133.435 184.128C133.387 185.248 133.299 186.296 133.171 187.272C133.043 188.248 132.843 189.104 132.571 189.84C132.315 190.576 131.955 191.152 131.491 191.568C131.043 191.984 130.459 192.192 129.739 192.192C129.531 192.192 129.307 192.168 129.067 192.12C128.843 192.088 128.595 192.04 128.323 191.976ZM153.946 192V187.536L154.306 187.968H150.25C148.554 187.968 147.226 187.608 146.266 186.888C145.322 186.168 144.85 185.12 144.85 183.744C144.85 182.272 145.354 181.16 146.362 180.408C147.386 179.656 148.746 179.28 150.442 179.28H156.01V192H153.946ZM144.73 192L148.186 187.128H150.562L147.202 192H144.73ZM153.946 186.816V180.648L154.306 181.296H150.514C149.458 181.296 148.642 181.496 148.066 181.896C147.49 182.28 147.202 182.92 147.202 183.816C147.202 185.48 148.274 186.312 150.418 186.312H154.306L153.946 186.816ZM176.167 192L171.247 185.808L173.143 184.656L178.879 192H176.167ZM166.951 192V179.28H169.255V192H166.951ZM168.559 186.624V184.656H172.759V186.624H168.559ZM173.335 185.904L171.199 185.616L176.071 179.28H178.543L173.335 185.904ZM186.321 192.144C185.041 192.144 183.905 191.864 182.913 191.304C181.921 190.744 181.137 189.976 180.561 189C179.985 188.008 179.697 186.888 179.697 185.64C179.697 184.376 179.985 183.256 180.561 182.28C181.137 181.304 181.921 180.544 182.913 180C183.905 179.44 185.041 179.16 186.321 179.16C187.585 179.16 188.713 179.44 189.705 180C190.713 180.544 191.497 181.304 192.057 182.28C192.633 183.24 192.921 184.36 192.921 185.64C192.921 186.904 192.633 188.024 192.057 189C191.497 189.976 190.713 190.744 189.705 191.304C188.713 191.864 187.585 192.144 186.321 192.144ZM186.321 190.128C187.137 190.128 187.865 189.944 188.505 189.576C189.161 189.208 189.673 188.688 190.041 188.016C190.409 187.328 190.593 186.536 190.593 185.64C190.593 184.728 190.409 183.944 190.041 183.288C189.673 182.616 189.161 182.096 188.505 181.728C187.865 181.36 187.137 181.176 186.321 181.176C185.505 181.176 184.777 181.36 184.137 181.728C183.497 182.096 182.985 182.616 182.601 183.288C182.217 183.944 182.025 184.728 182.025 185.64C182.025 186.536 182.217 187.328 182.601 188.016C182.985 188.688 183.497 189.208 184.137 189.576C184.777 189.944 185.505 190.128 186.321 190.128ZM210.922 192L206.866 185.808L208.762 184.656L213.658 192H210.922ZM204.226 186.624V184.656H208.354V186.624H204.226ZM208.978 185.904L206.794 185.616L210.85 179.28H213.322L208.978 185.904ZM196.642 192H193.906L198.778 184.656L200.674 185.808L196.642 192ZM204.922 192H202.618V179.28H204.922V192ZM203.314 186.624H199.21V184.656H203.314V186.624ZM198.586 185.904L194.242 179.28H196.69L200.746 185.616L198.586 185.904ZM216.193 192V179.28H218.497V188.544L226.297 179.28H228.385V192H226.081V182.736L218.305 192H216.193ZM239.302 192V179.28H241.606V188.544L249.406 179.28H251.494V192H249.19V182.736L241.414 192H239.302ZM109.059 216.408V214.704H116.187V216.408H109.059ZM110.763 209.136C112.075 209.136 113.251 209.416 114.291 209.976C115.331 210.536 116.147 211.304 116.739 212.28C117.331 213.256 117.627 214.376 117.627 215.64C117.627 216.888 117.331 218.008 116.739 219C116.147 219.992 115.331 220.768 114.291 221.328C113.251 221.888 112.075 222.168 110.763 222.168C109.675 222.168 108.667 221.992 107.739 221.64C106.827 221.288 106.059 220.776 105.435 220.104L106.779 218.76C107.307 219.272 107.891 219.656 108.531 219.912C109.187 220.152 109.899 220.272 110.667 220.272C111.595 220.272 112.419 220.08 113.139 219.696C113.859 219.296 114.427 218.744 114.843 218.04C115.275 217.336 115.491 216.536 115.491 215.64C115.491 214.744 115.275 213.952 114.843 213.264C114.427 212.56 113.859 212.008 113.139 211.608C112.419 211.208 111.595 211.008 110.667 211.008C109.899 211.008 109.187 211.136 108.531 211.392C107.891 211.648 107.307 212.032 106.779 212.544L105.435 211.224C106.059 210.536 106.827 210.016 107.739 209.664C108.667 209.312 109.675 209.136 110.763 209.136ZM128.48 222.192C128.464 222.192 128.408 222.192 128.312 222.192C128.232 222.192 128.152 222.192 128.072 222.192C127.992 222.192 127.944 222.192 127.928 222.192C125.32 222.16 123.296 221.584 121.856 220.464C120.416 219.328 119.696 217.712 119.696 215.616C119.696 213.536 120.416 211.944 121.856 210.84C123.312 209.72 125.36 209.152 128 209.136C128.032 209.136 128.08 209.136 128.144 209.136C128.224 209.136 128.296 209.136 128.36 209.136C128.44 209.136 128.488 209.136 128.504 209.136C131.176 209.136 133.248 209.696 134.72 210.816C136.208 211.936 136.952 213.536 136.952 215.616C136.952 217.728 136.208 219.352 134.72 220.488C133.232 221.624 131.152 222.192 128.48 222.192ZM128.432 220.176C129.824 220.176 130.976 220 131.888 219.648C132.816 219.296 133.512 218.784 133.976 218.112C134.44 217.44 134.672 216.608 134.672 215.616C134.672 214.64 134.44 213.824 133.976 213.168C133.512 212.512 132.816 212.016 131.888 211.68C130.976 211.344 129.824 211.176 128.432 211.176C128.4 211.176 128.336 211.176 128.24 211.176C128.144 211.176 128.088 211.176 128.072 211.176C126.712 211.176 125.576 211.352 124.664 211.704C123.768 212.04 123.096 212.536 122.648 213.192C122.2 213.848 121.976 214.656 121.976 215.616C121.976 216.592 122.2 217.416 122.648 218.088C123.112 218.76 123.792 219.272 124.688 219.624C125.6 219.976 126.728 220.16 128.072 220.176C128.104 220.176 128.16 220.176 128.24 220.176C128.336 220.176 128.4 220.176 128.432 220.176ZM127.184 226.656V204.192H129.44V226.656H127.184ZM147.793 222.192C147.777 222.192 147.721 222.192 147.625 222.192C147.545 222.192 147.465 222.192 147.385 222.192C147.305 222.192 147.257 222.192 147.241 222.192C144.633 222.16 142.609 221.584 141.169 220.464C139.729 219.328 139.009 217.712 139.009 215.616C139.009 213.536 139.729 211.944 141.169 210.84C142.625 209.72 144.673 209.152 147.313 209.136C147.345 209.136 147.393 209.136 147.457 209.136C147.537 209.136 147.609 209.136 147.673 209.136C147.753 209.136 147.801 209.136 147.817 209.136C150.489 209.136 152.561 209.696 154.033 210.816C155.521 211.936 156.265 213.536 156.265 215.616C156.265 217.728 155.521 219.352 154.033 220.488C152.545 221.624 150.465 222.192 147.793 222.192ZM147.745 220.176C149.137 220.176 150.289 220 151.201 219.648C152.129 219.296 152.825 218.784 153.289 218.112C153.753 217.44 153.985 216.608 153.985 215.616C153.985 214.64 153.753 213.824 153.289 213.168C152.825 212.512 152.129 212.016 151.201 211.68C150.289 211.344 149.137 211.176 147.745 211.176C147.713 211.176 147.649 211.176 147.553 211.176C147.457 211.176 147.401 211.176 147.385 211.176C146.025 211.176 144.889 211.352 143.977 211.704C143.081 212.04 142.409 212.536 141.961 213.192C141.513 213.848 141.289 214.656 141.289 215.616C141.289 216.592 141.513 217.416 141.961 218.088C142.425 218.76 143.105 219.272 144.001 219.624C144.913 219.976 146.041 220.16 147.385 220.176C147.417 220.176 147.473 220.176 147.553 220.176C147.649 220.176 147.713 220.176 147.745 220.176ZM146.497 226.656V204.192H148.753V226.656H146.497ZM165.185 222.144C163.825 222.144 162.625 221.864 161.585 221.304C160.561 220.744 159.761 219.976 159.185 219C158.625 218.024 158.345 216.904 158.345 215.64C158.345 214.376 158.617 213.256 159.161 212.28C159.721 211.304 160.481 210.544 161.441 210C162.417 209.44 163.513 209.16 164.729 209.16C165.961 209.16 167.049 209.432 167.993 209.976C168.937 210.52 169.673 211.288 170.201 212.28C170.745 213.256 171.017 214.4 171.017 215.712C171.017 215.808 171.009 215.92 170.993 216.048C170.993 216.176 170.985 216.296 170.969 216.408H160.145V214.752H169.769L168.833 215.328C168.849 214.512 168.681 213.784 168.329 213.144C167.977 212.504 167.489 212.008 166.865 211.656C166.257 211.288 165.545 211.104 164.729 211.104C163.929 211.104 163.217 211.288 162.593 211.656C161.969 212.008 161.481 212.512 161.129 213.168C160.777 213.808 160.601 214.544 160.601 215.376V215.76C160.601 216.608 160.793 217.368 161.177 218.04C161.577 218.696 162.129 219.208 162.833 219.576C163.537 219.944 164.345 220.128 165.257 220.128C166.009 220.128 166.689 220 167.297 219.744C167.921 219.488 168.465 219.104 168.929 218.592L170.201 220.08C169.625 220.752 168.905 221.264 168.041 221.616C167.193 221.968 166.241 222.144 165.185 222.144ZM183.807 222L178.887 215.808L180.783 214.656L186.519 222H183.807ZM174.591 222V209.28H176.895V222H174.591ZM176.199 216.624V214.656H180.399V216.624H176.199ZM180.975 215.904L178.839 215.616L183.711 209.28H186.183L180.975 215.904ZM191.244 222V210.696L191.82 211.296H186.588V209.28H198.204V211.296H192.996L193.548 210.696V222H191.244ZM200.56 222V209.28H202.864V218.544L210.664 209.28H212.752V222H210.448V212.736L202.672 222H200.56ZM217.224 222V209.28H223.128C224.616 209.28 225.784 209.568 226.632 210.144C227.496 210.704 227.928 211.504 227.928 212.544C227.928 213.584 227.52 214.392 226.704 214.968C225.904 215.528 224.84 215.808 223.512 215.808L223.872 215.184C225.392 215.184 226.52 215.464 227.256 216.024C227.992 216.584 228.36 217.408 228.36 218.496C228.36 219.6 227.944 220.464 227.112 221.088C226.296 221.696 225.04 222 223.344 222H217.224ZM219.48 220.224H223.176C224.136 220.224 224.856 220.08 225.336 219.792C225.816 219.488 226.056 219.008 226.056 218.352C226.056 217.68 225.832 217.192 225.384 216.888C224.952 216.568 224.264 216.408 223.32 216.408H219.48V220.224ZM219.48 214.752H222.936C223.816 214.752 224.48 214.592 224.928 214.272C225.392 213.936 225.624 213.472 225.624 212.88C225.624 212.272 225.392 211.816 224.928 211.512C224.48 211.208 223.816 211.056 222.936 211.056H219.48V214.752ZM237.63 222.144C236.27 222.144 235.07 221.864 234.03 221.304C233.006 220.744 232.206 219.976 231.63 219C231.07 218.024 230.79 216.904 230.79 215.64C230.79 214.376 231.062 213.256 231.606 212.28C232.166 211.304 232.926 210.544 233.886 210C234.862 209.44 235.958 209.16 237.174 209.16C238.406 209.16 239.494 209.432 240.438 209.976C241.382 210.52 242.118 211.288 242.646 212.28C243.19 213.256 243.462 214.4 243.462 215.712C243.462 215.808 243.454 215.92 243.438 216.048C243.438 216.176 243.43 216.296 243.414 216.408H232.59V214.752H242.214L241.278 215.328C241.294 214.512 241.126 213.784 240.774 213.144C240.422 212.504 239.934 212.008 239.31 211.656C238.702 211.288 237.99 211.104 237.174 211.104C236.374 211.104 235.662 211.288 235.038 211.656C234.414 212.008 233.926 212.512 233.574 213.168C233.222 213.808 233.046 214.544 233.046 215.376V215.76C233.046 216.608 233.238 217.368 233.622 218.04C234.022 218.696 234.574 219.208 235.278 219.576C235.982 219.944 236.79 220.128 237.702 220.128C238.454 220.128 239.134 220 239.742 219.744C240.366 219.488 240.91 219.104 241.374 218.592L242.646 220.08C242.07 220.752 241.35 221.264 240.486 221.616C239.638 221.968 238.686 222.144 237.63 222.144ZM247.037 222V209.28H249.341V214.68H256.589V209.28H258.893V222H256.589V216.672H249.341V222H247.037Z" fill="#4E4E4E"/>
</svg>
