<svg width="359" height="366" viewBox="0 0 359 366" fill="none" xmlns="http://www.w3.org/2000/svg">
<path d="M184.946 27.461C111.025 81.4511 29.9277 106.118 29.9277 106.118L29.9108 106.102C29.7944 106.096 29.3883 109.319 42.3404 203.56C56.252 304.779 175.826 338.681 175.826 338.681C175.826 338.681 297.189 311.382 317.007 211.091C335.463 117.715 335.247 114.472 335.126 114.47L335.11 114.486C335.11 114.486 255.59 85.4165 184.946 27.461ZM183.899 63.2133C229.512 97.1263 275.405 119.76 301.76 131.382C299.265 144.847 294.914 167.599 287.33 205.965C280.778 239.118 259.544 266.705 224.208 287.957C205.205 299.386 186.789 306.022 176.633 309.172C152.594 300.304 81.6831 268.559 72.2727 200.071C66.9471 161.35 63.9388 138.395 62.2352 124.817C89.2278 114.653 136.373 94.5738 183.899 63.2133Z" fill="#C7BCBC"/>
<path d="M68.3339 222.013C54.7849 186.792 49.7939 132.363 47.9715 99.5925C36.747 103.715 30.0988 105.724 30.0988 105.724L30.0818 105.708C29.9647 105.703 29.5556 108.923 42.5739 203.084C56.5566 304.217 176.858 338.075 176.858 338.075C176.858 338.075 186.293 335.963 200.332 330.772C124.033 308.556 86.0519 268.076 68.3339 222.013Z" fill="#696060"/>
<path d="M71.3297 111.692C71.3297 111.692 138.157 83.8429 163.833 68.0093C180.409 58.0085 185.84 53.6942 185.84 53.6942C185.84 53.6942 256.898 109.455 316.288 129.205C308.252 173.633 298.98 211.752 298.98 211.752C298.98 211.752 287.402 258.792 253.027 280.13C218.656 301.466 208.232 304.113 198.863 307.499C189.493 310.888 183.949 314.923 187.613 317.811C191.276 320.693 206.061 315.82 224.766 309.042C243.471 302.263 279.08 277.66 294.519 249.821C309.952 221.98 314.553 201.932 321.292 165.55C328.025 129.169 328.294 126.285 328.294 126.285C328.294 126.285 212.777 69.6435 186.561 39.7502C168.781 53.6502 120.629 82.6399 69.6443 99.9373C54.0363 106.014 52.0068 115.679 71.3297 111.692Z" fill="#847D7D"/>
<path d="M111.59 148.045H113.99V164.845H111.59V148.045ZM101.942 164.845H99.5425V148.045H101.942V164.845ZM111.806 157.357H101.702V155.269H111.806V157.357ZM124.51 164.989C123.15 164.989 121.95 164.709 120.91 164.149C119.886 163.589 119.086 162.821 118.51 161.845C117.95 160.869 117.67 159.749 117.67 158.485C117.67 157.221 117.942 156.101 118.486 155.125C119.046 154.149 119.806 153.389 120.766 152.845C121.742 152.285 122.838 152.005 124.054 152.005C125.286 152.005 126.374 152.277 127.318 152.821C128.262 153.365 128.998 154.133 129.526 155.125C130.07 156.101 130.342 157.245 130.342 158.557C130.342 158.653 130.334 158.765 130.318 158.893C130.318 159.021 130.31 159.141 130.294 159.253H119.47V157.597H129.094L128.158 158.173C128.174 157.357 128.006 156.629 127.654 155.989C127.302 155.349 126.814 154.853 126.19 154.501C125.582 154.133 124.87 153.949 124.054 153.949C123.254 153.949 122.542 154.133 121.918 154.501C121.294 154.853 120.806 155.357 120.454 156.013C120.102 156.653 119.926 157.389 119.926 158.221V158.605C119.926 159.453 120.118 160.213 120.502 160.885C120.902 161.541 121.454 162.053 122.158 162.421C122.862 162.789 123.67 162.973 124.582 162.973C125.334 162.973 126.014 162.845 126.622 162.589C127.246 162.333 127.79 161.949 128.254 161.437L129.526 162.925C128.95 163.597 128.23 164.109 127.366 164.461C126.518 164.813 125.566 164.989 124.51 164.989ZM145.81 164.989C144.53 164.989 143.394 164.709 142.402 164.149C141.41 163.589 140.626 162.821 140.05 161.845C139.474 160.853 139.186 159.733 139.186 158.485C139.186 157.221 139.474 156.101 140.05 155.125C140.626 154.149 141.41 153.389 142.402 152.845C143.394 152.285 144.53 152.005 145.81 152.005C147.074 152.005 148.202 152.285 149.194 152.845C150.202 153.389 150.986 154.149 151.546 155.125C152.122 156.085 152.41 157.205 152.41 158.485C152.41 159.749 152.122 160.869 151.546 161.845C150.986 162.821 150.202 163.589 149.194 164.149C148.202 164.709 147.074 164.989 145.81 164.989ZM145.81 162.973C146.626 162.973 147.354 162.789 147.994 162.421C148.65 162.053 149.162 161.533 149.53 160.861C149.898 160.173 150.082 159.381 150.082 158.485C150.082 157.573 149.898 156.789 149.53 156.133C149.162 155.461 148.65 154.941 147.994 154.573C147.354 154.205 146.626 154.021 145.81 154.021C144.994 154.021 144.266 154.205 143.626 154.573C142.986 154.941 142.474 155.461 142.09 156.133C141.706 156.789 141.514 157.573 141.514 158.485C141.514 159.381 141.706 160.173 142.09 160.861C142.474 161.533 142.986 162.053 143.626 162.421C144.266 162.789 144.994 162.973 145.81 162.973ZM161.281 164.989C159.985 164.989 158.825 164.709 157.801 164.149C156.793 163.589 156.001 162.821 155.425 161.845C154.849 160.869 154.561 159.749 154.561 158.485C154.561 157.221 154.849 156.101 155.425 155.125C156.001 154.149 156.793 153.389 157.801 152.845C158.825 152.285 159.985 152.005 161.281 152.005C162.433 152.005 163.457 152.237 164.353 152.701C165.265 153.149 165.969 153.821 166.465 154.717L164.713 155.845C164.297 155.221 163.785 154.765 163.177 154.477C162.585 154.173 161.945 154.021 161.257 154.021C160.425 154.021 159.681 154.205 159.025 154.573C158.369 154.941 157.849 155.461 157.465 156.133C157.081 156.789 156.889 157.573 156.889 158.485C156.889 159.397 157.081 160.189 157.465 160.861C157.849 161.533 158.369 162.053 159.025 162.421C159.681 162.789 160.425 162.973 161.257 162.973C161.945 162.973 162.585 162.829 163.177 162.541C163.785 162.237 164.297 161.773 164.713 161.149L166.465 162.253C165.969 163.133 165.265 163.813 164.353 164.293C163.457 164.757 162.433 164.989 161.281 164.989ZM171.803 164.845V153.541L172.379 154.141H167.147V152.125H178.763V154.141H173.555L174.107 153.541V164.845H171.803ZM188.919 164.845V162.157L188.799 161.653V157.069C188.799 156.093 188.511 155.341 187.935 154.813C187.375 154.269 186.527 153.997 185.391 153.997C184.639 153.997 183.903 154.125 183.183 154.381C182.463 154.621 181.855 154.949 181.359 155.365L180.399 153.637C181.055 153.109 181.839 152.709 182.751 152.437C183.679 152.149 184.647 152.005 185.655 152.005C187.399 152.005 188.743 152.429 189.687 153.277C190.631 154.125 191.103 155.421 191.103 157.165V164.845H188.919ZM184.743 164.989C183.799 164.989 182.967 164.829 182.247 164.509C181.543 164.189 180.999 163.749 180.615 163.189C180.231 162.613 180.039 161.965 180.039 161.245C180.039 160.557 180.199 159.933 180.519 159.373C180.855 158.813 181.391 158.365 182.127 158.029C182.879 157.693 183.887 157.525 185.151 157.525H189.183V159.181H185.247C184.095 159.181 183.319 159.373 182.919 159.757C182.519 160.141 182.319 160.605 182.319 161.149C182.319 161.773 182.567 162.277 183.063 162.661C183.559 163.029 184.247 163.213 185.127 163.213C185.991 163.213 186.743 163.021 187.383 162.637C188.039 162.253 188.511 161.693 188.799 160.957L189.255 162.541C188.951 163.293 188.415 163.893 187.647 164.341C186.879 164.773 185.911 164.989 184.743 164.989ZM195.252 164.845V152.125H201.156C202.644 152.125 203.812 152.413 204.66 152.989C205.524 153.549 205.956 154.349 205.956 155.389C205.956 156.429 205.548 157.237 204.732 157.813C203.932 158.373 202.868 158.653 201.54 158.653L201.9 158.029C203.42 158.029 204.548 158.309 205.284 158.869C206.02 159.429 206.388 160.253 206.388 161.341C206.388 162.445 205.972 163.309 205.14 163.933C204.324 164.541 203.068 164.845 201.372 164.845H195.252ZM197.508 163.069H201.204C202.164 163.069 202.884 162.925 203.364 162.637C203.844 162.333 204.084 161.853 204.084 161.197C204.084 160.525 203.86 160.037 203.412 159.733C202.98 159.413 202.292 159.253 201.348 159.253H197.508V163.069ZM197.508 157.597H200.964C201.844 157.597 202.508 157.437 202.956 157.117C203.42 156.781 203.652 156.317 203.652 155.725C203.652 155.117 203.42 154.661 202.956 154.357C202.508 154.053 201.844 153.901 200.964 153.901H197.508V157.597ZM207.882 164.821L208.026 162.877C208.138 162.893 208.242 162.909 208.338 162.925C208.434 162.941 208.522 162.949 208.602 162.949C209.114 162.949 209.514 162.773 209.802 162.421C210.106 162.069 210.33 161.605 210.474 161.029C210.618 160.437 210.722 159.773 210.786 159.037C210.85 158.301 210.898 157.565 210.93 156.829L211.146 152.125H220.914V164.845H218.61V153.469L219.162 154.141H212.634L213.162 153.445L212.994 156.973C212.946 158.093 212.858 159.141 212.73 160.117C212.602 161.093 212.402 161.949 212.13 162.685C211.874 163.421 211.514 163.997 211.05 164.413C210.602 164.829 210.018 165.037 209.298 165.037C209.09 165.037 208.866 165.013 208.626 164.965C208.402 164.933 208.154 164.885 207.882 164.821ZM233.505 164.845V160.381L233.865 160.813H229.809C228.113 160.813 226.785 160.453 225.825 159.733C224.881 159.013 224.409 157.965 224.409 156.589C224.409 155.117 224.913 154.005 225.921 153.253C226.945 152.501 228.305 152.125 230.001 152.125H235.569V164.845H233.505ZM224.289 164.845L227.745 159.973H230.121L226.761 164.845H224.289ZM233.505 159.661V153.493L233.865 154.141H230.073C229.017 154.141 228.201 154.341 227.625 154.741C227.049 155.125 226.761 155.765 226.761 156.661C226.761 158.325 227.833 159.157 229.977 159.157H233.865L233.505 159.661ZM245.729 164.989C244.369 164.989 243.169 164.709 242.129 164.149C241.105 163.589 240.305 162.821 239.729 161.845C239.169 160.869 238.889 159.749 238.889 158.485C238.889 157.221 239.161 156.101 239.705 155.125C240.265 154.149 241.025 153.389 241.985 152.845C242.961 152.285 244.057 152.005 245.273 152.005C246.505 152.005 247.593 152.277 248.537 152.821C249.481 153.365 250.217 154.133 250.745 155.125C251.289 156.101 251.561 157.245 251.561 158.557C251.561 158.653 251.553 158.765 251.537 158.893C251.537 159.021 251.529 159.141 251.513 159.253H240.689V157.597H250.313L249.377 158.173C249.393 157.357 249.225 156.629 248.873 155.989C248.521 155.349 248.033 154.853 247.409 154.501C246.801 154.133 246.089 153.949 245.273 153.949C244.473 153.949 243.761 154.133 243.137 154.501C242.513 154.853 242.025 155.357 241.673 156.013C241.321 156.653 241.145 157.389 241.145 158.221V158.605C241.145 159.453 241.337 160.213 241.721 160.885C242.121 161.541 242.673 162.053 243.377 162.421C244.081 162.789 244.889 162.973 245.801 162.973C246.553 162.973 247.233 162.845 247.841 162.589C248.465 162.333 249.009 161.949 249.473 161.437L250.745 162.925C250.169 163.597 249.449 164.109 248.585 164.461C247.737 164.813 246.785 164.989 245.729 164.989ZM257.116 164.845V153.541L257.692 154.141H252.46V152.125H264.076V154.141H258.868L259.42 153.541V164.845H257.116ZM125.07 194.989C123.774 194.989 122.614 194.709 121.59 194.149C120.582 193.589 119.79 192.821 119.214 191.845C118.638 190.869 118.35 189.749 118.35 188.485C118.35 187.221 118.638 186.101 119.214 185.125C119.79 184.149 120.582 183.389 121.59 182.845C122.614 182.285 123.774 182.005 125.07 182.005C126.222 182.005 127.246 182.237 128.142 182.701C129.054 183.149 129.758 183.821 130.254 184.717L128.502 185.845C128.086 185.221 127.574 184.765 126.966 184.477C126.374 184.173 125.734 184.021 125.046 184.021C124.214 184.021 123.47 184.205 122.814 184.573C122.158 184.941 121.638 185.461 121.254 186.133C120.87 186.789 120.678 187.573 120.678 188.485C120.678 189.397 120.87 190.189 121.254 190.861C121.638 191.533 122.158 192.053 122.814 192.421C123.47 192.789 124.214 192.973 125.046 192.973C125.734 192.973 126.374 192.829 126.966 192.541C127.574 192.237 128.086 191.773 128.502 191.149L130.254 192.253C129.758 193.133 129.054 193.813 128.142 194.293C127.246 194.757 126.222 194.989 125.07 194.989ZM130.75 194.821L130.894 192.877C131.006 192.893 131.11 192.909 131.206 192.925C131.302 192.941 131.39 192.949 131.47 192.949C131.982 192.949 132.382 192.773 132.67 192.421C132.974 192.069 133.198 191.605 133.342 191.029C133.486 190.437 133.59 189.773 133.654 189.037C133.718 188.301 133.766 187.565 133.798 186.829L134.014 182.125H143.782V194.845H141.478V183.469L142.03 184.141H135.502L136.03 183.445L135.862 186.973C135.814 188.093 135.726 189.141 135.598 190.117C135.47 191.093 135.27 191.949 134.998 192.685C134.742 193.421 134.382 193.997 133.918 194.413C133.47 194.829 132.886 195.037 132.166 195.037C131.958 195.037 131.734 195.013 131.494 194.965C131.27 194.933 131.022 194.885 130.75 194.821ZM153.901 194.989C152.541 194.989 151.341 194.709 150.301 194.149C149.277 193.589 148.477 192.821 147.901 191.845C147.341 190.869 147.061 189.749 147.061 188.485C147.061 187.221 147.333 186.101 147.877 185.125C148.437 184.149 149.197 183.389 150.157 182.845C151.133 182.285 152.229 182.005 153.445 182.005C154.677 182.005 155.765 182.277 156.709 182.821C157.653 183.365 158.389 184.133 158.917 185.125C159.461 186.101 159.733 187.245 159.733 188.557C159.733 188.653 159.725 188.765 159.709 188.893C159.709 189.021 159.701 189.141 159.685 189.253H148.861V187.597H158.485L157.549 188.173C157.565 187.357 157.397 186.629 157.045 185.989C156.693 185.349 156.205 184.853 155.581 184.501C154.973 184.133 154.261 183.949 153.445 183.949C152.645 183.949 151.933 184.133 151.309 184.501C150.685 184.853 150.197 185.357 149.845 186.013C149.493 186.653 149.317 187.389 149.317 188.221V188.605C149.317 189.453 149.509 190.213 149.893 190.885C150.293 191.541 150.845 192.053 151.549 192.421C152.253 192.789 153.061 192.973 153.973 192.973C154.725 192.973 155.405 192.845 156.013 192.589C156.637 192.333 157.181 191.949 157.645 191.437L158.917 192.925C158.341 193.597 157.621 194.109 156.757 194.461C155.909 194.813 154.957 194.989 153.901 194.989ZM171.784 193.765V184.141H166.264L166.144 186.589C166.112 187.389 166.056 188.165 165.976 188.917C165.912 189.653 165.8 190.333 165.64 190.957C165.496 191.581 165.28 192.093 164.992 192.493C164.704 192.893 164.32 193.141 163.84 193.237L161.56 192.829C162.056 192.845 162.456 192.685 162.76 192.349C163.064 191.997 163.296 191.517 163.456 190.909C163.632 190.301 163.76 189.613 163.84 188.845C163.92 188.061 163.984 187.253 164.032 186.421L164.224 182.125H174.088V193.765H171.784ZM161.056 197.797V192.829H176.032V197.797H173.872V194.845H163.24V197.797H161.056ZM184.481 194.989C183.201 194.989 182.065 194.709 181.073 194.149C180.081 193.589 179.297 192.821 178.721 191.845C178.145 190.853 177.857 189.733 177.857 188.485C177.857 187.221 178.145 186.101 178.721 185.125C179.297 184.149 180.081 183.389 181.073 182.845C182.065 182.285 183.201 182.005 184.481 182.005C185.745 182.005 186.873 182.285 187.865 182.845C188.873 183.389 189.657 184.149 190.217 185.125C190.793 186.085 191.081 187.205 191.081 188.485C191.081 189.749 190.793 190.869 190.217 191.845C189.657 192.821 188.873 193.589 187.865 194.149C186.873 194.709 185.745 194.989 184.481 194.989ZM184.481 192.973C185.297 192.973 186.025 192.789 186.665 192.421C187.321 192.053 187.833 191.533 188.201 190.861C188.569 190.173 188.753 189.381 188.753 188.485C188.753 187.573 188.569 186.789 188.201 186.133C187.833 185.461 187.321 184.941 186.665 184.573C186.025 184.205 185.297 184.021 184.481 184.021C183.665 184.021 182.937 184.205 182.297 184.573C181.657 184.941 181.145 185.461 180.761 186.133C180.377 186.789 180.185 187.573 180.185 188.485C180.185 189.381 180.377 190.173 180.761 190.861C181.145 191.533 181.657 192.053 182.297 192.421C182.937 192.789 183.665 192.973 184.481 192.973ZM194.408 194.845V182.125H200.312C201.8 182.125 202.968 182.413 203.816 182.989C204.68 183.549 205.112 184.349 205.112 185.389C205.112 186.429 204.704 187.237 203.888 187.813C203.088 188.373 202.024 188.653 200.696 188.653L201.056 188.029C202.576 188.029 203.704 188.309 204.44 188.869C205.176 189.429 205.544 190.253 205.544 191.341C205.544 192.445 205.128 193.309 204.296 193.933C203.48 194.541 202.224 194.845 200.528 194.845H194.408ZM196.664 193.069H200.36C201.32 193.069 202.04 192.925 202.52 192.637C203 192.333 203.24 191.853 203.24 191.197C203.24 190.525 203.016 190.037 202.568 189.733C202.136 189.413 201.448 189.253 200.504 189.253H196.664V193.069ZM196.664 187.597H200.12C201 187.597 201.664 187.437 202.112 187.117C202.576 186.781 202.808 186.317 202.808 185.725C202.808 185.117 202.576 184.661 202.112 184.357C201.664 184.053 201 183.901 200.12 183.901H196.664V187.597ZM215.596 194.845V182.125H217.9V187.525H225.148V182.125H227.452V194.845H225.148V189.517H217.9V194.845H215.596ZM239.732 194.845V192.157L239.612 191.653V187.069C239.612 186.093 239.324 185.341 238.748 184.813C238.188 184.269 237.34 183.997 236.204 183.997C235.452 183.997 234.716 184.125 233.996 184.381C233.276 184.621 232.668 184.949 232.172 185.365L231.212 183.637C231.868 183.109 232.652 182.709 233.564 182.437C234.492 182.149 235.46 182.005 236.468 182.005C238.212 182.005 239.556 182.429 240.5 183.277C241.444 184.125 241.916 185.421 241.916 187.165V194.845H239.732ZM235.556 194.989C234.612 194.989 233.78 194.829 233.06 194.509C232.356 194.189 231.812 193.749 231.428 193.189C231.044 192.613 230.852 191.965 230.852 191.245C230.852 190.557 231.012 189.933 231.332 189.373C231.668 188.813 232.204 188.365 232.94 188.029C233.692 187.693 234.7 187.525 235.964 187.525H239.996V189.181H236.06C234.908 189.181 234.132 189.373 233.732 189.757C233.332 190.141 233.132 190.605 233.132 191.149C233.132 191.773 233.38 192.277 233.876 192.661C234.372 193.029 235.06 193.213 235.94 193.213C236.804 193.213 237.556 193.021 238.196 192.637C238.852 192.253 239.324 191.693 239.612 190.957L240.068 192.541C239.764 193.293 239.228 193.893 238.46 194.341C237.692 194.773 236.724 194.989 235.556 194.989ZM139.587 224.989C138.307 224.989 137.171 224.709 136.179 224.149C135.187 223.589 134.403 222.821 133.827 221.845C133.251 220.853 132.963 219.733 132.963 218.485C132.963 217.221 133.251 216.101 133.827 215.125C134.403 214.149 135.187 213.389 136.179 212.845C137.171 212.285 138.307 212.005 139.587 212.005C140.851 212.005 141.979 212.285 142.971 212.845C143.979 213.389 144.763 214.149 145.323 215.125C145.899 216.085 146.187 217.205 146.187 218.485C146.187 219.749 145.899 220.869 145.323 221.845C144.763 222.821 143.979 223.589 142.971 224.149C141.979 224.709 140.851 224.989 139.587 224.989ZM139.587 222.973C140.403 222.973 141.131 222.789 141.771 222.421C142.427 222.053 142.939 221.533 143.307 220.861C143.675 220.173 143.859 219.381 143.859 218.485C143.859 217.573 143.675 216.789 143.307 216.133C142.939 215.461 142.427 214.941 141.771 214.573C141.131 214.205 140.403 214.021 139.587 214.021C138.771 214.021 138.043 214.205 137.403 214.573C136.763 214.941 136.251 215.461 135.867 216.133C135.483 216.789 135.291 217.573 135.291 218.485C135.291 219.381 135.483 220.173 135.867 220.861C136.251 221.533 136.763 222.053 137.403 222.421C138.043 222.789 138.771 222.973 139.587 222.973ZM158.108 223.765V214.141H152.588L152.468 216.589C152.436 217.389 152.38 218.165 152.3 218.917C152.236 219.653 152.124 220.333 151.964 220.957C151.82 221.581 151.604 222.093 151.316 222.493C151.028 222.893 150.644 223.141 150.164 223.237L147.884 222.829C148.38 222.845 148.78 222.685 149.084 222.349C149.388 221.997 149.62 221.517 149.78 220.909C149.956 220.301 150.084 219.613 150.164 218.845C150.244 218.061 150.308 217.253 150.356 216.421L150.548 212.125H160.412V223.765H158.108ZM147.38 227.797V222.829H162.356V227.797H160.196V224.845H149.564V227.797H147.38ZM171.022 224.989C169.662 224.989 168.462 224.709 167.422 224.149C166.398 223.589 165.598 222.821 165.022 221.845C164.462 220.869 164.182 219.749 164.182 218.485C164.182 217.221 164.454 216.101 164.998 215.125C165.558 214.149 166.318 213.389 167.278 212.845C168.254 212.285 169.35 212.005 170.566 212.005C171.798 212.005 172.886 212.277 173.83 212.821C174.774 213.365 175.51 214.133 176.038 215.125C176.582 216.101 176.854 217.245 176.854 218.557C176.854 218.653 176.846 218.765 176.83 218.893C176.83 219.021 176.822 219.141 176.806 219.253H165.982V217.597H175.606L174.67 218.173C174.686 217.357 174.518 216.629 174.166 215.989C173.814 215.349 173.326 214.853 172.702 214.501C172.094 214.133 171.382 213.949 170.566 213.949C169.766 213.949 169.054 214.133 168.43 214.501C167.806 214.853 167.318 215.357 166.966 216.013C166.614 216.653 166.438 217.389 166.438 218.221V218.605C166.438 219.453 166.63 220.213 167.014 220.885C167.414 221.541 167.966 222.053 168.67 222.421C169.374 222.789 170.182 222.973 171.094 222.973C171.846 222.973 172.526 222.845 173.134 222.589C173.758 222.333 174.302 221.949 174.766 221.437L176.038 222.925C175.462 223.597 174.742 224.109 173.878 224.461C173.03 224.813 172.078 224.989 171.022 224.989ZM195.172 224.845L191.116 218.653L193.012 217.501L197.908 224.845H195.172ZM188.476 219.469V217.501H192.604V219.469H188.476ZM193.228 218.749L191.044 218.461L195.1 212.125H197.572L193.228 218.749ZM180.892 224.845H178.156L183.028 217.501L184.924 218.653L180.892 224.845ZM189.172 224.845H186.868V212.125H189.172V224.845ZM187.564 219.469H183.46V217.501H187.564V219.469ZM182.836 218.749L178.492 212.125H180.94L184.996 218.461L182.836 218.749ZM209.132 223.765V214.141H203.612L203.492 216.589C203.46 217.389 203.404 218.165 203.324 218.917C203.26 219.653 203.148 220.333 202.988 220.957C202.844 221.581 202.628 222.093 202.34 222.493C202.052 222.893 201.668 223.141 201.188 223.237L198.908 222.829C199.404 222.845 199.804 222.685 200.108 222.349C200.412 221.997 200.644 221.517 200.804 220.909C200.98 220.301 201.108 219.613 201.188 218.845C201.268 218.061 201.332 217.253 201.38 216.421L201.572 212.125H211.436V223.765H209.132ZM198.404 227.797V222.829H213.38V227.797H211.22V224.845H200.588V227.797H198.404ZM222.045 224.989C220.685 224.989 219.485 224.709 218.445 224.149C217.421 223.589 216.621 222.821 216.045 221.845C215.485 220.869 215.205 219.749 215.205 218.485C215.205 217.221 215.477 216.101 216.021 215.125C216.581 214.149 217.341 213.389 218.301 212.845C219.277 212.285 220.373 212.005 221.589 212.005C222.821 212.005 223.909 212.277 224.853 212.821C225.797 213.365 226.533 214.133 227.061 215.125C227.605 216.101 227.877 217.245 227.877 218.557C227.877 218.653 227.869 218.765 227.853 218.893C227.853 219.021 227.845 219.141 227.829 219.253H217.005V217.597H226.629L225.693 218.173C225.709 217.357 225.541 216.629 225.189 215.989C224.837 215.349 224.349 214.853 223.725 214.501C223.117 214.133 222.405 213.949 221.589 213.949C220.789 213.949 220.077 214.133 219.453 214.501C218.829 214.853 218.341 215.357 217.989 216.013C217.637 216.653 217.461 217.389 217.461 218.221V218.605C217.461 219.453 217.653 220.213 218.037 220.885C218.437 221.541 218.989 222.053 219.693 222.421C220.397 222.789 221.205 222.973 222.117 222.973C222.869 222.973 223.549 222.845 224.157 222.589C224.781 222.333 225.325 221.949 225.789 221.437L227.061 222.925C226.485 223.597 225.765 224.109 224.901 224.461C224.053 224.813 223.101 224.989 222.045 224.989Z" fill="#4E4E4E"/>
</svg>
