<svg width="366" height="366" viewBox="0 0 366 366" fill="none" xmlns="http://www.w3.org/2000/svg">
<path d="M183.95 27.4962C110.01 81.4741 28.8925 106.135 28.8925 106.135L28.8755 106.119C28.7591 106.113 28.3529 109.336 41.3082 203.556C55.2233 304.752 174.828 338.646 174.828 338.646C174.828 338.646 296.22 311.352 316.043 211.084C334.504 117.73 334.288 114.487 334.167 114.485L334.151 114.502C334.151 114.502 254.611 85.4385 183.95 27.4962ZM182.902 63.2404C228.526 97.1457 274.431 119.775 300.793 131.394C298.297 144.855 293.945 167.602 286.359 205.96C279.806 239.105 258.566 266.686 223.221 287.933C204.213 299.359 185.793 305.994 175.635 309.143C151.59 300.278 80.6607 268.54 71.248 200.067C65.9211 161.354 62.912 138.405 61.208 124.83C88.2074 114.669 135.364 94.5938 182.902 63.2404Z" fill="#C7BCBC"/>
<path d="M67.1706 222.497C53.6074 187.255 48.6111 132.794 46.7869 100.004C35.5505 104.129 28.8953 106.14 28.8953 106.14L28.8783 106.124C28.7611 106.118 28.3516 109.341 41.3836 203.557C55.3809 304.749 175.809 338.627 175.809 338.627C175.809 338.627 185.253 336.513 199.308 331.319C122.928 309.091 84.9072 268.587 67.1706 222.497Z" fill="#696060"/>
<path d="M70.0344 114.278C70.0344 114.278 136.484 85.0998 161.905 68.7536C178.321 58.4219 183.677 53.9987 183.677 53.9987C183.677 53.9987 256.153 108.378 316.156 126.964C309.041 171.567 300.551 209.883 300.551 209.883C300.551 209.883 289.938 257.17 255.907 279.194C221.881 301.217 211.479 304.07 202.152 307.642C192.825 311.218 187.349 315.364 191.086 318.18C194.822 320.991 209.551 315.824 228.172 308.675C246.793 301.524 281.992 276.209 296.887 248.055C311.777 219.899 315.965 199.753 321.95 163.224C327.929 126.696 328.138 123.806 328.138 123.806C328.138 123.806 211.041 69.4225 184.104 40.0353C166.563 54.2914 118.874 84.2423 68.0929 102.552C52.5642 108.939 50.7341 118.648 70.0344 114.278Z" fill="#847D7D"/>
<path d="M110.546 161.6H112.946V178.4H110.546V161.6ZM100.898 178.4H98.4983V161.6H100.898V178.4ZM110.762 170.912H100.658V168.824H110.762V170.912ZM123.466 178.544C122.106 178.544 120.906 178.264 119.866 177.704C118.842 177.144 118.042 176.376 117.466 175.4C116.906 174.424 116.626 173.304 116.626 172.04C116.626 170.776 116.898 169.656 117.442 168.68C118.002 167.704 118.762 166.944 119.722 166.4C120.698 165.84 121.794 165.56 123.01 165.56C124.242 165.56 125.33 165.832 126.274 166.376C127.218 166.92 127.954 167.688 128.482 168.68C129.026 169.656 129.298 170.8 129.298 172.112C129.298 172.208 129.29 172.32 129.274 172.448C129.274 172.576 129.266 172.696 129.25 172.808H118.426V171.152H128.05L127.114 171.728C127.13 170.912 126.962 170.184 126.61 169.544C126.258 168.904 125.77 168.408 125.146 168.056C124.538 167.688 123.826 167.504 123.01 167.504C122.21 167.504 121.498 167.688 120.874 168.056C120.25 168.408 119.762 168.912 119.41 169.568C119.058 170.208 118.882 170.944 118.882 171.776V172.16C118.882 173.008 119.074 173.768 119.458 174.44C119.858 175.096 120.41 175.608 121.114 175.976C121.818 176.344 122.626 176.528 123.538 176.528C124.29 176.528 124.97 176.4 125.578 176.144C126.202 175.888 126.746 175.504 127.21 174.992L128.482 176.48C127.906 177.152 127.186 177.664 126.322 178.016C125.474 178.368 124.522 178.544 123.466 178.544ZM144.861 178.544C143.565 178.544 142.405 178.264 141.381 177.704C140.373 177.144 139.581 176.376 139.005 175.4C138.429 174.424 138.141 173.304 138.141 172.04C138.141 170.776 138.429 169.656 139.005 168.68C139.581 167.704 140.373 166.944 141.381 166.4C142.405 165.84 143.565 165.56 144.861 165.56C146.013 165.56 147.037 165.792 147.933 166.256C148.845 166.704 149.549 167.376 150.045 168.272L148.293 169.4C147.877 168.776 147.365 168.32 146.757 168.032C146.165 167.728 145.525 167.576 144.837 167.576C144.005 167.576 143.261 167.76 142.605 168.128C141.949 168.496 141.429 169.016 141.045 169.688C140.661 170.344 140.469 171.128 140.469 172.04C140.469 172.952 140.661 173.744 141.045 174.416C141.429 175.088 141.949 175.608 142.605 175.976C143.261 176.344 144.005 176.528 144.837 176.528C145.525 176.528 146.165 176.384 146.757 176.096C147.365 175.792 147.877 175.328 148.293 174.704L150.045 175.808C149.549 176.688 148.845 177.368 147.933 177.848C147.037 178.312 146.013 178.544 144.861 178.544ZM158.289 178.544C157.009 178.544 155.873 178.264 154.881 177.704C153.889 177.144 153.105 176.376 152.529 175.4C151.953 174.408 151.665 173.288 151.665 172.04C151.665 170.776 151.953 169.656 152.529 168.68C153.105 167.704 153.889 166.944 154.881 166.4C155.873 165.84 157.009 165.56 158.289 165.56C159.553 165.56 160.681 165.84 161.673 166.4C162.681 166.944 163.465 167.704 164.025 168.68C164.601 169.64 164.889 170.76 164.889 172.04C164.889 173.304 164.601 174.424 164.025 175.4C163.465 176.376 162.681 177.144 161.673 177.704C160.681 178.264 159.553 178.544 158.289 178.544ZM158.289 176.528C159.105 176.528 159.833 176.344 160.473 175.976C161.129 175.608 161.641 175.088 162.009 174.416C162.377 173.728 162.561 172.936 162.561 172.04C162.561 171.128 162.377 170.344 162.009 169.688C161.641 169.016 161.129 168.496 160.473 168.128C159.833 167.76 159.105 167.576 158.289 167.576C157.473 167.576 156.745 167.76 156.105 168.128C155.465 168.496 154.953 169.016 154.569 169.688C154.185 170.344 153.993 171.128 153.993 172.04C153.993 172.936 154.185 173.728 154.569 174.416C154.953 175.088 155.465 175.608 156.105 175.976C156.745 176.344 157.473 176.528 158.289 176.528ZM176.81 177.32V167.696H171.29L171.17 170.144C171.138 170.944 171.082 171.72 171.002 172.472C170.938 173.208 170.826 173.888 170.666 174.512C170.522 175.136 170.306 175.648 170.018 176.048C169.73 176.448 169.346 176.696 168.866 176.792L166.586 176.384C167.082 176.4 167.482 176.24 167.786 175.904C168.09 175.552 168.322 175.072 168.482 174.464C168.658 173.856 168.786 173.168 168.866 172.4C168.946 171.616 169.01 170.808 169.058 169.976L169.25 165.68H179.114V177.32H176.81ZM166.082 181.352V176.384H181.058V181.352H178.898V178.4H168.266V181.352H166.082ZM189.724 178.544C188.364 178.544 187.164 178.264 186.124 177.704C185.1 177.144 184.3 176.376 183.724 175.4C183.164 174.424 182.884 173.304 182.884 172.04C182.884 170.776 183.156 169.656 183.7 168.68C184.26 167.704 185.02 166.944 185.98 166.4C186.956 165.84 188.052 165.56 189.268 165.56C190.5 165.56 191.588 165.832 192.532 166.376C193.476 166.92 194.212 167.688 194.74 168.68C195.284 169.656 195.556 170.8 195.556 172.112C195.556 172.208 195.548 172.32 195.532 172.448C195.532 172.576 195.524 172.696 195.508 172.808H184.684V171.152H194.308L193.372 171.728C193.388 170.912 193.22 170.184 192.868 169.544C192.516 168.904 192.028 168.408 191.404 168.056C190.796 167.688 190.084 167.504 189.268 167.504C188.468 167.504 187.756 167.688 187.132 168.056C186.508 168.408 186.02 168.912 185.668 169.568C185.316 170.208 185.14 170.944 185.14 171.776V172.16C185.14 173.008 185.332 173.768 185.716 174.44C186.116 175.096 186.668 175.608 187.372 175.976C188.076 176.344 188.884 176.528 189.796 176.528C190.548 176.528 191.228 176.4 191.836 176.144C192.46 175.888 193.004 175.504 193.468 174.992L194.74 176.48C194.164 177.152 193.444 177.664 192.58 178.016C191.732 178.368 190.78 178.544 189.724 178.544ZM205.874 178.544C204.818 178.544 203.85 178.304 202.97 177.824C202.106 177.328 201.41 176.6 200.882 175.64C200.37 174.68 200.114 173.48 200.114 172.04C200.114 170.6 200.362 169.4 200.858 168.44C201.37 167.48 202.058 166.76 202.922 166.28C203.802 165.8 204.786 165.56 205.874 165.56C207.122 165.56 208.226 165.832 209.186 166.376C210.146 166.92 210.906 167.68 211.466 168.656C212.026 169.616 212.306 170.744 212.306 172.04C212.306 173.336 212.026 174.472 211.466 175.448C210.906 176.424 210.146 177.184 209.186 177.728C208.226 178.272 207.122 178.544 205.874 178.544ZM199.13 183.056V165.68H201.338V169.112L201.194 172.064L201.434 175.016V183.056H199.13ZM205.682 176.528C206.498 176.528 207.226 176.344 207.866 175.976C208.522 175.608 209.034 175.088 209.402 174.416C209.786 173.728 209.978 172.936 209.978 172.04C209.978 171.128 209.786 170.344 209.402 169.688C209.034 169.016 208.522 168.496 207.866 168.128C207.226 167.76 206.498 167.576 205.682 167.576C204.882 167.576 204.154 167.76 203.498 168.128C202.858 168.496 202.346 169.016 201.962 169.688C201.594 170.344 201.41 171.128 201.41 172.04C201.41 172.936 201.594 173.728 201.962 174.416C202.346 175.088 202.858 175.608 203.498 175.976C204.154 176.344 204.882 176.528 205.682 176.528ZM230.327 178.4L226.271 172.208L228.167 171.056L233.063 178.4H230.327ZM223.631 173.024V171.056H227.759V173.024H223.631ZM228.383 172.304L226.199 172.016L230.255 165.68H232.727L228.383 172.304ZM216.047 178.4H213.311L218.183 171.056L220.079 172.208L216.047 178.4ZM224.327 178.4H222.023V165.68H224.327V178.4ZM222.719 173.024H218.615V171.056H222.719V173.024ZM217.991 172.304L213.647 165.68H216.095L220.151 172.016L217.991 172.304ZM235.599 178.4V165.68H237.903V174.944L245.703 165.68H247.791V178.4H245.487V169.136L237.711 178.4H235.599ZM254.783 178.4V167.096L255.359 167.696H250.127V165.68H261.743V167.696H256.535L257.087 167.096V178.4H254.783ZM111.942 208.4V195.68H123.726V208.4H121.422V197.12L121.974 197.696H113.694L114.246 197.12V208.4H111.942ZM135.985 208.4V205.712L135.865 205.208V200.624C135.865 199.648 135.577 198.896 135.001 198.368C134.441 197.824 133.593 197.552 132.457 197.552C131.705 197.552 130.969 197.68 130.249 197.936C129.529 198.176 128.921 198.504 128.425 198.92L127.465 197.192C128.121 196.664 128.905 196.264 129.817 195.992C130.745 195.704 131.713 195.56 132.721 195.56C134.465 195.56 135.809 195.984 136.753 196.832C137.697 197.68 138.169 198.976 138.169 200.72V208.4H135.985ZM131.809 208.544C130.865 208.544 130.033 208.384 129.313 208.064C128.609 207.744 128.065 207.304 127.681 206.744C127.297 206.168 127.105 205.52 127.105 204.8C127.105 204.112 127.265 203.488 127.585 202.928C127.921 202.368 128.457 201.92 129.193 201.584C129.945 201.248 130.953 201.08 132.217 201.08H136.249V202.736H132.313C131.161 202.736 130.385 202.928 129.985 203.312C129.585 203.696 129.385 204.16 129.385 204.704C129.385 205.328 129.633 205.832 130.129 206.216C130.625 206.584 131.313 206.768 132.193 206.768C133.057 206.768 133.809 206.576 134.449 206.192C135.105 205.808 135.577 205.248 135.865 204.512L136.321 206.096C136.017 206.848 135.481 207.448 134.713 207.896C133.945 208.328 132.977 208.544 131.809 208.544ZM149.061 208.544C148.005 208.544 147.037 208.304 146.157 207.824C145.293 207.328 144.597 206.6 144.069 205.64C143.557 204.68 143.301 203.48 143.301 202.04C143.301 200.6 143.549 199.4 144.045 198.44C144.557 197.48 145.245 196.76 146.109 196.28C146.989 195.8 147.973 195.56 149.061 195.56C150.309 195.56 151.413 195.832 152.373 196.376C153.333 196.92 154.093 197.68 154.653 198.656C155.213 199.616 155.493 200.744 155.493 202.04C155.493 203.336 155.213 204.472 154.653 205.448C154.093 206.424 153.333 207.184 152.373 207.728C151.413 208.272 150.309 208.544 149.061 208.544ZM142.317 213.056V195.68H144.525V199.112L144.381 202.064L144.621 205.016V213.056H142.317ZM148.869 206.528C149.685 206.528 150.413 206.344 151.053 205.976C151.709 205.608 152.221 205.088 152.589 204.416C152.973 203.728 153.165 202.936 153.165 202.04C153.165 201.128 152.973 200.344 152.589 199.688C152.221 199.016 151.709 198.496 151.053 198.128C150.413 197.76 149.685 197.576 148.869 197.576C148.069 197.576 147.341 197.76 146.685 198.128C146.045 198.496 145.533 199.016 145.149 199.688C144.781 200.344 144.597 201.128 144.597 202.04C144.597 202.936 144.781 203.728 145.149 204.416C145.533 205.088 146.045 205.608 146.685 205.976C147.341 206.344 148.069 206.528 148.869 206.528ZM166.524 208.4V205.712L166.404 205.208V200.624C166.404 199.648 166.116 198.896 165.54 198.368C164.98 197.824 164.132 197.552 162.996 197.552C162.244 197.552 161.508 197.68 160.788 197.936C160.068 198.176 159.46 198.504 158.964 198.92L158.004 197.192C158.66 196.664 159.444 196.264 160.356 195.992C161.284 195.704 162.252 195.56 163.26 195.56C165.004 195.56 166.348 195.984 167.292 196.832C168.236 197.68 168.708 198.976 168.708 200.72V208.4H166.524ZM162.348 208.544C161.404 208.544 160.572 208.384 159.852 208.064C159.148 207.744 158.604 207.304 158.22 206.744C157.836 206.168 157.644 205.52 157.644 204.8C157.644 204.112 157.804 203.488 158.124 202.928C158.46 202.368 158.996 201.92 159.732 201.584C160.484 201.248 161.492 201.08 162.756 201.08H166.788V202.736H162.852C161.7 202.736 160.924 202.928 160.524 203.312C160.124 203.696 159.924 204.16 159.924 204.704C159.924 205.328 160.172 205.832 160.668 206.216C161.164 206.584 161.852 206.768 162.732 206.768C163.596 206.768 164.348 206.576 164.988 206.192C165.644 205.808 166.116 205.248 166.404 204.512L166.86 206.096C166.556 206.848 166.02 207.448 165.252 207.896C164.484 208.328 163.516 208.544 162.348 208.544ZM178.736 208.592C177.68 208.592 176.744 208.424 175.928 208.088C175.128 207.752 174.44 207.256 173.864 206.6C173.288 205.928 172.848 205.088 172.544 204.08C172.256 203.056 172.112 201.856 172.112 200.48C172.112 199.392 172.208 198.416 172.4 197.552C172.592 196.688 172.864 195.92 173.216 195.248C173.584 194.576 174.032 193.992 174.56 193.496C175.104 193 175.712 192.592 176.384 192.272C177.072 191.936 177.824 191.68 178.64 191.504L184.448 190.208L184.784 192.344L179.432 193.496C179.112 193.56 178.728 193.656 178.28 193.784C177.832 193.912 177.376 194.112 176.912 194.384C176.448 194.64 176.016 195 175.616 195.464C175.216 195.928 174.896 196.536 174.656 197.288C174.416 198.024 174.296 198.936 174.296 200.024C174.296 200.328 174.304 200.56 174.32 200.72C174.336 200.88 174.352 201.04 174.368 201.2C174.4 201.36 174.424 201.6 174.44 201.92L173.48 200.936C173.736 200.056 174.144 199.288 174.704 198.632C175.264 197.976 175.936 197.472 176.72 197.12C177.52 196.752 178.392 196.568 179.336 196.568C180.52 196.568 181.568 196.824 182.48 197.336C183.408 197.848 184.136 198.552 184.664 199.448C185.192 200.344 185.456 201.368 185.456 202.52C185.456 203.688 185.176 204.736 184.616 205.664C184.072 206.576 183.296 207.296 182.288 207.824C181.28 208.336 180.096 208.592 178.736 208.592ZM178.952 206.672C179.768 206.672 180.488 206.496 181.112 206.144C181.736 205.776 182.224 205.288 182.576 204.68C182.928 204.056 183.104 203.36 183.104 202.592C183.104 201.824 182.928 201.144 182.576 200.552C182.224 199.96 181.736 199.496 181.112 199.16C180.488 198.808 179.752 198.632 178.904 198.632C178.104 198.632 177.384 198.8 176.744 199.136C176.104 199.456 175.608 199.912 175.256 200.504C174.904 201.08 174.728 201.752 174.728 202.52C174.728 203.288 174.904 203.992 175.256 204.632C175.624 205.256 176.12 205.752 176.744 206.12C177.384 206.488 178.12 206.672 178.952 206.672ZM194.411 208.544C193.051 208.544 191.851 208.264 190.811 207.704C189.787 207.144 188.987 206.376 188.411 205.4C187.851 204.424 187.571 203.304 187.571 202.04C187.571 200.776 187.843 199.656 188.387 198.68C188.947 197.704 189.707 196.944 190.667 196.4C191.643 195.84 192.739 195.56 193.955 195.56C195.187 195.56 196.275 195.832 197.219 196.376C198.163 196.92 198.899 197.688 199.427 198.68C199.971 199.656 200.243 200.8 200.243 202.112C200.243 202.208 200.235 202.32 200.219 202.448C200.219 202.576 200.211 202.696 200.195 202.808H189.371V201.152H198.995L198.059 201.728C198.075 200.912 197.907 200.184 197.555 199.544C197.203 198.904 196.715 198.408 196.091 198.056C195.483 197.688 194.771 197.504 193.955 197.504C193.155 197.504 192.443 197.688 191.819 198.056C191.195 198.408 190.707 198.912 190.355 199.568C190.003 200.208 189.827 200.944 189.827 201.776V202.16C189.827 203.008 190.019 203.768 190.403 204.44C190.803 205.096 191.355 205.608 192.059 205.976C192.763 206.344 193.571 206.528 194.483 206.528C195.235 206.528 195.915 206.4 196.523 206.144C197.147 205.888 197.691 205.504 198.155 204.992L199.427 206.48C198.851 207.152 198.131 207.664 197.267 208.016C196.419 208.368 195.467 208.544 194.411 208.544ZM203.817 208.4V195.68H206.121V201.08H213.369V195.68H215.673V208.4H213.369V203.072H206.121V208.4H203.817ZM225.601 208.544C224.321 208.544 223.185 208.264 222.193 207.704C221.201 207.144 220.417 206.376 219.841 205.4C219.265 204.408 218.977 203.288 218.977 202.04C218.977 200.776 219.265 199.656 219.841 198.68C220.417 197.704 221.201 196.944 222.193 196.4C223.185 195.84 224.321 195.56 225.601 195.56C226.865 195.56 227.993 195.84 228.985 196.4C229.993 196.944 230.777 197.704 231.337 198.68C231.913 199.64 232.201 200.76 232.201 202.04C232.201 203.304 231.913 204.424 231.337 205.4C230.777 206.376 229.993 207.144 228.985 207.704C227.993 208.264 226.865 208.544 225.601 208.544ZM225.601 206.528C226.417 206.528 227.145 206.344 227.785 205.976C228.441 205.608 228.953 205.088 229.321 204.416C229.689 203.728 229.873 202.936 229.873 202.04C229.873 201.128 229.689 200.344 229.321 199.688C228.953 199.016 228.441 198.496 227.785 198.128C227.145 197.76 226.417 197.576 225.601 197.576C224.785 197.576 224.057 197.76 223.417 198.128C222.777 198.496 222.265 199.016 221.881 199.688C221.497 200.344 221.305 201.128 221.305 202.04C221.305 202.936 221.497 203.728 221.881 204.416C222.265 205.088 222.777 205.608 223.417 205.976C224.057 206.344 224.785 206.528 225.601 206.528ZM235.528 208.4V195.68H241.432C242.92 195.68 244.088 195.968 244.936 196.544C245.8 197.104 246.232 197.904 246.232 198.944C246.232 199.984 245.824 200.792 245.008 201.368C244.208 201.928 243.144 202.208 241.816 202.208L242.176 201.584C243.696 201.584 244.824 201.864 245.56 202.424C246.296 202.984 246.664 203.808 246.664 204.896C246.664 206 246.248 206.864 245.416 207.488C244.6 208.096 243.344 208.4 241.648 208.4H235.528ZM237.784 206.624H241.48C242.44 206.624 243.16 206.48 243.64 206.192C244.12 205.888 244.36 205.408 244.36 204.752C244.36 204.08 244.136 203.592 243.688 203.288C243.256 202.968 242.568 202.808 241.624 202.808H237.784V206.624ZM237.784 201.152H241.24C242.12 201.152 242.784 200.992 243.232 200.672C243.696 200.336 243.928 199.872 243.928 199.28C243.928 198.672 243.696 198.216 243.232 197.912C242.784 197.608 242.12 197.456 241.24 197.456H237.784V201.152Z" fill="#4E4E4E"/>
</svg>
