<svg width="366" height="366" viewBox="0 0 366 366" fill="none" xmlns="http://www.w3.org/2000/svg">
<path d="M183.949 27.4609C110.028 81.4509 28.9306 106.117 28.9306 106.117L28.9137 106.101C28.7973 106.096 28.3912 109.319 41.3433 203.56C55.255 304.779 174.829 338.681 174.829 338.681C174.829 338.681 296.192 311.381 316.01 211.09C334.466 117.715 334.25 114.471 334.129 114.47L334.113 114.486C334.113 114.486 254.593 85.4163 183.949 27.4609ZM182.902 63.2132C228.515 97.1262 274.408 119.76 300.763 131.382C298.268 144.847 293.917 167.598 286.333 205.965C279.781 239.118 258.546 266.705 223.211 287.957C204.208 299.386 185.792 306.022 175.636 309.172C151.597 300.304 80.686 268.559 71.2756 200.071C65.95 161.349 62.9417 138.395 61.2381 124.816C88.2308 114.653 135.376 94.5737 182.902 63.2132Z" fill="#C7BCBC"/>
<path d="M67.3369 222.013C53.7878 186.792 48.7968 132.363 46.9745 99.5924C35.7499 103.715 29.1017 105.724 29.1017 105.724L29.0847 105.708C28.9676 105.702 28.5585 108.923 41.5768 203.084C55.5595 304.217 175.861 338.075 175.861 338.075C175.861 338.075 185.295 335.963 199.335 330.772C123.036 308.556 85.0548 268.076 67.3369 222.013Z" fill="#696060"/>
<path d="M70.3327 111.692C70.3327 111.692 137.16 83.8429 162.836 68.0093C179.412 58.0085 184.843 53.6942 184.843 53.6942C184.843 53.6942 255.901 109.455 315.291 129.205C307.255 173.633 297.983 211.752 297.983 211.752C297.983 211.752 286.405 258.792 252.03 280.13C217.659 301.466 207.235 304.113 197.866 307.499C188.496 310.888 182.952 314.923 186.616 317.811C190.279 320.693 205.064 315.82 223.769 309.042C242.474 302.263 278.083 277.66 293.522 249.821C308.955 221.98 313.556 201.932 320.295 165.55C327.027 129.169 327.297 126.285 327.297 126.285C327.297 126.285 211.78 69.6435 185.564 39.7502C167.784 53.6502 119.632 82.6399 68.6472 99.9373C53.0393 106.014 51.0097 115.679 70.3327 111.692Z" fill="#847D7D"/>
<path d="M138.11 150.888C138.942 151.192 139.71 151.272 140.414 151.128C141.118 150.968 141.75 150.432 142.31 149.52L143.126 148.224L143.366 147.96L149.534 136.2H151.91L144.446 150.024C143.886 151.08 143.23 151.88 142.478 152.424C141.742 152.952 140.942 153.24 140.078 153.288C139.23 153.352 138.366 153.192 137.486 152.808L138.11 150.888ZM143.294 150.096L135.926 136.2H138.494L144.614 148.176L143.294 150.096ZM162.142 151.92V142.296H156.622L156.502 144.744C156.47 145.544 156.414 146.32 156.334 147.072C156.27 147.808 156.158 148.488 155.998 149.112C155.854 149.736 155.638 150.248 155.35 150.648C155.062 151.048 154.678 151.296 154.198 151.392L151.918 150.984C152.414 151 152.814 150.84 153.118 150.504C153.422 150.152 153.654 149.672 153.814 149.064C153.99 148.456 154.118 147.768 154.198 147C154.278 146.216 154.342 145.408 154.39 144.576L154.582 140.28H164.446V151.92H162.142ZM151.414 155.952V150.984H166.39V155.952H164.23V153H153.598V155.952H151.414ZM174.839 153.144C173.559 153.144 172.423 152.864 171.431 152.304C170.439 151.744 169.655 150.976 169.079 150C168.503 149.008 168.215 147.888 168.215 146.64C168.215 145.376 168.503 144.256 169.079 143.28C169.655 142.304 170.439 141.544 171.431 141C172.423 140.44 173.559 140.16 174.839 140.16C176.103 140.16 177.231 140.44 178.223 141C179.231 141.544 180.015 142.304 180.575 143.28C181.151 144.24 181.439 145.36 181.439 146.64C181.439 147.904 181.151 149.024 180.575 150C180.015 150.976 179.231 151.744 178.223 152.304C177.231 152.864 176.103 153.144 174.839 153.144ZM174.839 151.128C175.655 151.128 176.383 150.944 177.023 150.576C177.679 150.208 178.191 149.688 178.559 149.016C178.927 148.328 179.111 147.536 179.111 146.64C179.111 145.728 178.927 144.944 178.559 144.288C178.191 143.616 177.679 143.096 177.023 142.728C176.383 142.36 175.655 142.176 174.839 142.176C174.023 142.176 173.295 142.36 172.655 142.728C172.015 143.096 171.503 143.616 171.119 144.288C170.735 144.944 170.543 145.728 170.543 146.64C170.543 147.536 170.735 148.328 171.119 149.016C171.503 149.688 172.015 150.208 172.655 150.576C173.295 150.944 174.023 151.128 174.839 151.128ZM190.646 153.192C189.59 153.192 188.654 153.024 187.838 152.688C187.038 152.352 186.35 151.856 185.774 151.2C185.198 150.528 184.758 149.688 184.454 148.68C184.166 147.656 184.022 146.456 184.022 145.08C184.022 143.992 184.118 143.016 184.31 142.152C184.502 141.288 184.774 140.52 185.126 139.848C185.494 139.176 185.942 138.592 186.47 138.096C187.014 137.6 187.622 137.192 188.294 136.872C188.982 136.536 189.734 136.28 190.55 136.104L196.358 134.808L196.694 136.944L191.342 138.096C191.022 138.16 190.638 138.256 190.19 138.384C189.742 138.512 189.286 138.712 188.822 138.984C188.358 139.24 187.926 139.6 187.526 140.064C187.126 140.528 186.806 141.136 186.566 141.888C186.326 142.624 186.206 143.536 186.206 144.624C186.206 144.928 186.214 145.16 186.23 145.32C186.246 145.48 186.262 145.64 186.278 145.8C186.31 145.96 186.334 146.2 186.35 146.52L185.39 145.536C185.646 144.656 186.054 143.888 186.614 143.232C187.174 142.576 187.846 142.072 188.63 141.72C189.43 141.352 190.302 141.168 191.246 141.168C192.43 141.168 193.478 141.424 194.39 141.936C195.318 142.448 196.046 143.152 196.574 144.048C197.102 144.944 197.366 145.968 197.366 147.12C197.366 148.288 197.086 149.336 196.526 150.264C195.982 151.176 195.206 151.896 194.198 152.424C193.19 152.936 192.006 153.192 190.646 153.192ZM190.862 151.272C191.678 151.272 192.398 151.096 193.022 150.744C193.646 150.376 194.134 149.888 194.486 149.28C194.838 148.656 195.014 147.96 195.014 147.192C195.014 146.424 194.838 145.744 194.486 145.152C194.134 144.56 193.646 144.096 193.022 143.76C192.398 143.408 191.662 143.232 190.814 143.232C190.014 143.232 189.294 143.4 188.654 143.736C188.014 144.056 187.518 144.512 187.166 145.104C186.814 145.68 186.638 146.352 186.638 147.12C186.638 147.888 186.814 148.592 187.166 149.232C187.534 149.856 188.03 150.352 188.654 150.72C189.294 151.088 190.03 151.272 190.862 151.272ZM200.657 153V140.28H202.961V145.68H210.209V140.28H212.513V153H210.209V147.672H202.961V153H200.657ZM222.441 153.144C221.161 153.144 220.025 152.864 219.033 152.304C218.041 151.744 217.257 150.976 216.681 150C216.105 149.008 215.817 147.888 215.817 146.64C215.817 145.376 216.105 144.256 216.681 143.28C217.257 142.304 218.041 141.544 219.033 141C220.025 140.44 221.161 140.16 222.441 140.16C223.705 140.16 224.833 140.44 225.825 141C226.833 141.544 227.617 142.304 228.177 143.28C228.753 144.24 229.041 145.36 229.041 146.64C229.041 147.904 228.753 149.024 228.177 150C227.617 150.976 226.833 151.744 225.825 152.304C224.833 152.864 223.705 153.144 222.441 153.144ZM222.441 151.128C223.257 151.128 223.985 150.944 224.625 150.576C225.281 150.208 225.793 149.688 226.161 149.016C226.529 148.328 226.713 147.536 226.713 146.64C226.713 145.728 226.529 144.944 226.161 144.288C225.793 143.616 225.281 143.096 224.625 142.728C223.985 142.36 223.257 142.176 222.441 142.176C221.625 142.176 220.897 142.36 220.257 142.728C219.617 143.096 219.105 143.616 218.721 144.288C218.337 144.944 218.145 145.728 218.145 146.64C218.145 147.536 218.337 148.328 218.721 149.016C219.105 149.688 219.617 150.208 220.257 150.576C220.897 150.944 221.625 151.128 222.441 151.128ZM109.948 183.144C108.892 183.144 107.924 182.904 107.044 182.424C106.18 181.928 105.484 181.2 104.956 180.24C104.444 179.28 104.188 178.08 104.188 176.64C104.188 175.2 104.436 174 104.932 173.04C105.444 172.08 106.132 171.36 106.996 170.88C107.876 170.4 108.86 170.16 109.948 170.16C111.196 170.16 112.3 170.432 113.26 170.976C114.22 171.52 114.98 172.28 115.54 173.256C116.1 174.216 116.38 175.344 116.38 176.64C116.38 177.936 116.1 179.072 115.54 180.048C114.98 181.024 114.22 181.784 113.26 182.328C112.3 182.872 111.196 183.144 109.948 183.144ZM103.204 187.656V170.28H105.412V173.712L105.268 176.664L105.508 179.616V187.656H103.204ZM109.756 181.128C110.572 181.128 111.3 180.944 111.94 180.576C112.596 180.208 113.108 179.688 113.476 179.016C113.86 178.328 114.052 177.536 114.052 176.64C114.052 175.728 113.86 174.944 113.476 174.288C113.108 173.616 112.596 173.096 111.94 172.728C111.3 172.36 110.572 172.176 109.756 172.176C108.956 172.176 108.228 172.36 107.572 172.728C106.932 173.096 106.42 173.616 106.036 174.288C105.668 174.944 105.484 175.728 105.484 176.64C105.484 177.536 105.668 178.328 106.036 179.016C106.42 179.688 106.932 180.208 107.572 180.576C108.228 180.944 108.956 181.128 109.756 181.128ZM127.41 183V180.312L127.29 179.808V175.224C127.29 174.248 127.002 173.496 126.426 172.968C125.866 172.424 125.018 172.152 123.882 172.152C123.13 172.152 122.394 172.28 121.674 172.536C120.954 172.776 120.346 173.104 119.85 173.52L118.89 171.792C119.546 171.264 120.33 170.864 121.242 170.592C122.17 170.304 123.138 170.16 124.146 170.16C125.89 170.16 127.234 170.584 128.178 171.432C129.122 172.28 129.594 173.576 129.594 175.32V183H127.41ZM123.234 183.144C122.29 183.144 121.458 182.984 120.738 182.664C120.034 182.344 119.49 181.904 119.106 181.344C118.722 180.768 118.53 180.12 118.53 179.4C118.53 178.712 118.69 178.088 119.01 177.528C119.346 176.968 119.882 176.52 120.618 176.184C121.37 175.848 122.378 175.68 123.642 175.68H127.674V177.336H123.738C122.586 177.336 121.81 177.528 121.41 177.912C121.01 178.296 120.81 178.76 120.81 179.304C120.81 179.928 121.058 180.432 121.554 180.816C122.05 181.184 122.738 181.368 123.618 181.368C124.482 181.368 125.234 181.176 125.874 180.792C126.53 180.408 127.002 179.848 127.29 179.112L127.746 180.696C127.442 181.448 126.906 182.048 126.138 182.496C125.37 182.928 124.402 183.144 123.234 183.144ZM139.287 183.144C137.991 183.144 136.831 182.864 135.807 182.304C134.799 181.744 134.007 180.976 133.431 180C132.855 179.024 132.567 177.904 132.567 176.64C132.567 175.376 132.855 174.256 133.431 173.28C134.007 172.304 134.799 171.544 135.807 171C136.831 170.44 137.991 170.16 139.287 170.16C140.439 170.16 141.463 170.392 142.359 170.856C143.271 171.304 143.975 171.976 144.471 172.872L142.719 174C142.303 173.376 141.791 172.92 141.183 172.632C140.591 172.328 139.951 172.176 139.263 172.176C138.431 172.176 137.687 172.36 137.031 172.728C136.375 173.096 135.855 173.616 135.471 174.288C135.087 174.944 134.895 175.728 134.895 176.64C134.895 177.552 135.087 178.344 135.471 179.016C135.855 179.688 136.375 180.208 137.031 180.576C137.687 180.944 138.431 181.128 139.263 181.128C139.951 181.128 140.591 180.984 141.183 180.696C141.791 180.392 142.303 179.928 142.719 179.304L144.471 180.408C143.975 181.288 143.271 181.968 142.359 182.448C141.463 182.912 140.439 183.144 139.287 183.144ZM147.454 183V170.28H159.238V183H156.934V171.72L157.486 172.296H149.206L149.758 171.72V183H147.454ZM176.272 183V170.28H178.576V183H176.272ZM169.432 174.6C171.048 174.616 172.272 174.984 173.104 175.704C173.952 176.424 174.376 177.44 174.376 178.752C174.376 180.128 173.912 181.192 172.984 181.944C172.072 182.68 170.76 183.04 169.048 183.024L163.696 183V170.28H166V174.576L169.432 174.6ZM168.88 181.272C169.904 181.288 170.688 181.08 171.232 180.648C171.776 180.216 172.048 179.576 172.048 178.728C172.048 177.896 171.776 177.288 171.232 176.904C170.704 176.52 169.92 176.32 168.88 176.304L166 176.256V181.248L168.88 181.272ZM180.943 182.976L181.087 181.032C181.199 181.048 181.303 181.064 181.399 181.08C181.495 181.096 181.583 181.104 181.663 181.104C182.175 181.104 182.575 180.928 182.863 180.576C183.167 180.224 183.391 179.76 183.535 179.184C183.679 178.592 183.783 177.928 183.847 177.192C183.911 176.456 183.959 175.72 183.991 174.984L184.207 170.28H193.975V183H191.671V171.624L192.223 172.296H185.695L186.223 171.6L186.055 175.128C186.007 176.248 185.919 177.296 185.791 178.272C185.663 179.248 185.463 180.104 185.191 180.84C184.935 181.576 184.575 182.152 184.111 182.568C183.663 182.984 183.079 183.192 182.359 183.192C182.151 183.192 181.927 183.168 181.687 183.12C181.463 183.088 181.215 183.04 180.943 182.976ZM206.566 183V178.536L206.926 178.968H202.87C201.174 178.968 199.846 178.608 198.886 177.888C197.942 177.168 197.47 176.12 197.47 174.744C197.47 173.272 197.974 172.16 198.982 171.408C200.006 170.656 201.366 170.28 203.062 170.28H208.63V183H206.566ZM197.35 183L200.806 178.128H203.182L199.822 183H197.35ZM206.566 177.816V171.648L206.926 172.296H203.134C202.078 172.296 201.262 172.496 200.686 172.896C200.11 173.28 199.822 173.92 199.822 174.816C199.822 176.48 200.894 177.312 203.038 177.312H206.926L206.566 177.816ZM218.79 183.144C217.43 183.144 216.23 182.864 215.19 182.304C214.166 181.744 213.366 180.976 212.79 180C212.23 179.024 211.95 177.904 211.95 176.64C211.95 175.376 212.222 174.256 212.766 173.28C213.326 172.304 214.086 171.544 215.046 171C216.022 170.44 217.118 170.16 218.334 170.16C219.566 170.16 220.654 170.432 221.598 170.976C222.542 171.52 223.278 172.288 223.806 173.28C224.35 174.256 224.622 175.4 224.622 176.712C224.622 176.808 224.614 176.92 224.598 177.048C224.598 177.176 224.59 177.296 224.574 177.408H213.75V175.752H223.374L222.438 176.328C222.454 175.512 222.286 174.784 221.934 174.144C221.582 173.504 221.094 173.008 220.47 172.656C219.862 172.288 219.15 172.104 218.334 172.104C217.534 172.104 216.822 172.288 216.198 172.656C215.574 173.008 215.086 173.512 214.734 174.168C214.382 174.808 214.206 175.544 214.206 176.376V176.76C214.206 177.608 214.398 178.368 214.782 179.04C215.182 179.696 215.734 180.208 216.438 180.576C217.142 180.944 217.95 181.128 218.862 181.128C219.614 181.128 220.294 181 220.902 180.744C221.526 180.488 222.07 180.104 222.534 179.592L223.806 181.08C223.23 181.752 222.51 182.264 221.646 182.616C220.798 182.968 219.846 183.144 218.79 183.144ZM230.177 183V171.696L230.753 172.296H225.521V170.28H237.137V172.296H231.929L232.481 171.696V183H230.177ZM244.474 183.144C243.178 183.144 242.018 182.864 240.994 182.304C239.986 181.744 239.194 180.976 238.618 180C238.042 179.024 237.754 177.904 237.754 176.64C237.754 175.376 238.042 174.256 238.618 173.28C239.194 172.304 239.986 171.544 240.994 171C242.018 170.44 243.178 170.16 244.474 170.16C245.626 170.16 246.65 170.392 247.546 170.856C248.458 171.304 249.162 171.976 249.658 172.872L247.906 174C247.49 173.376 246.978 172.92 246.37 172.632C245.778 172.328 245.138 172.176 244.45 172.176C243.618 172.176 242.874 172.36 242.218 172.728C241.562 173.096 241.042 173.616 240.658 174.288C240.274 174.944 240.082 175.728 240.082 176.64C240.082 177.552 240.274 178.344 240.658 179.016C241.042 179.688 241.562 180.208 242.218 180.576C242.874 180.944 243.618 181.128 244.45 181.128C245.138 181.128 245.778 180.984 246.37 180.696C246.978 180.392 247.49 179.928 247.906 179.304L249.658 180.408C249.162 181.288 248.458 181.968 247.546 182.448C246.65 182.912 245.626 183.144 244.474 183.144ZM260.379 183V178.536L260.739 178.968H256.683C254.987 178.968 253.659 178.608 252.699 177.888C251.755 177.168 251.283 176.12 251.283 174.744C251.283 173.272 251.787 172.16 252.795 171.408C253.819 170.656 255.179 170.28 256.875 170.28H262.443V183H260.379ZM251.163 183L254.619 178.128H256.995L253.635 183H251.163ZM260.379 177.816V171.648L260.739 172.296H256.947C255.891 172.296 255.075 172.496 254.499 172.896C253.923 173.28 253.635 173.92 253.635 174.816C253.635 176.48 254.707 177.312 256.851 177.312H260.739L260.379 177.816ZM119.68 213V200.28H121.984V209.544L129.784 200.28H131.872V213H129.568V203.736L121.792 213H119.68ZM142.79 213V200.28H154.574V213H152.27V201.72L152.822 202.296H144.542L145.094 201.72V213H142.79ZM165.776 213.144C164.72 213.144 163.752 212.904 162.872 212.424C162.008 211.928 161.312 211.2 160.784 210.24C160.272 209.28 160.016 208.08 160.016 206.64C160.016 205.2 160.264 204 160.76 203.04C161.272 202.08 161.96 201.36 162.824 200.88C163.704 200.4 164.688 200.16 165.776 200.16C167.024 200.16 168.128 200.432 169.088 200.976C170.048 201.52 170.808 202.28 171.368 203.256C171.928 204.216 172.208 205.344 172.208 206.64C172.208 207.936 171.928 209.072 171.368 210.048C170.808 211.024 170.048 211.784 169.088 212.328C168.128 212.872 167.024 213.144 165.776 213.144ZM159.032 217.656V200.28H161.24V203.712L161.096 206.664L161.336 209.616V217.656H159.032ZM165.584 211.128C166.4 211.128 167.128 210.944 167.768 210.576C168.424 210.208 168.936 209.688 169.304 209.016C169.688 208.328 169.88 207.536 169.88 206.64C169.88 205.728 169.688 204.944 169.304 204.288C168.936 203.616 168.424 203.096 167.768 202.728C167.128 202.36 166.4 202.176 165.584 202.176C164.784 202.176 164.056 202.36 163.4 202.728C162.76 203.096 162.248 203.616 161.864 204.288C161.496 204.944 161.312 205.728 161.312 206.64C161.312 207.536 161.496 208.328 161.864 209.016C162.248 209.688 162.76 210.208 163.4 210.576C164.056 210.944 164.784 211.128 165.584 211.128ZM175.555 213V200.28H177.859V209.544L185.659 200.28H187.747V213H185.443V203.736L177.667 213H175.555ZM200.356 213V208.536L200.716 208.968H196.66C194.964 208.968 193.636 208.608 192.676 207.888C191.732 207.168 191.26 206.12 191.26 204.744C191.26 203.272 191.764 202.16 192.772 201.408C193.796 200.656 195.156 200.28 196.852 200.28H202.42V213H200.356ZM191.14 213L194.596 208.128H196.972L193.612 213H191.14ZM200.356 207.816V201.648L200.716 202.296H196.924C195.868 202.296 195.052 202.496 194.476 202.896C193.9 203.28 193.612 203.92 193.612 204.816C193.612 206.48 194.684 207.312 196.828 207.312H200.716L200.356 207.816ZM209.435 213V201.696L210.011 202.296H204.779V200.28H216.395V202.296H211.187L211.739 201.696V213H209.435ZM218.751 213V200.28H221.055V205.68H228.303V200.28H230.607V213H228.303V207.672H221.055V213H218.751ZM240.535 213.144C239.255 213.144 238.119 212.864 237.127 212.304C236.135 211.744 235.351 210.976 234.775 210C234.199 209.008 233.911 207.888 233.911 206.64C233.911 205.376 234.199 204.256 234.775 203.28C235.351 202.304 236.135 201.544 237.127 201C238.119 200.44 239.255 200.16 240.535 200.16C241.799 200.16 242.927 200.44 243.919 201C244.927 201.544 245.711 202.304 246.271 203.28C246.847 204.24 247.135 205.36 247.135 206.64C247.135 207.904 246.847 209.024 246.271 210C245.711 210.976 244.927 211.744 243.919 212.304C242.927 212.864 241.799 213.144 240.535 213.144ZM240.535 211.128C241.351 211.128 242.079 210.944 242.719 210.576C243.375 210.208 243.887 209.688 244.255 209.016C244.623 208.328 244.807 207.536 244.807 206.64C244.807 205.728 244.623 204.944 244.255 204.288C243.887 203.616 243.375 203.096 242.719 202.728C242.079 202.36 241.351 202.176 240.535 202.176C239.719 202.176 238.991 202.36 238.351 202.728C237.711 203.096 237.199 203.616 236.815 204.288C236.431 204.944 236.239 205.728 236.239 206.64C236.239 207.536 236.431 208.328 236.815 209.016C237.199 209.688 237.711 210.208 238.351 210.576C238.991 210.944 239.719 211.128 240.535 211.128ZM142.04 243V230.28H153.824V243H151.52V231.72L152.072 232.296H143.792L144.344 231.72V243H142.04ZM166.082 243V240.312L165.962 239.808V235.224C165.962 234.248 165.674 233.496 165.098 232.968C164.538 232.424 163.69 232.152 162.554 232.152C161.802 232.152 161.066 232.28 160.346 232.536C159.626 232.776 159.018 233.104 158.522 233.52L157.562 231.792C158.218 231.264 159.002 230.864 159.914 230.592C160.842 230.304 161.81 230.16 162.818 230.16C164.562 230.16 165.906 230.584 166.85 231.432C167.794 232.28 168.266 233.576 168.266 235.32V243H166.082ZM161.906 243.144C160.962 243.144 160.13 242.984 159.41 242.664C158.706 242.344 158.162 241.904 157.778 241.344C157.394 240.768 157.202 240.12 157.202 239.4C157.202 238.712 157.362 238.088 157.682 237.528C158.018 236.968 158.554 236.52 159.29 236.184C160.042 235.848 161.05 235.68 162.314 235.68H166.346V237.336H162.41C161.258 237.336 160.482 237.528 160.082 237.912C159.682 238.296 159.482 238.76 159.482 239.304C159.482 239.928 159.73 240.432 160.226 240.816C160.722 241.184 161.41 241.368 162.29 241.368C163.154 241.368 163.906 241.176 164.546 240.792C165.202 240.408 165.674 239.848 165.962 239.112L166.418 240.696C166.114 241.448 165.578 242.048 164.81 242.496C164.042 242.928 163.074 243.144 161.906 243.144ZM170.399 243L175.871 235.896L175.847 237.072L170.639 230.28H173.207L177.191 235.512H176.207L180.191 230.28H182.711L177.431 237.12L177.455 235.896L182.975 243H180.359L176.159 237.432L177.095 237.576L172.967 243H170.399ZM185.399 243V230.28H187.703V235.68H194.951V230.28H197.255V243H194.951V237.672H187.703V243H185.399ZM207.399 243.144C206.039 243.144 204.839 242.864 203.799 242.304C202.775 241.744 201.975 240.976 201.399 240C200.839 239.024 200.559 237.904 200.559 236.64C200.559 235.376 200.831 234.256 201.375 233.28C201.935 232.304 202.695 231.544 203.655 231C204.631 230.44 205.727 230.16 206.943 230.16C208.175 230.16 209.263 230.432 210.207 230.976C211.151 231.52 211.887 232.288 212.415 233.28C212.959 234.256 213.231 235.4 213.231 236.712C213.231 236.808 213.223 236.92 213.207 237.048C213.207 237.176 213.199 237.296 213.183 237.408H202.359V235.752H211.983L211.047 236.328C211.063 235.512 210.895 234.784 210.543 234.144C210.191 233.504 209.703 233.008 209.079 232.656C208.471 232.288 207.759 232.104 206.943 232.104C206.143 232.104 205.431 232.288 204.807 232.656C204.183 233.008 203.695 233.512 203.343 234.168C202.991 234.808 202.815 235.544 202.815 236.376V236.76C202.815 237.608 203.007 238.368 203.391 239.04C203.791 239.696 204.343 240.208 205.047 240.576C205.751 240.944 206.559 241.128 207.471 241.128C208.223 241.128 208.903 241 209.511 240.744C210.135 240.488 210.679 240.104 211.143 239.592L212.415 241.08C211.839 241.752 211.119 242.264 210.255 242.616C209.407 242.968 208.455 243.144 207.399 243.144ZM218.786 243V231.696L219.362 232.296H214.13V230.28H225.746V232.296H220.538L221.09 231.696V243H218.786Z" fill="#4E4E4E"/>
</svg>
