<svg width="464" height="464" viewBox="0 0 464 464" fill="none" xmlns="http://www.w3.org/2000/svg">
<path d="M234.154 35.5899C139.715 104.197 36.3203 135.819 36.3203 135.819L36.2988 135.799C36.1507 135.792 35.614 139.865 51.5298 258.791C68.6247 386.522 220.649 428.632 220.649 428.632C220.649 428.632 375.321 393.45 401.162 266.693C425.227 148.677 424.972 144.582 424.819 144.581L424.798 144.602C424.798 144.602 323.737 108.359 234.154 35.5899ZM232.603 80.7417C290.466 123.298 348.754 151.611 382.237 166.132C378.978 183.149 373.301 211.903 363.412 260.395C354.869 302.296 327.667 337.256 282.552 364.298C258.29 378.841 234.804 387.328 221.856 391.365C191.306 380.308 101.221 340.636 89.6579 254.209C83.1135 205.346 79.4233 176.378 77.3372 159.242C111.763 146.251 171.906 120.62 232.603 80.7417Z" fill="#C7BCBC"/>
<path d="M84.3331 282.563C67.2845 238.131 61.2569 169.375 59.1346 127.971C44.8081 133.246 36.3252 135.825 36.3252 135.825L36.3037 135.804C36.1545 135.798 35.6137 139.871 51.627 258.792C68.8266 386.518 221.899 428.602 221.899 428.602C221.899 428.602 233.933 425.877 251.853 419.235C154.773 391.606 106.627 340.671 84.3331 282.563Z" fill="#696060"/>
<path d="M88.0195 146.103C88.0195 146.103 172.805 108.847 205.272 88.0448C226.237 74.8946 233.084 69.2745 233.084 69.2745C233.084 69.2745 325.034 137.56 401.319 160.693C391.989 217.092 380.946 265.554 380.946 265.554C380.946 265.554 367.145 325.364 323.68 353.391C280.221 381.416 266.96 385.082 255.062 389.65C243.165 394.222 236.167 399.493 240.908 403.03C245.648 406.56 264.433 399.945 288.186 390.803C311.939 381.659 356.912 349.467 376.048 313.807C395.178 278.144 400.634 252.664 408.476 206.474C416.312 160.286 416.596 156.633 416.596 156.633C416.596 156.633 267.831 88.6027 233.712 51.629C211.291 69.7444 150.388 107.867 85.619 131.299C65.8079 139.459 63.4186 151.738 88.0195 146.103Z" fill="#847D7D"/>
</svg>
