<svg width="218" height="202" viewBox="0 0 218 202" fill="none" xmlns="http://www.w3.org/2000/svg">
    <path d="M107.54 138.09C107.54 138.09 135.391 149.251 140.507 165.279" stroke="#23211F" stroke-width="0.75"
          stroke-miterlimit="10" stroke-linecap="round"/>
    <path d="M121.618 107.503C121.618 107.503 176.097 50.314 179.813 66.8875C183.53 83.461 173.823 121.727 122.143 120.3C122.143 120.3 113.836 117.153 121.618 107.503Z"
          fill="#F9F5F2"/>
    <path d="M175.788 109.265C171.032 116.063 164.372 121.435 156.575 124.76C148.778 128.086 140.16 129.23 131.715 128.062C131.715 128.062 161.665 134.398 175.788 109.265Z"
          fill="#F9F5F2"/>
    <path opacity="0.3"
          d="M120.965 113.377C120.965 113.377 186.55 97.9782 184.276 115.517C182.002 133.055 160.972 161.209 116.986 125.293C116.158 124.333 115.595 123.188 115.348 121.964C115.102 120.741 115.18 119.477 115.577 118.29C115.973 117.103 116.675 116.031 117.616 115.172C118.558 114.313 119.71 113.696 120.965 113.377Z"
          fill="#F9F5F2"/>
    <path opacity="0.3"
          d="M116.979 105.992C116.979 105.992 150.252 22.2853 158.69 34.6629C167.129 47.0406 169.446 86.5653 121.351 116.817C121.351 116.817 112.607 119.167 116.979 105.992Z"
          fill="#F9F5F2"/>
    <path d="M91.6641 96.9711C91.6641 96.9711 38.2785 17.8799 26.4733 31.2646C14.6682 44.6492 12.8318 85.0131 85.7615 108.51C85.7615 108.51 98.6598 109.643 91.6641 96.9711Z"
          fill="#F9F5F2"/>
    <path opacity="0.3"
          d="M90.2223 102.678C90.2223 102.678 4.4381 56.5237 0.503042 74.0202C-3.43201 91.5168 14.713 127.559 90.747 115.517C90.747 115.517 102.64 110.734 90.2223 102.678Z"
          fill="#F9F5F2"/>
    <path opacity="0.3"
          d="M98.7038 97.6005C98.7038 97.6005 85.893 4.15952 68.8848 11.5022C51.8767 18.8449 32.6386 54.3835 88.0792 105.656C88.2541 105.656 99.4908 112.034 98.7038 97.6005Z"
          fill="#F9F5F2"/>
    <path d="M114.226 115.097C114.226 115.097 144.351 113.377 156.287 125.587" stroke="#23211F" stroke-width="0.75"
          stroke-miterlimit="10" stroke-linecap="round"/>
    <path d="M98.01 92.5228C98.01 92.5228 47.7287 152.733 87.2541 165.111C126.78 177.488 107.585 141.236 112.57 128.481C116.361 119.984 122.188 112.466 129.578 106.537L98.01 92.5228Z"
          fill="#23211F"/>
    <g style="mix-blend-mode:soft-light">
        <path d="M129.575 106.537L98.0076 92.5228L128.307 105.949C120.917 111.867 115.102 119.39 111.343 127.894C106.359 140.481 125.028 176.104 87.1643 164.859C126.515 177.446 107.495 140.985 112.48 128.229C116.332 119.815 122.187 112.385 129.575 106.537Z"
              fill="#E8D9CF"/>
    </g>
    <g style="mix-blend-mode:soft-light">
        <path d="M112.61 157.139C113.703 147.95 109.855 135.069 112.61 128.482C116.401 119.985 122.228 112.466 129.618 106.537L107.407 96.6772C97.7875 109.6 73.5651 146.188 101.591 154.999C105.139 156.215 108.849 156.935 112.61 157.139Z"
              fill="#EAE6A2"/>
    </g>
    <g style="mix-blend-mode:multiply">
        <path d="M109.024 165.152C100.673 166.999 86.5943 167.754 80.648 153.992C71.9034 133.81 96.9566 103.642 96.9566 103.642C105.439 112.033 122.316 113.334 122.316 113.334C123.628 111.866 124.852 110.607 125.945 109.6L117.2 100.914L98.1808 92.5228C98.1808 92.5228 47.8996 152.733 87.425 165.111C98.9678 168.929 105.483 168.132 109.024 165.152Z"
              fill="#AFA8A3"/>
    </g>
    <path d="M205.875 101.796C210.247 123.405 169.803 123.363 137.099 113.544C104.394 103.726 82.008 82.7891 87.4733 66.5093C97.0487 37.1385 123.545 44.9428 156.249 54.761C188.954 64.5792 217.549 64.2436 205.875 101.796Z"
          fill="#2D2A28"/>
    <g style="mix-blend-mode:soft-light">
        <path d="M205.87 101.796C210.242 86.9851 208.799 78.048 203.159 72.048C207.225 78.006 208.012 86.4816 203.99 99.4887C208.362 121.055 167.875 121.013 135.17 111.237C119.12 106.905 104.578 98.515 93.0649 86.9431C101.416 97.6005 117.331 107.671 137.094 113.545C169.799 123.489 210.33 123.531 205.87 101.796Z"
              fill="#E8D9CF"/>
    </g>
    <g style="mix-blend-mode:multiply">
        <path d="M167.697 101.796C161.095 99.3209 161.75 106.454 161.75 106.454C166.253 110.722 170.515 115.218 174.518 119.922C176.66 119.922 178.89 119.922 180.726 119.922C173.512 109.139 167.697 101.796 167.697 101.796Z"
              fill="#AFA8A3"/>
    </g>
    <path d="M168.099 99.4885C168.099 99.4885 202.684 134.817 214.445 163.894L212.74 164.734C201.016 141.346 183.895 120.827 162.678 104.733C162.678 104.733 161.235 97.6004 168.099 99.4885Z"
          fill="#2D2A28"/>
    <g style="mix-blend-mode:soft-light">
        <path d="M167.743 100.622C167.743 100.622 201.716 135.321 213.739 164.23L214.439 163.895C202.678 134.817 168.093 99.4887 168.093 99.4887C164.201 98.4817 162.977 100.286 162.671 102.048C163.283 100.747 164.682 99.8243 167.743 100.622Z"
              fill="#E8D9CF"/>
    </g>
    <g style="mix-blend-mode:multiply">
        <path d="M166.175 119.461C164.032 119.125 112.09 111.656 95.3439 80.1458C95.3439 80.1458 87.4738 66.5093 104.088 57.6142C104.088 57.6142 104.088 76.9569 126.956 85.3066C149.823 93.6563 162.196 81.5723 162.196 81.5723C162.196 81.5723 164.339 93.0269 180.778 94.1598C197.218 95.2927 200.06 87.1108 200.06 87.1108L153.408 53.838C122.102 44.5232 96.9179 37.9358 87.8236 66.4254C82.5331 82.7052 104.744 103.81 137.449 113.586C146.8 116.444 156.422 118.411 166.175 119.461Z"
              fill="#AFA8A3"/>
    </g>
    <path d="M213.743 71.1248C212.143 76.0611 209.053 80.4312 204.865 83.6826C200.677 86.9339 195.578 88.9206 190.214 89.3912C184.849 89.8619 179.459 88.7955 174.726 86.3269C169.993 83.8582 166.129 80.0982 163.622 75.5222C161.116 70.9462 160.079 65.7598 160.644 60.6186C161.209 55.4775 163.35 50.6125 166.796 46.6389C170.242 42.6652 174.838 39.7613 180.004 38.2943C185.17 36.8274 190.673 36.8632 195.817 38.3974C202.71 40.4647 208.468 45.0707 211.829 51.2055C215.189 57.3404 215.878 64.5036 213.743 71.1248Z"
          fill="#C4670A"/>
    <path d="M214.744 60.2158C214.862 62.2558 214.611 64.3001 214 66.2577C212.766 70.0778 210.19 73.369 206.711 75.5707C203.232 77.7723 199.065 78.7482 194.92 78.332C190.775 77.9158 186.909 76.1332 183.98 73.2881C181.051 70.443 179.24 66.7113 178.857 62.7288C178.474 58.7464 179.541 54.7597 181.878 51.4479C184.214 48.1361 187.675 45.7041 191.67 44.5665C195.666 43.4288 199.948 43.6557 203.789 45.2086C207.63 46.7615 210.79 49.5443 212.732 53.0829C210.206 47.4572 205.698 42.8636 199.998 40.1065C194.297 37.3493 187.768 36.6043 181.553 38.0019C175.338 39.3995 169.833 42.8506 166.002 47.7509C162.172 52.6512 160.26 58.6885 160.601 64.8056C160.942 70.9227 163.514 76.7298 167.867 81.21C172.221 85.6903 178.078 88.5582 184.413 89.3115C190.748 90.0649 197.157 88.6558 202.518 85.3308C207.88 82.0059 211.852 76.9771 213.738 71.1249C214.868 67.5967 215.211 63.8795 214.744 60.2158Z"
          fill="#B55A08"/>
    <path d="M211.418 57.6564C212.467 61.8523 210.981 66.0481 208.051 66.5096C205.122 66.9712 207.177 63.111 206.128 58.8732C205.078 54.6354 201.274 51.9082 204.422 51.4466C207.57 50.9851 210.325 53.4187 211.418 57.6564Z"
          fill="#DDA06F"/>
    <path d="M181.692 87.3204C178.16 86.5533 174.833 85.0929 171.918 83.0313C169.003 80.9696 166.565 78.3513 164.757 75.3411C162.948 72.3309 161.808 68.994 161.41 65.5405C161.011 62.087 161.361 58.5916 162.438 55.2744C163.516 51.9572 165.298 48.8899 167.671 46.2657C170.044 43.6415 172.958 41.5172 176.228 40.0264C179.499 38.5357 183.056 37.7108 186.675 37.6037C190.294 37.4966 193.897 38.1096 197.257 39.4041C200.202 40.3368 202.955 41.7568 205.39 43.5999C201.435 40.3568 196.596 38.2662 191.444 37.5748C186.292 36.8833 181.041 37.6197 176.311 39.6973C171.581 41.7748 167.568 45.1068 164.746 49.3005C161.924 53.4943 160.41 58.3748 160.382 63.367C160.355 68.3591 161.816 73.2547 164.592 77.4766C167.368 81.6985 171.344 85.0707 176.051 87.1957C180.759 89.3208 186.001 90.1101 191.16 89.4705C196.32 88.831 201.181 86.7893 205.171 83.5861C201.841 85.9407 197.978 87.5064 193.898 88.1554C189.818 88.8043 185.635 88.5182 181.692 87.3204Z"
          fill="#9E4904"/>
    <path d="M175.924 58.076C174.038 63.8828 170.401 69.0226 165.471 72.8455C160.541 76.6685 154.541 79.0029 148.229 79.5537C141.917 80.1045 135.577 78.8469 130.009 75.9399C124.442 73.0329 119.898 68.6071 116.952 63.222C114.005 57.8369 112.789 51.7343 113.456 45.6859C114.124 39.6374 116.645 33.9147 120.701 29.2412C124.758 24.5678 130.167 21.1534 136.245 19.4299C142.324 17.7064 148.798 17.7511 154.85 19.5584C162.961 21.9923 169.735 27.4145 173.686 34.6354C177.637 41.8564 178.442 50.2864 175.924 58.076Z"
          fill="#C4670A"/>
    <path d="M177.1 45.2362C177.252 47.6282 176.971 50.0274 176.269 52.3271C174.826 56.8375 171.797 60.7278 167.699 63.335C163.601 65.9423 158.687 67.1051 153.796 66.6253C148.905 66.1456 144.338 64.0529 140.875 60.7039C137.411 57.355 135.265 52.9571 134.802 48.2597C134.339 43.5623 135.588 38.8562 138.335 34.9435C141.083 31.0307 145.16 28.1534 149.871 26.802C154.581 25.4505 159.635 25.7086 164.17 27.5322C168.704 29.3558 172.44 32.6321 174.739 36.8026C171.522 29.5888 165.575 23.8136 158.097 20.6413C150.618 17.4689 142.165 17.1353 134.44 19.7078C126.716 22.2802 120.295 27.5674 116.472 34.5034C112.649 41.4394 111.708 49.5084 113.839 57.0836C115.971 64.6589 121.015 71.177 127.957 75.324C134.898 79.4709 143.219 80.9383 151.243 79.4302C159.268 77.9221 166.397 73.5508 171.196 67.1975C175.994 60.8442 178.104 52.9814 177.1 45.1942V45.2362Z"
          fill="#B55A08"/>
    <path d="M173.165 42.2155C174.433 47.1666 172.684 51.8659 169.274 52.6631C165.864 53.4603 168.225 48.4673 167 43.6421C165.776 38.8169 161.273 35.2505 164.727 34.6211C168.181 33.9917 171.941 37.2225 173.165 42.2155Z"
          fill="#DDA06F"/>
    <path d="M138.23 77.1245C134.371 75.9702 130.787 74.0978 127.683 71.6144C124.579 69.1309 122.014 66.085 120.137 62.6505C118.259 59.216 117.104 55.4602 116.739 51.5976C116.374 47.735 116.805 43.8411 118.008 40.1384C119.211 36.4356 121.162 32.9965 123.75 30.0174C126.338 27.0382 129.512 24.5774 133.091 22.7755C136.67 20.9735 140.583 19.8656 144.608 19.5151C148.634 19.1646 152.691 19.5783 156.55 20.7327C159.993 21.7618 163.22 23.367 166.081 25.474C162.797 22.7853 158.972 20.7718 154.844 19.5579C149.533 17.9541 143.879 17.7058 138.437 18.8375C132.996 19.9691 127.955 22.4416 123.813 26.0113C119.67 29.5811 116.568 34.1249 114.812 39.1953C113.056 44.2656 112.706 49.6875 113.798 54.9268C114.89 60.1661 117.386 65.042 121.039 69.0742C124.692 73.1063 129.377 76.1557 134.631 77.9218C139.886 79.6879 145.53 80.1098 151.006 79.146C156.483 78.1822 161.603 75.8658 165.863 72.4252C161.971 75.2481 157.438 77.1457 152.635 77.9626C147.832 78.7794 142.895 78.4922 138.23 77.1245Z"
          fill="#9E4904"/>
    <g style="mix-blend-mode:soft-light">
        <path d="M170.673 50.0618C170.122 51.626 169.103 52.9994 167.742 54.0101C166.382 55.0209 164.741 55.624 163.025 55.744C161.309 55.864 159.594 55.4956 158.095 54.6848C156.596 53.874 155.38 52.6569 154.599 51.1859C153.817 49.715 153.505 48.0554 153.702 46.4151C153.899 44.7749 154.595 43.2267 155.705 41.9645C156.814 40.7023 158.286 39.7822 159.938 39.3194C161.59 38.8565 163.347 38.8715 164.989 39.3624C166.103 39.6952 167.136 40.2382 168.027 40.9596C168.918 41.681 169.65 42.5663 170.18 43.5632C170.71 44.5601 171.026 45.6486 171.111 46.7646C171.196 47.8807 171.047 49.0017 170.673 50.0618Z"
              fill="#DDA06F"/>
    </g>
    <g style="mix-blend-mode:soft-light">
        <path d="M208.277 64.6633C207.796 66.0235 206.908 67.2174 205.724 68.0955C204.54 68.9737 203.112 69.4972 201.619 69.6004C200.126 69.7036 198.635 69.382 197.332 68.6759C196.028 67.9697 194.971 66.9103 194.292 65.6303C193.613 64.3504 193.343 62.9067 193.515 61.4799C193.687 60.0532 194.293 58.7068 195.259 57.6093C196.224 56.5118 197.505 55.7119 198.942 55.3098C200.379 54.9077 201.907 54.9212 203.336 55.3486C204.302 55.6434 205.197 56.1193 205.969 56.7487C206.741 57.378 207.376 58.1484 207.836 59.0149C208.295 59.8815 208.571 60.827 208.647 61.7966C208.722 62.7663 208.597 63.7407 208.277 64.6633Z"
              fill="#DDA06F"/>
    </g>
    <path d="M130.536 10.8728C130.536 10.8728 151.961 -9.81264 164.028 5.87973C164.028 5.87973 152.529 -5.61681 130.536 10.8728Z"
          fill="#2D2A28"/>
    <path d="M198.486 23.1241C198.486 23.1241 211.865 11.7534 217.199 39.9074C217.199 39.9074 210.86 14.9422 198.486 23.1241Z"
          fill="#2D2A28"/>
    <path d="M15.4988 64.3275C15.4988 64.3275 20.7892 91.1388 61.5389 104.943C61.5389 104.943 19.8711 93.992 15.4988 64.3275Z"
          fill="#F9F5F2"/>
    <path d="M47.9417 32.2294C56.1607 40.623 63.7994 49.5231 70.8087 58.8728C64.4787 49.039 56.786 40.0759 47.9417 32.2294Z"
          fill="#F9F5F2"/>
    <path d="M82.2194 152.355C82.2194 152.355 82.5692 181.307 69.1025 192.174" stroke="#23211F" stroke-width="0.75"
          stroke-miterlimit="10" stroke-linecap="round"/>
    <path d="M60.9304 76.1178C60.9304 76.1178 86.5957 91.3906 89.0442 107.922" stroke="#23211F" stroke-width="0.75"
          stroke-miterlimit="10" stroke-linecap="round"/>
    <path d="M37.8901 137.46C37.8901 137.46 64.1238 123.32 80.5199 129.069" stroke="#23211F" stroke-width="0.75"
          stroke-miterlimit="10" stroke-linecap="round"/>
    <path d="M106.62 161.293C106.62 161.293 106.97 190.244 93.7219 201.111" stroke="#23211F" stroke-width="0.75"
          stroke-miterlimit="10" stroke-linecap="round"/>
</svg>
