<svg width="161" height="91" viewBox="0 0 161 91" fill="none" xmlns="http://www.w3.org/2000/svg">
<path fill-rule="evenodd" clip-rule="evenodd" d="M20.6181 19.8926C25.9261 19.1812 30 15.0231 30 10C30 4.47715 25.0751 0 19 0C16.2381 0 13.7139 0.925378 11.7821 2.45369C10.8947 2.15934 9.94567 2 8.95946 2C4.01129 2 0 6.01129 0 10.9595C0 15.0316 2.71672 18.4693 6.43659 19.5588C6.61171 19.6803 6.7958 19.8025 6.98739 19.9297C8.91533 21.2097 11.6013 22.993 13.527 29.5811C15.6616 23.7595 18.1713 21.8052 19.9907 20.3885C20.2105 20.2173 20.4203 20.0539 20.6181 19.8926Z" fill="#FFD1D1" fill-opacity="0.3"/>
<path fill-rule="evenodd" clip-rule="evenodd" d="M155.455 70.0871C158.147 69.7264 160.212 67.6179 160.212 65.0708C160.212 62.2703 157.715 60 154.635 60C153.234 60 151.954 60.4692 150.974 61.2442C150.524 61.095 150.043 61.0142 149.543 61.0142C147.034 61.0142 145 63.0482 145 65.5573C145 67.6223 146.378 69.3654 148.264 69.9179C148.353 69.9795 148.446 70.0415 148.543 70.1059C149.521 70.755 150.883 71.6593 151.859 75C152.942 72.0479 154.214 71.057 155.137 70.3386C155.248 70.2518 155.355 70.169 155.455 70.0871Z" fill="#FFD1D1" fill-opacity="0.3"/>
<path fill-rule="evenodd" clip-rule="evenodd" d="M70.6669 87.3973C72.6408 87.1328 74.1558 85.5865 74.1558 83.7186C74.1558 81.6649 72.3244 80 70.0653 80C69.0383 80 68.0996 80.3441 67.3813 80.9124C67.0513 80.803 66.6984 80.7437 66.3317 80.7437C64.4916 80.7437 63 82.2354 63 84.0754C63 85.5897 64.0103 86.8681 65.3937 87.2732C65.4588 87.3183 65.5272 87.3637 65.5983 87.411C66.3153 87.887 67.3141 88.5501 68.0302 90.9999C68.8239 88.8351 69.7572 88.1084 70.4337 87.5816C70.5154 87.5179 70.5934 87.4572 70.6669 87.3973Z" fill="#FFD1D1" fill-opacity="0.3"/>
</svg>
