<svg width="160" height="96" viewBox="0 0 160 96" fill="none" xmlns="http://www.w3.org/2000/svg">
    <path fill-rule="evenodd" clip-rule="evenodd"
          d="M16.5761 15.4215C20.8429 14.8774 24.1176 11.6993 24.1176 7.86025C24.1176 3.63889 20.1583 0.216797 15.2743 0.216797C13.054 0.216797 11.0247 0.924067 9.47173 2.09217C8.75838 1.86724 7.99555 1.74548 7.20281 1.74548C3.22481 1.74548 0 4.81149 0 8.5936C0 11.706 2.18389 14.3335 5.17424 15.1664C5.31516 15.2593 5.46332 15.3529 5.6175 15.4502C7.16744 16.4286 9.32676 17.7916 10.8749 22.8272C12.591 18.3774 14.6087 16.8837 16.0713 15.8008C16.2482 15.6699 16.4169 15.5449 16.5761 15.4215Z"
          fill="#FFD1D1"/>
    <path fill-rule="evenodd" clip-rule="evenodd"
          d="M154.455 71.989C157.147 71.6283 159.212 69.5198 159.212 66.9727C159.212 64.1721 156.715 61.9019 153.635 61.9019C152.234 61.9019 150.954 62.3711 149.974 63.1461C149.524 62.9968 149.043 62.916 148.543 62.916C146.034 62.916 144 64.9501 144 67.4592C144 69.5241 145.378 71.2673 147.264 71.8198C147.353 71.8813 147.446 71.9433 147.543 72.0078C148.521 72.6569 149.883 73.5611 150.859 76.9018C151.942 73.9498 153.214 72.9588 154.137 72.2404C154.248 72.1536 154.355 72.0708 154.455 71.989Z"
          fill="#FFD1D1"/>
    <path fill-rule="evenodd" clip-rule="evenodd"
          d="M73.6838 90.2929C76.6915 89.8897 79 87.5335 79 84.6872C79 81.5576 76.2092 79.0205 72.7666 79.0205C71.2016 79.0205 69.7712 79.5449 68.6766 80.4109C68.1737 80.244 67.6359 80.1537 67.077 80.1537C64.2731 80.1537 62 82.4268 62 85.2308C62 87.5381 63.5392 89.486 65.6468 90.1036C65.7462 90.1725 65.8507 90.2419 65.9595 90.3141C67.052 91.0395 68.574 92.05 69.6653 95.7833C70.8749 92.4843 72.2971 91.3769 73.328 90.5741C73.4527 90.477 73.5716 90.3844 73.6838 90.2929Z"
          fill="#FFD1D1"/>
</svg>
