<svg width="150" height="150" viewBox="0 0 150 150" fill="none" xmlns="http://www.w3.org/2000/svg">
<g clip-path="url(#clip0_185_5389)">
<g clip-path="url(#clip1_185_5389)">
<mask id="mask0_185_5389" style="mask-type:luminance" maskUnits="userSpaceOnUse" x="15" y="59" width="41" height="33">
<path d="M33.7393 65.439L34.017 65.6026L34.2964 65.7663V66.4095L34.017 66.5732L33.7393 66.7369L33.4615 66.5732L33.1822 66.4095V65.7614L33.4615 65.5977L33.7393 65.439ZM28.6958 61.4551L29.0504 61.6646L29.4 61.8659V62.6729L29.0504 62.8758L28.7024 63.0771L28.3528 62.8758L28.0031 62.6729V61.8659L28.3528 61.6646L28.6958 61.4551ZM37.7191 61.9821L38.0688 62.1835L38.4167 62.3864V63.1933L38.0688 63.3947L37.7191 63.5976L37.3695 63.3947L37.0215 63.1933V62.393L37.3695 62.19L37.7191 61.9821ZM38.7827 66.3473L39.232 66.606L39.6796 66.8662V67.9039L39.232 68.1658L38.7827 68.4244L38.3334 68.1658L37.8858 67.9055V66.8727L38.3334 66.6125L38.7827 66.3473ZM38.9248 71.7797L39.544 72.1382L40.16 72.5031V73.9369L39.5408 74.2954L38.9216 74.6538L38.3007 74.2954L37.6816 73.9369V72.5031L38.3007 72.1447L38.9248 71.7797ZM35.0953 73.3133L35.5103 73.5539L35.9269 73.7945V74.7553L35.5103 74.9959L35.0953 75.2349L34.6803 74.9959L34.2637 74.7553V73.7945L34.6803 73.5539L35.0953 73.3133ZM30.3737 72.2118L30.9047 72.5195L31.4373 72.8272V74.0581L30.9047 74.3658L30.3737 74.6718L29.8428 74.3641L29.3101 74.0581V72.8272L29.8428 72.5195L30.3737 72.2118ZM19.5386 72.112L20.0647 72.4213L20.5973 72.729V73.9582L20.0647 74.2643L19.5337 74.572L19.0011 74.2643L18.4701 73.9566V72.7274L19.006 72.4213L19.5386 72.112ZM23.7864 66.5798L24.6833 67.1003L25.5803 67.6191V69.6945L24.6833 70.2133L23.7864 70.7322L22.8894 70.2133L21.9909 69.6945V67.6191L22.8894 67.1003L23.7864 66.5798ZM17.6777 65.056L19.0158 65.8301L20.3538 66.6043V69.7059L19.0158 70.4801L17.6777 71.2543L16.3381 70.4801L15 69.7059V66.6092L16.3381 65.835L17.6777 65.056ZM23.5266 60.6367L24.5199 61.2112L25.5133 61.7825V64.0739L24.5199 64.6468L23.5266 65.2196L22.5333 64.6451L21.5351 64.0739V61.7825L22.5268 61.208L23.5266 60.6367ZM34.0971 59L35.0953 59.5745L36.0756 60.1457V62.4372L35.0953 63.0215L34.102 63.5943L33.1086 63.0215L32.1153 62.447V60.1457L33.1086 59.5712L34.0971 59ZM40.6501 62.4372L41.3641 62.8496L42.078 63.2637V64.9168L41.3641 65.3293L40.6501 65.7483L39.9345 65.3342L39.2206 64.9217V63.2686L39.9345 62.8545L40.6501 62.4372ZM42.774 69.0185L43.6807 69.5423L44.5875 70.0677V72.1692L43.6807 72.6946L42.774 73.2184L41.8673 72.6946L40.9605 72.1692V70.0726L41.8673 69.5472L42.774 69.0185ZM36.3255 68.6077L37.0068 69.0005L37.6881 69.395V70.9712L37.0068 71.3656L36.3239 71.7666L35.6426 71.3722L34.9613 70.9777V69.3999L35.6426 69.0054L36.3255 68.6077ZM29.8084 65.5601L30.9521 66.2262L32.0957 66.8924V69.5554L30.9521 70.2215L29.8084 70.8877L28.6648 70.2215L27.5212 69.5554V66.8924L28.6648 66.2262L29.8084 65.5601ZM24.1589 72.1725L25.1718 72.7585L26.1864 73.3444V75.6948L25.1718 76.2808L24.1589 76.8683L23.1443 76.2808L22.1314 75.6948V73.3444L23.1443 72.7585L24.1589 72.1725ZM31.6742 75.7734L32.6871 76.3593L33.7017 76.9453V79.2907L32.6871 79.8783L31.6742 80.4643L30.6596 79.8783L29.6467 79.2907V76.9404L30.6596 76.3544L31.6742 75.7734ZM39.7499 75.0876L40.9164 75.7619L42.0813 76.4362V79.132L40.9164 79.8063L39.7499 80.4806L38.585 79.8063L37.4152 79.132V76.4313L38.5818 75.757L39.7499 75.0876ZM35.7619 82.1468L36.9284 82.8212L38.0933 83.4955V86.1929L36.9284 86.8672L35.7619 87.5416L34.5954 86.8672L33.4305 86.1929V83.4906L34.5954 82.8163L35.7619 82.1468ZM38.0492 61.4682H47.7668L52.8429 70.2755L54.2561 72.7307L49.4659 80.4234L55.5615 91.0016H41.2268L38.9543 87.0587L38.8889 83.7852L40.441 81.484L43.5729 86.918H48.5085L44.7165 80.3382L49.5084 72.6455L49.3205 72.3182L45.4191 65.547H42.2169L42.6923 65.272V62.9102L40.6501 61.7268L38.0492 61.4682Z" fill="white"/>
</mask>
<g mask="url(#mask0_185_5389)">
<path d="M55.5598 59H15V91H55.5598V59Z" fill="url(#paint0_linear_185_5389)"/>
</g>
<path d="M102.583 82.2727H103.826V82.8734H101.827V79.0941H102.583V82.2727ZM96.4122 81.5476L95.8715 79.9665L95.3258 81.5476H96.4122ZM96.6165 82.1532H95.1134L94.8651 82.8734H94.0743L95.4303 79.0892H96.3126L97.6686 82.8734H96.8681L96.6165 82.1532ZM90.0994 79.0941V79.7063H89.0946V82.8734H88.3382V79.7063H87.3318V79.0941H90.0994ZM83.1346 79.0941V82.8734H82.3766V79.0941H83.1346ZM77.2008 80.2398C77.1194 80.0864 76.9951 79.9601 76.843 79.8765C76.6801 79.7903 76.4978 79.7474 76.3137 79.7521C76.1054 79.7482 75.8999 79.8008 75.719 79.9043C75.5451 80.0062 75.4044 80.1562 75.3138 80.3364C75.2132 80.5396 75.1633 80.7643 75.1684 80.9911C75.1637 81.2182 75.2148 81.443 75.3171 81.6458C75.4098 81.8276 75.5534 81.9783 75.7304 82.0795C75.9191 82.1826 76.1314 82.2345 76.3463 82.2301C76.6019 82.2409 76.8529 82.1596 77.0538 82.001C77.245 81.8355 77.3731 81.6088 77.4165 81.3594H76.1192V80.7685H78.1631V81.4232C78.1114 81.6889 77.9996 81.9391 77.8363 82.1548C77.6674 82.3816 77.4481 82.5659 77.1959 82.6933C76.9242 82.8313 76.6231 82.901 76.3186 82.8963C75.9762 82.9 75.6386 82.8155 75.3383 82.6508C75.0488 82.4904 74.8091 82.2531 74.6456 81.965C74.4804 81.6585 74.394 81.3157 74.394 80.9674C74.394 80.6191 74.4804 80.2763 74.6456 79.9698C74.8082 79.6805 75.0481 79.4425 75.3383 79.2823C75.6617 79.1096 76.0247 79.0247 76.391 79.0362C76.7573 79.0477 77.1143 79.1551 77.4263 79.3478C77.7412 79.5517 77.973 79.8617 78.0798 80.2218L77.2008 80.2398ZM70.1756 79.0941V82.8734H69.4192V79.0941H70.1756ZM63.1831 82.2301C63.3503 82.2478 63.5193 82.2279 63.6778 82.1718C63.8363 82.1158 63.9804 82.025 64.0994 81.9062C64.2185 81.7874 64.3097 81.6434 64.3662 81.4848C64.4228 81.3262 64.4434 81.157 64.4264 80.9895C64.4356 80.8216 64.4115 80.6535 64.3554 80.4951C64.2993 80.3366 64.2124 80.1909 64.0996 80.0663C63.9772 79.9516 63.8325 79.8633 63.6745 79.807C63.5166 79.7507 63.3487 79.7275 63.1815 79.739H62.6456V82.2367L63.1831 82.2301ZM63.2092 79.0941C63.5714 79.086 63.9301 79.1657 64.2549 79.3265C64.5479 79.474 64.7907 79.7053 64.9525 79.9911C65.1212 80.2962 65.2063 80.6407 65.1992 80.9895C65.2068 81.3367 65.1216 81.6797 64.9525 81.983C64.7884 82.2645 64.546 82.4921 64.2549 82.6377C63.9301 82.7985 63.5714 82.8782 63.2092 82.8701H61.8892V79.0941H63.2092Z" fill="#D820F3"/>
<path d="M61.7878 71.3947C60.5319 71.3947 59.5005 70.9822 58.6934 70.1573C58.2978 69.7605 57.9862 69.2878 57.7773 68.7675C57.5685 68.2472 57.4666 67.69 57.4779 67.1293C57.4676 66.5678 57.5708 66.01 57.781 65.4894C57.9913 64.9687 58.3044 64.4961 58.7016 64.0997C59.5087 63.2748 60.5401 62.8623 61.7959 62.8623C62.524 62.8608 63.2394 63.0529 63.8692 63.4188C64.4873 63.7662 64.9995 64.2754 65.351 64.8919L64.6223 65.3158C64.3619 64.812 63.9613 64.3947 63.4689 64.1144C62.9593 63.8155 62.3783 63.6605 61.7878 63.666C60.752 63.666 59.9128 63.9999 59.2701 64.6676C58.9509 64.9919 58.6996 65.3769 58.5313 65.8C58.3629 66.223 58.2808 66.6756 58.2899 67.1309C58.2821 67.5849 58.3648 68.0359 58.5331 68.4574C58.7014 68.879 58.952 69.2627 59.2701 69.5861C59.9117 70.2539 60.7509 70.5877 61.7878 70.5877C62.3782 70.5927 62.9591 70.4378 63.4689 70.1393C63.9613 69.859 64.3619 69.4417 64.6223 68.9379L65.351 69.3504C65.0107 69.9744 64.5009 70.4891 63.8806 70.8349C63.2448 71.2038 62.5225 71.397 61.7878 71.3947Z" fill="black"/>
<path d="M66.5862 65.3623H71.5283V71.2546H70.7523V66.1168H67.3622V71.2546H66.5862V65.3623Z" fill="black"/>
<path d="M78.1025 70.5111C77.5123 71.0783 76.7262 71.395 75.9084 71.395C75.0905 71.395 74.3044 71.0783 73.7142 70.5111C73.4228 70.2246 73.1931 69.8813 73.0394 69.5024C72.8857 69.1235 72.8112 68.717 72.8205 68.308C72.8101 67.9007 72.8842 67.4956 73.038 67.1184C73.1918 66.7411 73.4221 66.4 73.7142 66.1164C74.3004 65.5416 75.0881 65.2197 75.9084 65.2197C76.7286 65.2197 77.5163 65.5416 78.1025 66.1164C78.3967 66.399 78.6291 66.7397 78.7849 67.117C78.9407 67.4942 79.0166 67.8998 79.0076 68.308C79.0149 68.7177 78.9384 69.1245 78.7827 69.5034C78.627 69.8823 78.3955 70.2253 78.1025 70.5111ZM74.2681 69.9661C74.7086 70.3964 75.2996 70.6372 75.9149 70.6372C76.5302 70.6372 77.1212 70.3964 77.5617 69.9661C77.7769 69.7477 77.9465 69.4887 78.0606 69.204C78.1748 68.9194 78.2312 68.6148 78.2267 68.308C78.2293 68.0019 78.1712 67.6983 78.0559 67.4148C77.9405 67.1313 77.7702 66.8736 77.5547 66.6565C77.3393 66.4394 77.0829 66.2673 76.8006 66.1502C76.5183 66.033 76.2156 65.9732 75.91 65.974C75.6043 65.9732 75.3015 66.033 75.0191 66.1502C74.7367 66.2673 74.4803 66.4394 74.2647 66.6564C74.0491 66.8735 73.8786 67.1312 73.7631 67.4147C73.6476 67.6982 73.5893 68.0018 73.5917 68.308C73.5884 68.6156 73.6465 68.9208 73.7626 69.2055C73.8788 69.4903 74.0506 69.7489 74.2681 69.9661Z" fill="black"/>
<path d="M83.4547 65.2201C83.8539 65.2138 84.25 65.2902 84.6183 65.4445C84.9866 65.5989 85.3191 65.8278 85.5949 66.117C85.8856 66.4017 86.1148 66.743 86.2685 67.12C86.4222 67.497 86.4971 67.9015 86.4886 68.3086C86.497 68.7157 86.4221 69.1202 86.2684 69.4972C86.1147 69.8741 85.8855 70.2155 85.5949 70.5002C85.319 70.7892 84.9865 71.0179 84.6182 71.172C84.2499 71.3261 83.8538 71.4022 83.4547 71.3955C82.4112 71.3955 81.6189 70.9634 81.0776 70.0992V73.6117H80.3015V65.3625H81.0776V66.5164C81.6189 65.6522 82.4112 65.2201 83.4547 65.2201ZM81.749 69.9666C82.1896 70.397 82.7806 70.6378 83.3959 70.6378C84.0112 70.6378 84.6021 70.397 85.0427 69.9666C85.2591 69.7483 85.4298 69.489 85.5449 69.2037C85.6599 68.9184 85.7169 68.613 85.7125 68.3054C85.7151 67.9992 85.6571 67.6956 85.5417 67.4121C85.4264 67.1286 85.2561 66.8709 85.0406 66.6538C84.8251 66.4367 84.5688 66.2646 84.2865 66.1475C84.0042 66.0303 83.7014 65.9705 83.3959 65.9714C83.0902 65.9705 82.7874 66.0303 82.505 66.1475C82.2226 66.2646 81.9662 66.4367 81.7506 66.6537C81.535 66.8708 81.3645 67.1285 81.249 67.412C81.1334 67.6955 81.0752 67.9991 81.0776 68.3054C81.0731 68.6131 81.1303 68.9187 81.2456 69.204C81.3609 69.4893 81.5321 69.7486 81.749 69.9666Z" fill="black"/>
<path d="M86.8416 65.3623H91.787V66.1168H89.7006V71.2546H88.9246V66.1168H86.8416V65.3623Z" fill="black"/>
<path d="M96.7225 67.9892H92.4878V67.2363H96.7225V67.9892Z" fill="black"/>
<path d="M104.604 71.2541H103.733L102.968 69.2262H99.0636L98.299 71.2541H97.4282L100.593 63.0049H101.439L104.604 71.2541ZM101.009 64.0295L99.3512 68.4487H102.668L101.009 64.0295Z" fill="black"/>
<path d="M105.545 65.3623H110.485V71.2546H109.709V66.1168H106.327V71.2546H105.551L105.545 65.3623Z" fill="black"/>
<path d="M111.427 65.3623H116.367V66.1168H114.286V71.2546H113.516V66.1168H111.427V65.3623Z" fill="black"/>
<path d="M119.79 65.2197C120.188 65.2044 120.585 65.2803 120.95 65.4416C121.315 65.603 121.638 65.8456 121.896 66.151C122.433 66.7485 122.724 67.5272 122.712 68.3312C122.712 68.3704 122.712 68.4948 122.688 68.6962H117.525C117.582 69.2476 117.852 69.755 118.277 70.1103C118.726 70.4721 119.289 70.6604 119.865 70.6406C120.76 70.6406 121.392 70.3067 121.76 69.6389L122.441 70.0399C122.184 70.4631 121.816 70.8077 121.378 71.0367C120.907 71.2805 120.383 71.4036 119.853 71.3952C118.929 71.3952 118.176 71.1044 117.596 70.5228C117.307 70.2327 117.081 69.8866 116.932 69.5057C116.782 69.1249 116.711 68.7174 116.725 68.3083C116.712 67.9016 116.781 67.4966 116.929 67.1177C117.077 66.7387 117.3 66.3937 117.584 66.1036C117.87 65.8107 118.214 65.5808 118.594 65.4286C118.974 65.2764 119.381 65.2053 119.79 65.2197ZM119.79 65.9743C119.228 65.9564 118.68 66.1497 118.254 66.516C117.839 66.883 117.577 67.3922 117.519 67.9433H121.905C121.858 67.3879 121.604 66.8707 121.195 66.4931C120.805 66.1538 120.306 65.9692 119.79 65.9743Z" fill="black"/>
<path d="M125.542 68.1906L128.695 71.2546H127.659L124.719 68.4148V71.2546H123.943V65.3623H124.719V67.9664L127.519 65.3623H128.578L125.542 68.1906Z" fill="black"/>
<path d="M134.224 66.5163V65.3624H135V71.2547H134.224V70.0992C133.679 70.9634 132.887 71.3955 131.847 71.3955C131.445 71.4016 131.047 71.3254 130.676 71.1714C130.305 71.0174 129.97 70.789 129.69 70.5002C129.403 70.2137 129.177 69.8717 129.025 69.495C128.873 69.1183 128.799 68.7147 128.808 68.3086C128.799 67.9025 128.873 67.4988 129.025 67.122C129.176 66.7453 129.403 66.4034 129.69 66.117C129.97 65.8279 130.305 65.5992 130.676 65.4449C131.047 65.2906 131.445 65.2141 131.847 65.22C132.891 65.22 133.684 65.6521 134.224 66.5163ZM130.259 69.9666C130.699 70.3969 131.29 70.6377 131.906 70.6377C132.521 70.6377 133.112 70.3969 133.553 69.9666C133.769 69.7486 133.941 69.4893 134.056 69.204C134.171 68.9187 134.228 68.6131 134.224 68.3053C134.232 67.9952 134.178 67.6866 134.066 67.3978C133.953 67.1089 133.783 66.8455 133.567 66.6233C133.351 66.4011 133.093 66.2245 132.808 66.1039C132.523 65.9833 132.216 65.9211 131.907 65.9211C131.597 65.9211 131.29 65.9833 131.005 66.1039C130.72 66.2245 130.462 66.4011 130.246 66.6233C130.03 66.8455 129.86 67.1089 129.747 67.3978C129.635 67.6866 129.581 67.9952 129.589 68.3053C129.585 68.613 129.642 68.9184 129.757 69.2036C129.872 69.4889 130.042 69.7483 130.259 69.9666Z" fill="black"/>
</g>
<circle cx="75" cy="75" r="75" fill="#F8F7F7"/>
<circle cx="75" cy="75" r="75" fill="#7CCDFF"/>
<path d="M14.526 80V70.2H22.968V80H21.596V71.054L21.932 71.418H15.562L15.912 71.054V80H14.526ZM29.104 80.084C28.3107 80.084 27.6107 79.9207 27.004 79.594C26.4067 79.2673 25.94 78.8193 25.604 78.25C25.2774 77.6807 25.114 77.0273 25.114 76.29C25.114 75.5527 25.2727 74.8993 25.59 74.33C25.9167 73.7607 26.36 73.3173 26.92 73C27.4894 72.6733 28.1287 72.51 28.838 72.51C29.5567 72.51 30.1914 72.6687 30.742 72.986C31.2927 73.3033 31.722 73.7513 32.03 74.33C32.3474 74.8993 32.506 75.5667 32.506 76.332C32.506 76.388 32.5014 76.4533 32.492 76.528C32.492 76.6027 32.4874 76.6727 32.478 76.738H26.164V75.772H31.778L31.232 76.108C31.2414 75.632 31.1434 75.2073 30.938 74.834C30.7327 74.4607 30.448 74.1713 30.084 73.966C29.7294 73.7513 29.314 73.644 28.838 73.644C28.3714 73.644 27.956 73.7513 27.592 73.966C27.228 74.1713 26.9434 74.4653 26.738 74.848C26.5327 75.2213 26.43 75.6507 26.43 76.136V76.36C26.43 76.8547 26.542 77.298 26.766 77.69C26.9994 78.0727 27.3214 78.3713 27.732 78.586C28.1427 78.8007 28.614 78.908 29.146 78.908C29.5847 78.908 29.9814 78.8333 30.336 78.684C30.7 78.5347 31.0174 78.3107 31.288 78.012L32.03 78.88C31.694 79.272 31.274 79.5707 30.77 79.776C30.2754 79.9813 29.72 80.084 29.104 80.084ZM38.5251 80.084C37.9091 80.084 37.3444 79.944 36.8311 79.664C36.3271 79.3747 35.9211 78.95 35.6131 78.39C35.3144 77.83 35.1651 77.13 35.1651 76.29C35.1651 75.45 35.3097 74.75 35.5991 74.19C35.8977 73.63 36.2991 73.21 36.8031 72.93C37.3164 72.65 37.8904 72.51 38.5251 72.51C39.2531 72.51 39.8971 72.6687 40.4571 72.986C41.0171 73.3033 41.4604 73.7467 41.7871 74.316C42.1137 74.876 42.2771 75.534 42.2771 76.29C42.2771 77.046 42.1137 77.7087 41.7871 78.278C41.4604 78.8473 41.0171 79.2907 40.4571 79.608C39.8971 79.9253 39.2531 80.084 38.5251 80.084ZM34.5911 82.716V72.58H35.8791V74.582L35.7951 76.304L35.9351 78.026V82.716H34.5911ZM38.4131 78.908C38.8891 78.908 39.3137 78.8007 39.6871 78.586C40.0697 78.3713 40.3684 78.068 40.5831 77.676C40.8071 77.2747 40.9191 76.8127 40.9191 76.29C40.9191 75.758 40.8071 75.3007 40.5831 74.918C40.3684 74.526 40.0697 74.2227 39.6871 74.008C39.3137 73.7933 38.8891 73.686 38.4131 73.686C37.9464 73.686 37.5217 73.7933 37.1391 74.008C36.7657 74.2227 36.4671 74.526 36.2431 74.918C36.0284 75.3007 35.9211 75.758 35.9211 76.29C35.9211 76.8127 36.0284 77.2747 36.2431 77.676C36.4671 78.068 36.7657 78.3713 37.1391 78.586C37.5217 78.8007 37.9464 78.908 38.4131 78.908ZM47.5337 80.084C46.7404 80.084 46.0404 79.9207 45.4337 79.594C44.8364 79.2673 44.3697 78.8193 44.0337 78.25C43.7071 77.6807 43.5437 77.0273 43.5437 76.29C43.5437 75.5527 43.7024 74.8993 44.0197 74.33C44.3464 73.7607 44.7897 73.3173 45.3497 73C45.9191 72.6733 46.5584 72.51 47.2677 72.51C47.9864 72.51 48.6211 72.6687 49.1717 72.986C49.7224 73.3033 50.1517 73.7513 50.4597 74.33C50.7771 74.8993 50.9357 75.5667 50.9357 76.332C50.9357 76.388 50.9311 76.4533 50.9217 76.528C50.9217 76.6027 50.9171 76.6727 50.9077 76.738H44.5937V75.772H50.2077L49.6617 76.108C49.6711 75.632 49.5731 75.2073 49.3677 74.834C49.1624 74.4607 48.8777 74.1713 48.5137 73.966C48.1591 73.7513 47.7437 73.644 47.2677 73.644C46.8011 73.644 46.3857 73.7513 46.0217 73.966C45.6577 74.1713 45.3731 74.4653 45.1677 74.848C44.9624 75.2213 44.8597 75.6507 44.8597 76.136V76.36C44.8597 76.8547 44.9717 77.298 45.1957 77.69C45.4291 78.0727 45.7511 78.3713 46.1617 78.586C46.5724 78.8007 47.0437 78.908 47.5757 78.908C48.0144 78.908 48.4111 78.8333 48.7657 78.684C49.1297 78.5347 49.4471 78.3107 49.7177 78.012L50.4597 78.88C50.1237 79.272 49.7037 79.5707 49.1997 79.776C48.7051 79.9813 48.1497 80.084 47.5337 80.084ZM53.0208 80V72.58H54.3648V77.984L58.9147 72.58H60.1328V80H58.7887V74.596L54.2528 80H53.0208ZM56.4928 71.614C55.8114 71.614 55.2748 71.4507 54.8828 71.124C54.5001 70.788 54.3041 70.3073 54.2948 69.682H55.2048C55.2141 70.0367 55.3308 70.3167 55.5548 70.522C55.7881 70.7273 56.0961 70.83 56.4788 70.83C56.8614 70.83 57.1694 70.7273 57.4028 70.522C57.6361 70.3167 57.7574 70.0367 57.7668 69.682H58.7048C58.6954 70.3073 58.4948 70.788 58.1028 71.124C57.7108 71.4507 57.1741 71.614 56.4928 71.614ZM64.2115 80V73.406L64.5475 73.756H61.4955V72.58H68.2715V73.756H65.2335L65.5555 73.406V80H64.2115ZM69.6458 80V72.58H70.9898V77.984L75.5397 72.58H76.7578V80H75.4137V74.596L70.8778 80H69.6458ZM83.1262 80V72.58H84.4702V75.73H88.6982V72.58H90.0422V80H88.6982V76.892H84.4702V80H83.1262ZM97.2055 80V78.432L97.1355 78.138V75.464C97.1355 74.8947 96.9675 74.456 96.6315 74.148C96.3048 73.8307 95.8102 73.672 95.1475 73.672C94.7088 73.672 94.2795 73.7467 93.8595 73.896C93.4395 74.036 93.0848 74.2273 92.7955 74.47L92.2355 73.462C92.6182 73.154 93.0755 72.9207 93.6075 72.762C94.1488 72.594 94.7135 72.51 95.3015 72.51C96.3188 72.51 97.1028 72.7573 97.6535 73.252C98.2042 73.7467 98.4795 74.5027 98.4795 75.52V80H97.2055ZM94.7695 80.084C94.2188 80.084 93.7335 79.9907 93.3135 79.804C92.9028 79.6173 92.5855 79.3607 92.3615 79.034C92.1375 78.698 92.0255 78.32 92.0255 77.9C92.0255 77.4987 92.1188 77.1347 92.3055 76.808C92.5015 76.4813 92.8142 76.22 93.2435 76.024C93.6822 75.828 94.2702 75.73 95.0075 75.73H97.3595V76.696H95.0635C94.3915 76.696 93.9388 76.808 93.7055 77.032C93.4722 77.256 93.3555 77.5267 93.3555 77.844C93.3555 78.208 93.5002 78.502 93.7895 78.726C94.0788 78.9407 94.4802 79.048 94.9935 79.048C95.4975 79.048 95.9362 78.936 96.3095 78.712C96.6922 78.488 96.9675 78.1613 97.1355 77.732L97.4015 78.656C97.2242 79.0947 96.9115 79.4447 96.4635 79.706C96.0155 79.958 95.4508 80.084 94.7695 80.084ZM107.893 80.084C107.137 80.084 106.461 79.9207 105.863 79.594C105.275 79.2673 104.813 78.8193 104.477 78.25C104.141 77.6807 103.973 77.0273 103.973 76.29C103.973 75.5527 104.141 74.8993 104.477 74.33C104.813 73.7607 105.275 73.3173 105.863 73C106.461 72.6733 107.137 72.51 107.893 72.51C108.565 72.51 109.163 72.6453 109.685 72.916C110.217 73.1773 110.628 73.5693 110.917 74.092L109.895 74.75C109.653 74.386 109.354 74.12 108.999 73.952C108.654 73.7747 108.281 73.686 107.879 73.686C107.394 73.686 106.96 73.7933 106.577 74.008C106.195 74.2227 105.891 74.526 105.667 74.918C105.443 75.3007 105.331 75.758 105.331 76.29C105.331 76.822 105.443 77.284 105.667 77.676C105.891 78.068 106.195 78.3713 106.577 78.586C106.96 78.8007 107.394 78.908 107.879 78.908C108.281 78.908 108.654 78.824 108.999 78.656C109.354 78.4787 109.653 78.208 109.895 77.844L110.917 78.488C110.628 79.0013 110.217 79.398 109.685 79.678C109.163 79.9487 108.565 80.084 107.893 80.084ZM117.207 80V78.432L117.137 78.138V75.464C117.137 74.8947 116.969 74.456 116.633 74.148C116.307 73.8307 115.812 73.672 115.149 73.672C114.711 73.672 114.281 73.7467 113.861 73.896C113.441 74.036 113.087 74.2273 112.797 74.47L112.237 73.462C112.62 73.154 113.077 72.9207 113.609 72.762C114.151 72.594 114.715 72.51 115.303 72.51C116.321 72.51 117.105 72.7573 117.655 73.252C118.206 73.7467 118.481 74.5027 118.481 75.52V80H117.207ZM114.771 80.084C114.221 80.084 113.735 79.9907 113.315 79.804C112.905 79.6173 112.587 79.3607 112.363 79.034C112.139 78.698 112.027 78.32 112.027 77.9C112.027 77.4987 112.121 77.1347 112.307 76.808C112.503 76.4813 112.816 76.22 113.245 76.024C113.684 75.828 114.272 75.73 115.009 75.73H117.361V76.696H115.065C114.393 76.696 113.941 76.808 113.707 77.032C113.474 77.256 113.357 77.5267 113.357 77.844C113.357 78.208 113.502 78.502 113.791 78.726C114.081 78.9407 114.482 79.048 114.995 79.048C115.499 79.048 115.938 78.936 116.311 78.712C116.694 78.488 116.969 78.1613 117.137 77.732L117.403 78.656C117.226 79.0947 116.913 79.4447 116.465 79.706C116.017 79.958 115.453 80.084 114.771 80.084ZM120.902 80V72.58H122.246V77.984L126.796 72.58H128.014V80H126.67V74.596L122.134 80H120.902ZM124.374 71.614C123.692 71.614 123.156 71.4507 122.764 71.124C122.381 70.788 122.185 70.3073 122.176 69.682H123.086C123.095 70.0367 123.212 70.3167 123.436 70.522C123.669 70.7273 123.977 70.83 124.36 70.83C124.742 70.83 125.05 70.7273 125.284 70.522C125.517 70.3167 125.638 70.0367 125.648 69.682H126.586C126.576 70.3073 126.376 70.788 125.984 71.124C125.592 71.4507 125.055 71.614 124.374 71.614ZM132.092 80V73.406L132.428 73.756H129.376V72.58H136.152V73.756H133.114L133.436 73.406V80H132.092Z" fill="white"/>
</g>
<defs>
<linearGradient id="paint0_linear_185_5389" x1="57.3815" y1="93.4027" x2="17.5745" y2="60.3775" gradientUnits="userSpaceOnUse">
<stop stop-color="#9200F7"/>
<stop offset="0.38" stop-color="#F12BF2"/>
<stop offset="1" stop-color="#F6EC4F"/>
</linearGradient>
<clipPath id="clip0_185_5389">
<rect width="150" height="150" fill="white"/>
</clipPath>
<clipPath id="clip1_185_5389">
<rect width="120" height="32" fill="white" transform="translate(15 59)"/>
</clipPath>
</defs>
</svg>
