<svg width="57" height="57" viewBox="0 0 57 57" fill="none" xmlns="http://www.w3.org/2000/svg">
<path fill-rule="evenodd" clip-rule="evenodd" d="M28.5 56.3809C43.964 56.3809 56.5 43.8448 56.5 28.3809C56.5 12.9169 43.964 0.380859 28.5 0.380859C13.036 0.380859 0.5 12.9169 0.5 28.3809C0.5 43.8448 13.036 56.3809 28.5 56.3809ZM43.7862 41.3809H38.5827C38.3941 41.3809 38.2132 41.3058 38.0798 41.1722C37.9465 41.0386 37.8716 40.8574 37.8716 40.6685V30.9868C37.8716 28.5082 37.8275 25.3175 34.4257 25.3175C30.9748 25.3175 30.4468 28.0179 30.4468 30.8063V40.6676C30.4468 40.8565 30.3719 41.0377 30.2386 41.1713C30.1052 41.3049 29.9243 41.38 29.7357 41.38H24.5325C24.3439 41.38 24.1631 41.3049 24.0297 41.1713C23.8963 41.0377 23.8214 40.8565 23.8214 40.6676V20.718C23.8214 20.5291 23.8963 20.3479 24.0297 20.2143C24.1631 20.0807 24.3439 20.0057 24.5325 20.0057H29.4707C29.6593 20.0057 29.8401 20.0807 29.9735 20.2143C30.1069 20.3479 30.1818 20.5291 30.1818 20.718V22.8699C30.1819 22.8823 30.186 22.8944 30.1936 22.9042C30.2012 22.9141 30.2118 22.9212 30.2238 22.9244C30.2358 22.9277 30.2485 22.9269 30.26 22.9222C30.2715 22.9176 30.2812 22.9093 30.2876 22.8986C31.5866 20.6974 33.9939 19.3792 36.5466 19.4743C43.2618 19.4743 44.5 23.8989 44.5 29.6553L44.4973 40.6687C44.4973 40.8576 44.4223 41.0387 44.289 41.1723C44.1556 41.3058 43.9748 41.3809 43.7862 41.3809ZM16.3457 17.0839C14.2364 17.0839 12.5 15.3454 12.5 13.2324C12.5 11.1195 14.2355 9.38086 16.345 9.38086C18.454 9.38086 20.1894 11.1192 20.1898 13.2317C20.1898 15.3442 18.4545 17.0838 16.3457 17.0839ZM18.9473 41.3809H13.7372C13.5486 41.3809 13.3677 41.3058 13.2343 41.1722C13.101 41.0386 13.026 40.8574 13.026 40.6685V20.718C13.026 20.5291 13.101 20.3479 13.2343 20.2143C13.3677 20.0807 13.5486 20.0057 13.7372 20.0057H18.9473C19.1359 20.0057 19.3168 20.0807 19.4501 20.2143C19.5835 20.3479 19.6584 20.5291 19.6584 20.718V40.6685C19.6584 40.8574 19.5835 41.0386 19.4501 41.1722C19.3168 41.3058 19.1359 41.3809 18.9473 41.3809Z" fill="#0A66C2"/>
</svg>
