<svg width="70" height="70" viewBox="0 0 70 70" fill="none" xmlns="http://www.w3.org/2000/svg">
    <path d="M30.3612 40.8436L26.981 30.3624L34.615 27.271L33.4061 41.0987L30.3612 40.8436Z" fill="#288EE9"/>
    <path d="M50.3928 34.4397L34.6318 32.5457L50.4912 33.3108L50.3928 34.4397Z" fill="white"/>
    <path d="M45.0085 32.4269L34.2295 32.1025L44.9819 31.2939L45.0085 32.4269Z" fill="white"/>
    <path d="M48.5286 28.6621L34.8452 31.6869L48.2291 27.5671L48.5286 28.6621Z" fill="white"/>
    <path d="M24.7667 64.4837L39.5617 61.9622L41.7434 36.9775L21.3535 38.5755L24.7667 64.4837Z" fill="#004B83"/>
    <path d="M39.5619 45.8079C39.9574 48.5391 37.0607 51.2021 33.0916 51.7576C29.122 52.3118 25.5834 50.5468 25.1885 47.8157C24.7927 45.0826 27.6906 42.4191 31.6594 41.8649C35.6282 41.3093 39.167 43.0754 39.5619 45.8079Z"
          fill="white"/>
    <path d="M29.9333 48.7444C29.9333 48.7444 29.834 54.9652 30.7967 54.7962C31.7604 54.6281 32.0059 53.1773 32.0059 53.1773C32.0059 53.1773 33.0717 56.0776 33.8103 55.5943C34.5486 55.1112 33.8103 53.1773 33.8103 53.1773C33.8103 53.1773 34.7951 55.2074 35.4103 54.7962C36.0255 54.3859 35.4103 52.5317 35.4103 52.5317C35.4103 52.5317 36.5998 54.3296 37.0098 53.6326C37.4201 52.935 36.0255 49.2733 36.0255 49.2733L29.9333 48.7444Z"
          fill="white"/>
    <path d="M31.9644 47.1132C31.9644 48.2156 31.0555 49.1072 29.9338 49.1072C28.8124 49.1072 27.9043 48.2156 27.9043 47.1132C27.9043 46.0115 28.8124 45.1191 29.9338 45.1191C31.0555 45.1191 31.9644 46.0115 31.9644 47.1132Z"
          fill="#004B83"/>
    <path d="M37.7547 46.1027C37.7547 47.5627 36.5502 48.7444 35.0648 48.7444C33.5799 48.7444 32.3762 47.5627 32.3762 46.1027C32.3762 44.644 33.5799 43.4604 35.0648 43.4604C36.5502 43.4604 37.7547 44.644 37.7547 46.1027Z"
          fill="#004B83"/>
    <path d="M32.3765 48.7444L31.9646 50.7311L33.2372 49.9937L32.3765 48.7444Z" fill="#004B83"/>
    <path d="M33.7297 32.1643C33.7297 33.1086 33.4255 33.8749 33.0528 33.8749C32.6785 33.8749 32.3762 33.1086 32.3762 32.1643C32.3762 31.2189 32.6785 30.4529 33.0528 30.4529C33.4255 30.4529 33.7297 31.2189 33.7297 32.1643Z"
          fill="#004B83"/>
    <path d="M58.5134 70L0 66.4552V0L0.403436 0.0180494L70 3.28537L69.9265 3.70596L58.5134 70ZM0.770125 65.7452L57.87 69.2036L69.096 4.00017L0.770125 0.792385V65.7452Z"
          fill="#004B83"/>
    <path d="M5.83531 12.9624L5.1825 12.8188C5.02883 12.7866 4.98309 12.6575 4.98955 12.518C5.00072 12.2772 5.18258 11.9805 5.47937 11.9937L5.97733 12.1303L6.01196 11.9414C6.28954 10.4167 6.50022 9.2194 6.96311 8.16038L6.84641 7.8884C6.85934 7.60952 7.12682 7.41824 7.372 7.42921C7.51394 7.43556 7.62832 7.47879 7.71335 7.59692C8.34608 9.28929 9.0574 10.9598 9.63791 12.6625C9.68894 12.6775 9.74056 12.6798 9.77927 12.6815C9.95757 12.7403 10.0145 12.908 10.0068 13.0728C10.0009 13.1996 9.96866 13.3379 9.88712 13.4231C10.1956 14.3007 10.4518 15.1887 10.6406 16.1371C10.6288 16.3907 10.3355 16.5808 10.1033 16.5704C9.97422 16.5646 9.87334 16.5093 9.84109 16.3681C9.61596 15.3672 9.32512 14.3888 8.99558 13.4086C8.16152 13.2697 7.32512 13.1815 6.50338 13.0558C6.38131 13.7363 5.91843 14.7953 5.8908 15.3911C5.88551 15.5052 5.93301 15.5962 5.92714 15.723C5.91538 15.9765 5.64672 16.1931 5.44026 16.1839C5.18218 16.1724 5.15875 15.841 5.16933 15.6129C5.20753 14.7889 5.6141 13.829 5.83531 12.9624ZM7.35835 9.11807C7.02627 10.1448 6.87249 11.2304 6.64422 12.2491C7.32343 12.3811 8.01848 12.4503 8.69945 12.5443C8.27549 11.3694 7.82396 10.2313 7.35835 9.11807Z"
          fill="black"/>
    <path d="M17.0913 9.57898C17.116 9.04657 17.0632 8.51069 17.0879 7.97828C17.0973 7.77545 17.3742 7.66081 17.6065 7.67121C17.7871 7.67929 18.081 7.75595 18.098 7.94725C18.1272 8.43127 18.1172 8.92623 18.0949 9.40794C18.0267 10.8784 17.816 12.3552 17.7472 13.8384C17.7031 14.7891 17.7107 15.7421 17.8742 16.6768C17.8619 16.943 17.4419 17.0766 17.1967 17.0656C17.0419 17.0587 16.89 16.9884 16.8718 16.8224C16.7088 15.8751 16.7013 14.9221 16.7454 13.9714C16.776 13.3122 16.8329 12.6415 16.8899 11.9708C16.0124 11.9315 15.1355 11.8796 14.278 11.6888C14.1812 12.3831 14.0972 13.078 14.0655 13.7625C14.032 14.4851 14.063 15.2105 14.2242 15.9164C14.2348 15.9677 14.2448 16.0316 14.2424 16.0824C14.2306 16.3359 14.0394 16.556 13.8588 16.5479C13.7813 16.5444 13.4488 16.466 13.43 16.3128C13.2107 15.4646 13.1721 14.6245 13.2109 13.7878C13.2755 12.3934 13.5596 11.0088 13.6248 9.60171C13.6524 9.00591 13.5246 8.41587 13.5528 7.8074C13.5622 7.60457 14.008 7.47209 14.1758 7.47959C14.2919 7.48479 14.4045 7.56604 14.4461 7.78385C14.5094 8.37101 14.5346 8.94376 14.5076 9.52688C14.4835 10.0466 14.4201 10.5773 14.3578 11.0826C15.2183 11.21 16.0799 11.3121 16.9433 11.3762C17.0102 10.7694 17.0631 10.1874 17.0913 9.57898Z"
          fill="black"/>
    <path d="M23.3978 16.5809C23.3502 16.7693 23.1262 16.8609 22.9326 16.8523C22.7391 16.8436 22.5883 16.748 22.5954 16.5958C22.7532 15.9805 22.8061 15.3985 22.8331 14.8154C22.913 13.0914 22.7332 11.1144 22.816 9.32702C22.8237 9.16223 22.8319 8.98476 22.8782 8.82169C22.4923 8.77902 22.0935 8.73577 21.7063 8.71845C21.2289 8.69708 20.7239 8.71259 20.2546 8.79322C20.0611 8.78456 19.9238 8.6768 19.9297 8.55003C19.9409 8.30918 20.1145 8.18992 20.3644 8.09948C20.8336 8.01885 21.2993 8.01428 21.7768 8.03565C23.0672 8.09339 24.3323 8.41675 25.6227 8.47449C26.0873 8.49528 26.5536 8.47804 27.0873 8.4003C27.2293 8.40665 27.2768 8.49769 27.2721 8.59911C27.2627 8.80193 27.0955 9.06121 26.9131 9.09115C26.4573 9.15968 26.0174 9.1654 25.5658 9.14519C24.9206 9.11632 24.2912 9.02465 23.649 8.9324C23.6296 9.07126 23.6102 9.21012 23.6038 9.34957C23.5238 11.0736 23.7366 12.6201 23.6496 14.4962C23.6173 15.1934 23.5462 15.8889 23.3978 16.5809Z"
          fill="black"/>
    <path d="M32.2962 9.39554L32.3174 8.93918C32.3262 8.74904 32.8354 8.36533 33.0418 8.37457C33.2999 8.38612 33.3855 8.77103 33.3637 9.24006C33.2856 10.926 32.974 12.627 32.897 14.2876C32.8182 15.9862 33.1771 16.612 33.1565 17.0557C33.146 17.2839 32.8791 17.4625 32.621 17.4509C31.8338 17.4157 31.9925 13.9931 32.0237 13.3212C32.0566 12.6113 32.1018 11.9147 32.1999 11.195C31.0805 13.3044 30.7631 14.0143 30.5519 14.6654C30.2422 15.2104 30.0103 17.1436 29.1586 17.1055C28.6683 17.0835 28.7288 15.7778 28.7553 15.2074C28.9337 14.1484 29.0998 13.076 29.1544 11.8971C29.1968 10.9844 29.1499 10.0423 28.9365 9.06737C28.9477 8.82651 29.2867 8.48601 29.5061 8.49582C29.6093 8.50044 29.6832 8.57996 29.7014 8.74591C29.8732 9.78252 29.9282 10.8266 29.8806 11.8534C29.8312 12.9182 29.7296 13.9934 29.5635 15.0657C30.1215 13.6299 30.3403 13.0934 30.7662 12.2741C31.3259 11.3592 31.9131 10.4073 32.2962 9.39554Z"
          fill="black"/>
    <path d="M35.6129 13.4945C35.4592 13.4622 35.4018 13.3072 35.4082 13.1678C35.4159 13.003 35.501 12.8417 35.6171 12.8469C36.928 12.7404 38.2349 12.7226 39.5511 12.7815C39.7188 12.789 40.5705 12.8271 40.5534 13.1948C40.5446 13.3849 40.4378 13.4563 40.283 13.4494C38.7187 13.4429 37.155 13.4238 35.6129 13.4945Z"
          fill="black"/>
    <path d="M43.1983 18.0766C42.9144 18.0639 42.7672 17.8922 42.7754 17.7147C42.779 17.6387 42.8218 17.5517 42.8892 17.4912C42.8389 16.9046 42.8407 16.3077 42.8677 15.7245C42.8983 15.0654 42.967 14.4206 43.0362 13.7632C42.8456 13.6911 42.6984 13.5194 42.7049 13.3799C42.709 13.2912 42.7641 13.2175 43.1313 13.1069C43.2745 11.97 43.4418 10.8724 43.5076 9.73206C43.4155 9.76605 43.2847 9.7983 43.1686 9.7931C42.9363 9.78271 42.7938 9.50958 42.8044 9.2814C42.8109 9.14196 42.8818 9.0054 43.0261 8.96105C43.2138 8.81702 44.6474 8.85575 44.8028 8.85001C45.6028 8.8858 46.4246 9.01149 47.2457 9.14986C47.4756 9.21096 47.5918 9.49561 47.5818 9.71111C47.5747 9.86323 47.5043 9.98711 47.3624 9.98076C46.6268 9.94785 45.784 9.71959 44.9194 9.6809C44.7259 9.67224 44.5323 9.66358 44.3382 9.6676C44.287 10.7705 44.1338 11.8433 44.0059 12.93C44.2657 12.9036 44.5379 12.8903 44.8089 12.9025C46.1251 12.9614 47.3779 13.5509 47.3097 15.0214C47.2104 17.1637 45.1738 18.1396 43.1983 18.0766ZM43.9114 13.5737C43.8239 14.3446 43.7364 15.1156 43.7012 15.8762C43.6771 16.3959 43.6788 16.9168 43.7063 17.4388C43.8213 17.4694 43.9368 17.4873 44.053 17.4925C45.3433 17.5502 46.3975 16.289 46.4533 15.0847C46.4951 14.1847 45.8663 13.5214 44.9114 13.4787C44.5889 13.4642 44.2516 13.4873 43.9114 13.5737Z"
          fill="black"/>
    <path d="M52.1201 13.7758C51.8972 13.5626 51.8157 13.3684 51.8233 13.2036C51.8598 12.4177 53.8969 11.988 53.9427 10.9993C53.9645 10.5302 53.6267 10.007 53.0994 9.9453C52.6947 10.0288 52.3973 10.3077 52.2641 10.6701C52.1907 10.8573 52.0066 10.9253 51.8388 10.9178C51.5291 10.904 51.3332 10.6665 51.3227 10.3358C51.6794 9.615 52.473 9.23132 53.2086 9.26423C54.1376 9.3058 54.9136 10.1408 54.8689 11.1042C54.8295 11.9535 53.979 12.449 53.1425 12.9197C54.1818 13.3727 55.0392 14.6813 54.9846 15.8602C54.9099 17.4701 53.3297 18.3648 51.7683 18.295C50.2585 18.2274 48.7184 17.4217 48.5812 15.9167C48.6024 15.4603 48.8453 15.2425 49.0388 15.2512C49.1679 15.257 49.2793 15.3636 49.2828 15.567C49.4616 16.7309 50.6997 17.358 51.8482 17.4094C52.6998 17.4475 54.195 16.9936 54.2443 15.9287C54.2826 15.1048 53.4386 13.784 52.4708 13.7407C52.3547 13.7355 52.238 13.743 52.1201 13.7758Z"
          fill="black"/>
    <path d="M60.1851 14.1367C59.9622 13.9235 59.8807 13.7293 59.8883 13.5645C59.9248 12.7786 61.9619 12.3489 62.0077 11.3601C62.0295 10.8911 61.6917 10.3679 61.1644 10.3062C60.7596 10.3897 60.4622 10.6685 60.3291 11.031C60.2557 11.2182 60.0715 11.2862 59.9038 11.2787C59.5941 11.2648 59.3982 11.0274 59.3877 10.6967C59.7444 9.97587 60.538 9.59219 61.2735 9.6251C62.2026 9.66667 62.9785 10.5017 62.9339 11.4651C62.8945 12.3144 62.0439 12.8099 61.2075 13.2805C62.2468 13.7335 63.1042 15.0422 63.0495 16.2211C62.9749 17.831 61.3947 18.7257 59.8333 18.6558C58.3235 18.5883 56.7833 17.7826 56.6462 16.2776C56.6674 15.8212 56.9102 15.6034 57.1038 15.6121C57.2328 15.6178 57.3443 15.7245 57.3478 15.9279C57.5265 17.0918 58.7647 17.7188 59.9131 17.7702C60.7648 17.8083 62.2599 17.3544 62.3093 16.2896C62.3475 15.4656 61.5036 14.1449 60.5358 14.1016C60.4197 14.0964 60.303 14.1039 60.1851 14.1367Z"
          fill="black"/>
</svg>
