<svg width="57" height="57" viewBox="0 0 57 57" fill="none" xmlns="http://www.w3.org/2000/svg">
    <path fill-rule="evenodd" clip-rule="evenodd"
          d="M28.5 0.380859C13.036 0.380859 0.5 12.9169 0.5 28.3809C0.5 43.8448 13.036 56.3809 28.5 56.3809C43.964 56.3809 56.5 43.8448 56.5 28.3809C56.5 12.9169 43.964 0.380859 28.5 0.380859ZM13.8577 39.9106C14.4675 40.5203 15.2002 40.8252 16.0557 40.8252H40.9446C41.7991 40.8263 42.5313 40.5219 43.1411 39.9121C43.7508 39.3023 44.0557 38.5697 44.0557 37.7141V19.0474C44.0568 18.1929 43.7524 17.4608 43.1426 16.851C42.5328 16.2412 41.8002 15.9363 40.9446 15.9363H16.0557C15.2012 15.9353 14.4691 16.2397 13.8593 16.8494C13.2495 17.4592 12.9446 18.1919 12.9446 19.0474V37.7141C12.9436 38.5686 13.2479 39.3008 13.8577 39.9106ZM29.3168 29.4308L40.9446 22.1586V37.7141H16.0557V22.5474V22.1586L27.6835 29.4308C27.8121 29.5096 27.9479 29.5682 28.0911 29.6066C28.2342 29.6449 28.3705 29.6641 28.5002 29.6641C28.6288 29.6651 28.7646 29.646 28.9077 29.6066C29.0508 29.5672 29.1872 29.5086 29.3168 29.4308ZM40.9446 19.0474L28.5002 26.8252L16.0557 19.0474H40.9446Z"
          fill="#288EEA"/>
</svg>
