<svg width="816" height="1702" viewBox="0 0 816 1702" fill="none" xmlns="http://www.w3.org/2000/svg">
    <g style="mix-blend-mode:multiply" opacity="0.6">
        <path d="M400.878 1632.64C617.647 1632.64 793.373 1616.21 793.373 1595.94C793.373 1575.67 617.647 1559.24 400.878 1559.24C184.109 1559.24 8.38336 1575.67 8.38336 1595.94C8.38336 1616.21 184.109 1632.64 400.878 1632.64Z"
              fill="#D7DEE0"/>
    </g>
    <path d="M177.487 1539.03C177.487 1539.03 171.391 1510.82 181.735 1497.69" stroke="#23211F" stroke-width="0.838415"
          stroke-miterlimit="10" stroke-linecap="round"/>
    <path d="M144.691 1545.38C144.691 1545.38 67.9589 1535.17 79.5166 1522.82C91.0744 1510.47 127.772 1496.32 154.899 1537.69C154.899 1537.69 156.867 1546 144.691 1545.38Z"
          fill="#F9F5F2"/>
    <path d="M116.479 1501.87C124.659 1501.73 132.711 1503.9 139.707 1508.13C146.704 1512.36 152.361 1518.47 156.027 1525.76C156.027 1525.76 144.824 1498.65 116.479 1501.87Z"
          fill="#F9F5F2"/>
    <path opacity="0.3"
          d="M149.867 1542.55C149.867 1542.55 101.328 1499.84 116.957 1491.65C132.586 1483.45 167.191 1483.94 161.818 1538.9C161.485 1540.09 160.854 1541.19 159.985 1542.08C159.117 1542.97 158.037 1543.62 156.847 1543.99C155.656 1544.35 154.393 1544.41 153.173 1544.16C151.953 1543.91 150.816 1543.36 149.867 1542.55Z"
          fill="#F9F5F2"/>
    <path opacity="0.3"
          d="M145.993 1549.88C145.993 1549.88 59.1233 1571.4 64.6544 1557.73C70.1854 1544.07 101.332 1519.76 152.477 1540.29C152.477 1540.29 159.192 1545.82 145.993 1549.88Z"
          fill="#F9F5F2"/>
    <path d="M152.456 1574.89C152.456 1574.89 116.821 1661.78 134.262 1663.43C151.703 1665.08 185.812 1643.56 165.151 1572.95C165.151 1572.95 159.018 1562.19 152.456 1574.89Z"
          fill="#F9F5F2"/>
    <path opacity="0.3"
          d="M157.925 1572.77C157.925 1572.77 167.042 1666.36 183.546 1659.49C200.05 1652.62 219.675 1617.88 168.168 1565.05C168.168 1565.05 157.733 1558.44 157.925 1572.77Z"
          fill="#F9F5F2"/>
    <path opacity="0.3"
          d="M149.115 1569C149.115 1569 79.4948 1632.22 94.8294 1641.39C110.164 1650.56 149.844 1645.44 161.54 1572.76C161.444 1572.62 160.522 1560.17 149.115 1569Z"
          fill="#F9F5F2"/>
    <path d="M154.967 1546.86C154.967 1546.86 137.062 1524.2 140.54 1507.89" stroke="#23211F" stroke-width="0.838415"
          stroke-miterlimit="10" stroke-linecap="round"/>
    <path d="M145.331 1572.44C145.331 1572.44 222.243 1577.64 210.753 1539.58C199.263 1501.51 180.041 1537.2 166.85 1540.55C157.806 1542.41 148.449 1542.11 139.541 1539.69L145.331 1572.44Z"
          fill="#23211F"/>
    <g style="mix-blend-mode:soft-light">
        <path d="M139.543 1539.69L145.334 1572.44L139.756 1541.02C148.656 1543.45 158.009 1543.74 167.041 1541.85C180.094 1538.6 199.087 1503.68 210.597 1539.79C199.375 1501.75 179.885 1537.42 166.694 1540.76C157.684 1542.53 148.385 1542.16 139.543 1539.69Z"
              fill="#E8D9CF"/>
    </g>
    <g style="mix-blend-mode:soft-light">
        <path d="M190.334 1524.21C182.199 1528.58 173.742 1538.93 166.831 1540.52C157.786 1542.38 148.429 1542.08 139.521 1539.65L143.596 1562.7C159.461 1562.89 202.731 1561.09 194.612 1534.08C193.667 1530.6 192.226 1527.28 190.334 1524.21Z"
              fill="#EAE6A2"/>
    </g>
    <g style="mix-blend-mode:multiply">
        <path d="M198.867 1522.47C204.954 1527.97 213.282 1538.59 205.25 1551.09C193.486 1569.43 155.027 1566.94 155.027 1566.94C157.265 1555.5 149.091 1541.52 149.091 1541.52C147.168 1541.32 145.466 1541.08 144.041 1540.79L141.706 1552.6L145.238 1572.3C145.238 1572.3 222.149 1577.51 210.659 1539.44C207.47 1528.21 203.249 1523.55 198.867 1522.47Z"
              fill="#AFA8A3"/>
    </g>
    <path d="M93.8789 1482.5C109.207 1466.78 131.317 1498.54 141.171 1529.8C151.026 1561.05 146.111 1590.53 129.767 1595.51C100.436 1604.7 92.3295 1579.47 82.4749 1548.21C72.6204 1516.96 56.6886 1494.71 93.8789 1482.5Z"
          fill="#2D2A28"/>
    <g style="mix-blend-mode:soft-light">
        <path d="M93.8823 1482.51C79.341 1487.5 72.8014 1493.72 70.9687 1501.56C73.6288 1494.98 80.149 1489.54 93.0191 1485.3C108.313 1469.59 130.446 1501.39 140.335 1532.62C145.571 1547.68 146.652 1563.87 143.465 1579.49C147.633 1566.87 147.178 1548.65 141.175 1529.8C131.423 1498.47 109.266 1466.64 93.8823 1482.51Z"
              fill="#E8D9CF"/>
    </g>
    <g style="mix-blend-mode:multiply">
        <path d="M114.783 1512.47C116.368 1519.06 121.859 1514.48 121.859 1514.48C122.894 1508.52 124.247 1502.62 125.915 1496.8C124.742 1495.12 123.521 1493.37 122.515 1491.93C117.621 1503.73 114.783 1512.47 114.783 1512.47Z"
              fill="#AFA8A3"/>
    </g>
    <path d="M112.671 1513.46C112.671 1513.46 117.481 1497.91 127.86 1473.54C131.169 1465.77 134.147 1471.45 138.339 1473.54C142.531 1475.63 146.723 1486.08 146.723 1486.08C146.723 1486.08 131.331 1465.21 127.86 1475.63C123.211 1489.59 120.846 1499.96 119.94 1514.73C119.94 1514.73 114.881 1519.93 112.671 1513.46Z"
          fill="#2D2A28"/>
    <g style="mix-blend-mode:soft-light">
        <path d="M113.795 1513.1C113.795 1513.1 116.802 1498.94 122.381 1481.9C126.902 1468.09 133.112 1452.39 140.778 1440.81L140.12 1440.45C122.713 1466.22 112.674 1513.47 112.674 1513.47C113.979 1517.1 116.129 1517.03 117.742 1516.27C116.34 1516.53 114.817 1515.95 113.795 1513.1Z"
              fill="#E8D9CF"/>
    </g>
    <g style="mix-blend-mode:multiply">
        <path d="M130.103 1503.61C131.001 1505.48 153.316 1550.5 136.642 1581.57C136.642 1581.57 129.767 1595.51 113.375 1587.53C113.375 1587.53 129.238 1576.52 123.566 1553.82C117.893 1531.13 101.208 1528.29 101.208 1528.29C101.208 1528.29 109.429 1520.09 101.357 1506.54C93.2848 1493 85.0184 1495.42 85.0184 1495.42L83.2736 1550.97C92.775 1580.84 101.162 1604.35 129.507 1595.28C145.755 1590.17 150.903 1560.73 141.014 1529.5C138.237 1520.53 134.583 1511.86 130.103 1503.61Z"
              fill="#AFA8A3"/>
    </g>
    <path d="M64.4169 1493.78C69.3416 1492.23 74.6173 1492.16 79.5771 1493.6C84.5369 1495.04 88.9579 1497.91 92.2813 1501.85C95.6047 1505.8 97.6811 1510.63 98.248 1515.75C98.8149 1520.87 97.8469 1526.04 95.4663 1530.61C93.0858 1535.18 89.3995 1538.95 84.8738 1541.43C80.348 1543.91 75.1859 1545 70.0402 1544.56C64.8945 1544.11 59.9962 1542.16 55.9647 1538.94C51.9333 1535.72 48.9497 1531.38 47.3911 1526.47C45.3122 1519.88 45.9371 1512.74 49.1286 1506.61C52.3202 1500.49 57.818 1495.87 64.4169 1493.78Z"
          fill="#C4670A"/>
    <path d="M54.9212 1499.2C56.5296 1497.95 58.3439 1496.98 60.2835 1496.35C64.0921 1495.14 68.2019 1495.29 71.9125 1496.77C75.6232 1498.25 78.7052 1500.96 80.6333 1504.45C82.5615 1507.94 83.2165 1511.99 82.4868 1515.91C81.757 1519.82 79.6877 1523.37 76.6314 1525.94C73.5751 1528.5 69.721 1529.93 65.7256 1529.98C61.7302 1530.03 57.8408 1528.7 54.7201 1526.21C51.5994 1523.72 49.4406 1520.23 48.6113 1516.34C47.7821 1512.44 48.3338 1508.37 50.1725 1504.84C46.9419 1510.02 45.6428 1516.17 46.5027 1522.21C47.3626 1528.26 50.3266 1533.81 54.8758 1537.89C59.425 1541.97 65.2694 1544.33 71.3857 1544.55C77.502 1544.76 83.5004 1542.83 88.3306 1539.08C93.1608 1535.33 96.5149 1530.01 97.8058 1524.05C99.0966 1518.08 98.2418 1511.85 95.391 1506.45C92.5403 1501.05 87.8753 1496.82 82.2129 1494.51C76.5504 1492.19 70.2514 1491.93 64.4188 1493.78C60.9064 1494.9 57.6702 1496.75 54.9212 1499.2Z"
          fill="#FFCFA5"/>
    <path d="M54.6428 1503.27C57.5094 1500.06 61.7645 1498.84 63.747 1500.87C65.7295 1502.91 61.4385 1503.49 58.5374 1506.73C55.6364 1509.96 55.4824 1514.5 53.3802 1512.29C51.278 1510.08 51.7657 1506.54 54.6428 1503.27Z"
          fill="#DDA06F"/>
    <path d="M95.2459 1509.72C96.5504 1512.93 97.1748 1516.37 97.0797 1519.83C96.9847 1523.29 96.1723 1526.69 94.6938 1529.83C93.2152 1532.96 91.1025 1535.75 88.4886 1538.03C85.8746 1540.31 82.8161 1542.02 79.5055 1543.06C76.1949 1544.1 72.7039 1544.45 69.2522 1544.08C65.8006 1543.71 62.463 1542.63 59.4496 1540.92C56.4362 1539.2 53.8123 1536.87 51.7429 1534.09C49.6735 1531.32 48.2034 1528.14 47.4254 1524.76C46.5777 1521.92 46.2354 1518.95 46.4137 1516C45.9193 1520.94 46.8541 1525.93 49.1079 1530.37C51.3617 1534.81 54.8405 1538.51 59.1344 1541.04C63.4282 1543.57 68.3581 1544.82 73.3427 1544.65C78.3274 1544.48 83.1591 1542.89 87.2683 1540.07C91.3775 1537.25 94.5929 1533.32 96.5354 1528.74C98.4779 1524.16 99.0665 1519.12 98.232 1514.22C97.3974 1509.31 95.1744 1504.75 91.825 1501.06C88.4756 1497.38 84.1395 1494.73 79.3277 1493.42C83.082 1494.69 86.481 1496.83 89.2474 1499.66C92.0139 1502.5 94.0693 1505.94 95.2459 1509.72Z"
          fill="#9E4904"/>
    <path d="M74.4207 1530.88C80.2157 1529.06 86.4227 1528.99 92.2572 1530.69C98.0917 1532.38 103.292 1535.76 107.199 1540.4C111.107 1545.04 113.547 1550.73 114.211 1556.76C114.876 1562.78 113.734 1568.86 110.93 1574.24C108.127 1579.62 103.788 1584.04 98.4622 1586.96C93.1361 1589.88 87.0622 1591.16 81.0083 1590.63C74.9545 1590.11 69.1925 1587.8 64.4509 1584.01C59.7093 1580.22 56.2011 1575.12 54.3697 1569.34C51.9246 1561.59 52.6625 1553.19 56.4214 1545.98C60.1804 1538.77 66.6535 1533.34 74.4207 1530.88Z"
          fill="#C4670A"/>
    <path d="M63.2477 1537.27C65.1261 1535.79 67.2476 1534.64 69.5182 1533.88C74.0078 1532.45 78.8568 1532.61 83.2389 1534.35C87.621 1536.08 91.2648 1539.27 93.5495 1543.39C95.8341 1547.5 96.6182 1552.27 95.768 1556.9C94.9178 1561.52 92.486 1565.71 88.887 1568.74C85.288 1571.78 80.7446 1573.48 76.0311 1573.55C71.3176 1573.62 66.7257 1572.05 63.0381 1569.13C59.3504 1566.2 56.7952 1562.08 55.8079 1557.49C54.8206 1552.89 55.4623 1548.1 57.6237 1543.92C53.4687 1550.55 51.9884 1558.5 53.4813 1566.17C54.9742 1573.85 59.3292 1580.67 65.6685 1585.27C72.0077 1589.87 79.8597 1591.9 87.6414 1590.96C95.4231 1590.01 102.556 1586.16 107.602 1580.18C112.647 1574.19 115.231 1566.52 114.832 1558.72C114.432 1550.91 111.079 1543.54 105.449 1538.1C99.8187 1532.67 92.3298 1529.56 84.4919 1529.41C76.6541 1529.25 69.0502 1532.07 63.2133 1537.29L63.2477 1537.27Z"
          fill="#FFCFA5"/>
    <path d="M62.9219 1542.07C66.2882 1538.26 71.0999 1536.96 73.621 1539.18C76.1421 1541.41 70.7544 1542.39 67.4674 1546.1C64.1803 1549.81 63.7212 1555.37 61.3137 1553.02C58.9063 1550.66 59.4972 1545.88 62.9219 1542.07Z"
          fill="#DDA06F"/>
    <path d="M110.683 1549.63C111.849 1553.32 112.275 1557.19 111.938 1561.04C111.601 1564.89 110.507 1568.64 108.719 1572.07C106.93 1575.49 104.482 1578.54 101.514 1581.02C98.546 1583.51 95.1164 1585.38 91.421 1586.55C87.7257 1587.71 83.8368 1588.13 79.9765 1587.8C76.1163 1587.46 72.3602 1586.37 68.9227 1584.59C65.4853 1582.8 62.4338 1580.36 59.9424 1577.4C57.4511 1574.44 55.5688 1571.02 54.4029 1567.34C53.3615 1564.05 52.9111 1560.6 53.0725 1557.16C52.6659 1561.27 53.1085 1565.41 54.373 1569.34C55.9657 1574.43 58.8582 1579 62.7656 1582.63C66.6731 1586.26 71.4606 1588.81 76.6566 1590.03C81.8526 1591.25 87.2777 1591.1 92.3976 1589.59C97.5175 1588.08 102.155 1585.27 105.854 1581.44C109.554 1577.6 112.186 1572.86 113.493 1567.7C114.8 1562.54 114.736 1557.13 113.307 1552C111.878 1546.87 109.134 1542.2 105.345 1538.45C101.556 1534.7 96.853 1532 91.6989 1530.62C96.1446 1532.07 100.183 1534.54 103.483 1537.85C106.783 1541.15 109.25 1545.19 110.683 1549.63Z"
          fill="#9E4904"/>
    <path d="M60.5594 1593.36C60.5594 1593.36 31.8641 1588.32 38.1267 1569.92C38.1267 1569.92 34.994 1585.48 60.5594 1593.36Z"
          fill="#2D2A28"/>
    <path d="M33.4009 1533.06C33.4009 1533.06 16.7498 1529.03 36.9193 1508.83C36.9193 1508.83 19.9157 1528.01 33.4009 1533.06Z"
          fill="#2D2A28"/>
    <path d="M167.387 1653.24C167.387 1653.24 186.479 1633.83 175.489 1593.99C175.489 1593.99 189.322 1632.93 167.387 1653.24Z"
          fill="#F9F5F2"/>
    <path d="M123.296 1646.04C125.68 1634.81 128.797 1623.75 132.627 1612.93C128.028 1623.49 124.889 1634.63 123.296 1646.04Z"
          fill="#F9F5F2"/>
    <path d="M203.048 1550.79C203.048 1550.79 226.601 1534.04 242.887 1538.43" stroke="#23211F" stroke-width="0.838415"
          stroke-miterlimit="10" stroke-linecap="round"/>
    <path d="M152.181 1610.87C152.181 1610.87 150.655 1582.04 162.872 1570.71" stroke="#23211F" stroke-width="0.838415"
          stroke-miterlimit="10" stroke-linecap="round"/>
    <path d="M215.104 1594.05C215.104 1594.05 189.144 1581.51 184.881 1565.37" stroke="#23211F" stroke-width="0.838415"
          stroke-miterlimit="10" stroke-linecap="round"/>
    <path d="M197.02 1526.55C197.02 1526.55 220.572 1509.8 236.739 1514.02" stroke="#23211F" stroke-width="0.838415"
          stroke-miterlimit="10" stroke-linecap="round"/>
    <path d="M521.175 1033.46C521.175 1033.46 704.313 1007.44 639.337 1548.79C639.337 1548.79 606.975 1532.61 586.937 1548.79C586.937 1548.79 671.625 1111.26 506.168 1102.4"
          fill="#343A4C"/>
    <path d="M384.265 1544.33C384.265 1544.33 376.174 1559.09 364.646 1556.5C353.118 1553.91 330.607 1538.98 324.068 1548.14C317.528 1557.29 306.881 1594.71 354.166 1600.81C401.452 1606.91 424.424 1593.87 420.986 1583.42C417.549 1572.97 439.054 1574.72 436.916 1567.79C434.778 1560.85 410.632 1538.19 410.632 1538.19L384.265 1544.33Z"
          fill="#9FB232"/>
    <path d="M324.236 1080.12C327.68 1094.54 336.018 1107.33 347.837 1116.32C347.837 1116.32 317.529 1399.57 384.265 1546.26C384.265 1546.26 398.015 1557.71 420.987 1546.26C420.987 1546.26 358.107 1294.9 413.358 1140.4C428.051 1142.53 442.863 1143.76 457.709 1144.07C545.028 1146.37 549.723 1033.46 549.723 1033.46C549.723 1033.46 315.14 1043.25 324.236 1080.12Z"
          fill="#3C4256"/>
    <path d="M362.593 1555.96C359.986 1555.08 357.426 1554.08 354.922 1552.95C343.31 1548.1 329.015 1541.12 324.027 1548.1C317.529 1557.29 306.84 1594.66 354.125 1600.77C364.54 1602.19 375.069 1602.61 385.565 1602.02C387.996 1599.26 407.908 1574.56 362.593 1555.96Z"
          fill="#E1E5C1"/>
    <path d="M436.792 1567.83C436.624 1567.29 436.399 1566.77 436.121 1566.28C432.39 1570.21 417.131 1570.46 420.149 1579.16C423.755 1589.61 399.735 1602.65 350.395 1596.55C341.299 1595.81 332.527 1592.84 324.866 1587.89C330.232 1594.04 339.328 1598.97 354.21 1600.85C401.495 1606.95 424.467 1593.91 421.03 1583.46C417.592 1573.01 438.762 1574.77 436.792 1567.83Z"
          fill="#262621"/>
    <g style="mix-blend-mode:multiply">
        <path d="M544.526 1041.83L349.976 1059.05C332.621 1064.82 322.141 1071.59 324.237 1079.95C327.681 1094.37 336.019 1107.16 347.838 1116.15C347.838 1116.15 317.53 1399.57 384.266 1546.26C386.475 1547.87 388.941 1549.1 391.56 1549.89C385.147 1533.17 327.842 1374.32 369.259 1110.97C369.259 1110.97 451.422 1118.87 486.173 1100.6C520.925 1082.33 544.526 1041.83 544.526 1041.83Z"
              fill="#EFE4E4"/>
    </g>
    <path d="M485.223 717.535C485.223 717.535 680.497 843.772 595.704 1091.59L612.355 1090.51C612.355 1090.51 712.985 839.782 501.866 692.378L485.223 717.535Z"
          fill="#F7CFB5"/>
    <path d="M525.225 764.551C525.225 764.551 527.857 733.506 555.436 719.507C555.436 719.507 517.039 693.061 499.571 687.211L478.633 717.286C478.633 717.286 507.297 744.677 525.225 764.551Z"
          fill="#99A52B"/>
    <path d="M319.753 673.21C319.753 673.21 279.51 665.1 258.843 649.633C258.843 649.633 235.871 663.971 250.795 703.224C250.795 703.224 297.913 710.957 315.142 708.658C332.371 706.359 319.753 673.21 319.753 673.21Z"
          fill="#7B8E2B"/>
    <path d="M276.231 685.94C276.231 685.94 50.9704 744.025 52.5955 1005.76L37.0301 999.476C37.0301 999.476 21.295 729.859 268.372 656.814L276.231 685.94Z"
          fill="#F7CFB5"/>
    <path d="M499.505 694.78C542.138 563.102 426.355 622.461 426.355 622.461L321.179 672.624C321.179 672.624 283.451 660.084 258.844 649.717C258.844 649.717 269.743 678.978 250.795 703.308C250.795 703.308 289.781 709.871 310.28 709.118C301.896 776.002 287.14 931.884 313.591 1075.85C313.591 1075.85 493.846 1158.79 556.097 1020.71C556.139 1020.63 456.831 826.458 499.505 694.78Z"
          fill="#9FB232"/>
    <path d="M499.505 694.78C542.138 563.102 426.355 622.461 426.355 622.461L321.179 672.624C321.179 672.624 283.451 660.084 258.844 649.717C258.844 649.717 269.743 678.978 250.795 703.308C250.795 703.308 289.781 709.871 310.28 709.118C301.896 776.002 287.14 931.884 313.591 1075.85C313.591 1075.85 493.846 1158.79 556.097 1020.71C556.139 1020.63 456.831 826.458 499.505 694.78Z"
          fill="#9FB232"/>
    <g style="mix-blend-mode:multiply">
        <path d="M384.266 1081.04C279.466 1046.67 335.932 704.813 335.932 704.813C338.559 695.79 342.44 687.179 347.46 679.229C347.46 679.229 403.591 694.529 499.629 694.655C507.007 671.83 509.648 654.733 508.935 642.067L506.839 640.771H387.787L321.386 672.541C321.386 672.541 283.658 660 259.051 649.633C259.051 649.633 269.95 678.895 251.003 703.224C251.003 703.224 289.988 709.787 310.487 709.035C302.103 775.919 287.347 931.801 313.799 1075.77C313.799 1075.77 494.054 1158.71 556.304 1020.63C556.137 1020.63 488.73 1115.44 384.266 1081.04Z"
              fill="#EFE4E4"/>
    </g>
    <path d="M595.628 1091.49C595.628 1091.49 544.385 1101.95 547.456 1113.48C550.528 1125.02 581.615 1112.35 581.615 1112.35C581.615 1112.35 534.842 1156.88 548.447 1162.35C562.051 1167.81 588.078 1124.88 588.078 1124.88C588.078 1124.88 562.516 1177.92 574.86 1178.99C587.203 1180.07 599.158 1127.7 599.158 1127.7C599.158 1127.7 588.313 1176.76 600.194 1173.81C612.076 1170.87 610.948 1128.97 610.948 1128.97C610.948 1128.97 610.478 1161.1 620.022 1156.07C629.566 1151.04 617.785 1116.5 617.785 1116.5C617.785 1116.5 621.463 1098.94 612.21 1090.2C612.36 1090.51 602.322 1082.85 595.628 1091.49Z"
          fill="#F7CFB5"/>
    <g style="mix-blend-mode:soft-light">
        <mask id="mask0_369_1432" style="mask-type:luminance" maskUnits="userSpaceOnUse" x="250" y="609" width="307"
              height="492">
            <path d="M499.505 694.78C542.138 563.102 426.355 622.461 426.355 622.461L321.179 672.624C321.179 672.624 283.451 660.084 258.844 649.717C258.844 649.717 269.743 678.978 250.795 703.308C250.795 703.308 289.781 709.871 310.28 709.118C301.896 776.002 287.14 931.884 313.591 1075.85C313.591 1075.85 493.846 1158.79 556.097 1020.71C556.139 1020.63 456.831 826.458 499.505 694.78Z"
                  fill="white"/>
        </mask>
        <g mask="url(#mask0_369_1432)">
            <path d="M284.961 1051.31C284.961 1051.31 514.221 1136.05 556.14 973.352" stroke="#EFE4E4"
                  stroke-width="10.061" stroke-miterlimit="10"/>
            <path d="M279.218 988.234C279.218 988.234 482.906 1028.32 542.642 925.196" stroke="#EFE4E4"
                  stroke-width="10.061" stroke-miterlimit="10"/>
            <path d="M279.218 892.005C279.218 892.005 425.434 940.119 524.281 871.563" stroke="#EFE4E4"
                  stroke-width="10.061" stroke-miterlimit="10"/>
            <path d="M284.961 796.904C284.961 796.904 439.603 871.312 508.939 804.888" stroke="#EFE4E4"
                  stroke-width="10.061" stroke-miterlimit="10"/>
            <path d="M272.636 721.408C272.636 721.408 482.235 778.552 518.16 714.385" stroke="#EFE4E4"
                  stroke-width="10.061" stroke-miterlimit="10"/>
            <path d="M257.838 640.896C257.838 640.896 443.836 732.862 542.641 673.126" stroke="#EFE4E4"
                  stroke-width="10.061" stroke-miterlimit="10"/>
        </g>
    </g>
    <path d="M371.691 632.745C371.691 632.745 347.923 756.69 407.533 769.899C467.143 783.109 445.68 740.637 465.801 699.838C485.923 659.039 371.691 632.745 371.691 632.745Z"
          fill="#606810"/>
    <path d="M376.931 635.044C376.931 635.044 354.252 753.387 411.179 765.97C468.106 778.552 447.607 738.046 466.848 699.086C486.09 660.126 376.931 635.044 376.931 635.044Z"
          fill="#7B8E2B"/>
    <path d="M387.493 652.434C387.493 652.434 370.264 742.477 413.526 752.049C456.787 761.622 441.235 730.772 455.865 701.176C470.495 671.579 387.493 652.434 387.493 652.434Z"
          fill="#EFC4AC"/>
    <path d="M455.866 701.176C469.784 673.001 395.544 654.357 388.166 652.601C404.221 656.781 465.424 674.589 452.68 700.381C438.26 729.643 453.267 760.117 411.767 751.506L413.527 752.049C456.83 761.622 441.236 730.772 455.866 701.176Z"
          fill="#606810"/>
    <path d="M704.619 217.938C704.619 217.938 743.73 247.2 734.55 258.361C725.369 269.522 720.255 277.047 720.255 277.047C724.168 277.363 727.855 279.002 730.706 281.693C733.557 284.385 735.402 287.966 735.933 291.845C739.119 306.476 734.55 359.272 734.55 359.272L668.484 227.427L687.432 210.204L704.619 217.938Z"
          fill="#68311E"/>
    <path d="M239.642 454.039C239.642 492.539 226.437 527.611 187.871 527.611C149.305 527.611 99.8394 492.539 99.8394 454.039C100.286 435.858 107.842 418.572 120.895 405.871C133.947 393.17 151.462 386.06 169.699 386.06C187.936 386.06 205.45 393.17 218.503 405.871C231.555 418.572 239.111 435.858 239.558 454.039H239.642Z"
          fill="#F7CFB5"/>
    <g style="mix-blend-mode:multiply">
        <path d="M426.187 622.461L321.011 672.625C321.011 672.625 300.051 665.602 279.091 657.743C320.256 687.506 379.405 705.022 462.532 705.022C473.682 705.022 485.127 704.687 496.696 704.018C497.493 700.925 498.373 697.873 499.379 694.864C542.138 563.102 426.187 622.461 426.187 622.461Z"
              fill="#EFE4E4"/>
    </g>
    <path d="M224.133 456.338C224.133 479.956 216.042 501.485 192.358 501.485C168.673 501.485 138.407 479.956 138.407 456.338C138.755 445.233 143.424 434.699 151.424 426.967C159.424 419.235 170.128 414.911 181.27 414.911C192.411 414.911 203.115 419.235 211.116 426.967C219.116 434.699 223.784 445.233 224.133 456.338Z"
          fill="#D8A68B"/>
    <g style="mix-blend-mode:multiply">
        <path d="M239.642 454.039C239.642 492.539 226.437 527.611 187.871 527.611C149.305 527.611 99.8394 492.539 99.8394 454.039C100.286 435.858 107.842 418.572 120.895 405.871C133.947 393.17 151.462 386.06 169.699 386.06C187.936 386.06 205.45 393.17 218.503 405.871C231.555 418.572 239.111 435.858 239.558 454.039H239.642Z"
              fill="#EFE4E4"/>
    </g>
    <path d="M676.155 441.832C676.155 480.333 689.36 515.405 727.968 515.405C766.576 515.405 815.999 480.333 815.999 441.832C815.553 423.652 807.997 406.366 794.944 393.665C781.892 380.964 764.377 373.854 746.14 373.854C727.903 373.854 710.389 380.964 697.336 393.665C684.284 406.366 676.727 423.652 676.281 441.832H676.155Z"
          fill="#EFC4AC"/>
    <path d="M691.665 444.132C691.665 467.75 699.755 489.278 723.44 489.278C747.125 489.278 777.391 467.75 777.391 444.132C777.043 433.027 772.374 422.493 764.374 414.761C756.373 407.028 745.669 402.704 734.528 402.704C723.386 402.704 712.682 407.028 704.682 414.761C696.682 422.493 692.013 433.027 691.665 444.132Z"
          fill="#D8A68B"/>
    <path d="M744.776 433.639C818.346 628.439 624.928 686.879 477.077 686.879C265.633 686.879 209.335 573.51 209.335 433.639C209.335 252.634 278.293 140.31 472.466 140.31C677.076 140.31 744.776 293.809 744.776 433.639Z"
          fill="#F7CFB5"/>
    <g style="mix-blend-mode:multiply">
        <path d="M482.946 680.86C273.766 680.86 218.055 568.661 218.055 430.295C218.055 258.277 280.935 149.047 456.159 140.645C274.479 146.873 209.419 257.692 209.419 433.639C209.419 573.511 265.718 686.879 477.161 686.879C577.014 686.879 697.659 660.209 742.765 582.874C695.94 655.611 579.613 680.86 482.946 680.86Z"
              fill="#EFE4E4"/>
    </g>
    <path d="M491.795 450.151L507.138 446.974C511.623 446.013 516.779 445.009 522.187 443.63L526.379 442.668C527.72 442.25 529.104 441.832 530.571 441.498C533.379 440.829 536.02 439.742 538.955 438.906C541.889 438.07 544.32 436.9 546.919 435.855C549.519 434.81 552.034 433.681 554.255 432.26C556.354 431.111 558.384 429.841 560.334 428.456L563.268 426.365C564.253 425.809 565.156 425.12 565.951 424.317C567.586 422.854 569.179 421.558 570.604 420.346L573.916 416.876C575.802 414.87 577.06 413.741 577.06 413.741C577.06 413.741 576.808 415.288 576.096 417.921C575.7 419.605 575.21 421.266 574.629 422.896C573.748 424.693 572.742 426.7 571.485 428.915C570.083 431.231 568.454 433.401 566.622 435.395C564.609 437.673 562.361 439.733 559.915 441.54C558.698 442.59 557.378 443.515 555.974 444.299C554.591 445.177 553.207 446.013 551.782 446.807C548.836 448.379 545.798 449.775 542.686 450.987C539.569 452.018 536.391 452.856 533.17 453.495C530.106 454.164 526.994 454.597 523.864 454.791C518.36 455.247 512.824 455.121 507.347 454.415C503.483 453.921 499.668 453.095 495.945 451.949C494.516 451.461 493.128 450.86 491.795 450.151Z"
          fill="#D8A68D"/>
    <path d="M702.217 528.803C727.364 545.524 524.894 619.64 488.424 614.498C424.077 602.752 368.95 614.498 316.55 512.082C327.156 454.269 455.431 529.764 519.861 541.344C584.292 552.923 609.989 551.794 702.217 528.803Z"
          fill="#F4A4A4"/>
    <path d="M446.684 635.713C449.257 633.547 452.07 631.681 455.068 630.153C461.474 626.734 468.354 624.282 475.483 622.879C477.467 622.517 479.437 622.225 481.394 622.002C483.315 621.787 485.246 621.676 487.179 621.667C489.065 621.667 490.951 621.667 492.67 621.96C494.307 622.139 495.93 622.419 497.533 622.796C498.888 623.121 500.219 623.54 501.515 624.05C502.548 624.384 503.534 624.848 504.45 625.429L506.839 626.893H504.072C503.068 626.817 502.059 626.817 501.054 626.893C499.88 626.893 498.623 626.893 497.197 627.269C494.431 627.645 491.245 628.105 487.807 628.732C484.37 629.359 480.765 629.986 477.118 630.738C469.782 632.16 462.362 633.623 456.619 634.375C450.876 635.128 446.684 635.713 446.684 635.713Z"
          fill="#D8A68D"/>
    <g style="mix-blend-mode:multiply">
        <path d="M394.289 432.134C425.081 432.134 450.042 403.742 450.042 368.72C450.042 333.697 425.081 305.305 394.289 305.305C363.497 305.305 338.536 333.697 338.536 368.72C338.536 403.742 363.497 432.134 394.289 432.134Z"
              fill="#EFE4E4"/>
    </g>
    <path d="M394.289 426.783C425.081 426.783 450.042 399.589 450.042 366.044C450.042 332.499 425.081 305.305 394.289 305.305C363.497 305.305 338.536 332.499 338.536 366.044C338.536 399.589 363.497 426.783 394.289 426.783Z"
          fill="white"/>
    <path d="M403.989 386.026C396.624 382.892 392.014 376.563 394.049 371.893C396.085 367.223 403.45 365.749 410.815 369.005C409.978 366.276 408.576 363.765 406.706 361.644C404.835 359.523 402.54 357.842 399.977 356.716C389.2 352.169 376.027 359.113 370.997 372.201C365.968 385.289 370.219 399.544 380.997 404.091C391.774 408.638 404.947 401.695 409.976 388.607C410.003 388.259 410.003 387.91 409.976 387.562C407.916 387.362 405.898 386.845 403.989 386.026Z"
          fill="#1C1A19"/>
    <g style="mix-blend-mode:multiply" opacity="0.6">
        <path d="M400.326 420.095C372.868 420.095 350.609 395.849 350.609 365.752C350.609 335.654 372.868 311.617 400.326 311.617C427.783 311.617 450.042 335.863 450.042 365.752C450.042 332.31 424.891 305.012 394.289 305.012C363.688 305.012 338.536 332.226 338.536 365.752C338.536 399.277 363.688 426.491 394.289 426.491C424.891 426.491 450.042 399.319 450.042 365.752C450.042 395.975 427.783 420.095 400.326 420.095Z"
              fill="#EFE4E4"/>
    </g>
    <g style="mix-blend-mode:multiply">
        <path d="M666.386 359.272C666.386 387.949 645.971 411.191 620.777 411.191C595.584 411.191 575.127 387.949 575.127 359.272C575.127 330.596 595.542 307.228 620.777 307.228C646.013 307.228 666.386 330.596 666.386 359.272Z"
              fill="#EFE4E4"/>
    </g>
    <path d="M666.386 357.098C666.386 384.563 645.971 406.802 620.777 406.802C595.584 406.802 575.127 384.563 575.127 357.098C575.127 329.634 595.542 307.228 620.777 307.228C646.013 307.228 666.386 329.634 666.386 357.098Z"
          fill="white"/>
    <path d="M605.298 378.044C611.586 375.535 615.445 370.38 613.802 366.617C612.158 362.855 605.798 361.741 599.51 364.249C600.228 362.024 601.429 359.976 603.032 358.245C604.636 356.514 606.603 355.139 608.799 354.216C612.534 351.987 616.879 350.927 621.25 351.178C625.622 351.429 629.809 352.978 633.25 355.619C636.691 358.259 639.22 361.863 640.497 365.947C641.774 370.03 641.738 374.397 640.394 378.46C639.05 382.523 636.462 386.087 632.978 388.673C629.494 391.259 625.281 392.743 620.907 392.925C616.532 393.108 612.205 391.979 608.507 389.693C604.81 387.406 601.919 384.07 600.224 380.134V379.298C601.968 379.12 603.677 378.697 605.298 378.044Z"
          fill="#1C1A19"/>
    <g style="mix-blend-mode:multiply" opacity="0.6">
        <path d="M625.682 401.451C603.213 401.451 584.978 381.595 584.978 357.099C584.978 332.602 603.213 312.746 625.682 312.746C648.151 312.746 666.386 332.602 666.386 357.099C666.386 329.634 645.971 307.354 620.777 307.354C595.584 307.354 575.127 329.634 575.127 357.099C575.127 384.563 595.542 406.802 620.777 406.802C646.013 406.802 666.386 384.563 666.386 357.099C666.386 381.595 648.361 401.451 625.682 401.451Z"
              fill="#EFE4E4"/>
    </g>
    <path d="M434.569 297.864C434.569 297.864 466.135 245.736 500.048 277.256C500.131 277.256 470.83 250.335 434.569 297.864Z"
          fill="#D8A68D"/>
    <path d="M687.431 282.523C687.431 282.523 713.295 262.917 734.549 297.864C734.549 297.864 714.427 267.725 687.431 282.523Z"
          fill="#D8A68D"/>
    <g style="mix-blend-mode:multiply">
        <path d="M472.55 140.31C278.377 140.31 209.419 252.634 209.419 433.639C209.419 436.9 209.419 440.16 209.419 443.379C212.293 442.895 214.866 441.317 216.595 438.977C218.323 436.637 219.072 433.719 218.684 430.838C218.684 414.117 225.6 343.429 250.585 316.926C275.569 290.423 319.543 310.112 330.735 258.403C330.735 258.403 384.057 290.214 412.982 269.564C441.907 248.913 441.026 224.041 441.026 224.041C441.026 224.041 482.401 268.728 509.104 260.116C535.807 251.505 533.25 224.041 533.25 224.041C533.25 224.041 566.45 266.136 586.488 262.708C592.145 261.862 597.496 259.607 602.047 256.151C606.597 252.694 610.199 248.149 612.52 242.936C612.52 242.936 627.988 277.297 649.577 277.297C671.166 277.297 682.275 246.363 682.275 246.363C684.214 249.483 686.898 252.074 690.088 253.905C693.278 255.736 696.873 256.75 700.552 256.856C659.973 189.303 588.081 140.31 472.55 140.31Z"
              fill="#EFE4E4"/>
    </g>
    <path d="M209.711 413.741C209.711 413.741 228.114 418.13 228.114 401.409C228.114 384.688 234.989 314 259.973 287.455C284.957 260.911 328.931 280.683 340.124 228.932C340.124 228.932 393.488 260.702 422.37 240.093C451.253 219.484 450.415 194.528 450.415 194.528C450.415 194.528 491.79 239.215 518.492 230.646C545.195 222.076 542.638 194.528 542.638 194.528C542.638 194.528 575.839 236.665 595.876 233.237C601.533 232.392 606.885 230.136 611.435 226.68C615.985 223.224 619.588 218.678 621.909 213.465C621.909 213.465 637.377 247.827 658.966 247.827C680.554 247.827 691.663 216.893 691.663 216.893C691.663 216.893 699.502 231.482 719.288 226.34C739.074 221.198 752.07 175.633 719.288 169.614C719.288 169.614 764.1 87.9734 728.804 87.9734C718.516 87.9991 708.38 90.4561 699.228 95.1429C690.076 99.8297 682.168 106.613 676.153 114.936C676.153 114.936 683.992 52.2321 639.179 53.0264C594.367 53.8206 601.242 101.183 601.242 101.183C601.242 101.183 554.711 14.2754 511.618 22.9703C468.524 31.6652 466.47 52.2321 466.47 52.2321C466.47 52.2321 468.901 -10.4718 416.586 1.52557C364.27 13.5229 397.847 48.8043 397.847 48.8043C397.847 48.8043 324.614 13.5647 292.713 49.6404C260.812 85.716 272.046 105.489 272.046 105.489C272.046 105.489 233.354 87.3463 217.76 111.383C202.166 135.419 209.711 147.5 209.711 147.5C209.711 147.5 165.779 150.05 169.804 178.434C173.828 206.818 172.445 289.504 197.303 389.997L209.418 396.686C209.418 396.686 201.285 408.432 209.711 413.741Z"
          fill="#774028"/>
    <g style="mix-blend-mode:multiply">
        <path d="M589.169 224.835C569.467 222.118 540.039 181.026 540.039 181.026C540.039 181.026 538.698 223.832 514.887 225.169C491.077 226.507 441.821 165.517 441.821 165.517C441.821 165.517 438.384 229.141 404.764 229.977C371.144 230.813 344.442 187.882 344.442 187.882C344.442 187.882 338.405 209.911 318.577 207.069C298.749 204.226 302.228 161.086 302.228 161.086C302.228 161.086 284.119 194.528 253.098 177.389C222.078 160.25 229.833 120.663 253.098 122.419C276.364 124.174 291.874 125.846 291.874 125.846C291.874 125.846 274.268 65.9433 317.739 51.0616C361.209 36.1799 416.586 58.7951 416.586 58.7951C416.586 58.7951 378.858 23.3465 397.764 8.63196C374.037 23.7227 397.764 48.7207 397.764 48.7207C397.764 48.7207 324.53 13.4811 292.629 49.5567C260.728 85.6324 271.962 105.405 271.962 105.405C271.962 105.405 233.354 87.3463 217.76 111.383C202.166 135.419 209.711 147.5 209.711 147.5C209.711 147.5 165.779 150.05 169.804 178.434C173.828 206.818 172.445 289.504 197.303 389.997L209.418 396.685C209.418 396.685 201.285 408.432 209.711 413.741C209.711 413.741 228.114 418.13 228.114 401.409C228.114 384.688 234.989 314 259.973 287.455C284.957 260.911 328.931 280.683 340.124 228.932C340.124 228.932 393.488 260.702 422.37 240.093C451.253 219.484 450.415 194.528 450.415 194.528C450.415 194.528 491.79 239.215 518.492 230.646C545.195 222.076 542.638 194.528 542.638 194.528C542.638 194.528 575.839 236.665 595.876 233.237C601.533 232.392 606.885 230.136 611.435 226.68C615.985 223.224 619.588 218.678 621.909 213.465C617.648 217.676 612.496 220.883 606.831 222.85C601.166 224.817 595.131 225.496 589.169 224.835Z"
              fill="#EFE4E4"/>
    </g>
    <g style="mix-blend-mode:multiply">
        <path d="M357.646 231.44C357.646 231.44 341.256 224.333 334.674 215.388C334.674 215.388 328.931 240.218 308.81 242.392C288.688 244.566 270.327 222.829 270.327 222.829C270.327 222.829 251.38 267.516 227.821 262.374C204.262 257.232 179.529 192.48 189.883 178.142C200.238 163.803 219.772 163.803 219.772 163.803C219.772 163.803 202.711 130.905 219.479 109.042C218.863 109.79 218.289 110.571 217.76 111.383C202.25 135.461 209.711 147.5 209.711 147.5C209.711 147.5 165.779 150.05 169.804 178.434C173.828 206.818 172.445 289.504 197.303 389.997L209.418 396.686C209.418 396.686 201.285 408.432 209.711 413.741C209.711 413.741 228.114 418.13 228.114 401.409C228.114 384.688 234.989 314 259.973 287.455C284.957 260.911 328.931 280.683 340.124 228.932C340.124 228.932 393.488 260.702 422.37 240.093C424.089 238.881 425.682 237.668 427.149 236.414C426.562 236.958 397.973 252.383 357.646 231.44Z"
              fill="#EFE4E4"/>
    </g>
    <path d="M52.5529 1005.73C52.5529 1005.73 97.8933 1031.97 91.2603 1041.85C84.6272 1051.73 59.0431 1030.09 59.0431 1030.09C59.0431 1030.09 89.2611 1087.09 74.5927 1087.99C59.9243 1088.88 48.9471 1039.96 48.9471 1039.96C48.9471 1039.96 56.3251 1098.36 44.2435 1095.45C32.1619 1092.55 37.534 1039.12 37.534 1039.12C37.534 1039.12 32.2144 1089.09 21.8919 1082.53C11.5695 1075.96 25.9646 1036.62 25.9646 1036.62C25.9646 1036.62 16.1883 1067.25 8.71256 1059.42C1.23686 1051.59 23.4559 1022.65 23.4559 1022.65C23.4559 1022.65 25.5519 1004.8 37.1174 999.476C37.0341 999.485 49.2009 995.308 52.5529 1005.73Z"
          fill="#F7CFB5"/>
    <path d="M639.4 1535.59C639.4 1535.59 645.1 1551.35 656.795 1550.63C668.489 1549.9 693.142 1538.56 698.201 1548.6C703.26 1558.63 708.023 1597.28 660.362 1596.04C612.702 1594.81 592.008 1578.46 597.008 1568.68C602.009 1558.91 580.652 1557.26 583.667 1550.75C586.682 1544.24 614.234 1525.38 614.234 1525.38L639.4 1535.59Z"
          fill="#9EAA2D"/>
    <path d="M658.897 1550.37C661.667 1549.94 664.412 1549.36 667.119 1548.63C679.325 1545.59 694.485 1540.83 698.322 1548.43C703.352 1558.52 708.144 1597.11 660.484 1595.88C649.972 1595.71 639.5 1594.54 629.216 1592.36C627.108 1589.27 611.258 1561.83 658.897 1550.37Z"
          fill="#DADDB6"/>
    <path d="M583.745 1550.73C584.014 1550.24 584.318 1549.78 584.654 1549.34C587.725 1553.81 602.794 1556.34 598.461 1564.48C593.288 1574.26 614.996 1590.81 664.712 1592.37C673.818 1593.03 682.945 1591.41 691.267 1587.66C685.015 1592.93 675.291 1596.57 660.44 1596.02C612.792 1594.83 592.086 1578.43 597.086 1568.66C602.087 1558.88 580.568 1557.28 583.745 1550.73Z"
          fill="#262621"/>
    <path d="M65.4195 1547.94C73.4235 1553.94 81.9591 1559.26 90.4294 1564.68C91.3162 1565.25 90.4187 1562.43 89.7299 1561.99C81.4223 1556.67 73.0247 1551.47 65.175 1545.58C63.8355 1544.58 64.8062 1547.48 65.4195 1547.94Z"
          fill="#004B83"/>
    <path d="M87.1261 1544.55C81.6519 1552.15 74.7048 1558.59 67.2186 1564.5C66.2409 1565.27 67.9011 1567.95 69.1087 1566.99C76.5961 1561.08 83.542 1554.64 89.0162 1547.04C89.7591 1546.01 87.9345 1543.42 87.1261 1544.55Z"
          fill="#004B83"/>
    <path d="M53.0804 1508.49C63.6479 1512.59 74.1287 1516.82 84.2081 1521.84C87.8136 1523.64 87.4395 1517.77 84.9763 1516.54C74.4928 1511.32 63.5696 1506.95 52.5824 1502.68C49.3714 1501.44 50.6169 1507.53 53.0804 1508.49Z"
          fill="#004B83"/>
    <path d="M79.5172 1499.6C74.0321 1506.74 68.4732 1513.82 63.759 1521.42C62.7609 1523.03 66.3159 1527.99 67.2019 1526.56C71.9146 1518.96 77.4735 1511.88 82.96 1504.74C84.0843 1503.28 80.6429 1498.13 79.5172 1499.6Z"
          fill="#004B83"/>
</svg>
