<svg width="957" height="1159" viewBox="0 0 957 1159" fill="none" xmlns="http://www.w3.org/2000/svg">
    <path d="M598.389 182.152C531.956 114.293 421.228 115.905 351.068 185.755C327.516 209.203 311.566 237.37 303.234 267.002C244.831 237.66 170.418 248.543 119.586 299.15C65.908 352.592 55.7909 433.126 90.476 493.731C83.2229 497.267 76.357 501.992 70.2667 508.056C41.6409 536.555 40.406 582.106 67.5144 609.796C79.4349 621.972 94.8503 628.655 110.817 629.909C88.2137 664.722 44.2846 712.917 -41.0441 766.278L-34.762 782.384C-34.762 782.384 62.2486 735.112 183.505 736.194C178.319 772.798 189.061 810.684 216.11 838.313C263.114 886.326 341.455 885.181 391.092 835.763C392.818 834.044 394.474 832.28 396.085 830.494C491.164 888.621 619.456 874.415 705.389 788.861C806.134 688.559 810.473 528.258 715.072 430.81C690.413 405.623 661.487 387.157 630.432 375.269C659.225 310.661 648.911 233.757 598.389 182.152Z"
          fill="#FFF5F5"/>
</svg>
