<svg width="36" height="47" viewBox="0 0 36 47" fill="none" xmlns="http://www.w3.org/2000/svg">
    <path d="M24.8724 17.1433L29.0557 3.90166L19.6134 0L21.1074 17.4674L24.8724 17.1433Z" fill="#288EEA"/>
    <path d="M0.131456 9.05187L19.6016 6.66284L-1.85495e-05 7.62325L0.131456 9.05187Z" fill="#C5E3FF"/>
    <path d="M6.77682 6.50674L20.0916 6.09857L6.81267 5.07812L6.77682 6.50674Z" fill="#C5E3FF"/>
    <path d="M2.42628 1.75291L19.3386 5.57053L2.7968 0.372314L2.42628 1.75291Z" fill="#C5E3FF"/>
    <path d="M31.7809 47.0001L13.506 43.8187L10.8167 12.2573L36 14.2742L31.7809 47.0001Z" fill="#004C84"/>
    <path d="M13.506 23.4101C13.016 26.8555 16.6016 30.229 21.502 30.9253C26.4024 31.6216 30.7769 29.4006 31.267 25.9432C31.757 22.4857 28.1714 19.1243 23.271 18.428C18.3706 17.7317 13.996 19.9646 13.506 23.4101Z"
          fill="white"/>
    <path d="M25.3986 27.1196C25.3986 27.1196 25.53 34.971 24.3348 34.7669C23.1396 34.5628 22.8408 32.714 22.8408 32.714C22.8408 32.714 21.526 36.3876 20.6177 35.7753C19.7093 35.1631 20.6177 32.714 20.6177 32.714C20.6177 32.714 19.4225 35.2831 18.6336 34.7669C17.8448 34.2507 18.6336 31.8977 18.6336 31.8977C18.6336 31.8977 17.1635 34.1786 16.6615 33.2903C16.1595 32.4019 17.8567 27.7919 17.8567 27.7919L25.3986 27.1196Z"
          fill="white"/>
    <path d="M22.8886 25.0547C22.8862 25.5538 23.0314 26.0425 23.3057 26.4586C23.5801 26.8748 23.9713 27.1998 24.4297 27.3924C24.8881 27.5851 25.3931 27.6367 25.8808 27.5408C26.3685 27.4449 26.8168 27.2057 27.1691 26.8537C27.5213 26.5016 27.7615 26.0524 27.8593 25.563C27.9572 25.0736 27.9082 24.5661 27.7185 24.1047C27.5289 23.6434 27.2072 23.2489 26.7942 22.9714C26.3812 22.6938 25.8954 22.5457 25.3985 22.5457C24.7349 22.5456 24.0983 22.8096 23.6279 23.2798C23.1576 23.75 22.8917 24.3882 22.8886 25.0547Z"
          fill="#004C84"/>
    <path d="M15.7411 23.7821C15.7293 24.4471 15.9156 25.1005 16.2761 25.6585C16.6366 26.2164 17.1549 26.6534 17.7644 26.9134C18.3739 27.1735 19.0469 27.2446 19.697 27.1177C20.347 26.9909 20.9445 26.6718 21.4128 26.2015C21.881 25.7312 22.1987 25.131 22.325 24.4781C22.4513 23.8251 22.3805 23.1492 22.1216 22.537C21.8627 21.9247 21.4277 21.4042 20.8722 21.0421C20.3167 20.68 19.6662 20.4928 19.004 20.5047C18.1435 20.5201 17.3224 20.8703 16.7138 21.4817C16.1051 22.093 15.7564 22.9177 15.7411 23.7821Z"
          fill="#004C84"/>
    <path d="M22.3864 27.1196L22.8884 29.6287L21.3227 28.6923L22.3864 27.1196Z" fill="#004C84"/>
    <path d="M20.7132 6.18265C20.7132 7.38316 21.0837 8.34356 21.5498 8.34356C22.016 8.34356 22.3865 7.37116 22.3865 6.18265C22.3865 4.99415 22.016 4.02173 21.5498 4.02173C21.0837 4.02173 20.7132 4.98214 20.7132 6.18265Z"
          fill="#004C84"/>
</svg>
