<svg width="57" height="57" viewBox="0 0 57 57" fill="none" xmlns="http://www.w3.org/2000/svg">
<path fill-rule="evenodd" clip-rule="evenodd" d="M28.5 56.3809C43.964 56.3809 56.5 43.8448 56.5 28.3809C56.5 12.9169 43.964 0.380859 28.5 0.380859C13.036 0.380859 0.5 12.9169 0.5 28.3809C0.5 43.8448 13.036 56.3809 28.5 56.3809ZM28.2499 19.3494C25.1426 20.6583 18.928 23.3675 9.6062 27.4767C8.09252 28.0858 7.29822 28.6819 7.22828 29.2643C7.10527 30.2481 8.32281 30.6362 9.9772 31.1634C10.2041 31.2357 10.4392 31.3107 10.6803 31.3901C12.3138 31.927 14.5119 32.5554 15.6509 32.5802C16.69 32.603 17.844 32.1707 19.1179 31.284C27.8302 25.3351 32.3213 22.3281 32.6061 22.2634C32.8059 22.2179 33.0806 22.1603 33.2655 22.3286C33.4553 22.4965 33.4353 22.815 33.4153 22.9004C33.2975 23.42 28.5329 27.903 26.0535 30.2359C25.274 30.9693 24.7204 31.4902 24.6081 31.6085C24.3571 31.8724 24.1013 32.1219 23.8554 32.3618C22.3394 33.8407 21.202 34.9503 23.9187 36.7616C25.2359 37.6397 26.2873 38.3644 27.3381 39.0887C28.4672 39.867 29.5956 40.6449 31.0524 41.6119C31.4271 41.8603 31.7848 42.1184 32.1332 42.3697C33.4573 43.3249 34.6467 44.183 36.118 44.0461C36.9722 43.9667 37.8565 43.1538 38.3011 40.7292C39.3601 34.9988 41.4433 22.5834 41.9229 17.4672C41.9679 17.0193 41.9129 16.4455 41.8729 16.1938C41.828 15.9417 41.7381 15.5828 41.4183 15.3174C41.0337 15.0027 40.4442 14.9364 40.1794 14.9407C38.9755 14.9627 37.1321 15.6119 28.2499 19.3494Z" fill="#7AD1FF"/>
</svg>
