<svg width="57" height="57" viewBox="0 0 57 57" fill="none" xmlns="http://www.w3.org/2000/svg">
    <path fill-rule="evenodd" clip-rule="evenodd"
          d="M28.5 56.3809C43.964 56.3809 56.5 43.8448 56.5 28.3809C56.5 12.9169 43.964 0.380859 28.5 0.380859C13.036 0.380859 0.5 12.9169 0.5 28.3809C0.5 43.8448 13.036 56.3809 28.5 56.3809ZM29.1897 9.40862C37.6806 9.44622 41.4926 12.2135 42.4359 13.0839C45.5683 15.7987 47.3017 21.822 46.1334 31.3445C45.1026 39.7582 39.2389 41.249 37.2709 41.7493L37.2708 41.7493L37.2707 41.7493C37.0778 41.7984 36.9223 41.8379 36.8125 41.8735C36.2805 42.0467 31.5959 43.2184 25.5048 42.7057C24.8327 43.4873 23.9406 44.5097 23.2947 45.2058C23.1 45.4156 22.9177 45.6229 22.7434 45.821C21.8645 46.8204 21.1904 47.5868 20.1617 47.2673C19.1426 46.9517 19.1996 45.4041 19.1996 45.4041L19.2053 41.5813H19.1967C10.2906 39.0761 10.421 29.8367 10.5219 24.9065C10.6227 19.9764 11.5785 15.9998 14.2956 13.2821C19.1768 8.80482 29.1897 9.40862 29.1897 9.40862ZM36.2664 39.0828C37.9461 38.6919 42.6079 37.6072 43.4681 30.6615V30.6592C44.4552 22.7055 43.1052 17.2763 40.4553 15.0075C39.6573 14.2829 36.2156 12.1201 29.0331 12.0887C29.0331 12.0887 20.528 11.5299 16.3993 15.2695C14.1014 17.5384 13.3278 20.9117 13.2424 25.0296C13.2396 25.1656 13.2364 25.3058 13.2331 25.4497C13.1366 29.6608 12.9667 37.0803 20.2517 39.1028C20.2517 39.1028 20.2221 44.9427 20.2187 45.4553C20.2164 45.8142 20.2733 46.0597 20.4807 46.1104C20.6282 46.148 20.8492 46.0717 21.0372 45.8826C22.2414 44.6732 26.0967 40.0222 26.0967 40.0222C31.2706 40.36 35.385 39.3364 35.8276 39.194C35.9313 39.1607 36.0806 39.126 36.2664 39.0828ZM29.336 21.6982C29.3499 21.4333 29.5758 21.2298 29.8406 21.2437C30.8315 21.2954 31.6559 21.5953 32.243 22.2024C32.8279 22.8071 33.1147 23.652 33.165 24.6666C33.1781 24.9315 32.9741 25.1569 32.7092 25.17C32.4443 25.1832 32.2189 24.9791 32.2058 24.7142C32.1627 23.8457 31.9244 23.2544 31.5527 22.8701C31.1833 22.4881 30.6195 22.246 29.7906 22.2028C29.5257 22.1889 29.3222 21.963 29.336 21.6982ZM29.1221 18.6678C28.8576 18.6484 28.6275 18.8472 28.6081 19.1117C28.5887 19.3762 28.7875 19.6063 29.052 19.6256C30.8803 19.7594 32.2534 20.3714 33.2357 21.4435C34.221 22.5201 34.7045 23.8621 34.6689 25.5065C34.6632 25.7716 34.8735 25.9912 35.1386 25.997C35.4038 26.0027 35.6234 25.7924 35.6291 25.5273C35.6695 23.6627 35.1136 22.073 33.9442 20.7951L33.944 20.795C32.7617 19.5044 31.1386 18.8154 29.1221 18.6678ZM27.7603 16.6523C27.7622 16.3871 27.9786 16.1737 28.2438 16.1755C31.0306 16.1949 33.3861 17.1226 35.2774 18.9663C37.1844 20.8254 38.1275 23.3564 38.1515 26.4998C38.1535 26.765 37.9401 26.9816 37.6749 26.9836C37.4097 26.9856 37.1931 26.7723 37.1911 26.5071C37.1687 23.5616 36.2924 21.297 34.607 19.654C32.9058 17.9956 30.7935 17.1537 28.2372 17.1359C27.972 17.134 27.7585 16.9175 27.7603 16.6523ZM30.9492 30.7314C30.5857 31.1792 29.9107 31.1222 29.9107 31.1222C24.9772 29.8627 23.6568 24.8654 23.6568 24.8654C23.6568 24.8654 23.5975 24.1904 24.0475 23.827L24.939 23.1183C25.381 22.7777 25.663 21.9512 25.213 21.144C24.8678 20.5381 24.4925 19.9499 24.0885 19.3816C23.6961 18.8455 22.7818 17.7479 22.7784 17.7445C22.3375 17.2244 21.6893 17.1036 21.0057 17.4596C21.0036 17.4596 21.0008 17.4606 20.9981 17.4614C20.9955 17.4623 20.9931 17.4631 20.9915 17.4631C20.3116 17.8548 19.6986 18.3524 19.1755 18.9373C19.1721 18.9441 19.1687 18.9441 19.1652 18.9504C18.743 19.46 18.5012 19.9594 18.4401 20.4485C18.4274 20.5207 18.423 20.594 18.427 20.6672C18.4247 20.8834 18.4576 21.0985 18.5244 21.3041L18.5478 21.32C18.7608 22.0765 19.294 23.3365 20.4526 25.4373C21.1153 26.6524 21.8796 27.8093 22.7374 28.8955C23.1671 29.44 23.6278 29.9594 24.117 30.4512C24.1229 30.4571 24.1288 30.463 24.1346 30.4689C24.1462 30.4806 24.1577 30.4922 24.1694 30.5036L24.2218 30.5566L24.2742 30.609L24.3266 30.6614C24.8184 31.1506 25.3378 31.6113 25.8823 32.041C26.9687 32.8989 28.1257 33.6632 29.3411 34.3258C31.4413 35.4844 32.7025 36.0176 33.4578 36.2306L33.4738 36.254C33.6793 36.321 33.8944 36.354 34.1106 36.352C34.1838 36.3555 34.2572 36.3509 34.3293 36.3383C34.8196 36.2802 35.3188 36.0389 35.8269 35.6143C35.8299 35.6127 35.8315 35.611 35.833 35.6094C35.8347 35.6076 35.8364 35.6058 35.84 35.604C36.4248 35.0808 36.9226 34.4678 37.3148 33.7881C37.3148 33.7864 37.3154 33.784 37.3161 33.7815C37.3168 33.7787 37.3176 33.7759 37.3176 33.7738C37.6736 33.0903 37.5529 32.442 37.0299 32.0006C37.0293 32.0006 36.9866 31.9654 36.9144 31.9059C36.618 31.6617 35.8239 31.0074 35.3928 30.6904C34.8251 30.2865 34.2374 29.9112 33.6321 29.566C32.8244 29.116 31.9996 29.3979 31.6578 29.84L30.9492 30.7314Z"
          fill="#9A77FF"/>
</svg>
