<svg width="55" height="70" viewBox="0 0 55 70" fill="none" xmlns="http://www.w3.org/2000/svg">
    <path d="M37.9996 25.5326L44.3907 5.81098L29.9651 0L32.2476 26.0153L37.9996 25.5326Z" fill="#288EEA"/>
    <path d="M0.200805 13.4816L29.9468 9.92343L-5.88068e-05 11.3538L0.200805 13.4816Z" fill="white"/>
    <path d="M10.3536 9.69098L30.6955 9.08307L10.4083 7.56326L10.3536 9.69098Z" fill="white"/>
    <path d="M3.70695 2.61056L29.5452 8.29637L4.27301 0.554352L3.70695 2.61056Z" fill="white"/>
    <path d="M48.5541 70L20.6341 65.2618L16.5255 18.2554L54.9999 21.2592L48.5541 70Z" fill="#004C84"/>
    <path d="M20.6342 34.866C19.8856 39.9975 25.3637 45.0218 32.8504 46.0588C40.3371 47.0958 47.0203 43.7881 47.769 38.6386C48.5177 33.4892 43.0396 28.4828 35.5529 27.4458C28.0662 26.4088 21.3829 29.7344 20.6342 34.866Z"
          fill="white"/>
    <path d="M38.8031 40.3909C38.8031 40.3909 39.004 52.0844 37.1779 51.7804C35.3519 51.4765 34.8954 48.7229 34.8954 48.7229C34.8954 48.7229 32.8868 54.1942 31.499 53.2823C30.1112 52.3704 31.499 48.7229 31.499 48.7229C31.499 48.7229 29.673 52.5493 28.4678 51.7804C27.2626 51.0116 28.4678 47.5071 28.4678 47.5071C28.4678 47.5071 26.2217 50.9043 25.4548 49.5812C24.6879 48.258 27.2808 41.3922 27.2808 41.3922L38.8031 40.3909Z"
          fill="white"/>
    <path d="M34.9684 37.3155C34.9648 38.0588 35.1866 38.7865 35.6058 39.4064C36.0249 40.0262 36.6226 40.5102 37.3229 40.7972C38.0233 41.0841 38.7949 41.161 39.5399 41.0181C40.285 40.8753 40.97 40.5191 41.5081 39.9947C42.0462 39.4703 42.4132 38.8013 42.5627 38.0725C42.7121 37.3436 42.6373 36.5877 42.3476 35.9006C42.0579 35.2135 41.5664 34.626 40.9354 34.2126C40.3044 33.7993 39.5623 33.5786 38.8031 33.5786C37.7892 33.5785 36.8166 33.9717 36.098 34.672C35.3794 35.3723 34.9732 36.3227 34.9684 37.3155Z"
          fill="#004C84"/>
    <path d="M24.0489 35.4202C24.0309 36.4107 24.3155 37.3839 24.8663 38.2149C25.4171 39.0458 26.2089 39.6967 27.1401 40.084C28.0713 40.4712 29.0995 40.5772 30.0926 40.3882C31.0858 40.1993 31.9986 39.7241 32.714 39.0236C33.4294 38.3231 33.9147 37.4293 34.1076 36.4568C34.3006 35.4844 34.1924 34.4776 33.7969 33.5658C33.4014 32.654 32.7367 31.8787 31.888 31.3394C31.0394 30.8001 30.0455 30.5213 29.034 30.539C27.7192 30.562 26.4648 31.0836 25.5349 31.9941C24.6051 32.9045 24.0723 34.1328 24.0489 35.4202Z"
          fill="#004C84"/>
    <path d="M34.2014 40.3909L34.9683 44.1278L32.5762 42.7332L34.2014 40.3909Z" fill="#004C84"/>
    <path d="M31.645 9.20817C31.645 10.9962 32.2111 12.4265 32.9232 12.4265C33.6354 12.4265 34.2014 10.9783 34.2014 9.20817C34.2014 7.43806 33.6354 5.98978 32.9232 5.98978C32.2111 5.98978 31.645 7.42018 31.645 9.20817Z"
          fill="#004C84"/>
</svg>
