<svg id="Слой_1" data-name="Слой 1" xmlns="http://www.w3.org/2000/svg" viewBox="0 0 885.87 623.06">
    <defs>
        <style>.cls-1{fill:#B7E3A2;}.cls-2{isolation:isolate;opacity:0.2;}.cls-3{fill:#3f3d56;}.cls-4{fill:#fff;}
        </style>
    </defs>
    <circle class="cls-1" cx="161.35" cy="161.35" r="161.35"/>
    <path class="cls-2" d="M281.38,53.58A161.36,161.36,0,0,1,12.52,224.35,161.36,161.36,0,1,0,281.38,53.58Z"/>
    <polygon class="cls-3" points="161.79 163.35 162.24 163.35 170.22 620.81 153.37 620.81 161.79 163.35"/>
    <rect class="cls-3" x="160.91" y="410.03" width="30.14" height="7.98"
          transform="translate(-172.61 129.65) rotate(-27.77)"/>
    <circle class="cls-1" cx="755.28" cy="229.81" r="130.59"/>
    <path class="cls-2" d="M852.42,142.58A130.61,130.61,0,0,1,634.81,280.8,130.61,130.61,0,1,0,852.42,142.58Z"/>
    <polygon class="cls-3" points="755.63 252.81 755.99 252.81 762.45 623.06 748.82 623.06 755.63 252.81"/>
    <rect class="cls-3" x="754.92" y="431.08" width="24.4" height="6.46"
          transform="translate(-114 407.38) rotate(-27.77)"/>
    <circle class="cls-1" cx="369.91" cy="321.7" r="20.56"/>
    <path class="cls-2" d="M385.2,308a20.56,20.56,0,0,1-34.26,21.76A20.56,20.56,0,1,0,385.2,308Z"/>
    <polygon class="cls-3" points="369.96 321.7 370.02 321.7 371.04 379.99 368.89 379.99 369.96 321.7"/>
    <rect class="cls-3" x="369.85" y="353.39" width="3.84" height="1.02"
          transform="translate(-122.06 213.94) rotate(-27.77)"/>
    <circle class="cls-1" cx="559.88" cy="255.44" r="52.63" transform="translate(218.05 767.17) rotate(-80.78)"/>
    <path class="cls-2" d="M599,220.29a52.63,52.63,0,0,1-87.7,55.7,52.63,52.63,0,1,0,87.7-55.7Z"/>
    <polygon class="cls-3" points="560.02 255.44 560.17 255.44 562.77 404.66 557.27 404.66 560.02 255.44"/>
    <rect class="cls-3" x="559.73" y="336.56" width="9.83" height="2.6"
          transform="translate(-92.38 301.95) rotate(-27.77)"/>
    <path class="cls-3" d="M197.52,596s.68-14.28,14.66-12.62"/>
    <circle class="cls-1" cx="193.58" cy="575.46" r="6.99"/>
    <rect class="cls-3" x="192.44" y="587.23" width="1.97" height="13.82"/>
    <path class="cls-3" d="M246.87,563.47s.68-14.28,14.65-12.62"/>
    <circle class="cls-1" cx="242.92" cy="542.89" r="6.99"/>
    <rect class="cls-3" x="241.78" y="554.66" width="1.97" height="13.82"/>
    <path class="cls-3" d="M395.6,453s.55-11.34,11.64-10"/>
    <circle class="cls-1" cx="392.47" cy="436.64" r="5.55"/>
    <rect class="cls-3" x="391.57" y="445.99" width="1.57" height="10.97"/>
    <path class="cls-3" d="M612.71,417.46s.55-11.34,11.64-10"/>
    <circle class="cls-1" cx="609.58" cy="401.11" r="5.55"/>
    <rect class="cls-3" x="608.68" y="410.47" width="1.57" height="10.97"/>
    <path class="cls-3" d="M405.47,482.59s.54-11.34,11.64-10"/>
    <circle class="cls-1" cx="402.34" cy="466.25" r="5.55"/>
    <rect class="cls-3" x="401.43" y="475.6" width="1.57" height="10.97"/>
    <path class="cls-3" d="M381.79,504.3s.54-11.34,11.64-10"/>
    <circle class="cls-1" cx="378.65" cy="487.96" r="5.55"/>
    <rect class="cls-3" x="377.75" y="497.31" width="1.57" height="10.97"/>
    <path class="cls-3" d="M646.27,436.21s.54-11.34,11.64-10"/>
    <circle class="cls-1" cx="643.13" cy="419.86" r="5.55"/>
    <rect class="cls-3" x="642.23" y="429.22" width="1.57" height="10.97"/>
    <path class="cls-3" d="M326.52,460.88s.55-11.34,11.64-10"/>
    <circle class="cls-1" cx="323.39" cy="444.54" r="5.55"/>
    <rect class="cls-3" x="322.49" y="453.89" width="1.57" height="10.97"/>
    <path class="cls-3" d="M583.11,404.63s.54-11.34,11.64-10"/>
    <circle class="cls-1" cx="579.97" cy="388.28" r="5.55"/>
    <rect class="cls-3" x="579.07" y="397.64" width="1.57" height="10.97"/>
    <path class="cls-3" d="M111.67,599s.68-14.28,14.65-12.62"/>
    <circle class="cls-1" cx="107.72" cy="578.42" r="6.99"/>
    <rect class="cls-3" x="106.58" y="590.19" width="1.97" height="13.82"/>
    <path class="cls-3" d="M791.61,595.05s.68-14.28,14.66-12.62"/>
    <circle class="cls-1" cx="787.67" cy="574.47" r="6.99"/>
    <rect class="cls-3" x="786.53" y="586.24" width="1.97" height="13.82"/>
    <path class="cls-3" d="M734.38,561.5s.68-14.28,14.65-12.62"/>
    <circle class="cls-1" cx="730.43" cy="540.92" r="6.99"/>
    <rect class="cls-3" x="729.29" y="552.69" width="1.97" height="13.82"/>
    <path class="cls-3" d="M726.48,611.83s.68-14.28,14.65-12.62"/>
    <circle class="cls-1" cx="722.53" cy="591.25" r="6.99"/>
    <rect class="cls-3" x="721.4" y="603.02" width="1.97" height="13.82"/>
    <path class="cls-4" d="M461.61,622.8l-1.17-1.62q2.47-1.77,4.86-3.51l1.18,1.62Z"/>
    <path class="cls-4"
          d="M476.12,612.13l-1.21-1.59c3.23-2.45,6.41-4.91,9.46-7.32l1.24,1.57C482.55,607.2,479.36,609.68,476.12,612.13Zm18.82-14.9-1.28-1.54c3.13-2.6,6.19-5.21,9.09-7.76l1.32,1.5C501.16,592,498.08,594.62,494.94,597.23Zm18-15.87-1.37-1.46c3-2.8,5.87-5.6,8.56-8.33l1.42,1.41C518.87,575.72,516,578.54,513,581.36Zm16.86-17.14-1.49-1.33c2.75-3.06,5.34-6.12,7.71-9.1l1.57,1.25C535.22,558.05,532.6,561.14,529.83,564.22Zm14.95-18.87-1.65-1.12c2.33-3.41,4.43-6.81,6.24-10.11l1.75,1C549.28,538.44,547.15,541.89,544.78,545.35Zm11.5-21.21-1.86-.73a69.54,69.54,0,0,0,3.4-11.29l2,.4a70.34,70.34,0,0,1-3.5,11.62Zm2.67-23.7a46.57,46.57,0,0,0-1.6-11.5l1.93-.52a49,49,0,0,1,1.67,12Zm-6-22.3a59.86,59.86,0,0,0-6.66-9.66l1.54-1.29a63.29,63.29,0,0,1,6.88,10ZM538.05,460a108.25,108.25,0,0,0-9.32-7.35l1.15-1.63a110.33,110.33,0,0,1,9.5,7.48ZM518.7,446.25c-3.27-1.92-6.8-3.84-10.48-5.7l.9-1.79c3.72,1.88,7.29,3.82,10.6,5.77Zm-21.29-10.81c-3.49-1.55-7.19-3.11-11-4.63l.74-1.86c3.86,1.54,7.59,3.1,11.1,4.66Zm-22.24-8.88c-3.56-1.29-7.37-2.62-11.32-3.94l.63-1.9c4,1.33,7.79,2.66,11.37,4Zm-22.73-7.65c-3.49-1.1-7.24-2.25-11.47-3.54l.58-1.91c4.24,1.28,8,2.44,11.49,3.54Zm-23-7c-4-1.21-7.9-2.37-11.51-3.48l.58-1.91c3.61,1.11,7.46,2.27,11.5,3.47Zm-23-7.19a95.36,95.36,0,0,1-11.27-4.53l.9-1.79a93.54,93.54,0,0,0,11,4.43Zm-15.11-13.11-1.42-1.4c1.82-1.85,5.43-3.67,11-5.54l.64,1.89c-5.22,1.75-8.66,3.45-10.24,5.05Zm21.68-8.3-.48-1.95c3.46-.86,7.4-1.76,11.71-2.67l.41,1.95c-4.29.91-8.2,1.81-11.64,2.67Zm23.37-5-.38-2c3.69-.7,7.66-1.43,11.8-2.17l.35,2c-4.13.74-8.09,1.46-11.77,2.17ZM460,374.1l-.33-2q5.65-.94,11.83-1.94l.32,2Q465.63,373.16,460,374.1Z"/>
    <path class="cls-4" d="M483.87,370.27l-.31-2,5.93-.91.31,2Z"/>
    <path class="cls-3"
          d="M528.13,167.12l9.08-7.27c-7.05-.78-10,3.07-11.14,6.12-5.51-2.29-11.52.71-11.52.71l18.18,6.6A13.73,13.73,0,0,0,528.13,167.12Z"/>
    <path class="cls-3"
          d="M359.38,223.37l9.08-7.27c-7.06-.77-10,3.07-11.14,6.12-5.52-2.29-11.52.71-11.52.71l18.18,6.6A13.8,13.8,0,0,0,359.38,223.37Z"/>
    <path class="cls-3"
          d="M403.78,106.92l9.09-7.27c-7.06-.77-10,3.07-11.14,6.12-5.52-2.29-11.52.71-11.52.71l18.18,6.6A13.75,13.75,0,0,0,403.78,106.92Z"/>
</svg>